<svg width="50" height="50" viewBox="0 0 50 50" fill="none" xmlns="http://www.w3.org/2000/svg">
<path d="M48.0957 49.9966C49.1439 49.9964 49.9932 49.1464 49.9932 48.0981V1.89307C49.9932 0.844777 49.1439 -0.00422567 48.0957 -0.00439453H1.89355C0.845234 -0.00439453 -0.00488281 0.844673 -0.00488281 1.89307V48.0981C-0.00488281 49.1465 0.845234 49.9966 1.89355 49.9966H48.0957ZM10.7871 34.2661C10.6189 34.266 10.4837 34.1326 10.4834 33.9692V16.021C10.4834 15.856 10.6187 15.7213 10.7871 15.7212H25.7705C27.2164 15.7212 28.5101 15.9586 29.9277 17.3462C31.2828 18.6755 31.4082 20.1865 31.4082 21.2368V33.9692C31.4079 34.1327 31.2708 34.2661 31.1035 34.2661H27.1719C27.0036 34.2661 26.8665 34.1327 26.8662 33.9692V22.5874C26.8661 21.4098 26.1897 19.5845 23.8066 19.5845H15.332C15.1636 19.5845 15.0283 19.7196 15.0283 19.8823V33.9692C15.028 34.1327 14.889 34.2661 14.7217 34.2661H10.7871ZM35.2676 34.2661C35.0993 34.2661 34.9632 34.1327 34.9629 33.9692V16.021C34.9629 15.8559 35.0992 15.7212 35.2676 15.7212H39.2012C39.3681 15.7213 39.5059 15.856 39.5059 16.021V33.9692C39.5056 34.1326 39.3679 34.266 39.2012 34.2661H35.2676ZM18.8838 34.2671C18.7154 34.2671 18.5772 34.1334 18.5771 33.9702V23.1685C18.5772 23.0044 18.7154 22.8706 18.8838 22.8706H23.0146C23.1815 22.8707 23.3183 23.0044 23.3184 23.1685V33.9702C23.3183 34.1333 23.1815 34.267 23.0146 34.2671H18.8838Z" fill="#FF6700"/>
</svg>
