<svg width="172" height="30" viewBox="0 0 172 30" fill="none" xmlns="http://www.w3.org/2000/svg">
<g clip-path="url(#clip0_6_47)">
<path d="M11.8735 0.170074H18.7815C20.2833 0.451323 20.4334 2.84194 18.7815 3.12319H13.2251C11.8226 3.22615 11.3316 3.76938 10.8223 5.37319L5.11568 22.2482C4.51472 23.9356 5.86628 26.7481 9.17037 26.7481H27.0411C29.5645 26.6891 30.6536 25.9009 31.3961 22.67H22.686C21.2155 22.5601 21.531 19.7531 22.686 19.7169H34.8501C35.8737 19.7271 36.1732 20.0077 36.0515 20.9825L35.7512 22.67C34.8498 27.3106 32.3102 29.7609 28.8432 29.8419H7.06795C2.26211 29.7013 0.159744 24.6388 1.06099 21.8263L7.96899 2.42007C8.80619 0.594173 9.66972 0.113452 11.8735 0.170074Z" fill="#D46B41"/>
<path d="M73.9187 19.0226L75.1342 11.3566C75.1084 10.6528 72.8195 10.6044 72.6514 11.3566L71.022 19.9082C70.7259 22.182 71.6555 22.6805 74.6429 22.6255H90.7296C91.7642 22.6255 92.7662 22.1067 93.1228 20.7209L94.7909 11.4771C94.5968 10.6278 92.1523 10.5186 91.9976 11.4771L90.7296 19.0226C90.6005 19.6533 90.4244 19.9011 89.424 19.9082H74.6429C73.9704 19.9082 73.8152 19.726 73.9187 19.0226Z" fill="#D46B41"/>
<path d="M50.2815 10.675H47.7085L45.7787 22.4665H48.6734L50.2815 10.675Z" fill="#D46B41"/>
<path d="M59.9304 14.9079H52.5327V17.6289H59.9304C60.8269 17.5326 61.3242 17.2015 62.1818 16.4196L68.9362 10.675H65.0765L59.9304 14.9079Z" fill="#D46B41"/>
<path d="M63.4686 16.7224L61.2171 18.234L64.1119 22.1645H67.0066L63.4686 16.7224Z" fill="#D46B41"/>
<path d="M120.077 13.2475V10.6752H101.421C99.366 10.6655 98.5854 11.1283 98.2049 13.2475L97.2404 20.9549C97.0207 22.2338 97.5192 22.5348 99.1702 22.6269H116.217C118.359 22.5394 119.017 22.1223 119.111 20.6526V17.6291C119.017 16.7679 118.664 16.4639 117.825 16.4198H109.784V18.5361H116.217C116.86 18.5361 116.86 20.0479 116.217 20.0479H99.4917L100.457 14.001C100.596 13.5078 100.758 13.2753 101.743 13.2475H120.077Z" fill="#D46B41"/>
<path fill-rule="evenodd" clip-rule="evenodd" d="M128.957 10.5416H142.14C144.563 10.5416 146.625 12.0699 146.404 14.051L145.197 20.0697C144.744 21.8433 142.995 22.881 140.822 22.881H126.452C124.211 22.881 122.612 20.8339 122.863 19.0509L124.11 13.1736C124.844 11.1642 126.092 10.5343 128.957 10.5416ZM128.635 13.2303H142.18C143.318 13.2138 143.645 13.4347 143.507 14.3623L142.512 19.1924C142.318 19.9885 141.954 20.2044 140.893 20.2113H127.096C125.938 20.2317 125.583 19.9944 125.719 18.9188L126.845 13.8906C127.137 13.3102 127.56 13.1895 128.635 13.2303Z" fill="#D46B41"/>
<path fill-rule="evenodd" clip-rule="evenodd" d="M154.394 10.5417H167.577C170.001 10.5417 172.062 12.0699 171.841 14.0511L170.634 20.0698C170.181 21.8433 168.432 22.8811 166.259 22.8811H151.89C149.648 22.8811 148.049 20.834 148.3 19.0509L149.547 13.1737C150.281 11.1643 151.529 10.5344 154.394 10.5417ZM154.072 13.2303H167.617C168.756 13.2139 169.083 13.4348 168.945 14.3624L167.949 19.1925C167.755 19.9886 167.391 20.2044 166.33 20.2113H152.533C151.375 20.2318 151.02 19.9945 151.156 18.9189L152.282 13.8907C152.574 13.3103 152.997 13.1896 154.072 13.2303Z" fill="#D46B41"/>
</g>
<defs>
<clipPath id="clip0_6_47">
<rect width="171" height="30" fill="white" transform="translate(0.857147)"/>
</clipPath>
</defs>
</svg>
