<svg version="1.1" xmlns="http://www.w3.org/2000/svg" width="35" height="35" viewBox="0 0 1024 1024" fill="#3756A6">
<g id="icomoon-ignore">
</g>
<path d="M1019.392 816.235l-5.096-15.36c-12.069-35.885-51.637-73.312-87.989-83.173l-134.53-36.758c-36.482-9.929-88.525 3.42-115.217 30.115l-48.692 48.698c-176.947-47.821-315.702-186.607-363.451-363.554l48.692-48.701c26.693-26.696 40.038-78.678 30.111-115.168l-36.684-134.623c-9.925-36.423-47.414-75.996-83.227-87.938l-15.357-5.165c-35.88-11.941-87.050 0.135-113.74 26.83l-72.832 72.913c-13.012 12.945-21.327 49.971-21.327 50.106-2.547 231.28 88.124 454.105 251.691 617.706 163.164 163.195 385.117 253.75 615.681 251.805 1.208 0 39.301-8.185 52.312-21.132l72.83-72.847c26.692-26.692 38.761-77.868 26.825-113.757z"></path>
</svg>
