<svg width="41" height="35" viewBox="0 0 41 35" fill="none" xmlns="http://www.w3.org/2000/svg">
<path d="M38 17.1542C38 16.9792 37.8578 16.8343 37.6828 16.8261C31.4039 16.5883 27.5826 15.7873 24.9092 13.1137C22.2303 10.4347 21.4321 6.61016 21.1943 0.317103C21.1888 0.142144 21.0439 0 20.8662 0H20.1337C19.9587 0 19.8138 0.142144 19.8056 0.317103C19.5678 6.60742 18.7696 10.4347 16.0908 13.1137C13.4147 15.7901 9.59595 16.5883 3.31708 16.8261C3.14213 16.8316 3 16.9765 3 17.1542V17.8868C3 18.0618 3.14213 18.2067 3.31708 18.2149C9.59595 18.4527 13.4174 19.2537 16.0908 21.9273C18.7642 24.6009 19.5623 28.4146 19.8029 34.6828C19.8084 34.8578 19.9532 35 20.1309 35H20.8662C21.0412 35 21.1861 34.8578 21.1943 34.6828C21.4348 28.4146 22.233 24.6009 24.9065 21.9273C27.5826 19.251 31.4011 18.4527 37.6801 18.2149C37.8551 18.2094 37.9973 18.0645 37.9973 17.8868V17.1542H38Z" fill="white"/>
</svg>
