<svg width="42" height="35" viewBox="0 0 42 35" fill="none" xmlns="http://www.w3.org/2000/svg">
<path d="M34.083 10.8662C34.083 10.6767 34.0809 10.5884 34.0732 10.5225C34.0729 10.5197 34.0716 10.517 34.0713 10.5146C34.033 10.4805 33.9158 10.3892 33.6113 10.2393C33.0707 9.97292 32.9288 9.90803 32.8027 9.87695C32.6892 9.84895 32.5703 9.84277 32.0273 9.84277H9.97266C9.4297 9.84277 9.31079 9.84895 9.19727 9.87695C9.07118 9.90803 8.92934 9.97292 8.38867 10.2393C8.08279 10.3899 7.96545 10.4808 7.92773 10.5146C7.92743 10.517 7.92708 10.5198 7.92676 10.5225C7.91908 10.5884 7.91699 10.6767 7.91699 10.8662C7.91702 10.9845 7.94456 11.049 8.00586 11.1279C8.0947 11.2422 8.2441 11.3693 8.53027 11.5791C8.90422 11.8534 9.1051 11.8175 10.0469 11.8916C10.2014 11.9038 10.293 11.9035 10.4062 11.9004C10.5278 11.897 10.7069 11.8887 10.9746 11.8887C11.5299 11.8887 12.01 12.1535 12.333 12.4717C12.655 12.7891 12.9297 13.2676 12.9297 13.8291V21.502C12.9424 21.5261 12.9553 21.553 12.9707 21.5811C13.0589 21.742 13.1828 21.9513 13.332 22.1543C13.4849 22.3624 13.6411 22.5321 13.7842 22.6426C13.909 22.7389 13.9727 22.7515 13.9824 22.7529H28.0176C28.0273 22.7515 28.091 22.7389 28.2158 22.6426C28.3589 22.5321 28.5151 22.3624 28.668 22.1543C28.8172 21.9513 28.9411 21.742 29.0293 21.5811C29.0447 21.553 29.0576 21.5261 29.0703 21.502V13.8291C29.0703 13.2676 29.345 12.7891 29.667 12.4717C29.99 12.1535 30.4701 11.8887 31.0254 11.8887L31.5938 11.9004C31.707 11.9035 31.7986 11.9038 31.9531 11.8916C32.8949 11.8175 33.0958 11.8534 33.4697 11.5791C33.7559 11.3693 33.9053 11.2422 33.9941 11.1279C34.0554 11.049 34.083 10.9845 34.083 10.8662ZM21.2002 11.9248C23.4412 11.9248 25.2578 13.7415 25.2578 15.9824C25.2578 18.2234 23.4412 20.04 21.2002 20.04C18.9593 20.0399 17.1426 18.2233 17.1426 15.9824C17.1426 13.7415 18.9594 11.925 21.2002 11.9248ZM21.2002 13.9248C20.0639 13.925 19.1426 14.8461 19.1426 15.9824C19.1426 17.1187 20.0639 18.0399 21.2002 18.04C22.3366 18.04 23.2578 17.1188 23.2578 15.9824C23.2578 14.846 22.3366 13.9248 21.2002 13.9248ZM35.9873 10.8662C35.9872 12.0841 35.147 12.7111 34.5957 13.1152C33.6748 13.7904 32.7696 13.7385 32.1025 13.791C31.867 13.8096 31.707 13.8092 31.542 13.8047C31.391 13.8005 31.2673 13.7944 31.0498 13.7939C31.0385 13.7999 31.0215 13.8109 31.0039 13.8281C30.9886 13.8432 30.9801 13.8579 30.9746 13.8672V21.1299C31.0196 21.1447 31.0672 21.1599 31.1162 21.1768C31.6441 21.3588 32.3907 21.668 33.1406 22.2959C34.6764 23.582 35.9873 25.9931 35.9873 30.6191C35.9873 31.1451 35.5611 31.5712 35.0352 31.5713C34.5093 31.5713 34.0831 31.1451 34.083 30.6191C34.083 26.3563 32.8875 24.5695 31.917 23.7568C31.4138 23.3354 30.9071 23.1196 30.4951 22.9775C30.4716 22.9694 30.4485 22.9617 30.4258 22.9541C30.3579 23.0594 30.2846 23.1704 30.2031 23.2812C29.9932 23.5669 29.7164 23.8906 29.3799 24.1504C29.0471 24.4072 28.5824 24.6582 28.0176 24.6582H13.9824C13.4176 24.6582 12.9529 24.4072 12.6201 24.1504C12.2836 23.8906 12.0068 23.5669 11.7969 23.2812C11.7124 23.1663 11.6363 23.0513 11.5664 22.9424C11.5346 22.952 11.5047 22.9622 11.4775 22.9707C11.0523 23.1034 10.5407 23.2968 10.0371 23.6689C9.08568 24.3719 7.91699 25.9021 7.91699 29.6318C7.91677 30.1576 7.49061 30.584 6.96484 30.584C6.439 30.5839 6.01291 30.1575 6.0127 29.6318C6.0127 25.4603 7.35042 23.2856 8.90527 22.1367C9.65451 21.5831 10.3956 21.3129 10.9102 21.1523C10.9519 21.1393 10.9904 21.1278 11.0254 21.1172V13.8672C11.0199 13.8579 11.0114 13.8432 10.9961 13.8281C10.9781 13.8105 10.9605 13.7998 10.9492 13.7939C10.7323 13.7944 10.6088 13.8005 10.458 13.8047C10.293 13.8092 10.133 13.8096 9.89746 13.791C9.23043 13.7385 8.32519 13.7904 7.4043 13.1152C6.85299 12.7111 6.01279 12.0841 6.0127 10.8662C6.0127 10.5861 5.98864 10.0626 6.26074 9.58105C6.53696 9.09229 7.01945 8.79008 7.54688 8.53027C7.71496 8.4475 7.87086 8.37348 8.01758 8.30469V5.89258H1.95215C1.42642 5.89245 1.00023 5.46615 1 4.94043C1 4.4146 1.42627 3.98743 1.95215 3.9873H8.01758V3.95215C8.0177 3.42631 8.44389 3.0001 8.96973 3C9.49565 3 9.92175 3.42626 9.92188 3.95215V3.9873H15.9873C16.5133 3.9873 16.9395 4.41452 16.9395 4.94043C16.9392 5.46623 16.5132 5.89258 15.9873 5.89258H9.92188V7.93848H32.0781V5.89258H26.0127C25.4868 5.89258 25.0608 5.46623 25.0605 4.94043C25.0605 4.41452 25.4867 3.9873 26.0127 3.9873H32.0781V3.95215C32.0783 3.42626 32.5044 3 33.0303 3C33.5561 3.0001 33.9823 3.42631 33.9824 3.95215V3.9873H40.0479C40.5737 3.98743 41 4.4146 41 4.94043C40.9998 5.46615 40.5736 5.89245 40.0479 5.89258H33.9824V8.30469C34.1291 8.37348 34.2851 8.44749 34.4531 8.53027C34.9806 8.79008 35.4631 9.09229 35.7393 9.58105C36.0114 10.0626 35.9873 10.5861 35.9873 10.8662Z" fill="#3756A6" stroke="white" stroke-width="0.5"/>
</svg>
