<svg width="413" height="263" viewBox="0 0 413 263" fill="none" xmlns="http://www.w3.org/2000/svg">
<g clip-path="url(#clip0_678_1023)">
<path d="M116.497 74.5248C121.774 75.6451 123.562 81.6967 124.77 86.204C125.505 88.9776 126.036 91.8011 126.359 94.652C126.679 97.4334 126.722 100.223 126.87 103.014C127.03 106.063 127.38 109.126 128.575 111.963C128.603 112.066 128.596 112.174 128.556 112.273C128.516 112.371 128.446 112.454 128.355 112.508C128.118 112.675 127.832 112.757 127.543 112.74C127.255 112.722 126.98 112.607 126.766 112.413C126.303 111.981 126.333 111.284 127.038 111.116C127.744 110.947 128.458 111.613 128.991 111.981C129.753 112.511 130.505 113.059 131.246 113.624C133.913 115.653 136.441 117.877 139.039 119.987C140.684 121.315 142.372 122.583 144.121 123.768C144.645 124.123 144.147 124.979 143.623 124.633C140.774 122.646 138.028 120.514 135.398 118.244C134.134 117.18 132.866 116.116 131.567 115.099C130.839 114.523 130.099 113.963 129.346 113.421C128.956 113.14 128.567 112.863 128.168 112.591C127.995 112.469 127.826 112.34 127.645 112.232C127.463 112.123 127.268 112.115 127.342 112.011V111.522C127.355 111.577 127.383 111.628 127.423 111.669C127.462 111.709 127.512 111.738 127.567 111.753C127.622 111.768 127.68 111.767 127.735 111.752C127.79 111.736 127.839 111.706 127.878 111.665L127.658 112.21C125.601 107.309 126.043 101.885 125.632 96.7024C125.415 93.9238 124.999 91.1642 124.389 88.4447C123.863 85.794 123.08 83.2008 122.051 80.7018C120.939 78.1929 119.116 75.8225 116.363 75.0438C116.292 75.0243 116.231 74.9774 116.195 74.9133C116.158 74.8492 116.149 74.7732 116.168 74.7021C116.188 74.631 116.235 74.5705 116.299 74.534C116.363 74.4975 116.439 74.488 116.51 74.5075L116.497 74.5248Z" fill="#1C2E51"/>
<path d="M92.2627 162.115C88.8349 171.312 84.3779 180.093 78.9766 188.29C74.4656 195.137 68.1537 202.158 59.9543 202.24C54.1576 202.3 48.9713 198.814 44.4387 195.206C31.9873 185.288 21.2105 173.436 12.5199 160.104C10.2428 156.6 7.56306 152.633 3.42873 152.106C2.84274 152.09 2.26517 151.962 1.72738 151.729C-0.00428009 150.734 1.20355 148.087 2.59321 146.677C4.47839 144.772 6.48713 142.993 8.60639 141.352C9.54581 140.625 10.5588 139.903 11.7364 139.747C14.546 139.366 16.6153 142.152 18.3643 144.38C27.4858 156.012 43.6811 159.329 55.084 168.738C56.8157 156.193 62.9414 144.761 68.9373 133.618L80.5221 145.085C81.9334 146.487 85.3837 148.45 84.2754 150.103C82.4572 152.815 83.8165 155.008 84.5135 157.379C85.2105 159.749 86.3361 162.773 88.873 162.699" fill="#6592D2"/>
<path d="M92.5485 162.197C89.9158 169.418 86.6293 176.384 82.73 183.008C79.3403 188.787 75.5912 194.774 70.1755 198.883C67.7622 200.806 64.8933 202.074 61.8462 202.564C58.4652 203.031 55.1231 202.244 52.071 200.791C48.8242 199.242 45.9496 197.027 43.166 194.778C40.3824 192.529 37.5901 190.089 34.9406 187.598C29.6063 182.577 24.6504 177.17 20.1133 171.42C17.8651 168.582 15.725 165.666 13.6932 162.673C11.8879 160.008 10.2818 157.076 7.90081 154.861C6.83171 153.811 5.50883 153.055 4.06086 152.668C2.72316 152.348 0.995827 152.512 0.510963 150.886C0.142982 149.644 0.814011 148.243 1.51966 147.256C2.53268 145.842 3.97427 144.661 5.26868 143.519C6.61663 142.241 8.07389 141.083 9.62379 140.059C10.2504 139.639 10.969 139.376 11.7188 139.292C12.4686 139.209 13.2275 139.307 13.9313 139.578C15.3339 140.154 16.4292 141.274 17.3946 142.412C18.36 143.549 19.2951 144.834 20.3471 145.967C24.542 150.505 29.9145 153.689 35.3259 156.548C40.8759 159.485 46.6076 162.128 51.8069 165.671C53.0537 166.536 54.2616 167.401 55.4261 168.383L54.6295 168.595C56.0192 158.763 60.0626 149.562 64.5866 140.82C65.8853 138.32 67.21 135.837 68.5434 133.358C68.5813 133.296 68.6328 133.243 68.694 133.203C68.7552 133.163 68.8246 133.138 68.8971 133.129C68.9695 133.12 69.043 133.127 69.1122 133.15C69.1814 133.173 69.2445 133.212 69.2967 133.263L76.1627 140.05C78.1454 142.014 80.0589 144.116 82.2235 145.872C83.362 146.785 85.6868 148.403 84.821 150.15C84.5099 150.658 84.2476 151.194 84.0374 151.751C83.861 152.393 83.8285 153.067 83.9422 153.723C84.1283 154.878 84.6175 155.964 84.9595 157.08C85.5439 158.996 86.3751 162.232 88.9033 162.206C89.0213 162.217 89.1307 162.272 89.2104 162.36C89.2901 162.447 89.3342 162.561 89.3342 162.68C89.3342 162.798 89.2901 162.912 89.2104 163C89.1307 163.087 89.0213 163.142 88.9033 163.153C86.6825 163.153 85.44 161.228 84.7257 159.386C84.2928 158.317 84.0071 157.197 83.6305 156.111C83.2538 155.025 82.8512 153.805 82.9291 152.599C82.9628 152.003 83.099 151.418 83.3317 150.868C83.4972 150.512 83.6837 150.165 83.8902 149.83C83.988 149.688 84.0394 149.518 84.0374 149.346C84.0071 148.507 82.9941 147.745 82.4183 147.252C81.6347 146.577 80.7949 145.954 80.0589 145.245C78.8857 144.09 77.7212 142.931 76.5523 141.784L68.6213 133.942L69.3746 133.843C64.7121 142.494 60.002 151.258 57.2963 160.761C56.5333 163.413 55.9547 166.114 55.5646 168.846C55.5084 169.239 55.0062 169.257 54.7638 169.058C50.071 165.199 44.6292 162.401 39.2481 159.645C33.867 156.89 28.5508 154.195 23.8537 150.462C21.5511 148.624 19.4733 146.522 17.663 144.198C16.7366 143.013 15.7669 141.754 14.5027 140.911C13.8893 140.467 13.1577 140.215 12.4008 140.187C11.6439 140.16 10.8959 140.357 10.2515 140.755C8.68438 141.659 7.2774 142.957 5.92239 144.151C5.21529 144.768 4.52695 145.404 3.85738 146.058C3.25645 146.59 2.71109 147.181 2.22964 147.823C1.65387 148.662 0.701454 150.462 1.84435 151.253C2.48505 151.686 3.42014 151.595 4.16042 151.755C4.83937 151.906 5.49574 152.144 6.11287 152.464C8.71036 153.788 10.5459 156.293 12.1347 158.663C14.0612 161.54 15.966 164.421 18.0267 167.202C22.2529 172.896 26.8826 178.279 31.8799 183.311C34.3562 185.805 36.919 188.21 39.5685 190.526C42.1924 192.873 44.938 195.081 47.7938 197.14C50.6121 199.121 53.7118 200.864 57.1318 201.522C60.2214 202.087 63.411 201.652 66.236 200.28C71.9721 197.529 76.0112 192.131 79.3792 186.923C83.4432 180.648 86.9571 174.034 89.8817 167.154C90.6004 165.459 91.306 163.759 91.9641 162.037C92.0983 161.687 92.6654 161.834 92.5355 162.197H92.5485Z" fill="#6592D2"/>
<path d="M101.406 127.839C104.285 128.146 107.241 128.297 110.064 127.666C112.532 132.117 116.371 135.759 120.185 139.194C133.909 151.552 148.948 163.655 156.239 180.616C158.94 186.893 160.455 193.593 161.957 200.263C165.148 214.425 165.949 233.726 169.139 247.889C170.468 253.772 173.837 256.194 178.261 259.568C178.544 259.782 178.758 260.074 178.876 260.409C178.994 260.743 179.01 261.105 178.924 261.449C178.837 261.793 178.65 262.104 178.388 262.342C178.125 262.581 177.798 262.737 177.447 262.791C176.844 262.861 176.236 262.888 175.629 262.873L166.33 262.752C163.408 262.717 158.039 262.795 155.195 262.842C154.545 262.858 153.911 262.636 153.411 262.219C152.912 261.802 152.581 261.218 152.481 260.576C151.987 257.202 153.091 252.072 152.775 249.463C151.909 242.235 147.875 235.837 144.316 229.483C137.032 216.486 131.312 202.673 127.277 188.333C126.956 187.187 126.632 186.01 125.917 185.063C125.129 184.016 123.952 183.333 122.809 182.718L101.007 170.606C99.7952 169.932 98.5484 169.231 97.7259 168.119C96.9034 167.007 96.5917 165.619 96.2973 164.269C95.3405 159.831 94.4747 154.809 97.3363 151.145C97.8876 150.466 98.3009 149.686 98.5528 148.848C98.8731 147.667 98.8385 147.417 98.28 146.292C97.9034 145.535 93.518 142.364 93.1283 141.616C92.5699 140.547 95.5613 141.378 94.2279 138.402C92.4963 134.561 88.5438 133.925 84.6605 125.983C84.4236 125.427 84.3156 124.826 84.3445 124.222C89.8941 126.003 95.6106 127.214 101.406 127.839Z" fill="#6592D2"/>
<path d="M173.798 76.5061C173.797 71.6774 174.391 66.8671 175.568 62.1838L160.771 50.1239L173.759 27.6305L191.634 34.4088C198.594 27.6558 207.124 22.7359 216.457 20.0909L219.487 1.24829H245.462L248.523 20.0909C257.848 22.7412 266.369 27.6607 273.324 34.4088L291.195 27.6305L304.183 50.1239L289.39 62.1838C291.751 71.5848 291.751 81.4231 289.39 90.824L304.183 102.888L291.195 125.382L273.324 118.599C266.378 125.344 257.868 130.265 248.553 132.921L245.492 151.768H219.518L216.457 132.921C207.131 130.273 198.609 125.353 191.655 118.603L173.78 125.386L160.793 102.893L175.59 90.8283C174.405 86.1461 173.803 81.3356 173.798 76.5061Z" fill="#6592D2"/>
<path d="M172.988 76.506C172.999 71.6096 173.602 66.7324 174.784 61.9805L174.992 62.7678L162.031 52.2002L160.2 50.7078C160.073 50.5809 159.992 50.4161 159.969 50.2387C159.945 50.0614 159.981 49.8812 160.07 49.7259L164.459 42.1344L171.455 30.0225L173.066 27.2325C173.158 27.0793 173.297 26.9601 173.462 26.893C173.628 26.8259 173.811 26.8144 173.984 26.8605L189.642 32.8039L191.859 33.6431L191.066 33.8507C198.137 27.0245 206.777 22.0368 216.227 19.3252L215.66 19.8875L218.34 3.37647L218.717 1.04494C218.765 0.873889 218.867 0.723103 219.008 0.615398C219.15 0.507693 219.322 0.448928 219.5 0.447998H245.475C245.653 0.449631 245.825 0.508657 245.966 0.616256C246.107 0.723855 246.21 0.874248 246.259 1.04494L248.938 17.556L249.315 19.8875L248.748 19.3252C258.199 22.035 266.839 27.023 273.909 33.8507L273.121 33.6431L288.797 27.6867L291.009 26.8475C291.182 26.8 291.365 26.8107 291.531 26.8779C291.697 26.9452 291.836 27.0653 291.927 27.2195L296.312 34.8154L303.312 46.9272L304.923 49.7129C305.011 49.868 305.047 50.0477 305.025 50.2249C305.002 50.4021 304.922 50.567 304.797 50.6948L291.831 61.2624L290 62.7548L290.208 61.9675C292.58 71.5135 292.58 81.4943 290.208 91.0402L290 90.253L302.966 100.821L304.797 102.313C304.923 102.44 305.003 102.605 305.026 102.783C305.048 102.96 305.012 103.14 304.923 103.295L300.533 110.891L293.537 123.003L291.927 125.788C291.835 125.942 291.696 126.062 291.531 126.129C291.365 126.196 291.182 126.207 291.009 126.16L275.333 120.221L273.121 119.382L273.909 119.174C266.838 126.001 258.198 130.988 248.748 133.7L249.315 133.133L246.635 149.644L246.259 151.98C246.21 152.15 246.107 152.3 245.966 152.407C245.824 152.514 245.652 152.572 245.475 152.573H219.5C219.323 152.571 219.151 152.513 219.01 152.406C218.869 152.299 218.766 152.15 218.717 151.98L216.024 135.465L215.643 133.133L216.21 133.7C206.76 130.988 198.12 126.001 191.049 119.174L191.841 119.382L176.196 125.321L173.984 126.16C173.811 126.207 173.628 126.196 173.462 126.129C173.296 126.062 173.157 125.942 173.066 125.788L168.68 118.214L161.68 106.102L160.07 103.312C159.981 103.157 159.945 102.977 159.969 102.799C159.992 102.622 160.073 102.457 160.2 102.33L173.165 91.7453L174.997 90.253L174.789 91.0402C173.606 86.2856 173.002 81.4054 172.992 76.506C172.992 76.2915 173.077 76.0858 173.229 75.9341C173.381 75.7824 173.587 75.6971 173.802 75.6971C174.016 75.6971 174.222 75.7824 174.374 75.9341C174.526 76.0858 174.611 76.2915 174.611 76.506C174.62 81.2604 175.201 85.9965 176.343 90.612C176.382 90.7498 176.383 90.8956 176.347 91.034C176.31 91.1725 176.237 91.2986 176.135 91.3993L163.148 101.967L161.317 103.459L161.442 102.477L165.832 110.073L172.828 122.185L174.464 124.971L173.546 124.599L189.214 118.647L191.426 117.807C191.564 117.768 191.71 117.766 191.848 117.803C191.987 117.839 192.113 117.913 192.214 118.015C199.083 124.646 207.476 129.491 216.656 132.125C216.792 132.161 216.917 132.232 217.017 132.332C217.116 132.431 217.188 132.556 217.223 132.692L219.92 149.216L220.297 151.548L219.517 150.955H245.492L244.713 151.548L247.393 135.037L247.769 132.705C247.805 132.569 247.876 132.444 247.976 132.345C248.076 132.245 248.2 132.174 248.337 132.138C257.517 129.504 265.91 124.659 272.779 118.028C272.879 117.926 273.006 117.852 273.144 117.816C273.283 117.779 273.429 117.781 273.567 117.82L289.23 123.76L291.442 124.599L290.528 124.971L294.914 117.379L301.914 105.267L303.524 102.477L303.65 103.459L290.663 92.8916L288.831 91.3993C288.729 91.2986 288.656 91.1725 288.62 91.034C288.583 90.8956 288.585 90.7498 288.624 90.612C290.927 81.3488 290.927 71.6633 288.624 62.4001C288.585 62.2623 288.583 62.1165 288.62 61.9781C288.656 61.8396 288.729 61.7134 288.831 61.6128L301.797 51.0452L303.628 49.5485L303.503 50.5305L299.143 42.9476L292.147 30.8357L290.537 28.0457L291.45 28.4177L275.766 34.3525L273.554 35.1917C273.416 35.2298 273.27 35.2306 273.132 35.1941C272.993 35.1577 272.867 35.0852 272.766 34.984C265.9 28.3582 257.512 23.5175 248.337 20.8867C248.2 20.852 248.076 20.7816 247.976 20.6827C247.877 20.5838 247.805 20.4601 247.769 20.3244L245.09 3.81336L244.713 1.47751L245.492 2.07444H219.517L220.297 1.47751L217.621 17.9885L217.24 20.3244C217.205 20.4601 217.133 20.5838 217.033 20.6827C216.934 20.7816 216.809 20.852 216.673 20.8867C207.487 23.513 199.088 28.354 192.214 34.984C192.113 35.0855 191.986 35.1583 191.848 35.1948C191.709 35.2313 191.564 35.2302 191.426 35.1917L175.763 29.2482L173.551 28.4091L174.468 28.037L170.079 35.6329L163.083 47.7447L161.468 50.5348L161.342 49.5529L174.308 60.1205L176.139 61.6128C176.241 61.7134 176.315 61.8396 176.351 61.9781C176.388 62.1165 176.386 62.2623 176.347 62.4001C175.205 67.0155 174.623 71.7516 174.616 76.506C174.603 77.5528 172.984 77.5528 172.988 76.506Z" fill="#6592D2"/>
<path d="M232.497 97.9656C220.635 97.9656 211.02 88.3578 211.02 76.506C211.02 64.6542 220.635 55.0464 232.497 55.0464C244.358 55.0464 253.974 64.6542 253.974 76.506C253.974 88.3578 244.358 97.9656 232.497 97.9656Z" fill="white"/>
<path d="M211.834 76.506C211.853 81.8199 213.93 86.9201 217.63 90.7374C221.33 94.5547 226.365 96.7927 231.68 96.9824C236.995 97.172 242.177 95.2986 246.14 91.7547C250.103 88.2108 252.539 83.2717 252.937 77.9727C253.336 72.6737 251.666 67.4262 248.278 63.3302C244.89 59.2342 240.046 56.6078 234.763 56.0014C229.479 55.3951 224.166 56.8559 219.937 60.0777C215.707 63.2994 212.89 68.032 212.076 73.2834C211.913 74.3498 211.832 75.4271 211.834 76.506C211.819 76.7108 211.727 76.9025 211.576 77.0423C211.426 77.1822 211.228 77.2599 211.022 77.2599C210.817 77.2599 210.619 77.1822 210.468 77.0423C210.317 76.9025 210.225 76.7108 210.21 76.506C210.204 70.7431 212.429 65.2012 216.421 61.0419C220.414 56.8826 225.862 54.4288 231.625 54.1947C237.387 53.9606 243.017 55.9644 247.334 59.7862C251.651 63.6079 254.32 68.951 254.781 74.6954C255.242 80.4398 253.46 86.1397 249.809 90.6003C246.157 95.061 240.919 97.9363 235.193 98.6234C229.466 99.3105 223.696 97.7562 219.091 94.2862C214.487 90.8162 211.405 85.7 210.492 80.0097C210.312 78.8503 210.218 77.6792 210.21 76.506C210.225 76.3011 210.317 76.1095 210.468 75.9696C210.619 75.8297 210.817 75.752 211.022 75.752C211.228 75.752 211.426 75.8297 211.576 75.9696C211.727 76.1095 211.819 76.3011 211.834 76.506Z" fill="#6592D2"/>
<path d="M331.755 61.9803C334.094 59.6504 336.711 57.6165 339.547 55.9244L338.248 42.9474L355.379 38.3276L360.734 50.2362C367.359 50.3332 373.856 52.0707 379.644 55.2929L390.233 47.6624L402.787 60.2068L395.151 70.7874C398.375 76.5706 400.114 83.0625 400.211 89.6818L412.134 95.0413L407.536 112.184L394.549 110.886C391.142 116.57 386.384 121.324 380.696 124.728L381.994 137.705L364.838 142.299L359.478 130.395C352.854 130.298 346.356 128.56 340.569 125.338L329.98 132.969L317.425 120.424L325.057 109.844C321.833 104.061 320.096 97.5684 320.001 90.9493L308.083 85.5984L312.68 68.4558L325.668 69.7535C327.369 66.9224 329.414 64.3117 331.755 61.9803Z" fill="#1C2E51"/>
<path d="M331.18 61.3879C333.569 59.0124 336.236 56.934 339.124 55.1978L338.721 55.8943L337.57 44.5437L337.405 42.9216C337.406 42.7445 337.465 42.5727 337.573 42.4322C337.681 42.2916 337.832 42.1901 338.002 42.143L353.055 38.1115L355.159 37.5492C355.331 37.5019 355.514 37.5128 355.679 37.5801C355.844 37.6474 355.982 37.7673 356.072 37.9212L360.774 48.3547L361.436 49.8254L360.735 49.4274C367.5 49.544 374.132 51.3174 380.051 54.5923H379.233L388.502 47.9178L389.827 46.9618C389.982 46.8725 390.162 46.8363 390.339 46.859C390.517 46.8817 390.682 46.9618 390.809 47.0872L401.831 58.0874L403.368 59.6273C403.494 59.7548 403.574 59.9198 403.597 60.0971C403.619 60.2745 403.583 60.4544 403.494 60.6092L396.814 69.8662L395.857 71.1898V70.3722C399.143 76.2844 400.927 82.9119 401.052 89.6733L400.649 88.9769L411.07 93.6789L412.542 94.3407C412.695 94.4319 412.815 94.5709 412.882 94.7366C412.95 94.9022 412.961 95.0853 412.914 95.2578L408.883 110.298L408.321 112.4C408.272 112.571 408.169 112.72 408.028 112.827C407.887 112.934 407.714 112.992 407.537 112.993L396.177 111.842L394.554 111.678L395.251 111.293C391.758 117.084 386.903 121.935 381.108 125.425L381.515 124.703L382.666 136.057L382.831 137.679C382.83 137.857 382.772 138.029 382.665 138.17C382.558 138.311 382.408 138.414 382.238 138.462L367.181 142.494L365.077 143.056C364.905 143.101 364.723 143.088 364.559 143.021C364.394 142.954 364.255 142.836 364.163 142.684L359.466 132.251L358.804 130.776L359.505 131.178C352.74 131.056 346.107 129.278 340.189 126H341.007L331.738 132.675L330.413 133.626C330.26 133.717 330.08 133.754 329.903 133.731C329.726 133.708 329.561 133.627 329.435 133.501L318.413 122.488L316.872 120.952C316.746 120.825 316.666 120.66 316.644 120.482C316.621 120.305 316.657 120.125 316.746 119.97L323.426 110.709L324.383 109.39V110.207C321.104 104.292 319.329 97.6628 319.214 90.9018L319.612 91.6026L309.17 86.9136L307.698 86.2474C307.544 86.1575 307.424 86.0193 307.357 85.8543C307.29 85.6892 307.279 85.5066 307.326 85.3347L311.361 70.2901L311.924 68.1921C311.971 68.0214 312.072 67.8707 312.213 67.763C312.354 67.6553 312.526 67.5963 312.703 67.5952L324.063 68.7501L325.686 68.9145L324.985 69.3125C326.725 66.4326 328.805 63.772 331.18 61.3879C331.916 60.6482 333.063 61.7945 332.327 62.5342C330.044 64.8201 328.048 67.3751 326.383 70.143C326.311 70.2653 326.209 70.3668 326.086 70.4373C325.963 70.5079 325.824 70.5451 325.682 70.5453L314.322 69.3947L312.699 69.2303L313.482 68.6333L309.447 83.678L308.885 85.7802L308.512 84.8632L318.954 89.5565L320.426 90.2184C320.549 90.2883 320.651 90.3896 320.722 90.512C320.793 90.6344 320.83 90.7735 320.829 90.9148C320.94 97.3891 322.639 103.737 325.777 109.403C325.85 109.527 325.889 109.668 325.889 109.811C325.889 109.955 325.85 110.096 325.777 110.22L319.097 119.477L318.14 120.801L318.015 119.819L329.037 130.832L330.574 132.368L329.595 132.242L338.864 125.568L340.189 124.612C340.313 124.539 340.454 124.501 340.598 124.501C340.741 124.501 340.883 124.539 341.007 124.612C346.675 127.748 353.027 129.447 359.505 129.56C359.647 129.559 359.787 129.595 359.91 129.665C360.033 129.734 360.135 129.836 360.207 129.958L364.899 140.392L365.562 141.867L364.648 141.495L379.705 137.463L381.805 136.901L381.212 137.679L380.06 126.329L379.896 124.707C379.893 124.566 379.929 124.427 379.999 124.304C380.069 124.182 380.171 124.08 380.294 124.01C385.852 120.664 390.508 116.012 393.857 110.458C393.927 110.335 394.028 110.234 394.151 110.164C394.274 110.094 394.413 110.058 394.554 110.06L405.914 111.211L407.537 111.375L406.758 111.968L410.788 96.9231L411.355 94.8252L411.728 95.7206L401.286 91.0489L399.81 90.3871C399.687 90.3161 399.585 90.2139 399.514 90.0908C399.443 89.9678 399.406 89.8282 399.407 89.6863C399.298 83.2132 397.598 76.866 394.459 71.2028C394.386 71.0789 394.347 70.9378 394.347 70.794C394.347 70.6502 394.386 70.5091 394.459 70.3852L401.143 61.1153L402.095 59.8176L402.221 60.7996L391.199 49.7864L389.662 48.2465L390.645 48.372L381.376 55.0594L380.051 56.0111C379.928 56.0846 379.786 56.1233 379.642 56.1233C379.498 56.1233 379.357 56.0846 379.233 56.0111C373.565 52.876 367.213 51.1783 360.735 51.0668C360.593 51.0681 360.454 51.0315 360.331 50.9607C360.209 50.89 360.107 50.7877 360.038 50.6646L355.341 40.2311L354.678 38.7603L355.592 39.1323L340.539 43.1639L338.435 43.7262L339.028 42.9432L340.184 54.2981L340.349 55.9159C340.349 56.0577 340.312 56.1971 340.241 56.3201C340.171 56.4431 340.069 56.5454 339.946 56.6167C337.177 58.2818 334.62 60.276 332.331 62.5558C331.591 63.2782 330.444 62.1232 331.18 61.3879Z" fill="#1C2E51"/>
<path d="M360.119 104.964C352.014 104.964 345.443 98.3991 345.443 90.3005C345.443 82.2018 352.014 75.6365 360.119 75.6365C368.224 75.6365 374.795 82.2018 374.795 90.3005C374.795 98.3991 368.224 104.964 360.119 104.964Z" fill="#6592D2"/>
<path d="M350.318 80.5073C347.805 83.038 346.369 86.4429 346.313 90.008C346.257 93.5731 347.584 97.0214 350.017 99.6298C352.45 102.238 355.799 103.804 359.362 103.999C362.925 104.194 366.426 103.002 369.129 100.675C371.832 98.3474 373.528 95.0644 373.862 91.5145C374.196 87.9646 373.141 84.4235 370.918 81.6338C368.696 78.8442 365.479 77.0227 361.942 76.5514C358.405 76.0801 354.822 76.9956 351.946 79.1058C351.367 79.5292 350.823 79.9979 350.318 80.5073C349.574 81.2384 348.426 80.0964 349.171 79.361C352.002 76.5349 355.817 74.9137 359.818 74.8373C363.819 74.7609 367.693 76.2353 370.63 78.9513C373.566 81.6672 375.336 85.4138 375.569 89.4053C375.801 93.3967 374.477 97.323 371.876 100.361C369.274 103.398 365.596 105.311 361.614 105.699C357.631 106.086 353.653 104.918 350.514 102.438C347.375 99.959 345.318 96.3615 344.776 92.4002C344.233 88.4389 345.247 84.4216 347.604 81.1908C348.082 80.5447 348.606 79.9333 349.171 79.361C349.907 78.6213 351.05 79.7633 350.318 80.5073Z" fill="#1C2E51"/>
<path d="M293.429 142.005C295.741 142.004 298.044 142.287 300.286 142.849L306.07 135.763L316.832 141.975L313.59 150.514C316.818 153.837 319.172 157.908 320.443 162.362L329.447 163.824V176.243L320.43 177.705C319.159 182.159 316.805 186.229 313.577 189.553L316.819 198.096L306.07 204.295L300.299 197.226C295.798 198.351 291.09 198.351 286.589 197.226L280.805 204.295L270.038 198.087L273.285 189.544C270.057 186.221 267.703 182.15 266.432 177.696L257.415 176.234V163.824L266.432 162.362C267.703 157.908 270.057 153.837 273.285 150.514L270.038 141.975L280.805 135.763L286.589 142.831C288.826 142.277 291.124 142 293.429 142.005Z" fill="white"/>
<path d="M293.429 141.179C295.812 141.185 298.185 141.475 300.499 142.044L299.711 142.252L305.486 135.183C305.612 135.057 305.776 134.976 305.953 134.952C306.13 134.929 306.31 134.964 306.465 135.054L315.902 140.5L317.231 141.265C317.385 141.356 317.504 141.494 317.571 141.659C317.639 141.824 317.65 142.006 317.603 142.178L314.357 150.721L314.149 149.93C317.471 153.364 319.899 157.56 321.223 162.15L320.655 161.583L329.677 163.045C329.848 163.092 329.998 163.194 330.105 163.335C330.212 163.475 330.27 163.647 330.27 163.824V176.243C330.272 176.424 330.214 176.601 330.104 176.746C329.994 176.891 329.84 176.995 329.664 177.043L320.642 178.501L321.223 177.908C319.901 182.491 317.477 186.682 314.162 190.115L314.37 189.328L317.616 197.867C317.664 198.038 317.653 198.221 317.585 198.386C317.518 198.551 317.398 198.689 317.244 198.779L307.802 204.234L306.469 205.004C306.314 205.092 306.135 205.128 305.959 205.105C305.782 205.082 305.618 205.003 305.49 204.878L299.711 197.806L300.499 198.014C295.857 199.161 291.006 199.161 286.364 198.014L287.152 197.806L281.394 204.878C281.267 205.003 281.103 205.082 280.926 205.105C280.75 205.128 280.571 205.092 280.416 205.004L270.979 199.562L269.65 198.792C269.496 198.702 269.376 198.564 269.309 198.399C269.242 198.234 269.231 198.051 269.277 197.88L272.524 189.341L272.732 190.128C269.409 186.693 266.979 182.498 265.654 177.908L266.217 178.47L257.199 177.043C257.028 176.995 256.878 176.892 256.771 176.751C256.664 176.61 256.606 176.437 256.606 176.26V163.824C256.606 163.647 256.664 163.475 256.771 163.335C256.878 163.194 257.029 163.092 257.199 163.045L266.217 161.583L265.654 162.15C266.975 157.564 269.399 153.372 272.715 149.938L272.507 150.73L269.26 142.187C269.213 142.015 269.225 141.832 269.292 141.668C269.359 141.503 269.479 141.364 269.632 141.274L279.065 135.832L280.399 135.084C280.554 134.996 280.733 134.96 280.91 134.984C281.087 135.007 281.251 135.088 281.377 135.214L287.152 142.26L286.364 142.053C288.677 141.484 291.048 141.194 293.429 141.187C293.644 141.187 293.85 141.273 294.002 141.424C294.154 141.576 294.239 141.782 294.239 141.996C294.239 142.211 294.154 142.417 294.002 142.568C293.85 142.72 293.644 142.805 293.429 142.805C291.192 142.811 288.964 143.085 286.793 143.623C286.655 143.662 286.509 143.663 286.371 143.627C286.232 143.59 286.106 143.517 286.005 143.415L280.234 136.343L281.213 136.472L271.779 141.914L270.45 142.68L270.823 141.767L274.07 150.306C274.109 150.444 274.109 150.59 274.072 150.729C274.035 150.867 273.961 150.993 273.857 151.093C270.74 154.326 268.46 158.272 267.217 162.586C267.18 162.722 267.109 162.846 267.009 162.946C266.91 163.045 266.785 163.117 266.649 163.153L257.632 164.611L258.225 163.832V176.251L257.632 175.473L266.649 176.93C266.785 176.968 266.908 177.04 267.008 177.139C267.107 177.238 267.179 177.362 267.217 177.497C268.46 181.812 270.74 185.757 273.857 188.99C273.961 189.09 274.035 189.216 274.072 189.355C274.109 189.493 274.109 189.639 274.07 189.778L270.823 198.316L270.45 197.404L279.884 202.845L281.213 203.615L280.234 203.741L286.005 196.673C286.106 196.57 286.232 196.497 286.37 196.46C286.509 196.422 286.655 196.423 286.793 196.461C291.153 197.538 295.71 197.538 300.07 196.461C300.209 196.423 300.355 196.422 300.493 196.46C300.632 196.497 300.758 196.57 300.858 196.673L306.629 203.732L305.646 203.607L315.084 198.161L316.413 197.395L316.041 198.308L312.794 189.769C312.755 189.631 312.754 189.485 312.791 189.347C312.827 189.209 312.9 189.083 313.002 188.982C316.124 185.746 318.406 181.796 319.647 177.475C319.684 177.34 319.756 177.217 319.856 177.117C319.955 177.018 320.078 176.946 320.214 176.909L329.231 175.451L328.638 176.23V163.824L329.231 164.602L320.214 163.144C320.078 163.108 319.954 163.037 319.854 162.937C319.755 162.838 319.683 162.714 319.647 162.578C318.402 158.263 316.119 154.319 312.997 151.089C312.896 150.988 312.823 150.862 312.786 150.723C312.75 150.585 312.751 150.439 312.789 150.302L316.028 141.758L316.4 142.671L306.98 137.247L305.646 136.481L306.629 136.351L300.876 143.407C300.775 143.508 300.649 143.581 300.51 143.618C300.371 143.654 300.226 143.653 300.088 143.614C297.915 143.076 295.685 142.802 293.447 142.797C292.39 142.792 292.386 141.174 293.429 141.179Z" fill="#6592D2"/>
<path d="M293.43 180.296C287.758 180.296 283.161 175.702 283.161 170.035C283.161 164.369 287.758 159.775 293.43 159.775C299.101 159.775 303.698 164.369 303.698 170.035C303.698 175.702 299.101 180.296 293.43 180.296Z" fill="#1C2E51"/>
<path d="M293.43 160.605C291.479 160.607 289.577 161.21 287.984 162.334C286.39 163.457 285.183 165.045 284.527 166.88C283.872 168.716 283.8 170.708 284.322 172.586C284.844 174.464 285.934 176.134 287.443 177.369C288.951 178.604 290.805 179.342 292.75 179.484C294.695 179.625 296.637 179.162 298.308 178.158C299.98 177.155 301.3 175.659 302.089 173.877C302.877 172.094 303.094 170.112 302.711 168.201C302.267 166.065 301.103 164.146 299.414 162.764C297.725 161.382 295.613 160.62 293.43 160.605C292.391 160.605 292.386 158.979 293.43 158.983C295.714 158.982 297.943 159.685 299.811 160.998C301.68 162.311 303.097 164.168 303.868 166.317C304.64 168.465 304.728 170.799 304.121 172.999C303.514 175.199 302.242 177.158 300.478 178.608C298.714 180.058 296.545 180.928 294.267 181.099C291.989 181.27 289.714 180.734 287.753 179.564C285.793 178.393 284.241 176.646 283.312 174.561C282.383 172.476 282.122 170.155 282.563 167.916C283.083 165.411 284.444 163.16 286.42 161.535C288.397 159.91 290.87 159.01 293.43 158.983C294.473 158.957 294.477 160.575 293.43 160.605Z" fill="#1C2E51"/>
<path d="M126.589 47.5285C126.784 49.2295 127.129 50.91 127.619 52.5506C127.85 53.3638 128.154 54.1543 128.528 54.9124C128.901 55.6304 129.476 56.2923 129.299 57.1574C129.184 57.5501 128.98 57.9109 128.702 58.2112C128.424 58.5114 128.08 58.7431 127.697 58.8877C127.264 59.065 126.901 59.052 126.901 59.5798C126.901 60.1075 126.944 60.7391 126.901 61.31C126.84 62.3436 126.662 63.3668 126.368 64.3596C126.091 65.2767 125.749 66.2802 125.069 66.955C123.338 68.6463 120.74 67.7509 118.615 67.9975C118.017 68.071 118.021 67.1324 118.615 67.0632C120.398 66.8512 122.848 67.6904 124.342 66.3408C125.056 65.6962 125.346 64.6105 125.58 63.7108C125.847 62.7227 125.992 61.7059 126.013 60.6828C126.013 59.9388 125.749 58.8877 126.446 58.3599C127.143 57.8322 128.108 57.9274 128.394 56.993C128.524 56.5605 128.256 56.1885 128.048 55.8338C127.864 55.5271 127.699 55.2093 127.554 54.8821C127.245 54.1801 126.984 53.4574 126.775 52.7193C126.252 51.0112 125.96 49.2406 125.909 47.455C125.909 46.9878 126.567 47.0224 126.619 47.455L126.589 47.5285Z" fill="#1C2E51"/>
<path d="M123.359 53.1085C123.359 53.1085 123.359 53.1085 123.338 53.1301L123.416 52.8317C123.431 52.8862 123.432 52.9439 123.417 52.9987C123.403 53.0535 123.374 53.1034 123.333 53.1431L123.307 53.1734L123.359 53.1085C123.344 53.129 123.331 53.1507 123.32 53.1734L123.355 53.0912C123.344 53.1253 123.336 53.1599 123.329 53.195V53.0999V53.1691V53.0739C123.327 53.0955 123.327 53.1172 123.329 53.1388L123.29 53.0523C123.3 53.0757 123.313 53.0976 123.329 53.1172L123.268 53.0393L123.325 53.0955L123.247 53.035C123.265 53.0528 123.287 53.0661 123.312 53.0739L123.216 53.035H123.281H123.177L122.835 53.2296C122.85 53.1952 122.867 53.1619 122.887 53.1301C122.925 53.0739 122.967 53.0205 123.013 52.9701L123.091 52.9095C123.135 52.8816 123.186 52.8652 123.238 52.862C123.272 52.8533 123.308 52.8533 123.342 52.862C123.393 52.8645 123.442 52.881 123.485 52.9095C123.541 52.9445 123.588 52.9918 123.623 53.048C123.652 53.0903 123.668 53.1397 123.671 53.1907C123.684 53.2418 123.684 53.2953 123.671 53.3464L123.649 53.3983C123.633 53.4455 123.614 53.4917 123.593 53.5368C123.593 53.567 123.55 53.5973 123.528 53.6276L123.463 53.7054C123.43 53.7444 123.387 53.7729 123.338 53.7876C123.307 53.806 123.273 53.8164 123.238 53.8179C123.187 53.8309 123.133 53.8309 123.082 53.8179C123.036 53.803 122.991 53.7842 122.948 53.7617C122.897 53.7304 122.851 53.6925 122.809 53.6492C122.77 53.6041 122.735 53.5548 122.706 53.5021C122.686 53.4618 122.67 53.4199 122.658 53.3767C122.654 53.3321 122.654 53.2872 122.658 53.2426C122.649 53.1823 122.649 53.1212 122.658 53.0609C122.669 53.0038 122.691 52.9493 122.723 52.9009C122.781 52.8012 122.867 52.7202 122.97 52.6673L123.043 52.637C123.086 52.6262 123.13 52.6262 123.173 52.637C123.202 52.6375 123.23 52.6449 123.255 52.6586C123.295 52.6708 123.33 52.695 123.355 52.7278L123.056 52.65H123.164H123.247L123.316 52.6803C123.371 52.7126 123.414 52.763 123.437 52.823C123.452 52.8723 123.452 52.9251 123.437 52.9744C123.43 53.0374 123.402 53.0964 123.359 53.1431V53.1085Z" fill="#1C2E51"/>
<path d="M124.246 50.3618C124.245 50.4378 124.219 50.5115 124.173 50.5721C124.128 50.6327 124.064 50.6772 123.991 50.6992C123.83 50.7489 123.658 50.7489 123.497 50.6992L123.25 50.656C123.204 50.6431 123.156 50.6345 123.108 50.63C123.216 50.63 123.108 50.63 123.064 50.63C122.899 50.617 122.732 50.617 122.566 50.63C122.526 50.6279 122.486 50.6279 122.445 50.63H122.411C122.294 50.6516 122.177 50.6776 122.056 50.6906C121.936 50.6911 121.82 50.6471 121.732 50.5672C121.643 50.4872 121.587 50.3769 121.575 50.258C121.56 50.1421 121.587 50.0247 121.652 49.927C121.716 49.8294 121.813 49.7581 121.926 49.7259C122.129 49.6748 122.34 49.6558 122.549 49.6697C122.75 49.6754 122.95 49.6986 123.147 49.7389C123.338 49.7778 123.524 49.8388 123.701 49.9206L123.826 49.9812C123.826 50.0071 123.982 49.9812 123.852 49.9812C123.722 49.9812 123.787 49.9812 123.895 49.9812C123.944 49.9817 123.992 49.9905 124.038 50.0071L123.718 50.1369C123.752 50.0771 123.807 50.0318 123.872 50.0097C123.937 49.9875 124.008 49.99 124.072 50.0166C124.135 50.0433 124.187 50.0922 124.216 50.1542C124.246 50.2163 124.252 50.287 124.233 50.3532L124.246 50.3618Z" fill="#1C2E51"/>
<path d="M123.852 60.0945C123.757 60.0599 123.657 60.0383 123.558 60.008C123.457 59.9783 123.354 59.9552 123.25 59.9388H123.35C123.301 59.9346 123.252 59.9346 123.203 59.9388C123.123 59.9317 123.045 59.9157 122.969 59.8912C122.892 59.8697 122.825 59.8239 122.776 59.7607C122.728 59.6975 122.701 59.6204 122.701 59.5408C122.704 59.4758 122.722 59.4124 122.752 59.3548C122.776 59.3137 122.807 59.2777 122.844 59.2487C122.881 59.2197 122.923 59.1985 122.969 59.1861C123.036 59.1732 123.104 59.1645 123.172 59.1602C123.242 59.1649 123.31 59.178 123.376 59.1991C123.456 59.2178 123.534 59.2439 123.61 59.2769C123.71 59.3101 123.806 59.3552 123.895 59.411C123.978 59.4759 124.06 59.5408 124.133 59.61C124.178 59.6559 124.206 59.7148 124.214 59.778C124.221 59.8412 124.208 59.9052 124.177 59.9604C124.15 60.0008 124.114 60.0348 124.073 60.0599C124.04 60.0797 124.004 60.0926 123.966 60.0978C123.928 60.103 123.889 60.1004 123.852 60.0902V60.0945Z" fill="#1C2E51"/>
<path d="M115.705 53.0394C115.538 52.6348 115.255 52.2882 114.893 52.0422C114.531 51.7962 114.104 51.6617 113.666 51.6552C113.24 51.6607 112.825 51.7974 112.479 52.0466C112.133 52.2958 111.871 52.6454 111.731 53.048C111.586 53.4858 111.554 53.953 111.637 54.4065C111.721 54.86 111.917 55.2853 112.207 55.6434C112.467 55.9811 112.808 56.2475 113.199 56.4177C113.592 56.5605 114.017 56.5948 114.428 56.5172C114.529 56.5077 114.631 56.5342 114.715 56.5921C114.798 56.65 114.859 56.7355 114.886 56.8337C114.913 56.9318 114.904 57.0363 114.862 57.1287C114.819 57.2212 114.745 57.2956 114.653 57.3391C113.813 57.7976 112.722 57.3737 112.034 56.833C111.247 56.1836 110.747 55.2517 110.64 54.2376C110.581 53.7567 110.632 53.2687 110.789 52.8102C110.945 52.3518 111.204 51.9347 111.545 51.5903C111.888 51.262 112.305 51.0213 112.761 50.8887C113.217 50.7562 113.698 50.7357 114.164 50.829C114.655 50.9365 115.107 51.1752 115.472 51.5196C115.837 51.864 116.102 52.3011 116.238 52.7841C116.324 53.0913 115.844 53.3162 115.705 53.0091V53.0394Z" fill="#1C2E51"/>
<path d="M113.463 53.4114C113.57 53.438 113.672 53.485 113.762 53.5498C113.853 53.6105 113.939 53.68 114.017 53.7574C114.096 53.8354 114.167 53.9209 114.229 54.0126C114.295 54.1064 114.349 54.2081 114.389 54.3154C114.415 54.4101 114.402 54.511 114.355 54.5966C114.307 54.6776 114.229 54.7366 114.138 54.761C114.044 54.787 113.942 54.7745 113.857 54.7264L113.783 54.6701C113.741 54.6247 113.71 54.5699 113.692 54.5101L113.727 54.5966C113.675 54.4722 113.608 54.3545 113.528 54.2462L113.584 54.3198C113.509 54.2252 113.423 54.1396 113.329 54.0646L113.398 54.1165L113.307 54.0516C113.258 54.0178 113.212 53.9802 113.169 53.9391L113.121 53.8785C113.098 53.8437 113.086 53.8032 113.086 53.7618C113.072 53.6948 113.084 53.6249 113.121 53.5671C113.156 53.5095 113.208 53.4646 113.271 53.4389C113.333 53.4132 113.402 53.4081 113.467 53.4244L113.463 53.4114Z" fill="#1C2E51"/>
<path d="M115.752 52.5764C116.804 51.1489 116.618 49.0336 117.8 47.723C118.133 47.3553 118.553 47.0784 118.861 46.6891C119.527 45.824 119.506 44.6604 119.458 43.579C120.818 44.6517 122.313 45.5417 123.904 46.2263C124.387 46.4648 124.916 46.5947 125.454 46.6069C125.723 46.606 125.985 46.5275 126.21 46.3809C126.435 46.2344 126.613 46.0259 126.722 45.7807C126.767 45.6564 126.783 45.5234 126.768 45.392C126.754 45.2606 126.709 45.1342 126.638 45.0227C126.567 44.9112 126.472 44.8174 126.359 44.7486C126.246 44.6798 126.118 44.6378 125.987 44.6258C126.141 44.8345 126.336 45.0106 126.558 45.1442C126.781 45.2778 127.028 45.3662 127.285 45.4044C128.307 45.6726 129.545 45.837 130.277 45.08C130.523 44.7954 130.677 44.4427 130.717 44.0689C130.758 43.695 130.685 43.3175 130.506 42.9864C130.323 42.6625 130.074 42.38 129.776 42.1566C129.478 41.9333 129.137 41.774 128.774 41.6887C129.108 41.7795 129.614 41.7665 129.64 41.4162C129.636 41.3311 129.613 41.2481 129.573 41.1732C129.532 41.0983 129.476 41.0335 129.407 40.9836C128.052 39.7335 126.082 39.4177 124.238 39.3918C122.984 39.3735 121.731 39.4618 120.493 39.6556C120.152 39.728 119.802 39.7556 119.454 39.7378C115.744 39.4265 112.033 40.3382 108.891 42.3332C106.878 43.6309 105.25 45.7937 105.233 48.1945C105.264 49.073 105.402 49.9446 105.644 50.7899C106.259 53.2786 106.925 55.7514 107.644 58.2084C107.787 58.6928 107.977 59.2335 108.436 59.4412C108.777 59.5582 109.147 59.5582 109.488 59.4412C110.856 59.1211 111.964 57.9185 113.068 57.0491C111.77 56.4262 110.904 55.8076 110.631 54.3845C110.499 53.6701 110.595 52.9322 110.906 52.2754C111.216 51.6185 111.726 51.0761 112.363 50.725C113.661 50.0891 114.878 50.4265 115.423 51.7631" fill="#1C2E51"/>
<path d="M115.506 52.4338C116.341 51.1015 116.285 49.4404 117.051 48.0822C117.484 47.3382 118.264 46.9229 118.688 46.2005C119.112 45.4781 119.082 44.4443 119.043 43.5792C119.043 43.1812 119.476 43.086 119.749 43.2893C120.859 44.1538 122.054 44.9032 123.316 45.5257C123.952 45.8372 124.718 46.2654 125.454 46.2135C125.745 46.2009 126.019 46.077 126.221 45.8674C126.42 45.6122 126.415 45.0629 125.987 45.0283L126.337 44.4227C126.654 44.9158 127.411 45.011 127.944 45.1104C128.538 45.2803 129.173 45.2327 129.736 44.9764C129.987 44.8058 130.173 44.5546 130.262 44.2643C130.351 43.974 130.338 43.6621 130.225 43.3802C130.083 43.059 129.867 42.7759 129.595 42.5541C129.322 42.3323 129.001 42.1781 128.658 42.1041C128.546 42.0737 128.451 42.0001 128.393 41.8995C128.335 41.7989 128.32 41.6796 128.351 41.5677C128.381 41.4559 128.455 41.3607 128.555 41.3031C128.656 41.2455 128.775 41.2302 128.887 41.2606C128.974 41.2606 129.186 41.3385 129.264 41.2606C129.099 41.3904 128.905 41.1135 128.801 41.0357C128.531 40.8357 128.241 40.6646 127.935 40.5252C127.308 40.2406 126.643 40.0483 125.961 39.9543C124.484 39.7596 122.988 39.7596 121.51 39.9543C120.769 40.09 120.017 40.1595 119.264 40.1619C117.16 39.9949 115.044 40.2388 113.034 40.88C110.471 41.6759 107.804 43.0687 106.449 45.4868C105.775 46.6926 105.556 48.0998 105.83 49.4534C106.125 51.0366 106.588 52.6025 107.004 54.1597C107.24 55.0508 107.487 55.9419 107.744 56.833C107.874 57.2915 107.995 57.7543 108.142 58.2085C108.242 58.5113 108.363 58.9223 108.714 59.0131C109.437 59.2078 110.372 58.5805 110.917 58.1869C111.549 57.7543 112.116 57.1963 112.727 56.7162L112.822 57.4386C111.839 56.9541 110.887 56.3528 110.432 55.3147C110.207 54.781 110.098 54.2051 110.115 53.626C110.131 53.0469 110.272 52.478 110.527 51.958C111.545 49.8514 114.696 49.0554 115.787 51.5254C116.021 52.0661 115.229 52.5333 114.991 51.9926C114.125 49.9898 111.757 51.0582 111.185 52.7236C111.044 53.1214 110.986 53.5441 111.015 53.9653C111.044 54.3865 111.159 54.7973 111.354 55.1719C111.787 55.9073 112.553 56.3009 113.285 56.6513C113.345 56.6869 113.396 56.7358 113.435 56.7941C113.473 56.8525 113.498 56.9189 113.506 56.9881C113.515 57.0574 113.508 57.1277 113.485 57.1938C113.463 57.2599 113.425 57.3199 113.376 57.3694C112.19 58.3297 111.064 59.5841 109.51 59.9215C108.757 60.0859 108.017 59.9734 107.566 59.29C107.116 58.6065 106.969 57.6678 106.748 56.8892C106.171 54.9052 105.641 52.911 105.159 50.9068C104.726 49.2241 104.523 47.5804 105.194 45.928C106.415 42.9 109.411 41.1481 112.363 40.1489C113.968 39.6087 115.641 39.2999 117.333 39.2319C118.168 39.1973 119.021 39.3443 119.852 39.2924C120.857 39.2232 121.848 39.0113 122.883 38.968C124.71 38.8815 126.645 38.968 128.325 39.738C128.918 40.0148 130.056 40.6031 130.056 41.3428C130.056 42.0825 129.221 42.2079 128.645 42.0911L128.874 41.2476C129.336 41.356 129.767 41.5681 130.135 41.8679C130.503 42.1677 130.797 42.5474 130.996 42.9779C131.169 43.3949 131.213 43.8545 131.121 44.2967C131.029 44.7389 130.806 45.1431 130.48 45.4565C129.805 46.0578 128.857 46.0924 128.009 45.9626C127.16 45.8328 126.125 45.5863 125.628 44.799C125.592 44.738 125.573 44.6686 125.572 44.5978C125.572 44.5271 125.59 44.4575 125.625 44.3961C125.66 44.3347 125.711 44.2836 125.772 44.248C125.834 44.2124 125.903 44.1936 125.974 44.1934C126.154 44.2107 126.328 44.2653 126.486 44.3537C126.643 44.4421 126.781 44.5625 126.889 44.707C126.998 44.8516 127.075 45.0171 127.115 45.1931C127.156 45.3691 127.159 45.5516 127.125 45.729C126.935 46.5941 125.97 47.0267 125.143 46.9575C124.069 46.8667 122.978 46.2394 122.047 45.742C121.029 45.194 120.06 44.5586 119.151 43.843L119.857 43.5489C119.958 44.4406 119.865 45.3437 119.584 46.1962C119.22 47.1003 118.385 47.4939 117.852 48.2552C116.887 49.6091 116.987 51.4173 115.943 52.7452C115.744 53.0004 115.328 52.6717 115.51 52.4035L115.506 52.4338Z" fill="#1C2E51"/>
<path d="M118.454 67.8807C118.519 68.0061 118.657 67.8418 118.566 68.0191C118.527 68.082 118.482 68.1414 118.432 68.1965C118.345 68.3089 118.259 68.4214 118.177 68.5382C118.003 68.766 117.835 68.9953 117.67 69.226C117.324 69.7018 116.995 70.1906 116.683 70.6881C116.371 71.1855 116.086 71.6657 115.817 72.1631C115.549 72.6606 115.293 73.2229 114.999 73.729C114.765 74.1356 114.029 73.8631 114.215 73.3959C114.51 72.7049 114.859 72.0382 115.259 71.4018C115.631 70.7746 116.025 70.156 116.445 69.559C116.865 68.9621 117.311 68.3781 117.774 67.8288C117.969 67.5995 118.207 67.2751 118.523 67.2621C118.592 67.2591 118.661 67.2728 118.724 67.3018C118.787 67.3309 118.841 67.3746 118.884 67.4293C118.926 67.4839 118.955 67.5479 118.967 67.6159C118.98 67.684 118.976 67.754 118.956 67.8201C118.94 67.8725 118.909 67.9192 118.868 67.9547C118.826 67.9901 118.775 68.0129 118.721 68.0201C118.666 68.0274 118.611 68.019 118.561 67.9958C118.512 67.9726 118.47 67.9357 118.441 67.8893L118.454 67.8807Z" fill="#1C2E51"/>
<path d="M109.614 58.6885C109.034 59.6185 108.432 60.5312 107.813 61.4353L106.878 62.7892C106.584 63.2471 106.254 63.681 105.891 64.0869C105.834 64.1586 105.75 64.2046 105.659 64.2148C105.567 64.2249 105.476 64.1984 105.404 64.141C105.332 64.0836 105.286 64.0001 105.276 63.9089C105.266 63.8176 105.292 63.7261 105.35 63.6544C105.626 63.1796 105.939 62.7269 106.285 62.3004C106.597 61.8679 106.904 61.4353 107.216 61.0027L109.095 58.3814C109.32 58.0699 109.831 58.3511 109.618 58.6885H109.614Z" fill="#1C2E51"/>
<path d="M104.722 62.7591C107.492 66.9334 110.783 71.0731 115.004 73.7463C115.25 73.3138 115.363 72.9115 115.614 72.4486C116.047 72.7428 116.216 73.1321 116.636 73.4219C117.138 73.7679 117.675 74.1659 117.817 74.7585C117.884 75.1865 117.84 75.6246 117.688 76.0303L117.09 78.1412C117.012 78.418 116.904 78.7295 116.657 78.8376C116.177 79.0366 115.791 78.405 115.618 77.9249L114.752 75.2084L113.051 78.3358C112.67 79.0452 112.164 79.8368 111.363 79.919C110.627 79.9969 109.995 79.4302 109.471 78.9068C106.536 75.9611 103.579 72.985 101.289 69.5158C100.349 68.0927 99.5095 66.5484 99.306 64.8571C99.2533 64.6063 99.2837 64.3451 99.3926 64.1131C99.5117 63.9393 99.6725 63.798 99.8602 63.7021L102.423 62.093C102.957 61.7107 103.56 61.4346 104.198 61.2798C104.604 61.2545 105.011 61.3233 105.387 61.4809C105.762 61.6384 106.096 61.8805 106.363 62.1882C106.423 62.279 106.363 62.08 106.363 62.1882C106.363 62.2963 106.189 62.4261 106.15 62.5039C106.012 62.7764 105.423 63.5637 105.285 63.8362" fill="#6592D2"/>
<path d="M98.2713 67.526C91.2667 67.0935 84.6258 70.4459 79.3962 74.8797C73.7683 79.6379 69.4046 85.6376 64.5689 91.1528C62.2485 93.8044 59.5947 96.2657 57.7938 99.3283C55.9899 102.528 55.3606 106.256 56.0145 109.87C56.6033 113.521 58.1791 116.916 60.1012 120.048C62.0807 123.22 64.2932 126.24 66.7205 129.084C71.66 134.98 77.1797 140.374 82.5651 145.855L84.6388 147.962C85.0717 148.394 84.3964 149.082 83.9591 148.641C78.3659 143.017 72.6211 137.459 67.3915 131.468C64.8428 128.583 62.4842 125.536 60.3307 122.345C58.2657 119.248 56.4345 115.917 55.4604 112.301C54.4863 108.685 54.3824 104.813 55.6812 101.314C56.9323 97.9397 59.3956 95.2578 61.7983 92.6624C66.9326 87.104 71.357 80.8447 76.9503 75.7318C82.0889 71.0385 88.5567 67.1843 95.6738 66.8729C96.5399 66.8356 97.4074 66.8529 98.2713 66.9248C98.6696 66.9594 98.6782 67.5823 98.2713 67.5606V67.526Z" fill="#1C2E51"/>
<path d="M98.8473 78.5997C98.8949 83.4574 94.6177 86.9179 91.3795 89.9329C87.0792 93.9385 82.7659 97.9253 78.4397 101.893L75.2708 104.796C74.7729 105.254 74.2664 105.661 74.5781 106.379C74.8898 107.097 75.2621 107.677 75.5998 108.304C76.9418 110.816 78.2939 113.322 79.6562 115.822C81.0184 118.322 82.4283 120.837 83.8858 123.366C85.2364 125.71 86.5741 128.085 88.1283 130.287C88.9529 131.49 89.8924 132.609 90.9336 133.631C91.9033 134.565 93.0072 135.361 93.8341 136.429C95.0766 138.039 95.5181 140.911 93.4012 142.053C93.2828 142.109 93.1474 142.119 93.0218 142.081C92.8963 142.043 92.7898 141.959 92.7234 141.845C92.6569 141.732 92.6355 141.598 92.6632 141.47C92.6909 141.342 92.7658 141.229 92.8731 141.153C93.2285 140.902 93.5035 140.554 93.6648 140.15C93.8262 139.746 93.8669 139.304 93.7822 138.878C93.6436 137.788 92.9163 136.923 92.1457 136.191C91.2799 135.357 90.3275 134.613 89.5006 133.735C88.6374 132.803 87.843 131.81 87.1239 130.763C85.6131 128.6 84.31 126.277 82.9896 123.989C81.587 121.555 80.2132 119.104 78.8683 116.635C77.5233 114.167 76.1885 111.691 74.8638 109.208L73.9201 107.439C73.617 106.868 73.2794 106.249 73.4049 105.579C73.5186 105.123 73.764 104.711 74.1105 104.394C74.6387 103.862 75.2231 103.373 75.7773 102.867C80.0112 98.9995 84.2595 95.1496 88.5222 91.3171C90.6868 89.3662 92.9726 87.5019 94.964 85.3693C96.6957 83.4877 98.2282 81.2427 98.2628 78.5867C98.2628 78.5098 98.2934 78.4361 98.3478 78.3818C98.4022 78.3274 98.476 78.2969 98.5529 78.2969C98.6298 78.2969 98.7036 78.3274 98.758 78.3818C98.8124 78.4361 98.8429 78.5098 98.8429 78.5867L98.8473 78.5997Z" fill="#1C2E51"/>
<path d="M93.2239 141.374C95.7478 142.918 98.5531 144.761 99.4189 147.771C99.4189 147.866 99.3877 147.958 99.3302 148.033C99.2727 148.109 99.192 148.163 99.1005 148.188C99.009 148.213 98.9118 148.208 98.8239 148.172C98.736 148.137 98.6621 148.073 98.6137 147.992C97.6656 145.254 95.2024 143.472 92.9469 141.845C92.6655 141.646 92.9166 141.188 93.2239 141.374Z" fill="#1C2E51"/>
<path d="M95.5785 149.709C95.4111 151.239 95.3952 152.782 95.5309 154.316C95.7172 155.866 96.0329 157.399 96.4746 158.897C96.4717 158.989 96.4393 159.078 96.3823 159.15C96.3252 159.223 96.2465 159.275 96.1576 159.3C96.0686 159.324 95.9741 159.32 95.8878 159.287C95.8016 159.254 95.7281 159.195 95.6781 159.117C95.1579 157.595 94.8505 156.009 94.7646 154.402C94.6438 152.814 94.7106 151.217 94.9637 149.644C95.02 149.298 95.6131 149.376 95.5785 149.726V149.709Z" fill="#1C2E51"/>
<path d="M91.938 159.433C91.1592 158.243 90.7592 156.845 90.7908 155.423C90.7908 154.991 91.5181 154.991 91.5007 155.423C91.4572 156.725 91.7861 158.013 92.4488 159.135C92.6436 159.463 92.1458 159.749 91.938 159.433Z" fill="#1C2E51"/>
<path d="M87.7864 158.309C87.5478 156.992 87.4448 155.654 87.479 154.316C87.479 153.845 88.2366 153.845 88.2149 154.316C88.1499 155.596 88.2021 156.878 88.3708 158.149C88.3887 158.226 88.3768 158.307 88.3375 158.376C88.2982 158.445 88.2343 158.497 88.1587 158.521C88.0812 158.542 87.9984 158.531 87.9286 158.492C87.8588 158.452 87.8076 158.386 87.7864 158.309Z" fill="#1C2E51"/>
<path d="M84.8034 157.417C84.0846 155.635 83.7882 153.71 83.9376 151.794C84.0155 150.808 84.2536 149.843 84.3142 148.861C84.3563 148.318 84.311 147.772 84.18 147.243C84.0272 146.823 83.917 146.388 83.851 145.946C83.7991 145.081 84.3878 144.449 84.9246 143.856C85.4871 143.245 86.1125 142.694 86.7905 142.213C88.1759 141.196 89.78 140.518 91.4746 140.232C92.0591 140.154 92.3405 141.01 91.7257 141.144C90.2026 141.441 88.7506 142.027 87.4485 142.87C86.7748 143.322 86.1546 143.849 85.6 144.44C85.2979 144.729 85.0358 145.056 84.8207 145.414C84.5913 145.846 84.7861 146.335 84.9203 146.781C85.4528 148.511 84.9203 150.198 84.7255 151.932C84.5259 153.74 84.7436 155.569 85.3619 157.279C85.4961 157.647 84.929 157.789 84.7861 157.439L84.8034 157.417Z" fill="#1C2E51"/>
<path d="M127.298 135.156L134.527 146.934C134.966 147.649 134.741 148.583 134.026 149.022L132.45 149.987C131.735 150.426 130.799 150.202 130.36 149.487L123.132 137.709C122.693 136.994 122.917 136.06 123.632 135.621L125.208 134.656C125.924 134.217 126.859 134.441 127.298 135.156Z" fill="#1C2E51"/>
<path d="M131.201 147.744L125.068 137.751L117.565 142.348L123.699 152.341L131.201 147.744Z" fill="#1C2E51"/>
<path d="M230.626 77.9853L232.388 80.8532C232.544 81.1068 232.61 81.4051 232.576 81.7006C232.543 81.9961 232.411 82.2719 232.202 82.4839L225.314 89.4526C225.073 89.6974 224.745 89.8386 224.401 89.8462L220.258 89.9587C220.024 89.9652 219.793 89.9097 219.588 89.7981C219.383 89.6864 219.211 89.5224 219.089 89.3228L217.041 85.9921C216.919 85.7934 216.851 85.5659 216.845 85.3327C216.839 85.0995 216.895 84.8689 217.007 84.6641L218.985 81.0132C219.145 80.7088 219.419 80.4801 219.747 80.3774L229.089 77.4056C229.374 77.3162 229.68 77.3247 229.958 77.4298C230.237 77.5349 230.472 77.7305 230.626 77.9853Z" fill="#1C2E51"/>
<path d="M73.1627 163.889L84.8513 156.712C85.205 157.64 85.7461 158.486 86.441 159.196C87.1359 159.906 87.9697 160.465 88.8904 160.839C89.9633 161.252 91.1318 161.352 92.2594 161.127C93.387 160.902 94.4272 160.361 95.2586 159.567C95.4603 159.38 95.6209 159.153 95.7305 158.901C95.8373 158.539 95.8581 158.157 95.7911 157.785C95.5631 155.443 95.3322 153.103 95.0984 150.765L95.1677 150.388L112.809 139.574C113.696 139.029 114.681 138.664 115.709 138.499C116.737 138.335 117.787 138.374 118.799 138.615C119.812 138.856 120.767 139.294 121.611 139.904C122.454 140.514 123.169 141.284 123.714 142.169L126.61 146.889C127.712 148.678 128.058 150.832 127.57 152.876C127.083 154.921 125.804 156.688 124.013 157.789L84.3362 182.1C82.5453 183.199 80.3908 183.544 78.3461 183.057C76.3013 182.57 74.5335 181.292 73.4311 179.504L70.5305 174.781C69.4344 172.987 69.096 170.833 69.5896 168.79C70.0832 166.747 71.3684 164.984 73.1627 163.889Z" fill="#1C2E51"/>
<path d="M120.904 153.594L116.964 156.007L107.501 161.808L96.0461 168.824L86.089 174.919L82.8249 176.918C82.314 177.229 81.8118 177.592 81.2794 177.865L81.2101 177.904C80.7772 178.181 80.3443 177.471 80.8032 177.207L84.7427 174.794L94.2062 168.993L105.674 161.977L115.631 155.882L118.895 153.883C119.402 153.572 119.908 153.209 120.441 152.936L120.51 152.893C120.943 152.62 121.376 153.325 120.917 153.594H120.904Z" fill="#6592D2"/>
<path d="M118.333 149.22L114.393 151.634L104.934 157.431L93.4789 164.451L83.5522 170.555L80.2881 172.553C79.7816 172.869 79.275 173.232 78.7426 173.505L78.6733 173.544C78.2404 173.816 77.8074 173.111 78.2663 172.847L82.2059 170.434L91.6694 164.633L103.124 157.617L113.081 151.522L116.345 149.523C116.856 149.212 117.358 148.848 117.891 148.576L117.96 148.533C118.393 148.26 118.826 148.965 118.367 149.233L118.333 149.22Z" fill="#6592D2"/>
<path d="M88.0329 161.838L77.5737 168.245L76.0888 169.157C75.6559 169.43 75.223 168.725 75.6559 168.456L86.1497 162.05L87.6389 161.137C88.0718 160.865 88.5048 161.57 88.0459 161.838H88.0329Z" fill="#6592D2"/>
<path d="M115.766 144.843L109.155 148.896L98.7044 155.294L96.2714 156.782C96.179 156.836 96.0689 156.851 95.9654 156.823C95.8619 156.796 95.7734 156.729 95.7194 156.637C95.6655 156.544 95.6504 156.434 95.6776 156.331C95.7048 156.228 95.7721 156.139 95.8645 156.085L102.475 152.032L112.917 145.634L115.354 144.168C115.787 143.895 116.22 144.601 115.766 144.864V144.843Z" fill="#6592D2"/>
<path d="M120.623 82.4235C121.45 87.5069 121.004 92.716 119.324 97.585C117.627 102.438 114.428 106.98 114.376 112.292C114.359 113.52 114.557 114.74 114.96 115.9C115.35 117.016 115.9 118.123 115.913 119.33C115.919 119.829 115.812 120.323 115.601 120.775C115.363 121.29 114.869 121.748 114.809 122.332C114.748 122.916 115.038 123.483 115.043 124.062C115.039 124.533 114.926 124.996 114.714 125.416C113.761 127.32 111.35 128.033 109.423 128.362C106.841 128.737 104.219 128.754 101.631 128.414C95.6089 127.792 89.6704 126.531 83.9161 124.651C83.2711 124.439 83.5438 123.418 84.1975 123.625C89.1462 125.212 94.2252 126.36 99.3755 127.056C101.928 127.454 104.512 127.613 107.094 127.531C109.151 127.419 111.774 127.121 113.289 125.555C113.593 125.259 113.81 124.887 113.917 124.478C114.047 123.915 113.835 123.379 113.761 122.825C113.687 122.34 113.762 121.843 113.978 121.402C114.233 120.874 114.653 120.442 114.792 119.862C115.047 118.742 114.463 117.548 114.095 116.518C113.701 115.435 113.47 114.3 113.411 113.149C113.168 108.157 115.831 103.732 117.766 99.3066C120.087 94.0565 120.886 88.2609 120.073 82.5793C120.017 82.2072 120.58 82.0429 120.645 82.4192L120.623 82.4235Z" fill="#1C2E51"/>
<path d="M76.1927 103.775C76.0758 104.575 75.9979 105.38 75.9416 106.189C75.9156 106.591 75.8896 106.993 75.8767 107.396C75.8766 107.802 75.8549 108.207 75.8117 108.611C75.7883 108.697 75.7338 108.772 75.6587 108.821C75.5836 108.869 75.4932 108.889 75.4048 108.875C75.3163 108.863 75.2351 108.819 75.1757 108.753C75.1162 108.686 75.0823 108.601 75.0801 108.512C75.0569 108.109 75.0685 107.705 75.1147 107.305C75.145 106.872 75.184 106.466 75.2403 106.05C75.347 105.237 75.4914 104.43 75.6732 103.628C75.7468 103.278 76.2533 103.433 76.2013 103.775H76.1927Z" fill="#1C2E51"/>
<path d="M127.54 186.763L125.74 185.405C125.703 185.382 125.671 185.352 125.647 185.317C125.622 185.281 125.606 185.241 125.598 185.199C125.59 185.156 125.591 185.113 125.601 185.071C125.611 185.029 125.63 184.99 125.656 184.956C125.682 184.921 125.716 184.893 125.753 184.873C125.791 184.852 125.833 184.84 125.876 184.836C125.919 184.833 125.962 184.839 126.003 184.853C126.043 184.868 126.081 184.89 126.112 184.92L127.882 186.322C127.924 186.371 127.948 186.434 127.949 186.499C127.95 186.563 127.929 186.627 127.889 186.678C127.848 186.729 127.792 186.764 127.728 186.778C127.665 186.792 127.598 186.784 127.54 186.754V186.763Z" fill="white"/>
<path d="M168.234 249.134L165.576 249.234C164.8 249.217 164.023 249.268 163.256 249.385C162.928 249.429 162.62 249.566 162.368 249.779C162.115 249.992 161.929 250.273 161.832 250.588C161.7 251.188 161.531 251.778 161.325 252.357C160.758 253.568 159.464 253.707 158.269 253.694C157.472 253.694 156.68 253.694 155.883 253.763C155.45 253.798 155.017 253.849 154.585 253.914C154.158 254.013 153.723 254.074 153.286 254.096C152.957 254.096 152.771 253.594 153.104 253.438C153.87 253.162 154.675 253.007 155.489 252.98C156.296 252.89 157.107 252.845 157.918 252.846C158.598 252.846 159.425 252.954 160.039 252.599C160.654 252.245 160.749 251.509 160.905 250.869C161.23 249.602 161.931 248.81 163.264 248.615C163.998 248.54 164.736 248.517 165.472 248.546H168.239C168.314 248.546 168.387 248.576 168.441 248.63C168.494 248.683 168.524 248.756 168.524 248.832C168.524 248.907 168.494 248.98 168.441 249.034C168.387 249.087 168.314 249.117 168.239 249.117L168.234 249.134Z" fill="white"/>
<path d="M18.3201 144.804C15.4413 145.704 13.3719 148.018 11.5407 150.289C11.2821 150.553 11.0515 150.843 10.8524 151.154C10.6489 151.565 10.9173 151.855 11.0212 152.257C11.0831 152.599 11.0768 152.951 11.0025 153.291C10.9282 153.631 10.7874 153.953 10.5883 154.238C10.3415 154.671 9.88264 155.536 9.28955 155.449C9.17629 155.432 9.07086 155.381 8.98738 155.303C8.90389 155.225 8.84631 155.123 8.82231 155.011C8.79832 154.899 8.80906 154.783 8.8531 154.677C8.89713 154.571 8.97237 154.482 9.06876 154.42C9.45838 154.126 9.93459 154.762 9.58393 155.09L9.53198 155.138L9.65752 154.835L9.5666 154.649L9.23327 154.606C9.47137 154.55 9.77006 153.935 9.89128 153.741C10.0946 153.439 10.21 153.087 10.2246 152.724C10.2246 152.14 9.79173 151.69 9.99087 151.085C10.2586 150.563 10.6129 150.091 11.0385 149.688C11.4368 149.216 11.8394 148.753 12.255 148.299C13.8914 146.525 15.7876 144.929 18.147 144.246C18.2201 144.228 18.2973 144.239 18.3623 144.277C18.4273 144.315 18.4749 144.377 18.4952 144.449C18.5154 144.522 18.5067 144.599 18.4708 144.666C18.4349 144.732 18.3746 144.781 18.3028 144.804H18.3201Z" fill="white"/>
<path d="M54.5466 168.041C54.3258 170.36 53.9059 172.678 53.5725 174.962C53.5119 175.395 52.8452 175.213 52.9145 174.781C53.2651 172.505 53.5379 170.2 54.0011 167.946C54.0617 167.639 54.5769 167.704 54.5466 168.02V168.041Z" fill="white"/>
<path d="M52.1273 169.097C51.7821 169.987 51.5678 170.922 51.4909 171.874C51.4887 171.959 51.4538 172.04 51.3934 172.101C51.3329 172.161 51.2516 172.196 51.1662 172.198C51.0801 172.198 50.9975 172.164 50.9366 172.103C50.8757 172.042 50.8415 171.96 50.8415 171.874C50.942 170.866 51.187 169.879 51.5688 168.941C51.578 168.903 51.5948 168.868 51.618 168.837C51.6412 168.805 51.6705 168.779 51.7041 168.76C51.7376 168.74 51.7748 168.727 51.8134 168.722C51.8519 168.717 51.8911 168.72 51.9285 168.731C51.966 168.741 52.001 168.759 52.0314 168.783C52.0618 168.807 52.087 168.837 52.1055 168.872C52.1241 168.906 52.1356 168.943 52.1393 168.982C52.143 169.021 52.1389 169.06 52.1273 169.097Z" fill="white"/>
<path d="M129.19 148.014C127.524 145.392 125.974 142.697 124.515 139.959C124.333 139.617 124.857 139.315 125.03 139.656C126.459 142.416 128.022 145.102 129.688 147.724C129.887 148.035 129.39 148.325 129.19 148.014Z" fill="#6592D2"/>
<path d="M139.545 134.95C138.89 135.399 138.129 135.67 137.337 135.738C136.545 135.807 135.749 135.669 135.026 135.339C134.69 135.19 134.375 134.996 134.091 134.764C133.658 134.414 133.337 134.011 132.74 133.955C131.756 133.905 130.779 133.753 129.826 133.501C127.93 132.913 126.216 131.883 124.532 130.854C122.848 129.824 121.069 128.73 119.398 127.553C117.542 126.273 115.842 124.78 114.332 123.106C113.9 122.639 114.605 121.951 115.016 122.423C117.566 125.317 120.796 127.436 124.051 129.448C125.634 130.502 127.299 131.428 129.03 132.216C129.921 132.593 130.859 132.851 131.818 132.982C132.684 133.09 133.428 133.042 134.13 133.648C134.831 134.254 135.524 134.803 136.528 134.946C137.467 135.096 138.429 134.917 139.251 134.44C139.58 134.245 139.844 134.729 139.545 134.941V134.95Z" fill="#1C2E51"/>
<path d="M141.048 135.91C143.026 136.343 144.97 136.845 146.979 137.147C148.823 137.424 150.875 137.779 152.745 137.39C154.615 137 155.572 135.621 156.468 134.102C156.985 133.237 157.482 132.35 157.962 131.442C158.394 130.577 158.875 129.712 158.542 128.747C157.858 126.718 156.278 125.101 154.91 123.526C154.833 123.45 154.79 123.346 154.79 123.238C154.79 123.13 154.833 123.027 154.91 122.951C154.986 122.874 155.089 122.832 155.197 122.832C155.305 122.832 155.409 122.874 155.485 122.951C156.26 123.635 156.955 124.406 157.555 125.248C158.182 126.062 158.735 126.931 159.208 127.843C159.445 128.264 159.587 128.732 159.626 129.213C159.665 129.695 159.599 130.179 159.433 130.633C159.013 131.641 158.51 132.613 157.931 133.54C157.018 135.162 156.057 137.044 154.303 137.9C152.481 138.796 150.325 138.501 148.386 138.246C145.824 137.962 143.31 137.356 140.9 136.442C140.829 136.423 140.769 136.376 140.732 136.312C140.696 136.248 140.686 136.172 140.706 136.101C140.725 136.03 140.772 135.969 140.836 135.933C140.9 135.896 140.976 135.887 141.048 135.906V135.91Z" fill="#1C2E51"/>
<path d="M152.52 124.915C153.461 125.536 154.21 126.406 154.685 127.428C154.714 127.469 154.735 127.516 154.745 127.566C154.755 127.616 154.754 127.667 154.744 127.717C154.733 127.767 154.712 127.813 154.682 127.855C154.653 127.896 154.615 127.93 154.571 127.956C154.527 127.982 154.478 127.998 154.428 128.004C154.377 128.01 154.326 128.006 154.278 127.991C154.229 127.977 154.184 127.952 154.145 127.919C154.106 127.886 154.075 127.845 154.053 127.8C153.946 127.56 153.823 127.327 153.685 127.103C153.551 126.893 153.407 126.689 153.252 126.493C152.924 126.084 152.557 125.708 152.157 125.369C151.91 125.152 152.23 124.737 152.512 124.915H152.52Z" fill="#1C2E51"/>
<path d="M152.351 129.958C152.201 129.44 151.938 128.962 151.581 128.558C151.224 128.154 150.782 127.835 150.286 127.622C149.952 127.475 150.191 126.896 150.537 127.03C151.124 127.273 151.645 127.65 152.06 128.131C152.475 128.611 152.772 129.182 152.927 129.798C152.948 129.874 152.938 129.956 152.899 130.025C152.86 130.094 152.795 130.145 152.719 130.166C152.642 130.187 152.561 130.177 152.492 130.138C152.423 130.099 152.372 130.034 152.351 129.958Z" fill="#1C2E51"/>
<path d="M150.161 132.208C149.876 131.135 149.237 130.19 148.347 129.526C148.262 129.472 148.201 129.388 148.176 129.291C148.151 129.193 148.164 129.09 148.213 129.002C148.264 128.915 148.348 128.851 148.446 128.826C148.544 128.8 148.649 128.813 148.737 128.864C149.257 129.253 149.697 129.737 150.035 130.291C150.369 130.831 150.601 131.428 150.72 132.052C150.74 132.128 150.729 132.209 150.69 132.278C150.652 132.347 150.587 132.397 150.512 132.42C150.474 132.43 150.434 132.433 150.395 132.428C150.355 132.423 150.318 132.41 150.283 132.39C150.249 132.371 150.219 132.344 150.195 132.313C150.171 132.282 150.154 132.246 150.144 132.208H150.161Z" fill="#1C2E51"/>
<path d="M155.983 124.175L218.938 85.5986L220.275 87.7615L157.724 126.087C157.21 125.392 156.627 124.751 155.983 124.175Z" fill="#1C2E51"/>
<path d="M143.727 131.693C144.857 131.931 145.745 132.363 145.892 133.112C145.909 133.194 145.918 133.278 145.918 133.363L128.84 143.826L127.502 141.664L143.727 131.693Z" fill="#1C2E51"/>
<path d="M149.844 125.498C150.204 125.451 150.23 124.953 150.074 124.72C149.801 124.407 149.43 124.197 149.022 124.123C148.088 123.842 147.111 123.738 146.139 123.816C145.73 123.838 145.333 123.965 144.987 124.184C144.641 124.402 144.356 124.706 144.16 125.066C143.994 125.433 143.88 125.822 143.823 126.221C143.713 126.613 143.678 127.022 143.719 127.428C143.741 127.533 143.726 127.643 143.676 127.738C143.625 127.834 143.543 127.909 143.444 127.95C143.344 127.992 143.234 127.997 143.13 127.966C143.027 127.934 142.938 127.868 142.879 127.778C142.511 127.268 142.723 126.519 142.827 125.948C142.917 125.352 143.126 124.779 143.442 124.266C144.178 123.167 145.472 122.795 146.736 122.868C147.45 122.916 148.157 123.032 148.849 123.214C149.418 123.329 149.95 123.582 150.399 123.95C150.593 124.115 150.737 124.332 150.814 124.575C150.89 124.819 150.896 125.079 150.832 125.325C150.778 125.542 150.651 125.733 150.473 125.867C150.295 126.001 150.076 126.069 149.853 126.061C149.779 126.061 149.707 126.031 149.654 125.978C149.601 125.926 149.572 125.854 149.572 125.779C149.572 125.705 149.601 125.633 149.654 125.581C149.707 125.528 149.779 125.498 149.853 125.498H149.844Z" fill="#1C2E51"/>
<path d="M113.973 83.4747C113.973 83.4747 113.973 83.4747 113.973 83.4531L113.938 83.5353C113.94 83.518 113.94 83.5006 113.938 83.4834V83.5742V83.5137V83.6045C113.941 83.5815 113.941 83.5583 113.938 83.5353L113.973 83.6175C113.963 83.595 113.952 83.5733 113.938 83.5526L113.99 83.6261C113.971 83.5999 113.947 83.5766 113.921 83.5569L113.995 83.6132C113.964 83.5889 113.931 83.5686 113.895 83.5526L113.982 83.5915C113.95 83.5783 113.916 83.5696 113.882 83.5656H113.982H113.891H113.995H113.93L114.021 83.5266L113.925 83.5829L114.003 83.5223C113.976 83.5451 113.951 83.5713 113.93 83.6002L113.99 83.518C113.955 83.5644 113.926 83.6153 113.904 83.6694L113.943 83.5699C113.919 83.6299 113.902 83.6922 113.891 83.7559V83.6478C113.882 83.721 113.882 83.7951 113.891 83.8684V83.7559C113.899 83.8164 113.913 83.8759 113.934 83.9332L113.891 83.8338L113.943 83.9246L113.878 83.8381C113.894 83.8589 113.913 83.8778 113.934 83.8943L113.848 83.8294C113.871 83.8462 113.895 83.8607 113.921 83.8727L113.817 83.8294C113.846 83.8421 113.877 83.8508 113.908 83.8554H113.796H113.917H113.804L113.912 83.8251L113.809 83.8684C113.843 83.8538 113.875 83.8349 113.904 83.8121L113.817 83.8813C113.842 83.8605 113.866 83.8373 113.887 83.8121L113.817 83.903C113.843 83.868 113.865 83.8303 113.882 83.7905L113.839 83.8943C113.856 83.8511 113.869 83.8061 113.878 83.7602V83.877C113.887 83.8197 113.887 83.7613 113.878 83.704V83.8208C113.868 83.7588 113.852 83.6979 113.83 83.6391L113.874 83.7472V83.7083C113.817 83.6008 113.8 83.4767 113.826 83.3579C113.859 83.2428 113.936 83.1453 114.041 83.0863C114.145 83.0273 114.268 83.0114 114.384 83.0422C114.441 83.0569 114.494 83.0829 114.54 83.1186C114.586 83.1543 114.624 83.1989 114.653 83.2498C114.699 83.3415 114.732 83.439 114.752 83.5396C114.767 83.6414 114.767 83.7449 114.752 83.8467C114.747 83.9122 114.737 83.9773 114.722 84.0414C114.702 84.1051 114.677 84.1672 114.648 84.2274C114.635 84.2562 114.619 84.2837 114.601 84.3096C114.564 84.3638 114.522 84.4145 114.475 84.461C114.317 84.6078 114.111 84.6924 113.895 84.6989C113.788 84.704 113.682 84.6871 113.582 84.6492C113.482 84.6112 113.391 84.553 113.315 84.4783C113.16 84.3043 113.074 84.0797 113.073 83.8467C113.066 83.6997 113.088 83.5527 113.138 83.4142C113.166 83.3287 113.205 83.2473 113.254 83.1719C113.323 83.0765 113.408 82.9944 113.506 82.9297C113.589 82.8751 113.683 82.8384 113.781 82.822C113.88 82.8056 113.98 82.8099 114.077 82.8345C114.175 82.8588 114.267 82.9023 114.348 82.9624C114.429 83.0226 114.497 83.0982 114.549 83.1849C114.607 83.2792 114.638 83.3877 114.638 83.4985C114.638 83.6093 114.607 83.7179 114.549 83.8121C114.501 83.886 114.429 83.941 114.345 83.9678C114.302 83.9797 114.257 83.9827 114.212 83.9768C114.167 83.9708 114.124 83.956 114.086 83.9332C114.009 83.8873 113.953 83.8131 113.93 83.7266C113.908 83.64 113.92 83.5481 113.964 83.4704L113.973 83.4747Z" fill="#6592D2"/>
<path d="M112.324 91.0187L112.294 91.0965V91.0446V91.1355C112.298 91.1155 112.298 91.0949 112.294 91.0749V91.1658C112.291 91.1416 112.283 91.1182 112.272 91.0965L112.311 91.1831C112.3 91.1603 112.287 91.1386 112.272 91.1182L112.328 91.1874C112.306 91.1621 112.281 91.139 112.255 91.1182L112.328 91.1744C112.298 91.1513 112.264 91.1324 112.229 91.1182L112.315 91.1528C112.284 91.1396 112.25 91.1308 112.216 91.1268H112.32H112.229H112.328H112.263L112.354 91.0879L112.259 91.1441L112.341 91.0836C112.313 91.1073 112.287 91.1334 112.263 91.1614L112.324 91.0792C112.289 91.1262 112.26 91.177 112.237 91.2306L112.276 91.1312C112.254 91.1914 112.238 91.2537 112.229 91.3172V91.209C112.22 91.2823 112.22 91.3563 112.229 91.4296V91.3172C112.237 91.3777 112.251 91.4372 112.272 91.4945L112.233 91.395C112.247 91.4271 112.265 91.4575 112.285 91.4858L112.216 91.3993C112.232 91.4202 112.251 91.4391 112.272 91.4556L112.185 91.3907C112.209 91.4075 112.233 91.422 112.259 91.4339L112.155 91.3907C112.185 91.4039 112.218 91.4126 112.25 91.4166H112.134C112.173 91.4253 112.215 91.4253 112.255 91.4166H112.142C112.179 91.4113 112.216 91.4011 112.25 91.3864L112.146 91.4296C112.18 91.4166 112.212 91.3992 112.242 91.3777L112.155 91.4426C112.182 91.424 112.206 91.4006 112.224 91.3734L112.159 91.4642C112.185 91.4293 112.207 91.3915 112.224 91.3518L112.177 91.4599C112.196 91.4156 112.209 91.3691 112.216 91.3215V91.4383C112.22 91.3807 112.22 91.3228 112.216 91.2653V91.382C112.206 91.32 112.19 91.2592 112.168 91.2004L112.211 91.3085C112.213 91.2956 112.213 91.2825 112.211 91.2696C112.155 91.1636 112.139 91.0402 112.168 90.9235C112.181 90.8651 112.207 90.8101 112.243 90.7619C112.278 90.7138 112.324 90.6736 112.376 90.6439C112.428 90.6142 112.486 90.5957 112.545 90.5895C112.605 90.5832 112.665 90.5895 112.722 90.6077C112.779 90.621 112.833 90.6464 112.879 90.6823C112.925 90.7181 112.964 90.7635 112.991 90.8154C113.036 90.9059 113.069 91.0018 113.09 91.1009C113.105 91.2041 113.105 91.3091 113.09 91.4123C113.084 91.4778 113.074 91.5428 113.06 91.607C113.04 91.6693 113.015 91.73 112.986 91.7887C112.973 91.8175 112.957 91.845 112.939 91.8708C112.903 91.9261 112.861 91.9769 112.813 92.0222C112.655 92.17 112.449 92.256 112.233 92.2645C112.126 92.2683 112.02 92.2503 111.92 92.2116C111.82 92.173 111.729 92.1144 111.653 92.0395C111.499 91.8667 111.413 91.6438 111.411 91.4123C111.404 91.2653 111.426 91.1183 111.475 90.9798C111.506 90.895 111.545 90.8138 111.592 90.7375C111.66 90.6421 111.746 90.56 111.843 90.4953C111.927 90.4409 112.021 90.4044 112.119 90.388C112.218 90.3716 112.318 90.3758 112.415 90.4001C112.513 90.4251 112.605 90.4693 112.686 90.5302C112.767 90.5911 112.836 90.6674 112.887 90.7548C112.945 90.8482 112.976 90.9561 112.976 91.0663C112.976 91.1764 112.945 91.2843 112.887 91.3777C112.839 91.4515 112.767 91.5066 112.683 91.5334C112.64 91.545 112.595 91.5479 112.55 91.542C112.505 91.536 112.462 91.5214 112.424 91.4988C112.348 91.4514 112.294 91.3772 112.272 91.2913C112.249 91.2054 112.26 91.1141 112.302 91.036L112.324 91.0187Z" fill="#6592D2"/>
<path d="M110.674 98.567V98.5454L110.64 98.6276V98.5757V98.6665C110.644 98.6451 110.644 98.6231 110.64 98.6017V98.6968C110.642 98.6723 110.642 98.6477 110.64 98.6233L110.674 98.7098L110.635 98.6449L110.692 98.7184C110.672 98.6898 110.647 98.6649 110.618 98.6449L110.692 98.7011C110.662 98.6774 110.628 98.6584 110.592 98.6449L110.683 98.6795C110.65 98.6689 110.617 98.6602 110.584 98.6536H110.683H110.592H110.692L110.627 98.6752L110.722 98.6363C110.686 98.649 110.652 98.6681 110.622 98.6925L110.705 98.6276C110.677 98.6513 110.651 98.6774 110.627 98.7055L110.692 98.6276C110.653 98.6712 110.623 98.7209 110.601 98.7747L110.644 98.6795C110.618 98.7388 110.601 98.8014 110.592 98.8655V98.7531C110.583 98.8263 110.583 98.9004 110.592 98.9737V98.8655C110.598 98.925 110.612 98.9834 110.635 99.0385L110.592 98.9391C110.604 98.972 110.622 99.0028 110.644 99.0299L110.579 98.9434C110.594 98.9655 110.612 98.9858 110.631 99.0039L110.549 98.9347L110.618 98.978L110.519 98.9347C110.547 98.9484 110.578 98.9572 110.609 98.9607H110.493C110.534 98.965 110.576 98.965 110.618 98.9607H110.501C110.539 98.9572 110.576 98.947 110.609 98.9304L110.506 98.9737C110.541 98.9607 110.574 98.9433 110.605 98.9217L110.514 98.9866C110.542 98.9686 110.567 98.9468 110.588 98.9217L110.519 99.0083C110.544 98.9748 110.566 98.9385 110.584 98.9001L110.54 99.0039C110.558 98.9597 110.57 98.9131 110.575 98.8655V98.9823C110.579 98.9247 110.579 98.8669 110.575 98.8093V98.9304C110.568 98.8665 110.552 98.8039 110.527 98.7444L110.575 98.8525L110.553 98.8136C110.496 98.7076 110.481 98.5843 110.51 98.4676C110.542 98.3537 110.616 98.2563 110.718 98.195C110.823 98.1356 110.947 98.1201 111.064 98.1518C111.12 98.1665 111.173 98.1925 111.219 98.2282C111.266 98.2639 111.304 98.3085 111.332 98.3594C111.378 98.4512 111.412 98.5486 111.432 98.6492C111.447 98.751 111.447 98.8545 111.432 98.9564C111.428 99.0221 111.418 99.0873 111.402 99.151C111.384 99.2154 111.359 99.2777 111.328 99.337C111.315 99.3648 111.299 99.3909 111.28 99.4149C111.245 99.4706 111.205 99.5228 111.159 99.5706C110.999 99.7164 110.792 99.8007 110.575 99.8085C110.469 99.8125 110.363 99.7946 110.264 99.7559C110.164 99.7172 110.074 99.6585 109.999 99.5836C109.844 99.4111 109.756 99.1884 109.752 98.9564C109.746 98.8093 109.768 98.6625 109.817 98.5238C109.849 98.4403 109.89 98.3606 109.938 98.2859C110.005 98.1881 110.091 98.1044 110.19 98.0393C110.273 97.9847 110.367 97.948 110.465 97.9316C110.564 97.9153 110.664 97.9195 110.761 97.9442C110.957 97.9978 111.124 98.1249 111.229 98.2988C111.287 98.3923 111.318 98.5002 111.318 98.6103C111.318 98.7204 111.287 98.8283 111.229 98.9217C111.184 98.9984 111.111 99.0543 111.025 99.0775C110.961 99.0948 110.893 99.0927 110.829 99.0714C110.766 99.0501 110.711 99.0106 110.67 98.9578C110.629 98.9051 110.605 98.8415 110.6 98.775C110.596 98.7085 110.611 98.6422 110.644 98.5843L110.674 98.567Z" fill="#6592D2"/>
<path d="M109.029 106.102L108.995 106.185C108.999 106.167 108.999 106.15 108.995 106.133V106.223V106.163V106.254C108.99 106.23 108.983 106.207 108.973 106.185L109.008 106.267C108.998 106.243 108.985 106.221 108.969 106.202L109.025 106.275C109.004 106.249 108.981 106.224 108.956 106.202L109.029 106.258L108.93 106.202L109.016 106.241C108.984 106.228 108.951 106.219 108.917 106.215H109.016H108.925H109.029H108.96L109.055 106.176C109.021 106.19 108.989 106.209 108.96 106.232L109.038 106.172C109.01 106.195 108.984 106.221 108.96 106.249L109.025 106.167C108.991 106.214 108.96 106.263 108.934 106.314L108.977 106.219C108.952 106.278 108.934 106.341 108.925 106.405V106.297C108.915 106.37 108.915 106.444 108.925 106.518V106.405C108.933 106.464 108.948 106.522 108.969 106.578L108.925 106.479C108.938 106.512 108.955 106.542 108.977 106.57L108.912 106.487C108.929 106.508 108.948 106.527 108.969 106.544L108.882 106.474C108.903 106.493 108.926 106.507 108.951 106.518L108.852 106.474C108.881 106.487 108.911 106.496 108.943 106.5H108.83C108.871 106.505 108.911 106.505 108.951 106.5H108.835C108.872 106.496 108.908 106.488 108.943 106.474L108.839 106.518C108.873 106.501 108.907 106.483 108.938 106.461L108.852 106.531C108.877 106.51 108.9 106.487 108.921 106.461L108.852 106.548C108.878 106.514 108.899 106.478 108.917 106.44L108.874 106.544C108.891 106.499 108.904 106.452 108.912 106.405V106.526C108.921 106.467 108.921 106.408 108.912 106.349V106.47C108.904 106.407 108.887 106.346 108.861 106.288L108.908 106.392C108.907 106.379 108.907 106.366 108.908 106.353C108.876 106.303 108.855 106.247 108.845 106.188C108.836 106.129 108.839 106.069 108.854 106.011C108.869 105.953 108.896 105.9 108.933 105.853C108.97 105.806 109.016 105.767 109.068 105.739C109.12 105.707 109.177 105.687 109.236 105.679C109.296 105.671 109.357 105.675 109.415 105.691C109.529 105.722 109.627 105.797 109.687 105.899C109.732 105.991 109.764 106.088 109.783 106.189C109.798 106.291 109.798 106.394 109.783 106.496C109.775 106.562 109.764 106.627 109.748 106.691C109.73 106.755 109.705 106.817 109.674 106.877C109.663 106.904 109.648 106.93 109.631 106.955C109.595 107.011 109.553 107.063 109.506 107.11C109.345 107.256 109.138 107.34 108.921 107.348C108.815 107.352 108.71 107.334 108.611 107.296C108.512 107.259 108.422 107.201 108.345 107.128C108.19 106.954 108.104 106.729 108.103 106.496C108.092 106.349 108.114 106.201 108.168 106.063C108.23 105.863 108.36 105.69 108.536 105.575C108.62 105.521 108.714 105.485 108.812 105.469C108.91 105.452 109.011 105.456 109.107 105.479C109.304 105.533 109.473 105.66 109.579 105.834C109.636 105.929 109.667 106.037 109.667 106.148C109.667 106.258 109.636 106.367 109.579 106.461C109.534 106.535 109.463 106.589 109.38 106.613C109.337 106.625 109.292 106.629 109.247 106.624C109.203 106.619 109.159 106.605 109.12 106.582C109.044 106.536 108.989 106.462 108.967 106.375C108.944 106.289 108.956 106.198 108.999 106.12L109.029 106.102Z" fill="#6592D2"/>
<path d="M107.362 113.655L107.328 113.737C107.33 113.72 107.33 113.702 107.328 113.685V113.776V113.715V113.806C107.33 113.783 107.33 113.76 107.328 113.737L107.362 113.819C107.353 113.796 107.34 113.774 107.323 113.754L107.38 113.828C107.36 113.802 107.337 113.778 107.311 113.759L107.384 113.815C107.354 113.791 107.32 113.77 107.285 113.754L107.371 113.793C107.339 113.78 107.306 113.771 107.272 113.767H107.371H107.28H107.384H107.319L107.41 113.728L107.315 113.785L107.393 113.724C107.365 113.747 107.34 113.773 107.319 113.802L107.38 113.72C107.344 113.766 107.315 113.817 107.293 113.871L107.332 113.772C107.308 113.832 107.291 113.894 107.28 113.958V113.85C107.272 113.923 107.272 113.997 107.28 114.07V113.958C107.288 114.018 107.302 114.078 107.323 114.135L107.28 114.031L107.332 114.126L107.267 114.04C107.284 114.061 107.303 114.08 107.323 114.096L107.237 114.031C107.26 114.048 107.285 114.062 107.311 114.074L107.207 114.031C107.236 114.042 107.267 114.051 107.298 114.057H107.185C107.225 114.061 107.266 114.061 107.306 114.057H107.194L107.302 114.027L107.198 114.07C107.232 114.056 107.264 114.037 107.293 114.014L107.207 114.083L107.276 114.014L107.207 114.105C107.232 114.07 107.254 114.032 107.272 113.992L107.228 114.096C107.246 114.053 107.259 114.008 107.267 113.962V114.079C107.276 114.021 107.276 113.963 107.267 113.906V114.023C107.257 113.961 107.241 113.9 107.22 113.841L107.263 113.949V113.91C107.206 113.802 107.19 113.678 107.215 113.56C107.249 113.448 107.323 113.352 107.423 113.292C107.529 113.231 107.655 113.214 107.774 113.244C107.83 113.259 107.883 113.285 107.929 113.32C107.975 113.356 108.014 113.401 108.042 113.452C108.086 113.544 108.12 113.641 108.142 113.741C108.155 113.843 108.155 113.947 108.142 114.049C108.136 114.114 108.126 114.179 108.111 114.243C108.091 114.307 108.067 114.369 108.038 114.429C108.025 114.458 108.009 114.485 107.99 114.511C107.953 114.566 107.911 114.616 107.865 114.663C107.704 114.809 107.497 114.893 107.28 114.901C107.174 114.905 107.068 114.888 106.969 114.85C106.87 114.812 106.78 114.754 106.704 114.68C106.549 114.506 106.463 114.282 106.462 114.049C106.451 113.806 106.514 113.566 106.644 113.361C106.712 113.265 106.797 113.183 106.895 113.118C106.979 113.064 107.072 113.028 107.17 113.01C107.269 112.993 107.369 112.996 107.466 113.019C107.664 113.071 107.833 113.199 107.938 113.374C107.996 113.468 108.026 113.577 108.026 113.687C108.026 113.798 107.996 113.906 107.938 114.001C107.89 114.075 107.819 114.13 107.735 114.157C107.647 114.178 107.554 114.166 107.475 114.122C107.398 114.076 107.342 114.002 107.32 113.915C107.297 113.829 107.309 113.737 107.354 113.659L107.362 113.655Z" fill="#6592D2"/>
<path d="M105.731 121.199L105.696 121.277C105.698 121.259 105.698 121.242 105.696 121.225V121.316C105.7 121.296 105.7 121.275 105.696 121.255V121.346C105.693 121.322 105.686 121.298 105.674 121.277L105.713 121.363C105.702 121.341 105.689 121.319 105.674 121.298L105.731 121.368C105.708 121.342 105.684 121.319 105.657 121.298L105.731 121.355C105.701 121.33 105.667 121.311 105.631 121.298L105.718 121.333C105.686 121.32 105.652 121.311 105.618 121.307H105.718H105.631H105.731H105.666L105.757 121.268L105.661 121.324L105.744 121.264C105.714 121.285 105.687 121.312 105.666 121.342L105.726 121.259C105.691 121.306 105.662 121.357 105.64 121.411L105.679 121.311C105.657 121.372 105.641 121.434 105.631 121.497V121.389C105.623 121.462 105.623 121.537 105.631 121.61V121.497C105.639 121.558 105.653 121.617 105.674 121.675L105.636 121.575C105.65 121.607 105.667 121.638 105.687 121.666L105.618 121.58C105.635 121.6 105.654 121.619 105.674 121.636L105.588 121.571C105.611 121.588 105.636 121.602 105.661 121.614L105.558 121.571C105.587 121.583 105.617 121.592 105.648 121.597H105.536C105.576 121.605 105.617 121.605 105.657 121.597H105.545L105.653 121.567L105.549 121.61C105.584 121.597 105.616 121.578 105.644 121.554L105.558 121.623C105.583 121.602 105.606 121.579 105.627 121.554L105.562 121.644C105.588 121.609 105.609 121.572 105.627 121.532L105.579 121.64C105.598 121.596 105.611 121.549 105.618 121.502V121.618C105.627 121.561 105.627 121.503 105.618 121.445V121.562C105.608 121.5 105.592 121.439 105.571 121.381L105.614 121.489C105.615 121.476 105.615 121.463 105.614 121.45C105.557 121.342 105.541 121.217 105.571 121.099C105.584 121.041 105.61 120.987 105.646 120.939C105.682 120.892 105.727 120.852 105.779 120.823C105.832 120.793 105.889 120.775 105.948 120.769C106.008 120.763 106.068 120.77 106.125 120.788C106.182 120.801 106.235 120.827 106.282 120.862C106.328 120.898 106.366 120.944 106.393 120.996C106.438 121.086 106.472 121.182 106.493 121.281C106.508 121.383 106.508 121.486 106.493 121.588C106.487 121.655 106.477 121.722 106.462 121.787C106.442 121.849 106.417 121.91 106.389 121.969C106.375 121.998 106.36 122.025 106.341 122.051C106.305 122.106 106.263 122.157 106.216 122.202C106.057 122.35 105.852 122.435 105.636 122.445C105.529 122.447 105.422 122.429 105.323 122.39C105.223 122.352 105.132 122.294 105.055 122.22C104.901 122.047 104.815 121.824 104.813 121.592C104.806 121.445 104.828 121.298 104.878 121.16C104.906 121.074 104.946 120.993 104.995 120.918C105.063 120.822 105.148 120.74 105.246 120.675C105.329 120.621 105.423 120.585 105.522 120.568C105.62 120.552 105.721 120.556 105.817 120.58C106.015 120.631 106.184 120.756 106.289 120.931C106.347 121.025 106.378 121.134 106.378 121.244C106.378 121.355 106.347 121.464 106.289 121.558C106.241 121.632 106.17 121.687 106.086 121.714C106.042 121.725 105.997 121.728 105.952 121.722C105.908 121.716 105.865 121.702 105.826 121.679C105.751 121.632 105.697 121.557 105.674 121.471C105.652 121.386 105.662 121.294 105.705 121.216L105.731 121.199Z" fill="#6592D2"/>
</g>
<defs>
<clipPath id="clip0_678_1023">
<rect width="413" height="263" fill="white" transform="matrix(-1 0 0 1 413 0.000488281)"/>
</clipPath>
</defs>
</svg>
