<svg width="180" height="71" viewBox="0 0 180 71" fill="none" xmlns="http://www.w3.org/2000/svg">
<path d="M39.1401 0.562407H54.9578L54.4305 4.83319H44.6763L44.0963 9.42032H53.2882L52.7433 13.7614H43.5515L42.8836 18.9461H53.007L52.4445 23.3399H36.2578L39.1401 0.562407ZM59.1934 0.562407H65.2745L62.9545 18.8406H72.1112L71.5488 23.3399H56.3287L59.211 0.562407H59.1934ZM77.2783 0.562407H93.096L92.5512 4.81561H82.797L82.217 9.42032H91.4264L90.8816 13.7438H81.6721L81.0219 18.9285H91.1452L90.5828 23.3223H74.396L77.2783 0.544832V0.562407ZM116.067 1.24784L114.942 6.01073C114.151 5.50105 113.308 5.11439 112.446 4.86834C111.568 4.62228 110.654 4.49926 109.687 4.49926C107.42 4.49926 105.522 5.16712 104.01 6.48526C102.499 7.82098 101.602 9.59608 101.321 11.8281C101.04 14.0778 101.497 15.8529 102.692 17.1886C103.905 18.5243 105.645 19.1922 107.93 19.1922C108.826 19.1922 109.757 19.0867 110.724 18.8582C111.691 18.6473 112.675 18.3134 113.677 17.874L113.395 22.9884C112.271 23.2872 111.146 23.5157 110.039 23.6563C108.931 23.7969 107.824 23.8847 106.717 23.8847C102.587 23.8847 99.4934 22.8302 97.4547 20.7036C95.416 18.5946 94.6427 15.6244 95.1172 11.8281C95.5742 8.20763 97.0856 5.32529 99.6165 3.19869C102.165 1.07209 105.381 0.0175752 109.283 0.0175752C110.583 0.0175752 111.814 0.123027 112.956 0.333929C114.098 0.544832 115.135 0.861186 116.084 1.26542L116.067 1.24784ZM117.965 0.562407H135.312L134.732 5.11439H129.09L126.77 23.3399H120.689L123.009 5.11439H117.367L117.947 0.562407H117.965ZM143.344 4.56956L142.605 10.4045H144.732C146.05 10.4045 147.052 10.1761 147.773 9.70153C148.493 9.227 148.915 8.50641 149.038 7.55735C149.161 6.53798 148.897 5.78225 148.23 5.29014C147.562 4.81561 146.437 4.56956 144.855 4.56956H143.344ZM137.913 0.562407H146.964C149.987 0.562407 152.149 1.05451 153.485 2.02115C154.82 3.00536 155.365 4.48168 155.101 6.48526C154.908 7.96158 154.381 9.17427 153.485 10.1233C152.588 11.0724 151.393 11.7051 149.917 12.039C151.059 12.4784 151.868 13.7263 152.325 15.765V15.7826L154.1 23.3399H147.773L146.56 17.1007C146.367 16.0989 146.015 15.4135 145.505 15.0092C144.996 14.6226 144.152 14.4293 142.975 14.4293H142.096L140.971 23.3223H135.031L137.913 0.544832V0.562407ZM169.513 4.42896C167.949 4.42896 166.596 5.11439 165.471 6.45011C164.346 7.8034 163.643 9.61365 163.344 11.8809C163.063 14.1481 163.309 15.9759 164.082 17.3292C164.856 18.6825 166.033 19.3679 167.615 19.3679C169.197 19.3679 170.532 18.6825 171.64 17.3468C172.747 15.9935 173.45 14.1832 173.749 11.8984C174.03 9.63123 173.801 7.83855 173.028 6.48526C172.255 5.13197 171.095 4.44653 169.531 4.44653L169.513 4.42896ZM170.076 0C173.608 0 176.244 1.05451 177.967 3.16354C179.689 5.27257 180.322 8.19006 179.847 11.9336C179.373 15.6947 178.002 18.6122 175.752 20.7036C173.485 22.8126 170.585 23.8496 167.053 23.8496C163.502 23.8496 160.849 22.7951 159.126 20.7036C157.404 18.5946 156.771 15.6771 157.246 11.9336C157.72 8.19006 159.091 5.27257 161.358 3.16354C163.625 1.05451 166.543 0 170.093 0H170.076Z" fill="#9C9C9C"/>
<path d="M53.4463 29.5618L52.2336 35.0277C51.2143 34.5708 50.2125 34.2193 49.2458 33.9908C48.2792 33.7623 47.3301 33.6393 46.3986 33.6393C44.9575 33.6393 43.8151 33.8678 42.9715 34.3247C42.1103 34.7817 41.6358 35.3968 41.5303 36.2053C41.46 36.7677 41.6006 37.2598 41.9697 37.664C42.3212 38.0858 42.9012 38.4198 43.6745 38.701C43.9381 38.7888 44.3248 38.9119 44.7993 39.07C47.7168 40.0543 49.6149 40.9154 50.5112 41.6536C51.3549 42.3742 51.9348 43.2002 52.2512 44.1317C52.5675 45.0632 52.6554 46.1353 52.4972 47.3831C52.1282 50.3006 50.8803 52.5327 48.7361 54.0617C46.592 55.5908 43.6921 56.3641 40.0188 56.3641C38.6831 56.3641 37.365 56.2762 36.0468 56.0829C34.7287 55.8895 33.4457 55.6259 32.1803 55.2393L33.5336 49.3164C34.7111 49.8788 35.8535 50.3006 36.9959 50.5994C38.1383 50.8982 39.2279 51.0388 40.2649 51.0388C41.6533 51.0388 42.7957 50.7751 43.6745 50.2479C44.5532 49.7206 45.0453 49.0176 45.1508 48.1213C45.2914 47.014 44.1314 46.0123 41.6533 45.1159C41.0558 44.905 40.5988 44.7293 40.2825 44.6062C37.8747 43.6923 36.205 42.6378 35.2735 41.4427C34.342 40.2476 33.9905 38.7185 34.2366 36.838C34.5705 34.1841 35.7832 32.1278 37.8747 30.7042C39.9661 29.2631 42.7781 28.5601 46.3283 28.5601C47.6289 28.5601 48.8767 28.6304 50.0719 28.7885C51.267 28.9467 52.3918 29.1752 53.4639 29.5091L53.4463 29.5618ZM56.7153 29.2631H76.9092L76.2414 34.5532H69.6682L66.9792 55.7665H59.914L62.603 34.5532H56.0299L56.6977 29.2631H56.7153ZM86.2593 33.9205L85.3981 40.7221H87.8762C89.4052 40.7221 90.5828 40.4409 91.4264 39.8961C92.2524 39.3337 92.7445 38.5076 92.8851 37.4004C93.0433 36.2053 92.7269 35.3265 91.9361 34.7641C91.1627 34.2017 89.8446 33.9205 87.9992 33.9205H86.2417H86.2593ZM79.9322 29.2631H90.4773C93.9924 29.2631 96.5232 29.8255 98.0698 30.9679C99.634 32.1103 100.249 33.8326 99.9504 36.1701C99.7395 37.8925 99.1067 39.2985 98.0698 40.4058C97.0329 41.513 95.6444 42.2512 93.9045 42.6202C95.2226 43.1299 96.1717 44.5711 96.7165 46.9613V46.9789L98.7728 55.7665H91.4088L90.0028 48.5079C89.7743 47.348 89.3701 46.5395 88.7901 46.0826C88.1925 45.6432 87.2259 45.4147 85.855 45.4147H84.8357L83.5175 55.7665H76.5929L79.9497 29.2631H79.9322ZM105.03 29.2631H123.448L122.816 34.2193H111.462L110.777 39.5797H121.48L120.847 44.6238H110.144L109.371 50.6697H121.146L120.496 55.7841H101.655L105.012 29.2806L105.03 29.2631ZM128.369 29.2631H146.788L146.156 34.2193H134.802L134.117 39.5797H144.82L144.187 44.6238H133.484L132.711 50.6697H144.486L143.836 55.7841H124.995L128.352 29.2806L128.369 29.2631ZM149.618 29.2631H169.812L169.144 34.5532H162.571L159.882 55.7665H152.817L155.506 34.5532H148.933L149.6 29.2631H149.618Z" fill="#E6E6E6"/>
<path d="M25.5649 0.328513L25.1617 3.34337L31.5969 3.36108L24.5087 55.7184L0.69956 55.6194L0.908906 54.1245L0.90936 54.1231C0.909478 54.1223 0.909594 54.1211 0.909814 54.1195C0.910295 54.1161 0.911134 54.1109 0.912085 54.1041C0.913997 54.0904 0.916967 54.07 0.920713 54.0432C0.928223 53.9896 0.939008 53.91 0.953409 53.8071C0.982236 53.6011 1.02421 53.3005 1.07693 52.9234C1.18235 52.1692 1.33067 51.1078 1.50198 49.879C1.84466 47.4209 2.27969 44.2933 2.64861 41.6142L7.81096 3.26889H9.44213L14.0014 3.29705L14.4242 0.236328L25.5649 0.328513ZM16.2979 5.94725L10.1151 5.9091L5.26067 41.9697L5.26021 41.9738C4.89099 44.6551 4.45587 47.7842 4.11312 50.2427C3.9629 51.3203 3.8304 52.2691 3.72894 52.9951L22.2059 53.0723L24.5291 35.8878L24.5296 35.8873L28.5807 5.98857L22.1505 5.97131L22.556 2.93966L16.7188 2.89198L16.2979 5.94725Z" fill="#E6E6E6"/>
<path fill-rule="evenodd" clip-rule="evenodd" d="M21.8108 7.8208L17.8212 18.4538L22.2151 17.5575L12.3729 31.1607L16.2922 20.5277L12.0566 20.7737L21.8108 7.8208Z" fill="#E6E6E6"/>
<path d="M21.8384 46.4116H5.93783C5.61758 46.4116 5.31703 46.7601 5.26654 47.1901L4.89844 50.3244C4.84795 50.7543 5.06663 51.1028 5.38688 51.1028H21.2875C21.6077 51.1028 21.9083 50.7543 21.9588 50.3244L22.3269 47.1901C22.3774 46.7601 22.1587 46.4116 21.8384 46.4116Z" fill="#9C9C9C"/>
<path d="M22.5824 40.0767H6.68178C6.36153 40.0767 6.06098 40.4252 6.01049 40.8551L5.64239 43.9894C5.5919 44.4194 5.81058 44.7679 6.13083 44.7679H22.0314C22.3517 44.7679 22.6522 44.4194 22.7027 43.9894L23.0708 40.8551C23.1213 40.4252 22.9026 40.0767 22.5824 40.0767Z" fill="#9C9C9C"/>
<path d="M23.5619 33.8071H7.6613C7.34104 33.8071 7.0405 34.1557 6.99001 34.5856L6.62191 37.7199C6.57142 38.1498 6.7901 38.4984 7.11035 38.4984H23.011C23.3312 38.4984 23.6318 38.1498 23.6822 37.7199L24.0503 34.5856C24.1008 34.1557 23.8821 33.8071 23.5619 33.8071Z" fill="#9C9C9C"/>
<path fill-rule="evenodd" clip-rule="evenodd" d="M3.51505 62.058L2.42538 67.8051H0.931487L2.02115 62.058L0 62.1107L0.246053 60.8453H5.76467L5.51862 62.1107L3.51505 62.058ZM9.8597 67.6821L9.40275 70.0372L7.85613 70.2832L9.63122 60.9683L11.0021 60.6871L10.9669 60.9683C11.0548 60.9332 11.1427 60.9156 11.213 60.898C11.5645 60.8102 11.916 60.775 12.2675 60.775C13.0584 60.775 13.7614 61.0562 14.2008 61.7241C14.7105 62.4974 14.605 63.6398 14.4468 64.5185C14.2711 65.4324 13.9196 66.3112 13.2517 66.9615C12.619 67.5942 11.8106 67.893 10.9142 67.893C10.5627 67.893 10.1761 67.8578 9.8597 67.6997V67.6821ZM22.303 67.3657C22.2151 67.436 22.1096 67.5063 22.0042 67.5766C21.7757 67.6997 21.5297 67.7875 21.266 67.8227C21.2133 67.8227 21.1781 67.8403 21.1254 67.8403C21.0024 67.8578 20.8794 67.8578 20.7563 67.8754C20.6157 67.893 20.4751 67.893 20.3345 67.893C18.8582 67.9106 17.4698 67.436 17.8037 65.6785C17.8916 65.204 18.0849 64.747 18.4013 64.3955C18.7352 64.0264 19.2097 63.7628 19.6843 63.5695C20.3697 63.2883 21.4066 63.1828 22.1448 63.1301C22.303 63.1125 22.3733 63.0598 22.4084 62.9016C22.426 62.7962 22.4611 62.6731 22.4611 62.5677C22.4611 62.4974 22.4436 62.2865 22.4084 62.2338C22.2502 62.0404 21.6878 62.058 21.4769 62.0756C21.1781 62.1107 20.8794 62.181 20.5982 62.2689C20.3697 62.3568 20.1236 62.4447 19.9127 62.5677L18.8934 63.1652L19.4382 61.3374L19.5437 61.2671C20.0709 60.9332 20.9145 60.8453 21.5297 60.7926C22.1975 60.7574 23.0235 60.7926 23.5157 61.3198C23.9023 61.7416 24.0429 62.2338 23.955 62.7962C23.7793 63.8683 23.6211 64.9755 23.4278 66.0476C23.4102 66.1003 23.3926 66.2761 23.4278 66.3288C23.4278 66.3288 23.4454 66.3288 23.4454 66.3464C23.7441 66.4167 23.9199 66.6451 23.9199 66.9439C23.9375 67.19 23.832 67.4184 23.6563 67.5942C23.4454 67.8051 23.1817 67.8754 22.9005 67.7875C22.6545 67.7172 22.4611 67.5766 22.3205 67.3833L22.303 67.3657ZM32.4263 64.6943H29.8779L29.2803 67.7875H27.7864L29.087 60.9508L30.6336 60.6871L30.1239 63.3586H32.6723L33.1469 60.8277H34.6408L33.3051 67.7875H31.8112L32.4087 64.6943H32.4263ZM42.7957 62.5501C42.7781 62.515 42.7254 62.4798 42.7078 62.4447C42.6375 62.3744 42.5672 62.3041 42.4969 62.2513C42.409 62.181 42.2508 62.1283 42.1454 62.1107C41.9696 62.058 41.7763 62.0404 41.583 62.0404C40.2824 62.0404 39.843 63.218 39.6497 64.3252C39.5794 64.7119 39.4388 65.5203 39.5091 65.907C39.6146 66.5045 40.2297 66.61 40.7394 66.61C40.9151 66.61 41.1085 66.5748 41.2666 66.5221C41.4424 66.4694 41.6006 66.3991 41.7587 66.2936C41.8993 66.2058 42.0224 66.1179 42.163 66.0124C42.2333 65.9597 42.3387 65.8718 42.409 65.8015L43.5866 64.4834L42.7781 67.1021L42.7078 67.1724C42.6375 67.2427 42.5496 67.313 42.4793 67.3657C42.3036 67.5063 41.9696 67.6118 41.7587 67.6997C41.3721 67.8403 40.9679 67.893 40.5636 67.893C40.2824 67.893 40.0012 67.8754 39.72 67.8051C39.4915 67.7524 39.2806 67.6821 39.0697 67.5942C38.8764 67.4887 38.7006 67.3657 38.56 67.19C38.4546 67.0669 38.3491 66.9263 38.2613 66.7682C38.1558 66.5924 38.1031 66.3991 38.0855 66.1882C38.0679 66.03 38.0328 65.8718 38.0328 65.6961C38.0152 65.5203 38.0328 65.327 38.0504 65.1337C38.0679 64.9755 38.0855 64.8173 38.1031 64.6416C38.1207 64.4834 38.1558 64.3428 38.191 64.1846C38.2788 63.7101 38.4019 63.2531 38.6128 62.8137C38.7885 62.4622 38.9994 62.1107 39.2631 61.8119C39.4915 61.5659 39.7552 61.355 40.0539 61.1792C40.3 61.0386 40.5812 60.898 40.8624 60.8277C41.1085 60.7574 41.3721 60.7223 41.6181 60.7223C42.0048 60.7223 42.409 60.7574 42.7781 60.8629C43.0242 60.9332 43.3581 61.0211 43.5514 61.1617L43.9381 61.4429L43.1999 63.341L42.8484 62.6028C42.8308 62.5677 42.8133 62.5325 42.8133 62.4974L42.7957 62.5501ZM51.9524 62.0404H49.4918L48.4022 67.7875H46.9083L48.244 60.8277H53.6923L52.3566 67.7875H50.8627L51.9524 62.0404ZM62.972 64.3076C62.8842 64.747 62.7787 65.1688 62.603 65.573C62.4448 65.9773 62.2163 66.3464 61.9702 66.6803C61.689 67.0669 61.3024 67.3481 60.8806 67.559C60.4061 67.7875 59.8964 67.8754 59.3691 67.8754C59.0176 67.8754 58.6661 67.8227 58.3322 67.6821C57.9982 67.5415 57.6995 67.3306 57.4534 67.0669C57.1371 66.733 56.9789 66.2936 56.9086 65.8543C56.8031 65.2918 56.8559 64.7119 56.9613 64.167C57.1371 63.2004 57.5237 62.2162 58.297 61.5659C58.9649 61.0211 59.7382 60.7399 60.5818 60.7399C61.4254 60.7399 62.1812 61.0035 62.6557 61.7416C63.1478 62.4974 63.1302 63.4464 62.972 64.2901V64.3076ZM67.7349 67.6821L67.278 70.0372L65.7313 70.2832L67.5064 60.9683L68.8773 60.6871L68.8422 60.9683C68.93 60.9332 69.0179 60.9156 69.0882 60.898C69.4397 60.8102 69.7912 60.775 70.1427 60.775C70.9336 60.775 71.6366 61.0562 72.076 61.7241C72.5857 62.4974 72.4802 63.6398 72.3221 64.5185C72.1463 65.4324 71.7948 66.3112 71.1269 66.9615C70.4942 67.5942 69.6858 67.893 68.7894 67.893C68.4379 67.893 68.0513 67.8578 67.7349 67.6997V67.6821ZM79.7564 62.058L78.6667 67.8051H77.1728L78.2625 62.058L76.2413 62.1107L76.4874 60.8453H82.006L81.76 62.1107L79.7564 62.058ZM99.9152 60.898C100.302 60.7574 100.741 60.7223 101.145 60.7223C101.936 60.7223 102.657 60.9859 103.114 61.6538C103.624 62.3919 103.553 63.4464 103.395 64.2901C103.342 64.5361 103.29 64.7646 103.237 64.9931C103.149 65.2918 103.026 65.6082 102.885 65.8894C102.727 66.2409 102.516 66.5573 102.27 66.856C101.989 67.1548 101.638 67.4009 101.268 67.5766C100.829 67.7875 100.337 67.893 99.8449 67.893C99.4582 67.893 99.0716 67.8403 98.72 67.6997C98.4388 67.5942 98.1752 67.436 97.9643 67.2075C97.7886 67.0142 97.6655 66.7857 97.5952 66.5397C97.5249 66.3288 97.4898 66.1179 97.4722 65.907C97.4722 65.7312 97.4898 65.573 97.5074 65.3973L98.3334 61.0386C98.4388 60.4411 98.7376 59.9314 99.1594 59.5096C99.5812 59.0702 100.091 58.789 100.706 58.7363L103.131 58.4727L103.87 59.949H103.307C102.534 59.949 101.567 59.9314 100.812 60.072C100.565 60.1072 100.372 60.2829 100.214 60.4762C100.108 60.6168 100.003 60.7574 99.9152 60.9156V60.898ZM110.9 67.6997L110.742 67.7524C110.372 67.8578 109.968 67.893 109.599 67.893C109.248 67.893 108.896 67.8403 108.562 67.7172C108.281 67.6118 108.035 67.4712 107.824 67.2427C107.666 67.0669 107.525 66.856 107.437 66.6276C107.349 66.4167 107.297 66.1882 107.279 65.9597C107.262 65.7664 107.279 65.573 107.314 65.3797L108.158 60.9508L109.705 60.7047L108.791 65.5379C108.773 65.6433 108.773 65.7488 108.791 65.8543C108.808 65.9773 108.843 66.1003 108.914 66.2058C108.966 66.3112 109.072 66.3991 109.195 66.4518C109.371 66.5397 109.582 66.5748 109.775 66.5748C110.109 66.5748 110.478 66.5573 110.812 66.487C110.882 66.4694 111.075 66.4167 111.163 66.3815L112.218 60.8453H113.712L112.429 67.5239C112.358 67.8403 112.288 68.1742 112.165 68.4905C112.042 68.7893 111.866 69.0705 111.638 69.3166C111.374 69.6329 111.005 69.8263 110.618 69.9493C110.162 70.0899 109.652 70.1426 109.16 70.1426C108.72 70.1426 108.281 70.0899 107.859 69.9493C107.596 69.8614 107.226 69.7384 107.016 69.5451L106.629 69.2111L107.262 67.6821L107.631 68.139C107.648 68.1566 107.666 68.1918 107.683 68.2093C107.736 68.2621 107.806 68.3148 107.859 68.3499C107.965 68.4202 108.07 68.4905 108.176 68.5433C108.316 68.6136 108.509 68.6663 108.668 68.7014C108.879 68.7542 109.107 68.7717 109.335 68.7717C109.687 68.7717 110.162 68.7366 110.46 68.5257C110.724 68.3499 110.829 68.0336 110.882 67.7524L110.9 67.6997ZM122.253 66.5045H122.622L122.359 69.0178H121.462L121.111 67.7875H117.807L116.981 69.0178H116.014L116.717 66.5045H117.192C117.174 66.1355 117.209 65.7664 117.279 65.3973C117.42 64.6591 117.666 63.921 118.018 63.2531C118.035 63.1652 118.07 63.1477 118.123 63.0598C118.176 62.9543 118.229 62.8665 118.281 62.761C118.352 62.638 118.422 62.515 118.51 62.3919C118.598 62.2338 118.703 62.0932 118.826 61.9526C118.949 61.8119 119.072 61.6889 119.195 61.5483C119.353 61.4077 119.512 61.2671 119.687 61.1617C119.863 61.0562 120.056 60.9683 120.25 60.898C120.636 60.7574 121.128 60.7399 121.533 60.7399C121.796 60.7399 122.06 60.7399 122.324 60.7574C122.499 60.775 122.693 60.775 122.851 60.8102L123.343 60.898L122.271 66.487L122.253 66.5045ZM130.426 67.6997L130.268 67.7524C129.898 67.8578 129.494 67.893 129.125 67.893C128.774 67.893 128.422 67.8403 128.088 67.7172C127.807 67.6118 127.561 67.4712 127.35 67.2427C127.192 67.0669 127.051 66.856 126.963 66.6276C126.876 66.4167 126.823 66.1882 126.805 65.9597C126.788 65.7664 126.805 65.573 126.84 65.3797L127.684 60.9508L129.231 60.7047L128.317 65.5379C128.299 65.6433 128.299 65.7488 128.317 65.8543C128.334 65.9773 128.369 66.1003 128.44 66.2058C128.492 66.3112 128.598 66.3991 128.721 66.4518C128.897 66.5397 129.108 66.5748 129.301 66.5748C129.635 66.5748 130.004 66.5573 130.338 66.487C130.408 66.4694 130.602 66.4167 130.689 66.3815L131.744 60.8453H133.238L131.955 67.5239C131.885 67.8403 131.814 68.1742 131.691 68.4905C131.568 68.7893 131.392 69.0705 131.164 69.3166C130.9 69.6329 130.531 69.8263 130.145 69.9493C129.688 70.0899 129.178 70.1426 128.686 70.1426C128.246 70.1426 127.807 70.0899 127.385 69.9493C127.122 69.8614 126.753 69.7384 126.542 69.5451L126.155 69.2111L126.788 67.6821L127.157 68.139C127.174 68.1566 127.192 68.1918 127.209 68.2093C127.262 68.2621 127.333 68.3148 127.385 68.3499C127.491 68.4202 127.596 68.4905 127.702 68.5433C127.842 68.6136 128.036 68.6663 128.194 68.7014C128.405 68.7542 128.633 68.7717 128.862 68.7717C129.213 68.7717 129.688 68.7366 129.986 68.5257C130.25 68.3499 130.355 68.0336 130.408 67.7524L130.426 67.6997ZM144.205 66.5045H144.996L144.521 68.5784H143.185L143.273 67.8051H138.37C137.878 67.8051 137.438 67.6645 137.087 67.313C136.718 66.9439 136.63 66.4518 136.735 65.9421L137.684 60.9508L139.301 60.6871L138.194 66.0652C138.176 66.1706 138.212 66.2761 138.264 66.3639C138.299 66.4167 138.352 66.487 138.422 66.487H139.635L140.69 60.9332L142.254 60.6696L141.147 66.487H142.676L143.765 60.8102H145.259L144.17 66.487L144.205 66.5045ZM154.592 64.6767L154.732 64.5185L153.766 67.1548L153.678 67.2251C153.59 67.2954 153.484 67.3657 153.379 67.4184C153.151 67.5415 152.781 67.6469 152.535 67.7172C152.096 67.8403 151.657 67.893 151.2 67.893C150.778 67.893 150.321 67.8227 149.952 67.6294C149.635 67.4712 149.372 67.2427 149.179 66.9439C149.003 66.6627 148.915 66.3288 148.88 66.0124C148.845 65.7137 148.827 65.3973 148.862 65.0809C148.897 64.7822 148.932 64.501 148.985 64.2022C149.091 63.6573 149.249 63.1125 149.477 62.6028C149.671 62.1986 149.934 61.8119 150.286 61.5132C150.567 61.2671 150.901 61.0738 151.252 60.9508C151.604 60.8277 151.973 60.775 152.324 60.7574C153.08 60.7399 153.906 60.8629 154.451 61.4429C155.014 62.0229 155.084 62.8489 154.873 63.6046L154.574 64.6943L154.592 64.6767ZM150.391 64.747C150.251 65.5906 150.268 66.5924 151.375 66.5924C151.639 66.5924 151.885 66.5573 152.149 66.5045C152.36 66.4518 152.571 66.3815 152.764 66.2936C152.922 66.2233 153.08 66.1355 153.221 66.03C153.309 65.9773 153.432 65.907 153.484 65.8367L154.574 64.7119L150.391 64.7646V64.747ZM163.186 62.2689C162.993 62.2162 162.659 62.1986 162.465 62.181C161.921 62.1283 161.358 62.1107 160.813 62.1107L159.724 67.7875H158.23L159.565 60.8277H163.748L163.819 63.0422L163.204 62.2689H163.186ZM172.782 64.2901C172.694 64.7294 172.589 65.1512 172.413 65.5555C172.255 65.9597 172.026 66.3288 171.78 66.6627C171.499 67.0494 171.112 67.3306 170.691 67.5415C170.216 67.77 169.706 67.8578 169.179 67.8578C168.828 67.8578 168.476 67.8051 168.142 67.6645C167.808 67.5239 167.509 67.313 167.263 67.0494C166.947 66.7154 166.789 66.2761 166.719 65.8367C166.613 65.2743 166.666 64.6943 166.771 64.1495C166.947 63.1828 167.334 62.1986 168.107 61.5483C168.775 61.0035 169.548 60.7223 170.392 60.7223C171.235 60.7223 171.991 60.9859 172.466 61.7241C172.958 62.4798 172.94 63.4289 172.782 64.2725V64.2901ZM10.9142 62.2513L10.1409 66.2761C10.2112 66.3288 10.4045 66.4167 10.4924 66.4342C10.6857 66.5221 10.8966 66.5573 11.1251 66.5573C11.6172 66.5573 12.0039 66.3639 12.3202 65.9949C12.7245 65.5379 12.9354 64.9228 13.0408 64.3428C13.076 64.167 13.1111 63.9737 13.1287 63.798C13.1463 63.587 13.1463 63.3586 13.1463 63.1477C13.1463 62.9368 13.1111 62.7259 13.0584 62.5325C13.0057 62.3919 12.9178 62.2689 12.7948 62.1635C12.6542 62.058 12.4784 62.0229 12.3027 62.0229C12.0215 62.0229 11.7227 62.0404 11.4415 62.0932C11.3009 62.1283 11.0724 62.1635 10.9494 62.2338L10.9142 62.2513ZM22.0218 65.5027L22.1975 64.3779H22.1799C22.0745 64.3955 21.9515 64.3955 21.846 64.4131C21.6703 64.4307 21.4945 64.4482 21.3363 64.4834C21.1606 64.5185 20.9848 64.5361 20.8266 64.5713C20.6509 64.6064 20.4927 64.6416 20.317 64.6943C20.2115 64.7294 20.0885 64.7822 20.0006 64.8349C19.8249 64.9403 19.614 65.1161 19.5085 65.2918C19.403 65.45 19.3503 65.6609 19.3152 65.8367C19.2976 65.9246 19.28 66.03 19.2976 66.1179C19.3152 66.1882 19.3503 66.2761 19.3855 66.3288C19.4382 66.3991 19.5964 66.4518 19.6843 66.4694C19.9479 66.5397 20.2642 66.5573 20.5454 66.5573C20.7915 66.5573 21.0551 66.5397 21.2836 66.4518C21.4242 66.3991 21.5824 66.3464 21.6878 66.2409C21.7581 66.1706 21.846 66.0827 21.8987 65.9773C21.9339 65.907 21.969 65.8367 21.969 65.7664L22.0218 65.4852V65.5027ZM59.5449 66.5748C59.7909 66.5748 60.0194 66.5397 60.2479 66.4342C60.4236 66.3464 60.617 66.2409 60.74 66.0827C60.8806 65.9246 61.0036 65.7312 61.0915 65.5203C61.1969 65.3094 61.2848 65.0809 61.3375 64.87C61.4078 64.6416 61.4606 64.3955 61.4957 64.167C61.5484 63.8858 61.5836 63.587 61.5836 63.3058C61.5836 63.0598 61.5484 62.8313 61.4781 62.6028C61.4254 62.4271 61.32 62.2865 61.1618 62.181C60.986 62.058 60.74 62.0229 60.5291 62.0229C60.2303 62.0229 59.9315 62.0756 59.6679 62.2162C59.4218 62.3392 59.2109 62.515 59.0528 62.7434C58.8946 62.9719 58.754 63.218 58.6485 63.4816C58.5431 63.7452 58.4728 64.0089 58.4201 64.2725C58.3498 64.6591 58.297 65.0809 58.3498 65.4852C58.3849 65.6961 58.4376 65.9773 58.5782 66.1355C58.6837 66.2761 58.8243 66.3815 59 66.4518C59.1758 66.5221 59.3515 66.5573 59.5449 66.5573V66.5748ZM68.7719 62.2513L67.9986 66.2761C68.0689 66.3288 68.2622 66.4167 68.3501 66.4342C68.5434 66.5221 68.7543 66.5573 68.9828 66.5573C69.4749 66.5573 69.8615 66.3639 70.1779 65.9949C70.5821 65.5379 70.793 64.9228 70.8985 64.3428C70.9336 64.167 70.9688 63.9737 70.9863 63.798C71.0039 63.587 71.0039 63.3586 71.0039 63.1477C71.0039 62.9368 70.9688 62.7259 70.916 62.5325C70.8633 62.3919 70.7754 62.2689 70.6524 62.1635C70.5118 62.058 70.3361 62.0229 70.1603 62.0229C69.8791 62.0229 69.5803 62.0404 69.2991 62.0932C69.1585 62.1283 68.93 62.1635 68.807 62.2338L68.7719 62.2513ZM99.6164 62.3041L99.0013 65.5379C98.9485 65.8015 99.0364 66.03 99.177 66.2409C99.3703 66.5045 99.7043 66.5573 100.003 66.5573C100.284 66.5573 100.565 66.487 100.812 66.3288C101.058 66.1706 101.251 65.9773 101.391 65.7137C101.55 65.45 101.673 65.1864 101.778 64.9052C101.866 64.6416 101.936 64.3779 101.989 64.1143C102.042 63.8331 102.077 63.5343 102.077 63.2531C102.077 63.0071 102.042 62.7786 101.971 62.5501C101.919 62.3744 101.813 62.2338 101.655 62.1283C101.462 62.0053 101.198 61.9701 100.97 61.9701C100.671 61.9701 100.355 61.9877 100.073 62.0756C99.9855 62.0932 99.7218 62.181 99.6691 62.2338L99.6164 62.2865V62.3041ZM118.562 66.487H120.759L121.603 62.0404H121.445C121.023 62.0229 120.619 62.1107 120.302 62.4095C119.898 62.7962 119.564 63.3761 119.301 63.8683C118.967 64.5185 118.756 65.2567 118.615 65.9949C118.58 66.1706 118.562 66.3288 118.545 66.5045L118.562 66.487ZM150.672 63.3937L153.502 63.341C153.555 63.0071 153.555 62.6204 153.397 62.3568C153.221 62.058 152.623 62.0229 152.307 62.0229C151.358 62.0229 150.901 62.6028 150.672 63.3937ZM169.355 66.5748C169.601 66.5748 169.829 66.5397 170.058 66.4342C170.234 66.3464 170.427 66.2409 170.55 66.0827C170.691 65.9246 170.814 65.7312 170.902 65.5203C171.007 65.3094 171.095 65.0809 171.148 64.87C171.218 64.6416 171.271 64.3955 171.306 64.167C171.358 63.8858 171.394 63.587 171.394 63.3058C171.394 63.0598 171.358 62.8313 171.288 62.6028C171.235 62.4271 171.13 62.2865 170.972 62.181C170.796 62.058 170.55 62.0229 170.339 62.0229C170.04 62.0229 169.742 62.0756 169.478 62.2162C169.232 62.3392 169.021 62.515 168.863 62.7434C168.705 62.9719 168.564 63.218 168.459 63.4816C168.353 63.7452 168.283 64.0089 168.23 64.2725C168.16 64.6591 168.107 65.0809 168.16 65.4852C168.195 65.6961 168.248 65.9773 168.388 66.1355C168.494 66.2761 168.634 66.3815 168.81 66.4518C168.986 66.5221 169.162 66.5573 169.355 66.5573V66.5748Z" fill="#E6E6E6"/>
<path d="M0.544805 61.1969H5.34284L5.23739 61.7417L3.23381 61.689L2.14415 67.4361H1.37084L2.46051 61.689L0.439354 61.7417L0.544805 61.1969ZM12.2851 61.109C13.0408 61.109 13.5856 61.3726 13.9371 61.8999C14.2886 62.4271 14.3414 63.2708 14.1305 64.4307C13.9547 65.3974 13.5856 66.1531 13.0408 66.6979C12.496 67.2428 11.793 67.524 10.9493 67.524C10.3166 67.524 9.89483 67.3834 9.71907 67.0846H9.64877L9.13909 69.7384L8.33063 69.8615L9.96513 61.2672L10.6154 61.1266L10.5627 61.566H10.633C10.7384 61.4254 10.9669 61.3199 11.3184 61.232C11.6699 61.1441 11.9863 61.109 12.3026 61.109H12.2851ZM13.3571 64.4307C13.3923 64.2374 13.4274 64.0441 13.445 63.8507C13.4626 63.675 13.4626 63.4289 13.4626 63.1477C13.4626 62.8665 13.4099 62.6205 13.3396 62.4271C13.2693 62.2338 13.1462 62.0581 12.9529 61.8999C12.7596 61.7593 12.5311 61.6714 12.2323 61.6714C11.8984 61.6714 11.582 61.7066 11.3008 61.7593C11.0196 61.812 10.8263 61.8823 10.7209 61.935L10.5627 62.0229L9.71907 66.3991L9.85968 66.5397C9.92998 66.5925 10.0706 66.6803 10.2991 66.7682C10.5275 66.8561 10.7736 66.9088 11.0548 66.9088C11.6348 66.9088 12.1269 66.6803 12.5135 66.2234C12.9002 65.7664 13.1638 65.1689 13.322 64.3956L13.3571 64.4307ZM23.5859 62.7083C23.3047 64.4659 23.129 65.5555 23.0587 65.9598C22.9884 66.364 23.0762 66.5925 23.3399 66.6628C23.4805 66.6979 23.5508 66.7858 23.5508 66.944C23.5508 67.0846 23.4981 67.2252 23.3926 67.3306C23.2871 67.4537 23.1465 67.4712 22.9884 67.4361C22.672 67.3306 22.5138 67.1197 22.4963 66.7858H22.426C22.2151 67.0143 22.0217 67.1725 21.846 67.2603C21.6878 67.3482 21.4769 67.4185 21.2484 67.4537C21.2484 67.4537 21.1957 67.4537 21.0902 67.4712C21.0024 67.4888 20.8793 67.4888 20.7212 67.5064C20.5806 67.524 20.44 67.524 20.3345 67.524C18.6473 67.5591 17.9091 66.9615 18.1552 65.7313C18.2431 65.2743 18.4188 64.9052 18.6649 64.6065C18.9285 64.3253 19.2976 64.0792 19.8073 63.8859C20.2466 63.7101 21.0375 63.5695 22.1799 63.4641C22.5138 63.4289 22.7072 63.2532 22.7599 62.9544C22.795 62.8138 22.795 62.6908 22.8126 62.5677C22.795 62.3041 22.7599 62.1108 22.672 62.0053C22.4787 61.7593 22.0569 61.6714 21.4242 61.7241C21.1078 61.7593 20.7915 61.8296 20.4575 61.935C20.1236 62.0581 19.8776 62.1635 19.7018 62.2514L19.4382 62.392L19.7018 61.5308C20.0533 61.3023 20.6509 61.1793 21.5121 61.109C22.3381 61.0563 22.9181 61.1969 23.2168 61.5308C23.5332 61.8647 23.6387 62.2514 23.5508 62.7083H23.5859ZM20.5103 66.9264C20.8266 66.9264 21.1078 66.8912 21.3539 66.8034C21.5999 66.7331 21.7757 66.6276 21.8987 66.5046C22.0217 66.3816 22.1096 66.2761 22.1799 66.1707C22.2326 66.0652 22.2854 65.9598 22.3029 65.8543H22.3205L22.6369 63.7453H22.5666C22.4787 63.9035 22.3381 63.9913 22.1448 64.0265C22.1096 64.0265 22.0042 64.0441 21.7933 64.0616C21.5824 64.0792 21.4066 64.1144 21.266 64.1319C21.1078 64.1495 20.9321 64.1847 20.7387 64.2198C20.5278 64.255 20.3521 64.3077 20.1939 64.3604C20.0357 64.4131 19.8951 64.4834 19.7897 64.5362C19.5085 64.7295 19.3151 64.9052 19.1921 65.081C19.0867 65.2568 18.9988 65.4852 18.9461 65.7664C18.9109 65.907 18.9109 66.0476 18.9285 66.1531C18.9461 66.2761 18.9988 66.3816 19.0691 66.5222C19.157 66.6452 19.3151 66.7506 19.5612 66.8209C19.8073 66.8912 20.1236 66.9264 20.5103 66.9264ZM33.4456 61.1793H34.2189L33.0238 67.4361H32.2505L32.8481 64.3428H29.5967L28.9991 67.4361H28.2258L29.4033 61.2496L30.2118 61.109L29.7197 63.7101H32.9711L33.4456 61.1793ZM42.7429 65.8895L42.4441 66.8912C42.3914 66.944 42.3211 66.9967 42.2332 67.067C42.1454 67.1373 41.9345 67.2252 41.6181 67.3482C41.3018 67.4712 40.9327 67.524 40.546 67.524C40.2648 67.524 40.0012 67.5064 39.7903 67.4537C39.5618 67.4009 39.3685 67.3482 39.2103 67.2603C39.0521 67.19 38.9115 67.0846 38.8061 66.944C38.7006 66.8209 38.6127 66.6979 38.5424 66.5749C38.4721 66.4519 38.437 66.3113 38.4018 66.1355C38.3843 65.9598 38.3491 65.8016 38.3491 65.6786C38.3315 65.5555 38.3491 65.3798 38.3667 65.1865C38.3843 64.9755 38.4018 64.8349 38.4194 64.7295C38.437 64.624 38.4546 64.4659 38.5073 64.2901C38.5952 63.8156 38.7182 63.3938 38.894 63.0071C39.0697 62.6205 39.263 62.3217 39.4739 62.0932C39.6848 61.8647 39.9133 61.6714 40.1769 61.5308C40.4406 61.3902 40.669 61.2848 40.8975 61.2144C41.126 61.1617 41.3545 61.1266 41.5654 61.1266C41.9696 61.1266 42.3211 61.1617 42.6375 61.2496C42.9538 61.3375 43.1823 61.4078 43.3053 61.4957L43.4811 61.6187L43.1296 62.515C43.112 62.4974 43.112 62.4623 43.0944 62.4271C43.0769 62.392 43.0241 62.3217 42.9538 62.2338C42.866 62.1459 42.7781 62.0581 42.6726 61.9878C42.5672 61.9175 42.409 61.8472 42.2157 61.7944C42.0223 61.7417 41.7939 61.7066 41.5478 61.7066C40.3351 61.7241 39.5618 62.5853 39.263 64.2725C39.1224 65.0986 39.0697 65.6786 39.1224 65.9773C39.2455 66.6276 39.7727 66.9615 40.7042 66.9615C40.9151 66.9615 41.126 66.9264 41.3545 66.8561C41.5654 66.7858 41.7587 66.6979 41.9169 66.5925C42.0751 66.487 42.2157 66.3991 42.3387 66.2937C42.4617 66.1882 42.5672 66.1179 42.6199 66.0476L42.7253 65.9246L42.7429 65.8895ZM48.5076 61.1793H53.2529L52.0578 67.4361H51.2845L52.3741 61.689H49.193L48.1034 67.4361H47.3301L48.5252 61.1793H48.5076ZM62.6205 64.2374C62.5326 64.6768 62.4272 65.0634 62.269 65.4325C62.1284 65.784 61.9175 66.1355 61.6714 66.4694C61.4254 66.8034 61.109 67.0494 60.7048 67.2428C60.3006 67.4361 59.8612 67.524 59.3515 67.524C59.0352 67.524 58.7364 67.4712 58.4552 67.3658C58.174 67.2603 57.9279 67.0846 57.6994 66.8385C57.471 66.5925 57.3128 66.2585 57.2425 65.8192C57.1546 65.3798 57.1722 64.8525 57.2952 64.255C57.5061 63.1477 57.9103 62.3568 58.5079 61.8647C59.1055 61.3726 59.7909 61.1266 60.5818 61.1266C61.4078 61.1266 62.0054 61.4078 62.3569 61.9702C62.7084 62.5326 62.7963 63.2883 62.6205 64.2725V64.2374ZM59.5273 66.9264C59.8436 66.9264 60.1248 66.8737 60.3709 66.7506C60.6169 66.6276 60.8278 66.487 60.986 66.3288C61.1442 66.1531 61.2848 65.9422 61.4078 65.6786C61.5308 65.4149 61.6187 65.1865 61.689 64.9755C61.7417 64.7646 61.812 64.5186 61.8648 64.2374C61.9351 63.9035 61.9526 63.5871 61.9526 63.3059C61.9526 63.0247 61.8999 62.7611 61.8296 62.4974C61.7417 62.2514 61.6011 62.0405 61.3727 61.8999C61.1618 61.7593 60.8806 61.689 60.5466 61.689C60.16 61.689 59.826 61.7769 59.5097 61.935C59.2109 62.0932 58.9649 62.3041 58.7715 62.5853C58.5782 62.8489 58.4376 63.1301 58.3321 63.3938C58.2267 63.6574 58.1388 63.9562 58.0861 64.255C57.9806 64.7646 57.9631 65.204 58.0158 65.5731C58.0685 65.9422 58.174 66.2234 58.3321 66.4167C58.4903 66.61 58.6837 66.7506 58.877 66.8209C59.0703 66.9088 59.2988 66.944 59.5624 66.944L59.5273 66.9264ZM70.1427 61.0914C70.8984 61.0914 71.4433 61.3551 71.7948 61.8823C72.1463 62.4096 72.199 63.2532 71.9881 64.4131C71.8123 65.3798 71.4433 66.1355 70.8984 66.6803C70.3536 67.2252 69.6506 67.5064 68.807 67.5064C68.1743 67.5064 67.7525 67.3658 67.5767 67.067H67.5064L66.9967 69.7209L66.1883 69.8439L67.8228 61.2496L68.4731 61.109L68.4203 61.5484H68.4906C68.5961 61.4078 68.8246 61.3023 69.1761 61.2144C69.5276 61.1266 69.8439 61.0914 70.1603 61.0914H70.1427ZM71.2148 64.4131C71.2499 64.2198 71.2851 64.0265 71.3027 63.8332C71.3202 63.6574 71.3202 63.4114 71.3202 63.1301C71.3202 62.8489 71.2675 62.6029 71.1972 62.4096C71.1269 62.2162 71.0039 62.0405 70.8106 61.8823C70.6172 61.7417 70.3888 61.6538 70.09 61.6538C69.7561 61.6538 69.4397 61.689 69.1585 61.7417C68.8773 61.7944 68.684 61.8647 68.5785 61.9175L68.4203 62.0053L67.5767 66.3816L67.7173 66.5222C67.7876 66.5749 67.9282 66.6628 68.1567 66.7506C68.3852 66.8385 68.6312 66.8912 68.9124 66.8912C69.4924 66.8912 69.9845 66.6628 70.3712 66.2058C70.7578 65.7489 71.0215 65.1513 71.1796 64.378L71.2148 64.4131ZM76.7686 61.1617H81.5666L81.4612 61.7066L79.4576 61.6538L78.3679 67.4009H77.5946L78.6843 61.6538L76.6631 61.7066L76.7686 61.1617ZM103.026 64.1847C102.973 64.4307 102.921 64.6416 102.868 64.8701C102.815 65.081 102.692 65.3622 102.534 65.7137C102.376 66.0652 102.182 66.3464 101.971 66.5925C101.761 66.8385 101.462 67.0494 101.093 67.2252C100.724 67.4009 100.302 67.5064 99.8273 67.5064C99.4406 67.5064 99.1067 67.4537 98.8255 67.3482C98.5443 67.2428 98.3509 67.1197 98.2103 66.9615C98.0697 66.8034 97.9819 66.6276 97.9116 66.4343C97.8413 66.2234 97.8061 66.0476 97.8061 65.907C97.8061 65.7489 97.8237 65.6083 97.8413 65.4677L98.6673 61.109C98.7552 60.5993 99.0012 60.1599 99.3879 59.7557C99.7745 59.3515 100.214 59.1406 100.724 59.0703L102.903 58.8242L103.272 59.5624C102.024 59.5624 101.181 59.5975 100.706 59.6854C100.425 59.7381 100.161 59.8963 99.8976 60.1951C99.6515 60.4939 99.4933 60.7926 99.4406 61.0738L99.3527 61.5484H99.423C99.7394 61.2144 100.302 61.0387 101.11 61.0387C101.884 61.0387 102.428 61.3023 102.78 61.812C103.131 62.3217 103.202 63.1126 102.991 64.1847H103.026ZM99.9854 66.9088C100.355 66.9088 100.688 66.8209 100.97 66.6276C101.268 66.4519 101.497 66.2058 101.673 65.907C101.848 65.6083 101.989 65.3095 102.077 65.0458C102.182 64.7646 102.253 64.4834 102.305 64.2022C102.376 63.8683 102.393 63.552 102.393 63.2708C102.393 62.9895 102.341 62.7259 102.27 62.4623C102.182 62.1987 102.042 62.0053 101.813 61.8647C101.585 61.7241 101.304 61.6538 100.935 61.6538C100.548 61.6538 100.214 61.689 99.9327 61.7769C99.6515 61.8647 99.4758 61.935 99.3703 62.0229L99.2473 62.1459L98.6146 65.4852C98.5443 65.8192 98.6321 66.1531 98.8606 66.4694C99.0891 66.7858 99.4582 66.944 99.9679 66.944L99.9854 66.9088ZM112.481 61.1617H113.255L112.06 67.4361C111.989 67.7876 111.901 68.0864 111.814 68.3324C111.708 68.5785 111.568 68.8245 111.357 69.053C111.146 69.2815 110.865 69.4748 110.495 69.5803C110.126 69.7033 109.669 69.756 109.142 69.756C108.703 69.756 108.299 69.7033 107.947 69.5803C107.596 69.4572 107.349 69.3518 107.226 69.2463L107.033 69.0706L107.349 68.3324C107.367 68.35 107.385 68.3851 107.42 68.4203C107.455 68.4554 107.525 68.5082 107.631 68.596C107.736 68.6839 107.877 68.7542 108.017 68.8245C108.158 68.8948 108.351 68.9475 108.58 69.0003C108.808 69.053 109.054 69.0882 109.318 69.0882C109.915 69.0882 110.355 68.9827 110.636 68.7894C110.935 68.5785 111.111 68.2445 111.198 67.7876L111.339 67.067H111.269C111.251 67.1022 111.198 67.1373 111.146 67.19C111.075 67.2428 110.9 67.2955 110.618 67.3834C110.32 67.4712 109.968 67.5064 109.564 67.5064C109.212 67.5064 108.914 67.4537 108.65 67.3658C108.386 67.2603 108.193 67.1373 108.052 66.9791C107.912 66.8209 107.806 66.6452 107.719 66.4694C107.648 66.2761 107.596 66.1004 107.596 65.9246C107.578 65.7489 107.596 65.5907 107.631 65.4325L108.422 61.2496L109.23 61.1266L108.404 65.4677C108.369 65.6083 108.369 65.7489 108.404 65.907C108.422 66.0652 108.474 66.2234 108.562 66.3816C108.65 66.5397 108.791 66.6803 108.984 66.7858C109.177 66.8912 109.441 66.944 109.74 66.944C110.197 66.944 110.566 66.9088 110.847 66.8385C111.128 66.7682 111.304 66.6979 111.357 66.6452L111.444 66.5397L112.464 61.1969L112.481 61.1617ZM121.814 66.8385H122.236L122.042 68.6488H121.726L121.374 67.4185H117.613L116.787 68.6488H116.471L116.981 66.8385H117.578C117.508 66.3991 117.526 65.9246 117.613 65.4501C117.754 64.6943 118 64.0089 118.334 63.3762C118.334 63.3762 118.369 63.3235 118.422 63.218C118.475 63.1126 118.527 63.0247 118.58 62.9192C118.633 62.8314 118.703 62.7083 118.791 62.5677C118.879 62.4271 118.967 62.2865 119.072 62.1635C119.178 62.0405 119.283 61.9175 119.424 61.7944C119.547 61.6714 119.687 61.5484 119.863 61.4605C120.021 61.3551 120.179 61.2848 120.355 61.232C120.601 61.1441 121.005 61.0914 121.515 61.0914C121.796 61.0914 122.042 61.0914 122.271 61.109C122.499 61.1266 122.675 61.1441 122.763 61.1617L122.904 61.1793L121.831 66.8385H121.814ZM118.984 63.6926C118.668 64.3077 118.422 65.0458 118.264 65.907C118.211 66.2234 118.176 66.5222 118.193 66.8385H121.041L122.025 61.7066C121.831 61.689 121.656 61.6714 121.462 61.6714C120.882 61.6538 120.408 61.812 120.056 62.1459C119.705 62.4799 119.353 62.9895 118.984 63.6926ZM132.007 61.1617H132.781L131.586 67.4361C131.515 67.7876 131.428 68.0864 131.34 68.3324C131.234 68.5785 131.094 68.8245 130.883 69.053C130.672 69.2815 130.391 69.4748 130.022 69.5803C129.652 69.7033 129.195 69.756 128.668 69.756C128.229 69.756 127.825 69.7033 127.473 69.5803C127.122 69.4572 126.876 69.3518 126.753 69.2463L126.559 69.0706L126.876 68.3324C126.893 68.35 126.911 68.3851 126.946 68.4203C126.981 68.4554 127.051 68.5082 127.157 68.596C127.262 68.6839 127.403 68.7542 127.543 68.8245C127.684 68.8948 127.877 68.9475 128.106 69.0003C128.334 69.053 128.58 69.0882 128.844 69.0882C129.442 69.0882 129.881 68.9827 130.162 68.7894C130.461 68.5785 130.637 68.2445 130.725 67.7876L130.865 67.067H130.795C130.777 67.1022 130.725 67.1373 130.672 67.19C130.601 67.2428 130.426 67.2955 130.145 67.3834C129.846 67.4712 129.494 67.5064 129.09 67.5064C128.739 67.5064 128.44 67.4537 128.176 67.3658C127.912 67.2603 127.719 67.1373 127.579 66.9791C127.438 66.8209 127.332 66.6452 127.245 66.4694C127.174 66.2761 127.122 66.1004 127.122 65.9246C127.104 65.7489 127.122 65.5907 127.157 65.4325L127.948 61.2496L128.756 61.1266L127.93 65.4677C127.912 65.6083 127.895 65.7489 127.93 65.907C127.948 66.0652 128 66.2234 128.088 66.3816C128.176 66.5397 128.317 66.6803 128.51 66.7858C128.703 66.8912 128.967 66.944 129.266 66.944C129.723 66.944 130.092 66.9088 130.373 66.8385C130.654 66.7682 130.83 66.6979 130.883 66.6452L130.971 66.5397L131.99 61.1969L132.007 61.1617ZM143.765 66.8385H144.539L144.222 68.2094H143.554L143.642 67.4361H138.352C137.93 67.4361 137.579 67.3131 137.315 67.0494C137.052 66.7858 136.964 66.4343 137.052 65.9949L137.966 61.2496L138.844 61.109L137.842 65.9949C137.807 66.1882 137.842 66.3816 137.966 66.5573C138.089 66.7331 138.247 66.8385 138.422 66.8385H139.934L141.006 61.232L141.832 61.0914L140.742 66.8209H142.992L144.082 61.1441H144.855L143.765 66.8209V66.8385ZM152.342 61.0914C153.203 61.0738 153.818 61.2496 154.205 61.6538C154.592 62.0581 154.697 62.6556 154.539 63.4641L154.31 64.3077L150.092 64.3604C149.776 66.0476 150.198 66.8912 151.358 66.8912C151.657 66.8912 151.938 66.8561 152.201 66.7858C152.483 66.7155 152.711 66.6452 152.904 66.5397C153.098 66.4519 153.256 66.3464 153.397 66.2585C153.537 66.1707 153.643 66.0828 153.73 66.0125L153.836 65.907L153.484 66.8912C153.414 66.944 153.326 66.9967 153.221 67.0494C153.098 67.1197 152.852 67.2076 152.447 67.3131C152.043 67.4185 151.639 67.4712 151.2 67.4712C150.76 67.4712 150.391 67.4009 150.11 67.2428C149.811 67.0846 149.6 66.9088 149.477 66.6979C149.354 66.487 149.266 66.2234 149.231 65.907C149.196 65.5907 149.179 65.3095 149.214 65.0634C149.231 64.8174 149.284 64.5362 149.337 64.2198C149.442 63.6223 149.6 63.1301 149.811 62.7083C150.022 62.2865 150.251 61.9702 150.532 61.7417C150.813 61.5132 151.094 61.3375 151.393 61.2496C151.692 61.1441 152.008 61.0914 152.36 61.0914H152.342ZM150.215 63.7453L153.783 63.6926C153.924 63.0247 153.889 62.5326 153.695 62.1811C153.502 61.8472 153.027 61.6714 152.307 61.6714C151.182 61.6714 150.497 62.3568 150.215 63.7453ZM163.397 61.1617L163.414 61.9878C163.397 61.9702 163.362 61.9526 163.309 61.9175C163.256 61.8823 162.975 61.8472 162.483 61.812C161.991 61.7593 161.341 61.7417 160.515 61.7417L159.425 67.4185H158.652L159.847 61.1617H163.397ZM172.431 64.2198C172.343 64.6592 172.237 65.0458 172.079 65.4149C171.938 65.7664 171.728 66.1179 171.481 66.4519C171.235 66.7858 170.919 67.0318 170.515 67.2252C170.111 67.4185 169.671 67.5064 169.162 67.5064C168.845 67.5064 168.546 67.4537 168.265 67.3482C167.984 67.2428 167.738 67.067 167.509 66.8209C167.281 66.5749 167.123 66.241 167.052 65.8016C166.965 65.3622 166.982 64.8349 167.105 64.2374C167.316 63.1301 167.72 62.3393 168.318 61.8472C168.915 61.3551 169.601 61.109 170.392 61.109C171.218 61.109 171.815 61.3902 172.167 61.9526C172.518 62.515 172.606 63.2708 172.431 64.255V64.2198ZM169.337 66.9088C169.654 66.9088 169.935 66.8561 170.181 66.7331C170.427 66.61 170.638 66.4694 170.796 66.3113C170.954 66.1355 171.095 65.9246 171.218 65.661C171.341 65.3974 171.429 65.1689 171.499 64.958C171.552 64.7471 171.622 64.501 171.675 64.2198C171.745 63.8859 171.763 63.5695 171.763 63.2883C171.763 63.0071 171.71 62.7435 171.64 62.4799C171.552 62.2338 171.411 62.0229 171.183 61.8823C170.972 61.7417 170.691 61.6714 170.357 61.6714C169.97 61.6714 169.636 61.7593 169.32 61.9175C169.021 62.0756 168.775 62.2865 168.582 62.5677C168.388 62.8314 168.248 63.1126 168.142 63.3762C168.037 63.6398 167.949 63.9386 167.896 64.2374C167.791 64.7471 167.773 65.1865 167.826 65.5555C167.879 65.9246 167.984 66.2058 168.142 66.3991C168.3 66.5925 168.494 66.7331 168.687 66.8034C168.88 66.8912 169.109 66.9264 169.372 66.9264L169.337 66.9088Z" fill="#E6E6E6"/>
</svg>
