<svg width="257" height="192" viewBox="0 0 257 192" fill="none" xmlns="http://www.w3.org/2000/svg">
<g clip-path="url(#clip0_178_421)">
<path d="M44.369 181.882C44.369 181.882 12.4902 159.237 3.31306 120.691C-5.86419 82.1463 8.14313 35.4103 34.7088 11.8014C61.2743 -11.8075 109.092 4.09239 130.345 23.8468C151.597 43.6011 151.597 43.6011 151.597 43.6011C151.597 43.6011 171.884 54.6829 198.449 53.7193C225.015 52.7556 248.683 88.8917 254.962 117.319C261.241 145.746 246.268 183.327 246.268 183.327L44.369 181.882Z" fill="#DDECFF"/>
<path d="M29.8787 187.664C29.8787 187.664 7.66013 175.618 1.86402 147.673C-3.93209 119.728 21.1844 94.1917 23.5995 80.219C26.0146 66.2464 20.7015 48.9011 42.9199 35.4103C65.1385 21.9195 104.745 26.7376 119.719 23.3649C134.692 19.9922 152.08 -3.13483 182.027 2.1651C211.974 7.46509 240.954 23.3649 242.403 58.0556C243.853 92.7462 232.743 93.7098 243.853 112.501C254.962 131.291 259.309 144.3 253.996 163.573C248.683 182.846 237.573 188.145 237.573 188.145L29.8787 187.664Z" fill="#DDECFF"/>
<path d="M76.2713 181.4C74.8892 179.955 54.6181 139.482 77.1927 102.383C99.7674 65.2828 156.434 69.6191 179.009 84.0736C201.584 98.528 212.641 117.319 214.944 137.073C217.248 156.828 202.044 187.664 202.044 187.664L76.2713 181.4Z" fill="#DDECFF"/>
<path d="M235.219 113.263H209.176C207.565 113.263 206.258 111.96 206.258 110.353V97.3837C206.258 95.776 207.565 94.4727 209.176 94.4727H235.219C236.83 94.4727 238.137 95.776 238.137 97.3837V110.353C238.137 111.96 236.83 113.263 235.219 113.263Z" fill="#60A8FF"/>
<path d="M222.197 120.611L226.325 110.854H218.07L222.197 120.611Z" fill="#60A8FF"/>
<path d="M222.099 100.642H229.554V101.729L233.208 99.6275L229.554 97.5258V98.6137H222.099V100.642Z" fill="#223A7A"/>
<path d="M233.208 104.917H225.754V103.829L222.099 105.931L225.754 108.033V106.945H233.208V104.917Z" fill="white"/>
<path d="M217.523 106.83L217.168 106.959C217.168 106.959 216.062 105.7 215.488 104.328C214.914 102.956 214.894 101.28 214.894 101.28L215.153 101.172L213.577 97.4086C213.296 97.6275 213.028 97.9094 212.812 98.2744C211.919 99.7783 212.008 102.086 212.905 104.34C213.802 106.595 214.762 108.606 216.513 109.87C217.546 110.617 218.431 110.747 219.118 110.639L217.523 106.83Z" fill="#223A7A"/>
<path d="M218.655 106.387L218.165 106.565L219.779 110.418C219.961 110.359 220.124 110.285 220.266 110.207C220.683 109.98 220.866 109.48 220.691 109.039L219.848 106.921C219.66 106.451 219.132 106.214 218.655 106.387Z" fill="#223A7A"/>
<path d="M214.809 96.7486C214.611 96.8199 214.395 96.9163 214.177 97.0445L215.787 100.888L216.329 100.662C216.799 100.466 217.027 99.9321 216.842 99.4588L215.995 97.2916C215.812 96.8209 215.285 96.5773 214.809 96.7486Z" fill="#223A7A"/>
<path d="M68.7409 174.896V131.532C68.7409 131.532 68.2579 119.848 74.4163 116.476C80.5747 113.103 106.537 114.91 106.537 114.91V174.896H68.7409Z" fill="#1C83FF"/>
<path d="M114.647 74.3168C114.647 74.3168 113.077 87.4463 112.473 88.5304C111.87 89.6144 111.87 89.6144 111.87 89.6144L108.851 91.6621C108.851 91.6621 114.647 99.853 121.771 101.178C128.896 102.503 128.292 98.2871 128.292 98.2871L127.205 95.9984L128.654 83.4713C128.654 83.4713 115.734 77.5691 114.647 74.3168Z" fill="#FF9D8C"/>
<path d="M105.108 92.7462L109.817 90.6985C109.817 90.6985 112.836 95.6371 119.839 98.528C126.843 101.419 126.964 99.7325 127.326 98.528C127.688 97.3235 127.205 95.9984 127.205 95.9984L127.724 91.781L130.524 92.7122L140.247 171.162L115.251 172.366L105.108 92.7462Z" fill="white"/>
<path d="M128.171 91.8629C128.171 91.8629 129.862 95.7576 131.432 104.912C133.001 114.067 134.45 129.485 134.813 140.085C135.175 150.684 135.416 174.896 135.416 174.896C135.416 174.896 166.571 174.896 166.933 174.896C167.295 174.896 169.469 162.971 169.469 162.971C169.469 162.971 155.703 151.206 154.978 149.279C154.495 147.994 154.737 124.185 152.684 113.223C150.631 102.262 147.975 100.054 142.42 97.3235C136.679 94.5017 128.171 91.8629 128.171 91.8629Z" fill="#223A7A"/>
<path d="M144.593 161.094C144.432 161.094 144.302 160.963 144.302 160.803C144.302 159.941 144.148 147.705 144 135.872C143.851 124.037 143.698 111.8 143.698 110.935C143.698 110.774 143.829 110.644 143.99 110.644C144.151 110.644 144.282 110.774 144.282 110.935C144.282 111.796 144.435 124.032 144.583 135.865C144.732 147.7 144.885 159.937 144.885 160.803C144.885 160.963 144.755 161.094 144.593 161.094Z" fill="#8593B6"/>
<path d="M81.8023 158.153L81.5608 174.896H118.27C118.27 174.896 119.839 160.682 119.236 159.357C118.632 158.032 81.8023 158.153 81.8023 158.153Z" fill="#223A7A"/>
<path d="M122.657 88.169C124.153 89.3721 126.199 90.3372 127.793 90.9208L128.654 83.4713C128.654 83.4713 118.949 79.0366 115.656 75.737C116.344 79.486 118.037 84.4535 122.657 88.169Z" fill="#8E9BBB"/>
<path d="M140.005 49.8648C140.005 49.8648 142.541 54.2011 143.024 59.5011C143.507 64.801 143.024 78.4122 138.677 84.1941C134.33 89.9758 125.273 88.2895 121.168 84.7963C117.4 81.5905 113.681 78.0509 112.715 71.0646C111.749 64.0783 114.768 50.8284 123.341 48.0579C131.915 45.2875 140.005 49.8648 140.005 49.8648Z" fill="#FF9D8C"/>
<path d="M150.898 167.323C150.898 167.323 150.472 167.323 149.824 167.306C149.673 167.3 149.503 167.306 149.328 167.3C148.704 167.282 147.945 167.265 147.181 167.242C147.011 167.236 146.836 167.23 146.667 167.224C145.908 167.207 145.26 167.3 144.653 167.265H144.636C144.508 167.259 144.321 167.276 144.169 167.282C144.093 167.288 144.023 167.294 143.976 167.288C143.626 167.224 143.556 167.143 143.177 166.974C142.687 166.752 136.051 165.274 130.652 165.309C125.259 165.332 120.421 165.699 119.633 165.041C118.839 164.371 118.361 157.612 122.965 157.17L128.627 159.312C128.627 159.312 141.554 157.781 146.293 161.268C151.044 164.756 150.898 167.323 150.898 167.323Z" fill="#FF9D8C"/>
<path d="M144.636 167.265C144.507 167.259 144.321 167.276 144.169 167.282C144.052 167.096 143.807 166.758 143.673 166.619C142.214 165.134 138.689 164.173 137.41 163.865C137.294 163.836 137.218 163.719 137.247 163.603C137.27 163.486 137.393 163.417 137.515 163.44C139.377 163.888 143.328 165.035 144.449 166.916C144.484 166.968 144.577 167.148 144.636 167.265Z" fill="#223A7A"/>
<path d="M147.182 167.241C147.013 167.237 146.838 167.233 146.669 167.223C145.076 164.325 142.469 163.493 139.248 162.459L139.057 162.396C138.947 162.359 138.88 162.235 138.918 162.119C138.955 162.009 139.074 161.942 139.195 161.98L139.381 162.043C142.787 163.133 145.527 164.01 147.182 167.241Z" fill="#223A7A"/>
<path d="M149.825 167.305C149.673 167.302 149.504 167.303 149.329 167.299C148.363 165.272 145.164 161.881 140.934 161.091C140.812 161.07 140.732 160.958 140.753 160.836C140.779 160.72 140.892 160.641 141.008 160.662C145.367 161.478 148.882 165.029 149.825 167.305Z" fill="#223A7A"/>
<path d="M115.613 65.1022C115.613 65.1022 118.27 63.8374 120.141 60.284C122.013 56.7306 121.771 53.5386 121.771 53.5386C121.771 53.5386 125.153 52.9966 130.224 54.5022C135.296 56.0079 141.333 58.0556 146.405 55.1647C151.477 52.2738 151.477 47.6364 149.001 45.7091C146.229 43.5506 140.73 44.866 140.73 44.866C140.73 44.866 142.843 42.8182 141.696 41.6137C140.548 40.4092 136.383 41.975 136.383 41.975C136.383 41.975 131.311 37.9398 121.711 38.4217C112.111 38.9035 107.523 45.5886 106.979 53.0568C106.436 60.5249 109.153 67.993 109.153 67.993L115.613 65.1022Z" fill="#223A7A"/>
<path d="M135.089 66.9124C134.545 68.2502 134.558 69.8032 134.421 71.2232C134.315 72.3278 134.111 73.6154 135.126 74.3612C135.61 74.7175 137.902 75.6783 136.724 76.4567C136.274 76.7535 135.521 76.6724 135.009 76.6487C134.657 76.6324 134.301 76.6176 133.949 76.5914C133.57 76.5632 133.199 76.4493 132.82 76.4473C132.598 76.4462 132.529 76.7413 132.71 76.8542C133.319 77.2349 134.213 77.3523 134.924 77.3798C135.635 77.4073 136.117 77.3746 136.757 77.0578C137.151 76.8632 137.532 76.5875 137.594 76.121C137.665 75.5957 137.27 75.1248 136.873 74.8313C136.417 74.4936 135.857 74.3364 135.396 74.0071C134.756 73.5506 134.809 72.7816 134.854 72.0697C134.962 70.3569 135.357 68.6741 135.51 66.9692C135.533 66.7086 135.172 66.7086 135.089 66.9124Z" fill="#8E9BBB"/>
<path d="M140.025 70.9175C139.845 71.9329 139.104 72.6511 138.371 72.5216C137.637 72.3922 137.189 71.4641 137.369 70.4488C137.549 69.4334 138.29 68.7152 139.023 68.8447C139.756 68.9741 140.205 69.9022 140.025 70.9175Z" fill="#223A7A"/>
<path d="M130.785 70.1133C130.622 71.2087 129.848 72.0014 129.057 71.884C128.266 71.7666 127.757 70.7834 127.92 69.688C128.084 68.5926 128.857 67.7998 129.649 67.9172C130.44 68.0347 130.949 69.0179 130.785 70.1133Z" fill="#223A7A"/>
<path d="M137.874 66.7322C138.438 66.8271 139.008 66.7303 139.577 66.7702C139.714 66.7798 139.849 66.7998 139.985 66.8129C140.082 66.8222 139.804 66.7844 139.939 66.8066C139.968 66.8114 139.997 66.8158 140.026 66.8209C140.098 66.8336 140.169 66.8481 140.239 66.8653C140.36 66.8947 140.478 66.9402 140.599 66.9667C140.709 66.9906 140.832 67.0165 140.943 67.0113C141.005 67.0031 141.067 66.9947 141.129 66.9864C141.09 66.9934 141.051 67.0004 141.012 67.0074C141.012 67.021 141.224 66.987 141.243 66.9825C141.566 66.9072 141.766 66.5332 141.676 66.2216C141.65 66.1312 141.61 66.0501 141.553 65.9762C141.529 65.9443 141.504 65.913 141.479 65.8822C141.502 65.9082 141.525 65.9343 141.547 65.9604C141.523 65.9265 141.498 65.8936 141.472 65.8614C141.44 65.8075 141.397 65.7646 141.343 65.7327C141.298 65.698 141.253 65.6617 141.207 65.6293C141.057 65.5255 140.86 65.465 140.683 65.4195C140.346 65.3329 139.993 65.2887 139.645 65.2868C139.3 65.2848 138.959 65.3212 138.618 65.3683C138.317 65.4099 137.982 65.5118 137.738 65.693C137.549 65.8333 137.432 66.0134 137.466 66.2595C137.493 66.4634 137.654 66.6953 137.874 66.7322Z" fill="#223A7A"/>
<path d="M131.433 65.1209C131.357 65.0756 131.278 65.0358 131.197 64.9991C131.128 64.9679 130.942 64.8702 131.083 64.9473C131.032 64.9192 130.98 64.8911 130.928 64.8648C130.694 64.7473 130.451 64.6684 130.198 64.6042C129.647 64.4642 129.067 64.4285 128.502 64.488C127.9 64.5514 127.349 64.6968 126.827 65.0108C126.753 65.0552 126.678 65.0985 126.616 65.16C126.575 65.2122 126.534 65.2651 126.494 65.3185C126.505 65.3011 126.517 65.2836 126.528 65.2661C126.367 65.3785 126.274 65.5628 126.275 65.7569C126.276 65.9439 126.374 66.1002 126.536 66.1905C126.733 66.2999 126.92 66.2476 127.123 66.1953C127.021 66.1953 126.919 66.1953 126.818 66.1953C126.985 66.2215 127.103 66.228 127.272 66.1908C127.278 66.1895 127.435 66.1507 127.332 66.1724C127.235 66.1929 127.496 66.1524 127.525 66.1483C127.558 66.1436 127.74 66.1256 127.548 66.1443C127.583 66.1408 127.618 66.1361 127.654 66.1318C127.745 66.1207 127.836 66.1095 127.927 66.1022C128.326 66.0703 128.723 66.0527 129.122 66.0395C129.493 66.0273 129.87 66.0244 130.241 66.0405C130.399 66.0473 130.558 66.0526 130.716 66.057C130.806 66.0594 130.768 66.0733 130.707 66.0541C130.739 66.0643 130.773 66.0704 130.806 66.0795C130.872 66.0979 130.937 66.1191 131.001 66.1435C131.258 66.2415 131.567 66.056 131.662 65.8196C131.766 65.5622 131.678 65.2667 131.433 65.1209Z" fill="#223A7A"/>
<path d="M134.3 81.8652C134.854 80.754 135.862 79.9393 137.028 79.4155C136.016 79.3129 131.239 78.8718 130.034 79.5544C128.684 80.3191 130.283 83.3901 133.076 83.5443C133.369 83.5604 133.636 83.5369 133.89 83.4971C133.913 82.9366 134.042 82.3814 134.3 81.8652Z" fill="#223A7A"/>
<path d="M112.232 75.4009C112.232 75.4009 112.715 77.2679 115.492 79.4361C118.27 81.6043 122.295 83.1902 122.295 83.1902L122.617 81.785C122.617 81.785 118.451 79.9781 116.519 77.9907C114.587 76.0032 114.345 74.9191 114.345 74.9191L112.232 75.4009Z" fill="#DEE1EB"/>
<path d="M123.1 80.7454C125.335 80.6417 126.582 82.4045 126.738 83.5452C126.894 84.6858 125.82 85.9647 123.308 84.8414C120.187 83.4458 120.865 80.8491 123.1 80.7454Z" fill="#223A7A"/>
<path d="M113.983 61.609C113.983 61.609 114.948 54.6867 119.598 49.9852C128.473 41.0114 136.02 41.5535 136.02 41.5535C136.02 41.5535 135.96 40.2887 133.122 39.3251C130.458 38.4203 129.258 38.9035 129.258 38.9035C129.258 38.9035 121.952 39.5058 115.794 46.3114C109.636 53.117 108.972 61.7897 108.972 61.7897L113.983 61.609Z" fill="#DEE1EB"/>
<path d="M113.319 60.7658C107.504 59.7828 104.262 64.3192 104.021 68.8964C103.779 73.4737 107.114 76.9534 111.568 76.6055C121.59 75.8225 120.443 61.9704 113.319 60.7658Z" fill="white"/>
<path d="M110.424 72.1572C108.889 72.1572 107.591 71.388 106.85 70.0328C106.056 68.5813 106.122 66.7946 107.02 65.481C107.088 65.3821 107.224 65.3562 107.324 65.4236C107.424 65.4915 107.45 65.6274 107.382 65.7272C106.576 66.9066 106.518 68.5145 107.234 69.8236C107.914 71.0658 109.114 71.7694 110.535 71.7188C111.864 71.6836 112.989 71.0772 113.705 70.0118C114.523 68.7959 114.71 67.1167 114.184 65.7343C113.662 64.363 112.23 63.4277 110.927 63.5977C110.81 63.6134 110.697 63.5298 110.681 63.4101C110.665 63.2907 110.75 63.181 110.87 63.165C112.393 62.9624 113.992 64.0008 114.593 65.5791C115.168 67.09 114.963 68.9253 114.069 70.2548C113.272 71.4411 112.021 72.116 110.547 72.1555C110.506 72.1566 110.465 72.1569 110.424 72.1572Z" fill="#818FB3"/>
<path d="M106.194 91.0599C106.194 91.0599 88.5644 95.3962 82.406 102.383C76.2476 109.369 73.3496 143.819 73.2288 150.203C73.1081 156.587 77.5759 159.237 80.2325 161.043C82.889 162.85 94.6021 166.102 104.021 166.584C113.439 167.066 122.375 166.584 122.375 166.584C122.375 166.584 122.345 164.537 123.794 161.525C125.138 158.732 126.843 158.153 126.843 158.153L118.753 155.262C118.753 155.262 117.336 129.94 115.13 117.68C112.594 103.587 106.194 91.0599 106.194 91.0599Z" fill="#223A7A"/>
<path d="M135.417 151.216C135.377 151.216 135.337 151.208 135.299 151.191C135.151 151.126 135.084 150.954 135.15 150.807C136.801 147.09 138.513 139.791 139.477 134.671L139.556 134.257C139.848 132.751 140.211 130.878 139.487 129.585C139.117 128.925 138.283 127.494 137.48 126.118C136.648 124.69 135.861 123.341 135.643 122.938C135.218 122.152 136.556 120.051 138.495 117.17C139.018 116.391 139.471 115.719 139.735 115.264C140.425 114.071 139.965 112.979 139.433 111.714L139.252 111.279C138.769 110.097 138.22 108.912 137.69 107.767C137.473 107.299 137.256 106.831 137.043 106.36C136.759 105.737 136.475 105.104 136.187 104.463C134.48 100.669 132.715 96.7454 130.456 92.9552C130.373 92.8171 130.419 92.6385 130.558 92.5564C130.696 92.4745 130.875 92.5197 130.958 92.6579C133.234 96.4768 135.006 100.416 136.719 104.225C137.007 104.865 137.291 105.498 137.574 106.12C137.788 106.589 138.004 107.057 138.22 107.523C138.753 108.674 139.304 109.865 139.792 111.059L139.971 111.489C140.514 112.778 141.076 114.112 140.239 115.555C139.966 116.027 139.509 116.707 138.979 117.494C137.969 118.997 135.866 122.124 136.156 122.662C136.37 123.056 137.154 124.401 137.985 125.826C138.789 127.205 139.626 128.639 139.996 129.3C140.825 130.779 140.439 132.769 140.129 134.367L140.05 134.778C139.699 136.643 137.839 146.19 135.683 151.043C135.635 151.152 135.528 151.216 135.417 151.216Z" fill="#8593B6"/>
<path d="M118.209 152.24C118.134 152.24 118.059 152.212 118.002 152.154C116.63 150.775 110.013 139.346 109.52 137.196C109.25 136.02 109.928 133.035 110.582 130.149C111.089 127.913 111.614 125.6 111.465 124.974C111.242 124.039 109.55 122.66 107.914 121.327C105.937 119.716 103.893 118.05 103.497 116.55C103.047 114.844 103.432 104.169 103.686 97.1047C103.778 94.5647 103.85 92.5584 103.85 91.8431C103.85 91.6823 103.98 91.5517 104.141 91.5517C104.302 91.5517 104.433 91.682 104.433 91.8426C104.433 92.5689 104.361 94.5798 104.269 97.1258C104.032 103.728 103.634 114.779 104.061 116.402C104.409 117.719 106.467 119.396 108.283 120.876C110.073 122.335 111.764 123.713 112.033 124.84C112.213 125.597 111.721 127.766 111.152 130.277C110.541 132.969 109.849 136.018 110.089 137.067C110.572 139.174 117.069 150.39 118.416 151.744C118.53 151.858 118.529 152.042 118.415 152.155C118.358 152.212 118.284 152.24 118.209 152.24Z" fill="#8593B6"/>
<path d="M94.4815 147.242C94.4681 147.242 94.4541 147.24 94.4404 147.239C94.2808 147.216 94.1697 147.069 94.1922 146.909C94.4065 145.395 97.7562 115.238 97.9101 112.928C97.9209 112.767 98.0596 112.641 98.2207 112.657C98.3814 112.668 98.5031 112.806 98.4925 112.967C98.3384 115.28 94.9848 145.475 94.7701 146.991C94.7496 147.136 94.6245 147.242 94.4815 147.242Z" fill="#8593B6"/>
<path d="M118.511 155.432C118.474 155.432 118.437 155.425 118.401 155.411C117.659 155.111 114.38 154.007 110.228 152.611C101.848 149.791 90.3706 145.931 88.1882 144.8C88.0452 144.726 87.9896 144.55 88.0637 144.407C88.1378 144.264 88.3133 144.207 88.4573 144.283C90.5997 145.394 102.524 149.405 110.414 152.059C114.575 153.459 117.862 154.564 118.621 154.871C118.77 154.932 118.842 155.101 118.781 155.25C118.735 155.363 118.626 155.432 118.511 155.432Z" fill="#8593B6"/>
<path d="M114.481 167.44C107.106 167.44 92.8081 166.114 81.9466 162.282C81.7945 162.228 81.7149 162.062 81.7688 161.91C81.8221 161.759 81.9905 161.679 82.141 161.733C95.8622 166.574 115.057 167.401 118.628 166.601C118.786 166.568 118.942 166.665 118.977 166.822C119.012 166.979 118.913 167.134 118.756 167.17C117.983 167.343 116.488 167.44 114.481 167.44Z" fill="#8593B6"/>
<path d="M30.0676 95.1216C32.3574 97.1305 35.2572 98.4184 37.2661 100.741C38.0568 101.655 38.7669 102.628 39.5009 103.586C40.035 104.284 41.4608 105.441 41.6923 106.317C41.7942 106.703 41.7726 106.181 41.6703 105.793C41.666 105.777 41.6575 105.761 41.6528 105.745C41.4526 103.97 41.3087 102.188 41.2463 100.402C41.1841 98.6216 41.2951 96.8331 41.1833 95.0552C41.0255 92.5468 40.2406 90.1178 38.1852 88.5462C37.1806 87.7781 35.8893 87.3106 34.9657 86.4581C34.0889 85.6488 34.4407 84.7221 34.9561 83.8195C35.4383 82.9752 36.0231 82.145 36.2111 81.1728C36.4246 80.0679 36.0082 78.9282 35.4464 77.9872C34.2508 75.9848 31.5987 73.7516 29.0872 74.0513C26.9928 74.3011 26.7553 76.7111 26.7851 78.3904C26.8142 80.0228 26.9763 81.65 26.992 83.2836C27.0082 84.9616 26.7221 86.6078 26.6982 88.2783C26.6575 91.1195 27.9737 93.2848 30.0676 95.1216Z" fill="#6BAEFF"/>
<path d="M51.3408 121.194C51.9784 119.677 52.7096 118.259 53.6088 116.88C54.8427 114.988 56.211 113.144 57.0396 111.025C57.8858 108.861 57.7617 106.548 57.8448 104.27C57.9059 102.595 58.4046 100.926 58.2702 99.247C58.2057 98.4419 57.7406 97.1397 56.6965 97.2729C55.8838 97.3766 55.4012 98.3816 55.089 99.0227C54.544 100.141 54.166 101.335 53.7616 102.509C53.6034 102.968 53.4528 103.435 53.2531 103.879C53.1369 104.136 52.7673 104.766 52.4185 104.679C51.8256 104.533 52.3639 102.117 52.4522 101.689C52.8955 99.5398 53.5625 97.5419 53.655 95.3301C53.7893 92.1234 53.5394 88.3059 50.3951 86.5526C49.5731 86.0943 48.5319 85.8212 47.7511 86.5068C46.9807 87.1833 46.7629 88.3552 46.6485 89.32C46.2974 92.2817 46.9963 95.0863 47.9477 97.8727C48.7332 100.173 49.6691 102.548 49.7375 105.008C49.8033 107.376 48.5682 109.475 47.9884 111.712C47.0644 115.278 47.2557 117.168 47.251 118.323C47.2452 119.769 47.2977 121.2 47.4039 122.643C47.5014 123.969 47.6166 125.294 47.7793 126.614C47.8122 126.881 47.8424 127.16 47.8782 127.439C47.3674 126.212 47.1889 124.807 46.7661 123.574C46.0146 121.383 45.1417 119.238 44.4203 117.035C43.8244 115.217 43.2614 113.384 42.4746 111.635C41.7366 109.995 40.8454 108.26 39.4686 107.056C38.6364 106.328 37.6277 105.903 36.5149 105.911C35.8029 105.917 35.1632 106.163 34.4833 106.342C33.6467 106.562 32.9884 106.486 32.3002 105.959C30.0467 104.231 29.3615 101.133 27.6932 98.9451C26.4489 97.3133 23.4969 94.5317 21.3259 96.311C20.1745 97.2547 19.8569 99.0793 19.9173 100.477C19.9932 102.232 20.7618 103.836 21.6769 105.303C22.6504 106.863 23.9072 108.26 24.8019 109.863C25.3306 110.811 25.4135 111.718 25.3294 112.787C25.2503 113.794 25.1624 114.769 25.5063 115.74C26.5394 118.657 29.7649 118.25 32.2737 118.326C34.0292 118.379 35.9125 118.64 37.5792 119.2C39.5054 119.847 40.7583 121.097 41.4469 122.998C41.9452 124.373 42.2115 125.935 43.1502 127.103C43.5916 127.652 44.1756 128.058 44.8179 128.342C45.7965 128.773 48.7792 128.961 48.8012 128.689C48.8751 127.779 49.3077 126.819 49.5784 125.956C50.0862 124.337 50.6832 122.758 51.3408 121.194Z" fill="#6BAEFF"/>
<path d="M65.191 120.644C64.9317 118.977 64.9815 117.139 64.19 115.608C64.1334 115.498 63.9837 115.471 63.8816 115.527C63.3144 115.841 63.2908 116.755 63.2445 117.315C63.1678 118.244 63.2248 119.176 63.1103 120.102C62.909 121.73 62.532 123.408 61.9441 124.942C61.2793 126.678 60.0694 127.663 58.3126 128.204C57.1835 128.552 56.0765 128.855 55.1343 129.602C54.2908 130.271 53.7047 131.194 53.2702 132.167C52.0973 134.79 51.5387 137.723 50.9949 140.526C50.6287 142.414 50.3303 144.31 49.8706 146.179C49.4113 148.046 48.9184 149.904 48.655 151.812C48.6107 151.908 48.5635 152.003 48.5225 152.1C48.4022 152.386 48.8494 152.54 49.0038 152.303C50.8173 149.518 53.0264 147.018 56.0402 145.485C57.4014 144.793 59.2093 144.649 60.3446 143.561C61.2083 142.733 61.3272 141.47 61.1981 140.344C61.0284 138.864 60.3176 137.647 59.5774 136.386C59.1709 135.694 58.6905 134.951 58.8545 134.11C59.0094 133.316 59.6712 132.733 60.3279 132.326C61.5806 131.55 63.0457 131.201 64.0718 130.082C65.0249 129.043 65.553 127.75 65.6585 126.351C65.7991 124.486 65.4773 122.486 65.191 120.644Z" fill="#6BAEFF"/>
<path d="M40.465 130.258C38.8647 128.201 36.9331 126.428 34.7601 124.989C33.6007 124.221 30.865 122.705 30.313 124.971C29.9895 126.299 31.2923 127.605 32.1498 128.438C33.4385 129.689 34.9292 130.768 36.0164 132.21C34.6701 132.639 33.2636 132.722 32.0937 133.651C30.7089 134.75 30.0875 136.873 31.4607 138.219C32.1297 138.875 33.0172 139.278 33.8504 139.681C34.9336 140.204 36.037 140.678 37.1473 141.141C39.5448 142.14 41.9724 143.153 44.017 144.79C46.1008 146.457 48.0595 149.277 48.2252 151.998C48.241 152.257 48.1421 152.02 48.2976 151.902C48.3824 151.978 48.6682 151.842 48.6666 151.69C48.6241 147.652 47.8968 143.808 46.243 140.11C44.7098 136.682 42.776 133.228 40.465 130.258Z" fill="#6BAEFF"/>
<path d="M34.9375 92.6752C35.8205 94.5026 36.7437 96.2882 37.7236 98.0706C38.667 99.7865 39.6092 101.489 40.3148 103.32C41.1836 105.573 42.0947 107.793 43.0133 110.027C43.9682 112.349 44.8218 114.715 45.5064 117.13C46.8426 121.845 47.8354 126.698 48.3265 131.575C48.5763 134.054 48.6897 136.549 48.6211 139.041C48.5675 140.988 48.3475 142.914 48.1641 144.851C47.9733 146.867 47.8358 148.906 48.0048 150.929C48.1461 152.619 48.4156 154.629 49.7308 155.835C49.9883 156.071 50.3528 155.777 50.2035 155.471C48.6405 152.274 48.7282 148.789 49.027 145.321C49.1919 143.407 49.4209 141.503 49.4855 139.582C49.5678 137.137 49.4715 134.688 49.2408 132.253C48.7873 127.467 47.8309 122.738 46.5899 118.097C45.9534 115.717 45.1661 113.384 44.2588 111.093C43.3495 108.797 42.2993 106.564 41.4181 104.257C39.8243 100.084 37.3954 96.3847 35.2446 92.4961C35.1329 92.294 34.8392 92.4717 34.9375 92.6752Z" fill="#43588E"/>
<path d="M48.3983 126.794C48.6509 123.756 48.9209 120.83 49.9477 117.931C50.4267 116.579 51.0069 115.265 51.4692 113.907C51.8511 112.786 52.4224 111.247 52.1284 110.055C52.0956 109.922 51.9011 109.929 51.8646 110.055C51.668 110.736 51.6897 111.483 51.548 112.181C51.4102 112.861 51.226 113.529 51.0142 114.189C50.5636 115.593 49.9748 116.939 49.4647 118.321C48.4791 120.991 47.9732 123.949 48.1886 126.794C48.1987 126.929 48.3871 126.929 48.3983 126.794Z" fill="#43588E"/>
<path d="M30.7468 109.332C31.9559 112.246 35.5907 112.414 38.238 113.066C40.1285 113.532 41.5239 114.791 42.5264 116.424C43.6233 118.21 44.3653 120.308 44.9753 122.302C44.9821 122.325 45.0153 122.316 45.0104 122.293C44.27 118.8 43.209 114.595 39.5999 112.97C36.7078 111.668 32.8966 112.322 31.0468 109.206C30.9557 109.053 30.6734 109.155 30.7468 109.332Z" fill="#43588E"/>
<path d="M46.4869 126.333C46.6307 126.527 46.7625 126.729 46.9111 126.919C46.9845 127.013 47.0593 127.102 47.152 127.178C47.2469 127.255 47.3581 127.352 47.4883 127.349C47.5424 127.348 47.5809 127.288 47.5514 127.24C47.4916 127.142 47.3837 127.084 47.2994 127.01C47.2128 126.933 47.1244 126.859 47.0404 126.779C46.8715 126.62 46.7167 126.447 46.5513 126.284C46.5194 126.252 46.4583 126.295 46.4869 126.333Z" fill="#43588E"/>
<path d="M38.9261 135.576C41.0114 137.285 42.9359 139.305 44.4645 141.519C45.1954 142.577 45.8697 143.697 46.4817 144.829C47.1499 146.063 47.5883 147.369 48.1118 148.665C48.1516 148.763 48.3314 148.765 48.3178 148.637C48.0283 145.897 46.2881 143.548 44.8949 141.268C44.1711 140.083 43.2711 139.129 42.3033 138.141C41.3038 137.121 40.2858 136.157 39.114 135.334C38.9715 135.234 38.7898 135.465 38.9261 135.576Z" fill="#43588E"/>
<path d="M55.5339 132.351C54.5292 132.919 54.4966 134.501 54.477 135.512C54.4392 137.454 54.921 139.277 54.0667 141.127C53.2951 142.799 52.0623 144.194 51.0931 145.746C50.1858 147.199 49.291 149.056 49.311 150.805C49.3122 150.906 49.4675 150.963 49.5149 150.86C49.8803 150.066 50.0116 149.164 50.2731 148.332C50.5674 147.397 50.9786 146.547 51.5106 145.725C52.4431 144.283 53.5882 142.971 54.3447 141.42C55.1418 139.787 55.0252 138.168 54.9725 136.398C54.9389 135.268 54.8254 133.454 55.7384 132.615C55.8814 132.483 55.6983 132.258 55.5339 132.351Z" fill="#43588E"/>
<path d="M48.817 150.986C44.7708 150.93 37.0634 150.885 37.0634 150.885L38.9706 165.01C39.3997 168.188 42.1187 170.559 45.3332 170.559H48.6562H48.9776H52.3007C55.5151 170.559 58.2341 168.188 58.6633 165.01L60.5705 150.885C60.5705 150.885 52.8632 150.93 48.817 150.986Z" fill="white"/>
<path d="M244.396 125.028L221.312 170.64L154.012 171.121L174.782 124.385L244.396 125.028Z" fill="#F6F7FA"/>
<path d="M109.347 170.837L109.36 167.187H152.926L172.971 123.341H242.645L244.396 125.028H176.332L155.502 170.8C155.502 170.8 109.347 170.717 109.347 170.837Z" fill="#D9DEE8"/>
<path d="M209.449 150.197C208.689 152.472 204.562 154.229 200.232 154.121C195.902 154.013 193.008 152.081 193.769 149.806C194.529 147.531 198.655 145.774 202.985 145.882C207.315 145.99 210.209 147.922 209.449 150.197Z" fill="#D9DEE8"/>
<path d="M155.502 171.092C155.461 171.092 155.42 171.083 155.381 171.065C155.235 170.999 155.17 170.827 155.236 170.68L176.144 124.737H244.396C244.557 124.737 244.688 124.867 244.688 125.028C244.688 125.189 244.557 125.319 244.396 125.319H176.52L155.767 170.921C155.719 171.028 155.612 171.092 155.502 171.092Z" fill="white"/>
<path d="M106.315 174.294H26.2561V192H106.315V174.294Z" fill="#596B9B"/>
<path d="M249.899 174.294H105.858V192H249.899V174.294Z" fill="#7A89AF"/>
<path d="M106.315 174.294H105.858H26.2561V177.546H105.858H106.315H249.899V174.294H106.315Z" fill="#BDC4D7"/>
<path d="M109.817 170.8H22.392V175.137H109.817V170.8Z" fill="#6F7FA9"/>
<path d="M253.401 170.8H109.359V175.137H253.401V170.8Z" fill="#9CA6C3"/>
<path d="M86.1022 77.8994H57.8403C56.0913 77.8994 54.6735 76.485 54.6735 74.7403V60.6662C54.6735 58.9215 56.0913 57.5071 57.8403 57.5071H86.1022C87.8513 57.5071 89.2691 58.9215 89.2691 60.6662V74.7403C89.2691 76.485 87.8513 77.8994 86.1022 77.8994Z" fill="white"/>
<path d="M97.3235 67.7032L86.709 63.2354V72.171L97.3235 67.7032Z" fill="white"/>
<path d="M65.2666 69.6536C66.3464 69.6536 67.2218 68.7804 67.2218 67.7032C67.2218 66.6261 66.3464 65.7529 65.2666 65.7529C64.1868 65.7529 63.3114 66.6261 63.3114 67.7032C63.3114 68.7804 64.1868 69.6536 65.2666 69.6536Z" fill="#223A7A"/>
<path d="M71.9713 69.6536C73.0511 69.6536 73.9265 68.7804 73.9265 67.7032C73.9265 66.6261 73.0511 65.7529 71.9713 65.7529C70.8915 65.7529 70.0161 66.6261 70.0161 67.7032C70.0161 68.7804 70.8915 69.6536 71.9713 69.6536Z" fill="#223A7A"/>
<path d="M78.6761 69.6536C79.756 69.6536 80.6313 68.7804 80.6313 67.7032C80.6313 66.6261 79.756 65.7529 78.6761 65.7529C77.5963 65.7529 76.7209 66.6261 76.7209 67.7032C76.7209 68.7804 77.5963 69.6536 78.6761 69.6536Z" fill="#223A7A"/>
<path d="M229.986 14.2105H164.739C160.549 14.2105 157.152 17.599 157.152 21.779V52.6553C157.152 56.8352 160.549 60.2238 164.739 60.2238H170.588C170.752 63.0228 170.35 67.1863 168.007 72.51C175.545 69.0415 179.886 63.8331 182.153 60.2238H229.986C234.176 60.2238 237.573 56.8352 237.573 52.6553V21.779C237.573 17.599 234.176 14.2105 229.986 14.2105Z" fill="#60A8FF"/>
<path d="M202.153 28.9259H169.791C168.902 28.9259 168.181 28.2068 168.181 27.3199C168.181 26.4328 168.902 25.7138 169.791 25.7138H202.153C203.042 25.7138 203.763 26.4328 203.763 27.3199C203.763 28.2068 203.042 28.9259 202.153 28.9259Z" fill="white"/>
<path d="M225.357 38.2814H169.167C168.622 38.2814 168.181 37.841 168.181 37.2977C168.181 36.7544 168.622 36.3139 169.167 36.3139H225.357C225.902 36.3139 226.343 36.7544 226.343 37.2977C226.343 37.841 225.902 38.2814 225.357 38.2814Z" fill="#D2E6FF"/>
<path d="M225.357 43.7418H169.167C168.622 43.7418 168.181 43.3015 168.181 42.7582C168.181 42.2149 168.622 41.7744 169.167 41.7744H225.357C225.902 41.7744 226.343 42.2149 226.343 42.7582C226.343 43.3015 225.902 43.7418 225.357 43.7418Z" fill="#D2E6FF"/>
<path d="M213.1 49.5637H169.167C168.622 49.5637 168.181 49.1233 168.181 48.58C168.181 48.0367 168.622 47.5963 169.167 47.5963H213.1C213.645 47.5963 214.086 48.0367 214.086 48.58C214.086 49.1233 213.645 49.5637 213.1 49.5637Z" fill="#D2E6FF"/>
<path d="M224.916 28.9259H209.478C208.589 28.9259 207.868 28.2068 207.868 27.3199C207.868 26.4328 208.589 25.7138 209.478 25.7138H224.916C225.805 25.7138 226.526 26.4328 226.526 27.3199C226.526 28.2068 225.805 28.9259 224.916 28.9259Z" fill="white"/>
<path d="M186.007 99.9334H168.478C167.833 99.9334 167.31 99.4121 167.31 98.769V86.824C167.31 86.1809 167.833 85.6596 168.478 85.6596H186.007C186.651 85.6596 187.174 86.1809 187.174 86.824V98.769C187.174 99.4121 186.651 99.9334 186.007 99.9334Z" fill="white"/>
<path d="M177.363 94.9295C177.265 94.9295 177.166 94.8962 177.085 94.8294L167.545 86.9695C167.358 86.8161 167.332 86.5409 167.486 86.355C167.641 86.1688 167.917 86.1434 168.102 86.2964L177.356 93.9203L186.374 86.0929C186.556 85.9351 186.833 85.9538 186.991 86.1358C187.15 86.3177 187.131 86.5934 186.948 86.7518L177.651 94.8223C177.569 94.8937 177.466 94.9295 177.363 94.9295Z" fill="#6F7FA9"/>
<path d="M167.823 99.6075C167.715 99.6075 167.606 99.5677 167.522 99.4873C167.346 99.321 167.339 99.0447 167.506 98.8698L174.178 91.873C174.344 91.6982 174.622 91.6908 174.797 91.8576C174.972 92.024 174.979 92.3003 174.812 92.4751L168.14 99.4719C168.055 99.562 167.939 99.6075 167.823 99.6075Z" fill="#6F7FA9"/>
<path d="M186.661 99.3517C186.549 99.3517 186.436 99.309 186.351 99.2235L179.706 92.5766C179.535 92.4057 179.535 92.1291 179.707 91.9589C179.879 91.7883 180.155 91.7892 180.326 91.9597L186.971 98.6066C187.142 98.7774 187.142 99.054 186.97 99.2243C186.884 99.3093 186.773 99.3517 186.661 99.3517Z" fill="#6F7FA9"/>
<path d="M188.085 91.0599C191.319 91.0599 193.941 88.4443 193.941 85.2179C193.941 81.9914 191.319 79.3759 188.085 79.3759C184.85 79.3759 182.228 81.9914 182.228 85.2179C182.228 88.4443 184.85 91.0599 188.085 91.0599Z" fill="#FF5F42"/>
<path d="M187.088 85.16L187.072 84.976C187.275 85.0667 187.451 85.184 187.6 85.328C187.749 85.472 187.864 85.6293 187.944 85.8C188.024 85.9707 188.064 86.1467 188.064 86.328C188.064 86.632 187.979 86.912 187.808 87.168C187.643 87.4187 187.419 87.6213 187.136 87.776C186.853 87.9253 186.539 88 186.192 88C185.845 88 185.531 87.9253 185.248 87.776C184.965 87.6213 184.739 87.4187 184.568 87.168C184.403 86.912 184.32 86.632 184.32 86.328C184.32 86.0827 184.371 85.872 184.472 85.696C184.579 85.5147 184.709 85.3627 184.864 85.24C185.024 85.1173 185.181 85.016 185.336 84.936L185.272 85.16C185.139 85.1067 185.008 85.032 184.88 84.936C184.757 84.8347 184.656 84.7067 184.576 84.552C184.496 84.3973 184.456 84.216 184.456 84.008C184.456 83.7093 184.533 83.44 184.688 83.2C184.843 82.9547 185.051 82.76 185.312 82.616C185.579 82.472 185.872 82.4 186.192 82.4C186.517 82.4 186.808 82.472 187.064 82.616C187.325 82.76 187.533 82.9547 187.688 83.2C187.843 83.44 187.92 83.7093 187.92 84.008C187.92 84.2373 187.875 84.4293 187.784 84.584C187.693 84.7387 187.584 84.8613 187.456 84.952C187.328 85.0427 187.205 85.112 187.088 85.16ZM185.416 84.024C185.416 84.168 185.448 84.296 185.512 84.408C185.581 84.52 185.675 84.6107 185.792 84.68C185.909 84.744 186.043 84.776 186.192 84.776C186.341 84.776 186.472 84.744 186.584 84.68C186.701 84.6107 186.792 84.52 186.856 84.408C186.925 84.296 186.96 84.168 186.96 84.024C186.96 83.8107 186.885 83.6347 186.736 83.496C186.592 83.352 186.411 83.28 186.192 83.28C185.968 83.28 185.781 83.352 185.632 83.496C185.488 83.6347 185.416 83.8107 185.416 84.024ZM186.192 87.12C186.448 87.12 186.664 87.0427 186.84 86.888C187.016 86.728 187.104 86.536 187.104 86.312C187.104 86.1573 187.064 86.0187 186.984 85.896C186.904 85.7733 186.795 85.6773 186.656 85.608C186.517 85.5333 186.363 85.496 186.192 85.496C186.021 85.496 185.867 85.5333 185.728 85.608C185.589 85.6773 185.48 85.7733 185.4 85.896C185.32 86.0187 185.28 86.1573 185.28 86.312C185.28 86.536 185.368 86.728 185.544 86.888C185.72 87.0427 185.936 87.12 186.192 87.12ZM190.311 88.08C190.113 88.08 189.903 88.0507 189.679 87.992C189.455 87.928 189.271 87.8373 189.127 87.72C189.057 87.6613 189.001 87.5867 188.959 87.496C188.921 87.4 188.903 87.3093 188.903 87.224C188.903 87.1333 188.94 87.048 189.015 86.968C189.095 86.888 189.207 86.848 189.351 86.848C189.447 86.848 189.567 86.8987 189.711 87C189.796 87.0533 189.889 87.1013 189.991 87.144C190.092 87.1867 190.196 87.208 190.303 87.208C190.559 87.208 190.78 87.1627 190.967 87.072C191.153 86.976 191.297 86.8453 191.399 86.68C191.5 86.5147 191.551 86.32 191.551 86.096C191.551 85.8933 191.503 85.72 191.407 85.576C191.316 85.432 191.193 85.32 191.039 85.24C190.889 85.16 190.727 85.12 190.551 85.12C190.385 85.12 190.241 85.1467 190.119 85.2C189.996 85.2533 189.884 85.3093 189.783 85.368C189.681 85.4213 189.58 85.448 189.479 85.448C189.303 85.448 189.172 85.4107 189.087 85.336C189.001 85.256 188.948 85.1627 188.927 85.056C188.905 84.9493 188.9 84.8533 188.911 84.768L189.159 82.824C189.18 82.712 189.233 82.6213 189.319 82.552C189.409 82.4773 189.516 82.44 189.639 82.44H191.951C192.079 82.44 192.185 82.4827 192.271 82.568C192.356 82.6533 192.399 82.76 192.399 82.888C192.399 83.0107 192.356 83.1147 192.271 83.2C192.185 83.28 192.079 83.32 191.951 83.32H189.887L189.975 83.248L189.759 84.872L189.655 84.568C189.687 84.5147 189.756 84.464 189.863 84.416C189.969 84.368 190.092 84.328 190.231 84.296C190.369 84.2587 190.505 84.24 190.639 84.24C190.996 84.24 191.316 84.3227 191.599 84.488C191.881 84.648 192.103 84.8693 192.263 85.152C192.428 85.4293 192.511 85.744 192.511 86.096C192.511 86.496 192.42 86.8453 192.239 87.144C192.057 87.4427 191.801 87.6747 191.471 87.84C191.145 88 190.759 88.08 190.311 88.08Z" fill="white"/>
<path d="M246.906 83.0678H212.692C211.403 83.0678 210.358 82.0252 210.358 80.739V75.3989C210.358 74.1128 211.403 73.0702 212.692 73.0702H246.906C248.195 73.0702 249.24 74.1128 249.24 75.3989V80.739C249.24 82.0252 248.195 83.0678 246.906 83.0678Z" fill="#223A7A"/>
<path d="M215.162 80.6905C215.009 80.6905 214.886 80.636 214.793 80.5267C214.699 80.4176 214.658 80.2811 214.669 80.1173L214.817 78.8228C214.828 78.79 214.823 78.7684 214.801 78.7572C214.779 78.7464 214.752 78.7519 214.719 78.7736L213.651 79.5438C213.519 79.6419 213.383 79.6777 213.24 79.6501C213.098 79.6232 212.983 79.5382 212.895 79.3964C212.797 79.2217 212.778 79.0684 212.838 78.9374C212.898 78.8064 212.999 78.7139 213.142 78.659L214.341 78.1183C214.374 78.1075 214.39 78.0911 214.39 78.0691C214.39 78.0474 214.374 78.031 214.341 78.0199L213.142 77.4792C212.988 77.4135 212.89 77.3101 212.846 77.168C212.803 77.0261 212.819 76.884 212.895 76.7419C212.983 76.6 213.098 76.5153 213.24 76.4878C213.383 76.4608 213.519 76.4907 213.651 76.578L214.719 77.3646C214.752 77.3866 214.779 77.3919 214.801 77.381C214.823 77.3702 214.828 77.3482 214.817 77.3154L214.669 76.0209C214.658 75.8571 214.702 75.7206 214.801 75.6112C214.9 75.5022 215.031 75.4474 215.195 75.4474C215.349 75.4474 215.474 75.5022 215.573 75.6112C215.672 75.7206 215.71 75.8571 215.688 76.0209L215.54 77.3154C215.529 77.3482 215.534 77.3702 215.557 77.381C215.578 77.3919 215.606 77.3866 215.639 77.3646L216.706 76.5945C216.837 76.496 216.977 76.4608 217.125 76.4878C217.273 76.5153 217.385 76.6 217.462 76.7419C217.56 76.9168 217.58 77.0695 217.519 77.2008C217.459 77.3318 217.357 77.4247 217.215 77.4792L216.017 78.0199C215.984 78.031 215.967 78.0474 215.967 78.0691C215.967 78.0911 215.984 78.1075 216.017 78.1183L217.215 78.659C217.369 78.7244 217.47 78.8284 217.519 78.9703C217.568 79.1124 217.55 79.2545 217.462 79.3964C217.385 79.5382 217.273 79.6232 217.125 79.6501C216.977 79.6777 216.837 79.6475 216.706 79.5602L215.639 78.7736C215.606 78.7519 215.578 78.7464 215.557 78.7572C215.534 78.7684 215.529 78.79 215.54 78.8228L215.688 80.1173C215.71 80.2811 215.669 80.4176 215.565 80.5267C215.46 80.636 215.326 80.6905 215.162 80.6905Z" fill="white"/>
<path d="M222.239 80.6905C222.085 80.6905 221.962 80.636 221.869 80.5267C221.776 80.4176 221.734 80.2811 221.746 80.1173L221.894 78.8228C221.904 78.79 221.899 78.7684 221.877 78.7572C221.855 78.7464 221.828 78.7519 221.795 78.7736L220.727 79.5438C220.596 79.6419 220.459 79.6777 220.317 79.6501C220.174 79.6232 220.059 79.5382 219.972 79.3964C219.873 79.2217 219.854 79.0684 219.914 78.9374C219.974 78.8064 220.076 78.7139 220.218 78.659L221.417 78.1183C221.45 78.1075 221.467 78.0911 221.467 78.0691C221.467 78.0474 221.45 78.031 221.417 78.0199L220.218 77.4792C220.065 77.4135 219.966 77.3101 219.922 77.168C219.879 77.0261 219.895 76.884 219.972 76.7419C220.059 76.6 220.174 76.5153 220.317 76.4878C220.459 76.4608 220.596 76.4907 220.727 76.578L221.795 77.3646C221.828 77.3866 221.855 77.3919 221.877 77.381C221.899 77.3702 221.904 77.3482 221.894 77.3154L221.746 76.0209C221.734 75.8571 221.779 75.7206 221.877 75.6112C221.976 75.5022 222.107 75.4474 222.271 75.4474C222.425 75.4474 222.551 75.5022 222.649 75.6112C222.748 75.7206 222.786 75.8571 222.764 76.0209L222.616 77.3154C222.605 77.3482 222.61 77.3702 222.633 77.381C222.655 77.3919 222.682 77.3866 222.715 77.3646L223.783 76.5945C223.914 76.496 224.054 76.4608 224.202 76.4878C224.349 76.5153 224.461 76.6 224.538 76.7419C224.636 76.9168 224.656 77.0695 224.595 77.2008C224.535 77.3318 224.434 77.4247 224.292 77.4792L223.093 78.0199C223.06 78.031 223.044 78.0474 223.044 78.0691C223.044 78.0911 223.06 78.1075 223.093 78.1183L224.292 78.659C224.445 78.7244 224.547 78.8284 224.595 78.9703C224.645 79.1124 224.626 79.2545 224.538 79.3964C224.461 79.5382 224.349 79.6232 224.202 79.6501C224.054 79.6777 223.914 79.6475 223.783 79.5602L222.715 78.7736C222.682 78.7519 222.655 78.7464 222.633 78.7572C222.61 78.7684 222.605 78.79 222.616 78.8228L222.764 80.1173C222.786 80.2811 222.745 80.4176 222.641 80.5267C222.536 80.636 222.402 80.6905 222.239 80.6905Z" fill="white"/>
<path d="M229.315 80.6905C229.162 80.6905 229.038 80.636 228.946 80.5267C228.852 80.4176 228.811 80.2811 228.822 80.1173L228.97 78.8228C228.981 78.79 228.975 78.7684 228.954 78.7572C228.931 78.7464 228.904 78.7519 228.871 78.7736L227.804 79.5438C227.672 79.6419 227.535 79.6777 227.393 79.6501C227.251 79.6232 227.136 79.5382 227.048 79.3964C226.95 79.2217 226.931 79.0684 226.991 78.9374C227.051 78.8064 227.152 78.7139 227.294 78.659L228.494 78.1183C228.527 78.1075 228.543 78.0911 228.543 78.0691C228.543 78.0474 228.527 78.031 228.494 78.0199L227.294 77.4792C227.141 77.4135 227.042 77.3101 226.999 77.168C226.955 77.0261 226.972 76.884 227.048 76.7419C227.136 76.6 227.251 76.5153 227.393 76.4878C227.535 76.4608 227.672 76.4907 227.804 76.578L228.871 77.3646C228.904 77.3866 228.931 77.3919 228.954 77.381C228.975 77.3702 228.981 77.3482 228.97 77.3154L228.822 76.0209C228.811 75.8571 228.855 75.7206 228.954 75.6112C229.052 75.5022 229.183 75.4474 229.348 75.4474C229.501 75.4474 229.627 75.5022 229.726 75.6112C229.825 75.7206 229.863 75.8571 229.84 76.0209L229.693 77.3154C229.682 77.3482 229.687 77.3702 229.709 77.381C229.731 77.3919 229.759 77.3866 229.792 77.3646L230.859 76.5945C230.99 76.496 231.13 76.4608 231.278 76.4878C231.426 76.5153 231.538 76.6 231.615 76.7419C231.713 76.9168 231.732 77.0695 231.672 77.2008C231.612 77.3318 231.51 77.4247 231.368 77.4792L230.169 78.0199C230.137 78.031 230.12 78.0474 230.12 78.0691C230.12 78.0911 230.137 78.1075 230.169 78.1183L231.368 78.659C231.521 78.7244 231.623 78.8284 231.672 78.9703C231.721 79.1124 231.702 79.2545 231.615 79.3964C231.538 79.5382 231.426 79.6232 231.278 79.6501C231.13 79.6777 230.99 79.6475 230.859 79.5602L229.792 78.7736C229.759 78.7519 229.731 78.7464 229.709 78.7572C229.687 78.7684 229.682 78.79 229.693 78.8228L229.84 80.1173C229.863 80.2811 229.822 80.4176 229.718 80.5267C229.613 80.636 229.479 80.6905 229.315 80.6905Z" fill="white"/>
<path d="M236.392 80.6905C236.238 80.6905 236.115 80.636 236.022 80.5267C235.929 80.4176 235.887 80.2811 235.899 80.1173L236.047 78.8228C236.057 78.79 236.052 78.7684 236.03 78.7572C236.008 78.7464 235.981 78.7519 235.948 78.7736L234.88 79.5438C234.749 79.6419 234.612 79.6777 234.47 79.6501C234.327 79.6232 234.212 79.5382 234.125 79.3964C234.026 79.2217 234.007 79.0684 234.067 78.9374C234.127 78.8064 234.229 78.7139 234.371 78.659L235.57 78.1183C235.603 78.1075 235.619 78.0911 235.619 78.0691C235.619 78.0474 235.603 78.031 235.57 78.0199L234.371 77.4792C234.218 77.4135 234.119 77.3101 234.075 77.168C234.032 77.0261 234.048 76.884 234.125 76.7419C234.212 76.6 234.327 76.5153 234.47 76.4878C234.612 76.4608 234.749 76.4907 234.88 76.578L235.948 77.3646C235.981 77.3866 236.008 77.3919 236.03 77.381C236.052 77.3702 236.057 77.3482 236.047 77.3154L235.899 76.0209C235.887 75.8571 235.931 75.7206 236.03 75.6112C236.129 75.5022 236.26 75.4474 236.424 75.4474C236.578 75.4474 236.704 75.5022 236.802 75.6112C236.901 75.7206 236.939 75.8571 236.917 76.0209L236.769 77.3154C236.758 77.3482 236.763 77.3702 236.786 77.381C236.808 77.3919 236.835 77.3866 236.868 77.3646L237.936 76.5945C238.067 76.496 238.207 76.4608 238.355 76.4878C238.502 76.5153 238.614 76.6 238.691 76.7419C238.789 76.9168 238.809 77.0695 238.748 77.2008C238.688 77.3318 238.587 77.4247 238.444 77.4792L237.246 78.0199C237.213 78.031 237.196 78.0474 237.196 78.0691C237.196 78.0911 237.213 78.1075 237.246 78.1183L238.444 78.659C238.598 78.7244 238.699 78.8284 238.748 78.9703C238.798 79.1124 238.779 79.2545 238.691 79.3964C238.614 79.5382 238.502 79.6232 238.355 79.6501C238.207 79.6777 238.067 79.6475 237.936 79.5602L236.868 78.7736C236.835 78.7519 236.808 78.7464 236.786 78.7572C236.763 78.7684 236.758 78.79 236.769 78.8228L236.917 80.1173C236.939 80.2811 236.898 80.4176 236.794 80.5267C236.689 80.636 236.555 80.6905 236.392 80.6905Z" fill="white"/>
<path d="M243.468 80.6905C243.314 80.6905 243.191 80.636 243.098 80.5267C243.005 80.4176 242.964 80.2811 242.975 80.1173L243.123 78.8228C243.134 78.79 243.128 78.7684 243.106 78.7572C243.084 78.7464 243.057 78.7519 243.024 78.7736L241.957 79.5438C241.825 79.6419 241.688 79.6777 241.546 79.6501C241.404 79.6232 241.289 79.5382 241.201 79.3964C241.102 79.2217 241.083 79.0684 241.143 78.9374C241.203 78.8064 241.305 78.7139 241.447 78.659L242.646 78.1183C242.679 78.1075 242.696 78.0911 242.696 78.0691C242.696 78.0474 242.679 78.031 242.646 78.0199L241.447 77.4792C241.294 77.4135 241.195 77.3101 241.152 77.168C241.108 77.0261 241.125 76.884 241.201 76.7419C241.289 76.6 241.404 76.5153 241.546 76.4878C241.688 76.4608 241.825 76.4907 241.957 76.578L243.024 77.3646C243.057 77.3866 243.084 77.3919 243.106 77.381C243.128 77.3702 243.134 77.3482 243.123 77.3154L242.975 76.0209C242.964 75.8571 243.008 75.7206 243.106 75.6112C243.205 75.5022 243.336 75.4474 243.501 75.4474C243.654 75.4474 243.78 75.5022 243.879 75.6112C243.977 75.7206 244.015 75.8571 243.993 76.0209L243.846 77.3154C243.834 77.3482 243.84 77.3702 243.862 77.381C243.884 77.3919 243.911 77.3866 243.944 77.3646L245.012 76.5945C245.143 76.496 245.283 76.4608 245.431 76.4878C245.578 76.5153 245.691 76.6 245.768 76.7419C245.866 76.9168 245.885 77.0695 245.825 77.2008C245.765 77.3318 245.663 77.4247 245.521 77.4792L244.322 78.0199C244.289 78.031 244.273 78.0474 244.273 78.0691C244.273 78.0911 244.289 78.1075 244.322 78.1183L245.521 78.659C245.674 78.7244 245.776 78.8284 245.825 78.9703C245.874 79.1124 245.855 79.2545 245.768 79.3964C245.691 79.5382 245.578 79.6232 245.431 79.6501C245.283 79.6777 245.143 79.6475 245.012 79.5602L243.944 78.7736C243.911 78.7519 243.884 78.7464 243.862 78.7572C243.84 78.7684 243.834 78.79 243.846 78.8228L243.993 80.1173C244.015 80.2811 243.974 80.4176 243.87 80.5267C243.766 80.636 243.632 80.6905 243.468 80.6905Z" fill="#67ACFF"/>
</g>
<defs>
<clipPath id="clip0_178_421">
<rect width="256" height="192" fill="white" transform="translate(0.5)"/>
</clipPath>
</defs>
</svg>
