<svg width="41" height="35" viewBox="0 0 41 35" fill="none" xmlns="http://www.w3.org/2000/svg">
<g clip-path="url(#clip0_151_2158)">
<mask id="mask0_151_2158" style="mask-type:luminance" maskUnits="userSpaceOnUse" x="2" y="0" width="36" height="35">
<path d="M37.6865 0H2.68652V35H37.6865V0Z" fill="white"/>
</mask>
<g mask="url(#mask0_151_2158)">
<path d="M37.6865 0H2.68652V35H37.6865V0Z" fill="#100943"/>
<path d="M37.6865 17.5C47.3516 17.5 55.1865 9.66498 55.1865 7.62939e-06C55.1865 -9.66499 47.3516 -17.5 37.6865 -17.5C28.0215 -17.5 20.1865 -9.66499 20.1865 7.62939e-06C20.1865 9.66498 28.0215 17.5 37.6865 17.5Z" fill="#ED143B"/>
<path d="M24.3059 16.701H13.9657V12.6092H24.3059C24.9099 12.6092 25.3299 12.7145 25.5407 12.8983C25.7514 13.0822 25.882 13.4232 25.882 13.9213V15.3905C25.882 15.9153 25.7514 16.2563 25.5407 16.4401C25.3299 16.624 24.9099 16.7026 24.3059 16.7026V16.701ZM25.0153 8.75156H9.58044V26.25H13.9657V20.557H22.0473L25.882 26.25H30.7926L26.5646 20.5303C28.1234 20.2993 28.8233 19.8217 29.4005 19.0344C29.9778 18.2472 30.2673 16.9885 30.2673 15.3088V13.9967C30.2673 13.0005 30.1618 12.2132 29.9778 11.6098C29.7937 11.0064 29.4793 10.4816 29.0325 10.0102C28.5606 9.56396 28.0353 9.24968 27.4045 9.03912C26.7738 8.85529 25.9858 8.75 25.0153 8.75V8.75156Z" fill="white"/>
</g>
</g>
<defs>
<clipPath id="clip0_151_2158">
<rect x="2.68652" width="35" height="35" rx="5" fill="white"/>
</clipPath>
</defs>
</svg>
