<svg width="74" height="30" viewBox="0 0 74 30" fill="none" xmlns="http://www.w3.org/2000/svg">
<path fill-rule="evenodd" clip-rule="evenodd" d="M12.5409 0.318163C13.4082 0.159121 14.2855 0.017961 15.1707 0.00261508C29.6304 0.00261508 44.0901 0.0103116 58.5498 0C62.4906 0.100062 66.3236 1.85754 69.0328 4.71044C71.5214 7.40439 73.0762 11.0064 73.0993 14.6932C73.2198 18.6699 71.5984 22.6491 68.8096 25.4738C65.9567 28.396 61.8697 30.0816 57.7827 29.997C43.7515 29.9919 29.7202 29.997 15.6889 29.9945C11.389 30.0201 7.12491 28.0754 4.3182 24.8222C1.94764 22.1232 0.5751 18.5416 0.626388 14.9447C0.582672 10.9346 2.34785 6.99125 5.19828 4.19991C7.25073 2.29624 9.78033 0.864636 12.5409 0.318163Z" fill="#333333"/>
<path fill-rule="evenodd" clip-rule="evenodd" d="M46.2735 16.5812C46.843 15.2727 47.2228 13.895 47.7948 12.5916C48.3721 13.895 48.7339 15.2855 49.3009 16.594C48.2926 16.5991 47.2818 16.6145 46.2735 16.5812ZM34.6103 12.9559C35.8084 12.8122 37.0476 12.7918 38.2406 12.961C39.1796 13.1278 39.3284 14.2772 38.8255 14.952C37.5042 15.5292 36.0214 15.1726 34.6257 15.2623C34.6308 14.4927 34.6282 13.723 34.6103 12.9559ZM56.9233 17.5406C57.0105 18.3899 56.9361 19.2443 56.9592 20.096C57.9649 20.1088 58.9732 20.1062 59.9789 20.1088C60.1251 18.9979 59.6377 17.7229 60.3457 16.7479C61.6363 14.6979 62.8267 12.589 64.1198 10.5392C63.0524 10.5341 61.9852 10.5264 60.9205 10.5469C60.0661 11.9912 59.3349 13.5049 58.5011 14.9597C57.6622 13.4974 56.9002 11.9938 56.0561 10.5341C54.9426 10.5392 53.8292 10.5366 52.7183 10.5289C53.9959 12.9303 55.584 15.17 56.9233 17.5406ZM41.7144 20.1088C42.8202 20.1037 43.9285 20.1037 45.0343 20.1037C45.2267 19.6367 45.4191 19.1724 45.6167 18.708C47.0586 18.7131 48.5004 18.7362 49.9397 18.6951C50.1757 19.1492 50.381 19.6187 50.5478 20.1011C51.6382 20.1088 52.7259 20.1088 53.8163 20.1011C52.5669 16.8915 51.2046 13.7283 49.9243 10.5315C48.5081 10.5392 47.0919 10.5392 45.6757 10.5315C44.3108 13.7051 43.0691 16.93 41.7144 20.1088ZM31.7445 10.5264C31.7266 13.7179 31.7343 16.9096 31.7394 20.1037C32.6989 20.1062 33.6584 20.1037 34.6205 20.1088C34.6282 19.2571 34.6282 18.4052 34.6205 17.5535C36.2728 17.4303 37.9558 17.7074 39.5901 17.3637C41.209 17.0019 42.3584 15.3214 42.0967 13.6769C42.0171 11.8476 40.2315 10.5982 38.51 10.5545C36.2574 10.5032 33.9997 10.5597 31.7445 10.5264Z" fill="#FEFEFE"/>
<path fill-rule="evenodd" clip-rule="evenodd" d="M9.36478 7.66829C14.75 7.67861 20.1352 7.64261 25.5204 7.68633C25.5435 10.4494 25.5332 13.2126 25.5281 15.9757C25.4845 18.1616 24.117 20.191 22.1723 21.1531C20.5021 21.9971 18.9884 23.1698 17.2438 23.847C16.2432 23.1287 15.1169 22.6078 14.0753 21.9511C12.8797 21.2018 11.4866 20.6657 10.6117 19.5061C9.89845 18.5619 9.35198 17.4228 9.36989 16.217C9.34174 13.3666 9.35709 10.5187 9.36478 7.66829ZM13.7752 11.999C13.7699 12.82 13.7853 13.6436 13.7776 14.4646C14.4703 13.854 15.4068 13.8104 16.2791 13.854C16.1893 15.4498 16.6024 17.1919 15.7582 18.649C16.8563 18.6722 17.9571 18.6671 19.055 18.6517C18.2674 17.1713 18.6934 15.4164 18.6446 13.8129C19.4759 13.8053 20.3303 13.8899 21.0075 14.4211C21.0126 13.6129 21.0255 12.8047 21.0204 11.9966C18.606 11.999 16.1893 11.9939 13.7752 11.999Z" fill="#FDDD2D"/>
</svg>
