<svg width="41" height="35" viewBox="0 0 41 35" fill="none" xmlns="http://www.w3.org/2000/svg">
<path d="M1.38439 5C2.81806 5 5.00269 5 6.23155 5C6.84598 5 7.32387 5.41437 7.52868 5.96685C8.1431 7.76243 9.5085 11.6989 11.0787 14.3923C13.1951 17.9144 14.5605 19.2265 15.448 19.0884C16.3355 18.8812 16.0624 16.5331 16.0624 14.6685C16.0624 12.8039 16.2672 9.62707 15.3797 8.1768L14.0143 6.17403C13.673 5.69061 14.0143 5.06906 14.5605 5.06906H22.3432C23.0942 5.06906 23.7086 5.69061 23.7086 6.45028V16.4641C23.7086 16.4641 24.05 18.2597 25.9615 16.395C27.8731 14.5304 29.9212 11.0773 31.6279 7.55525L32.3106 5.89779C32.5154 5.41436 32.9933 5.06906 33.5395 5.06906H38.5914C39.5472 5.06906 40.2299 6.03591 39.8886 6.9337L39.3424 8.38398C39.3424 8.38398 37.4991 12.1133 35.5876 14.7376C33.676 17.4309 33.2664 18.0525 33.5395 18.7431C33.8126 19.4337 38.728 24.0608 39.9568 26.2707C40.2982 26.8923 40.5713 27.4448 40.8443 27.9282C41.3222 28.826 40.6395 30 39.6155 30H33.8808C33.4029 30 32.9251 29.7238 32.7202 29.3094L32.1741 28.4116C32.1741 28.4116 28.6923 24.268 26.576 22.9558C24.3913 21.7127 24.4596 23.5083 24.4596 23.5083V27.1685C24.4596 28.6878 23.2307 29.9309 21.7288 29.9309H20.3634C20.3634 29.9309 12.8537 29.9309 6.84598 20.884C2.13536 13.8398 0.565153 9.28177 0.0189946 6.65746C-0.117545 5.82873 0.496884 5 1.38439 5Z" fill="#5181B8"/>
</svg>
