<svg width="41" height="35" viewBox="0 0 41 35" fill="none" xmlns="http://www.w3.org/2000/svg">
<mask id="mask0_151_2167" style="mask-type:luminance" maskUnits="userSpaceOnUse" x="3" y="0" width="35" height="35">
<path d="M3 0H38V35H3V0Z" fill="white"/>
</mask>
<g mask="url(#mask0_151_2167)">
<path d="M3 12.7896C3 2.26042 5.26042 0 15.7896 0H25.2104C35.7396 0 38 2.26042 38 12.7896V22.2104C38 32.7396 35.7396 35 25.2104 35H15.7896C5.26042 35 3 32.7396 3 22.2104V12.7896Z" fill="#0077FF"/>
<path d="M21.8126 35H25.1376C35.4917 35 37.8834 32.8417 38.0001 22.925V12.0167C37.8834 2.14375 35.4626 0 25.1376 0H21.8126C11.2251 0 8.95007 2.26042 8.95007 12.7896V22.2104C8.95007 32.7396 11.2251 35 21.8126 35Z" fill="#FF2B42"/>
<path d="M27.6894 14.467C29.4686 15.4878 30.3436 15.9982 30.6498 16.6691C30.9123 17.2524 30.9123 17.9232 30.6498 18.492C30.3582 19.1628 29.4686 19.6732 27.6894 20.6941L22.8477 23.4941C21.0832 24.5149 20.1936 25.0253 19.4644 24.9524C19.1522 24.9179 18.8508 24.8183 18.5795 24.66C18.3082 24.5018 18.0731 24.2884 17.8894 24.0336C17.4519 23.4503 17.4519 22.4295 17.4519 20.3878V14.7878C17.4519 12.7461 17.4519 11.7253 17.8894 11.142C18.0717 10.8845 18.3061 10.6683 18.5775 10.5075C18.8489 10.3467 19.1511 10.2449 19.4644 10.2086C20.1936 10.1211 21.0686 10.6461 22.8477 11.667L27.6894 14.4524V14.467Z" fill="white"/>
</g>
</svg>
