<svg width="41" height="35" viewBox="0 0 41 35" fill="none" xmlns="http://www.w3.org/2000/svg">
<path fill-rule="evenodd" clip-rule="evenodd" d="M39.62 9.824C39.62 9.824 39.2483 7.17868 38.1095 6.014C36.6643 4.48451 35.0446 4.47737 34.3024 4.38862C28.9847 4 21.0083 4 21.0083 4H20.9917C20.9917 4 13.0153 4 7.69762 4.38862C6.95425 4.47737 5.33569 4.48451 3.88931 6.014C2.7505 7.17898 2.38 9.824 2.38 9.824C2.38 9.824 2 12.9312 2 16.0369V18.9497C2 22.0566 2.38 25.1626 2.38 25.1626C2.38 25.1626 2.7505 27.8079 3.88931 28.9726C5.33569 30.5021 7.2345 30.4541 8.08 30.6138C11.12 30.9089 21 31 21 31C21 31 28.9847 30.9881 34.3024 30.5995C35.0446 30.5095 36.6643 30.5024 38.1095 28.9729C39.2483 27.8079 39.62 25.1629 39.62 25.1629C39.62 25.1629 40 22.0569 40 18.9497V16.0369C40 12.9312 39.62 9.824 39.62 9.824ZM17.0765 22.4792L17.0753 11.6933L27.3424 17.1048L17.0765 22.4792Z" fill="#CE1312"/>
</svg>
