<svg width="40" height="37" viewBox="0 0 40 37" fill="none" xmlns="http://www.w3.org/2000/svg">
<path d="M6 17.0558V10.4572C6 9.88043 6.20073 9.30706 6.45404 8.79855C6.71422 8.27627 7.07212 7.73901 7.47631 7.21299C8.28528 6.16024 9.34613 5.06952 10.3869 4.11687C11.4286 3.16341 12.4807 2.32018 13.2884 1.76795C13.6816 1.49912 14.0627 1.26724 14.3746 1.13658C14.5028 1.08285 14.7547 0.98576 15.0342 1.00176C15.1896 1.01071 15.4618 1.06174 15.6965 1.29418C15.947 1.54249 16.0098 1.85085 16.0099 2.06418V12.189C16.0841 12.2547 16.1952 12.345 16.3561 12.4501C16.7713 12.7214 17.358 13.0232 17.9914 13.3103C18.6181 13.5944 19.2605 13.8499 19.7692 14.0338C20.0239 14.1258 20.2378 14.1977 20.3949 14.2445C20.4359 14.2567 20.471 14.2652 20.5 14.273C20.529 14.2652 20.5641 14.2567 20.6051 14.2445C20.7622 14.1977 20.9761 14.1258 21.2308 14.0338C21.7395 13.8499 22.3819 13.5944 23.0086 13.3103C23.642 13.0232 24.2287 12.7214 24.6439 12.4501C24.8048 12.345 24.9159 12.2547 24.9901 12.189V2.06418C24.9902 1.85819 25.051 1.51603 25.3464 1.25716C25.6188 1.0186 25.9206 1.00428 26.0663 1.0122C26.338 1.02704 26.5779 1.14621 26.6985 1.20968C26.9978 1.36729 27.3697 1.63217 27.7591 1.93601C28.5574 2.55885 29.6019 3.48545 30.635 4.49095C31.668 5.4963 32.715 6.60398 33.5109 7.59372C33.9075 8.08691 34.258 8.57176 34.5149 9.01313C34.7452 9.40875 35 9.93231 35 10.4572V17.0558C34.9998 18.0881 34.4462 19.1339 33.8361 20.0209C33.1991 20.9471 32.3668 21.8861 31.5668 22.7316C31.1643 23.1571 30.7628 23.5668 30.392 23.944C30.0184 24.324 29.6796 24.667 29.3908 24.9723C29.0982 25.2814 28.8797 25.5268 28.7394 25.7109C28.7086 25.7513 28.6877 25.7864 28.67 25.8125V36H26.799V25.6312C26.799 25.3233 26.9161 25.0728 26.9854 24.9419C27.0671 24.7874 27.1707 24.6386 27.2731 24.5042C27.4789 24.2341 27.7552 23.9268 28.056 23.6089C28.3606 23.287 28.7148 22.9284 29.0829 22.554C29.4539 22.1767 29.8435 21.7789 30.2321 21.3682C31.0146 20.5413 31.7643 19.6896 32.3141 18.8902C32.8906 18.052 33.1288 17.4374 33.129 17.0558V10.4686C33.1263 10.4773 33.1031 10.3437 32.9143 10.0195C32.7262 9.69636 32.4411 9.29683 32.0748 8.84128C31.3448 7.9336 30.3576 6.88413 29.356 5.90941C28.4551 5.03257 27.561 4.2372 26.8611 3.67253V12.434C26.861 12.9647 26.5394 13.3404 26.3714 13.5144C26.1638 13.7294 25.902 13.925 25.6397 14.0964C25.1083 14.4437 24.4233 14.7903 23.7568 15.0924C23.0837 15.3975 22.3967 15.6718 21.8457 15.8709C21.5708 15.9703 21.3216 16.0531 21.1203 16.113C21.0205 16.1428 20.924 16.17 20.8371 16.1899C20.7727 16.2047 20.6392 16.2336 20.5 16.2336C20.3608 16.2336 20.2273 16.2047 20.1629 16.1899C20.076 16.17 19.9795 16.1428 19.8797 16.113C19.6784 16.0531 19.4292 15.9703 19.1543 15.8709C18.6033 15.6718 17.9163 15.3975 17.2432 15.0924C16.5767 14.7903 15.8917 14.4437 15.3603 14.0964C15.098 13.925 14.8362 13.7294 14.6286 13.5144C14.4606 13.3404 14.139 12.9647 14.1389 12.434V3.51682C13.4408 4.01066 12.5361 4.74029 11.623 5.57616C10.6292 6.4858 9.65501 7.49327 8.938 8.42637C8.57919 8.89333 8.30071 9.32175 8.1158 9.69293C7.92416 10.0777 7.87097 10.3271 7.87097 10.4572V17.0558C7.87115 17.4284 8.10134 18.0104 8.67399 18.8075C9.22155 19.5697 9.96918 20.377 10.756 21.1792C11.5171 21.9553 12.3477 22.7584 12.9549 23.4228C13.2623 23.7591 13.5485 24.0982 13.7625 24.4187C13.9487 24.6978 14.201 25.1344 14.201 25.6312V36H12.33V25.7071C12.3172 25.6797 12.2879 25.6211 12.225 25.5267C12.0928 25.3287 11.8843 25.0744 11.5983 24.7615C11.0187 24.1273 10.2664 23.4048 9.44503 22.5673C8.64943 21.7561 7.8141 20.8613 7.17484 19.9716C6.56106 19.1172 6.00016 18.0971 6 17.0558Z" fill="#3756A6" stroke="white" stroke-width="0.5"/>
</svg>
