<?xml version="1.0" standalone="no"?>
<!DOCTYPE svg PUBLIC "-//W3C//DTD SVG 1.1//EN" "http://www.w3.org/Graphics/SVG/1.1/DTD/svg11.dtd" >
<svg xmlns="http://www.w3.org/2000/svg">
<metadata>Generated by IcoMoon</metadata>
<defs>
<font id="icomoon" horiz-adv-x="1024">
<font-face units-per-em="1024" ascent="960" descent="-64" />
<missing-glyph horiz-adv-x="1024" />
<glyph unicode="&#x20;" horiz-adv-x="512" d="" />
<glyph unicode="&#xe900;" glyph-name="heart-filled" d="M733.599 845.707c145.8-0.8 263.8-118.6 264.4-264.4 0-267-486-531.399-486-531.399s-486 268.4-486 531.399c0 146 118.4 264.4 264.4 264.4v0c89.4 0.6 172.999-44.2 221.599-119.2 49 74.6 132.4 119.4 221.599 119.2zM511.999 23.908c-4.6 0-9 1.4-13 3.8-19.4 10.6-499 278.8-499 553.599 0 160.4 130 290.4 290.4 290.4v0c85.6 1 167-36.6 221.599-102.4 103.6 122.4 286.8 137.6 409.2 34.2 65.4-55.2 103-136.6 102.8-222 0-278.599-479.599-543.199-499-553.399-4-2.8-8.4-4-13-4.2zM290.4 819.907c-131.8 0-238.6-106.8-238.6-238.6v0c0-223 385-457.599 460.199-501.6 75.2 42.8 460.199 275.999 460.199 501.6 0.2 131.8-106.4 238.8-238.2 239-80.6 0.2-155.799-40.4-199.999-108-8.8-12.2-25.8-14.8-38-6-2.4 1.6-4.4 3.8-6 6-43.4 68-119 108.6-199.6 107.6z" />
<glyph unicode="&#xe901;" glyph-name="cart" d="M921.599 74.837l-58.634 660.26c-1.256 14.658-13.611 25.757-28.061 25.757h-120.618c-1.675 110.148-91.72 199.146-202.287 199.146s-200.612-88.998-202.287-199.146h-120.618c-14.658 0-26.804-11.099-28.061-25.757l-58.634-660.26c0-0.838-0.209-1.675-0.209-2.513 0-75.177 68.895-136.324 153.705-136.324h512.209c84.81 0 153.705 61.147 153.705 136.324 0 0.838 0 1.675-0.209 2.513zM511.999 903.46c79.365 0 144.072-63.66 145.747-142.606h-291.494c1.675 78.946 66.382 142.606 145.747 142.606zM768.104-7.46h-512.209c-53.189 0-96.327 35.18-97.165 78.528l56.121 633.037h94.652v-85.857c0-15.706 12.564-28.27 28.27-28.27s28.27 12.564 28.27 28.27v85.857h291.704v-85.857c0-15.706 12.564-28.27 28.27-28.27s28.27 12.564 28.27 28.27v85.857h94.652l56.33-633.037c-0.838-43.347-44.185-78.528-97.165-78.528z" />
<glyph unicode="&#xe902;" glyph-name="heart-empty" d="M511.999 23.908c-4.6 0-9 1.4-13 3.8-19.4 10.6-499 278.8-499 553.599 0 160.4 130 290.4 290.4 290.4v0c85.6 1 167-36.6 221.599-102.4 103.6 122.4 286.8 137.6 409.2 34.2 65.4-55.2 103-136.6 102.8-222 0-278.599-479.599-543.199-499-553.399-4-2.8-8.4-4-13-4.2zM290.4 819.907c-131.8 0-238.6-106.8-238.6-238.6v0c0-223 385-457.599 460.199-501.6 75.2 42.8 460.199 275.999 460.199 501.6 0.2 131.8-106.4 238.8-238.2 239-80.6 0.2-155.799-40.4-199.999-108-8.8-12.2-25.8-14.8-38-6-2.4 1.6-4.4 3.8-6 6-43.4 68-119 108.6-199.6 107.6z" />
<glyph unicode="&#xe903;" d="M733.599 845.707c145.8-0.8 263.8-118.6 264.4-264.4 0-267-486-531.399-486-531.399s-486 268.4-486 531.399c0 146 118.4 264.4 264.4 264.4v0c89.4 0.6 172.999-44.2 221.599-119.2 49 74.6 132.4 119.4 221.599 119.2z" />
<glyph unicode="&#xe904;" d="M511.999 23.908c-4.6 0-9 1.4-13 3.8-19.4 10.6-499 278.8-499 553.599 0 160.4 130 290.4 290.4 290.4v0c85.6 1 167-36.6 221.599-102.4 103.6 122.4 286.8 137.6 409.2 34.2 65.4-55.2 103-136.6 102.8-222 0-278.599-479.599-543.199-499-553.399-4-2.8-8.4-4-13-4.2zM290.4 819.907c-131.8 0-238.6-106.8-238.6-238.6v0c0-223 385-457.599 460.199-501.6 75.2 42.8 460.199 275.999 460.199 501.6 0.2 131.8-106.4 238.8-238.2 239-80.6 0.2-155.799-40.4-199.999-108-8.8-12.2-25.8-14.8-38-6-2.4 1.6-4.4 3.8-6 6-43.4 68-119 108.6-199.6 107.6z" />
<glyph unicode="&#xe905;" glyph-name="discount" d="M955.906 434.736c-4.12 8.43-4.12 18.098 0 26.526l38.192 78.129c21.264 43.502 4.416 95.35-38.356 118.044l-76.819 40.76c-8.288 4.396-13.97 12.22-15.592 21.458l-15.024 85.656c-8.366 47.692-52.482 79.739-100.414 72.957l-86.104-12.18c-9.294-1.312-18.484 1.676-25.226 8.198l-62.502 60.464c-34.802 33.668-89.32 33.67-124.12 0l-62.504-60.47c-6.744-6.524-15.934-9.506-25.226-8.198l-86.104 12.18c-47.95 6.786-92.048-25.266-100.414-72.957l-15.024-85.652c-1.622-9.24-7.304-17.062-15.59-21.46l-76.819-40.76c-42.772-22.692-59.62-74.545-38.356-118.046l38.19-78.127c4.12-8.43 4.12-18.098 0-26.526l-38.192-78.127c-21.264-43.502-4.416-95.35 38.356-118.044l76.819-40.76c8.288-4.396 13.97-12.22 15.592-21.458l15.024-85.656c7.616-43.416 44.844-73.863 87.628-73.859 4.214 0 8.49 0.296 12.788 0.904l86.104 12.18c9.286 1.318 18.482-1.676 25.226-8.198l62.502-60.464c17.404-16.836 39.728-25.252 62.060-25.25 22.326 0.002 44.664 8.418 62.060 25.25l62.504 60.464c6.744 6.522 15.936 9.502 25.226 8.198l86.104-12.18c47.956-6.784 92.048 25.266 100.414 72.957l15.026 85.652c1.622 9.24 7.304 17.062 15.59 21.46l76.819 40.76c42.772 22.692 59.62 74.545 38.356 118.046l-38.192 78.129zM928.061 290.734l-76.819-40.76c-24.492-12.998-41.29-36.114-46.080-63.426l-15.024-85.654c-2.83-16.136-17.748-26.974-33.974-24.684l-86.104 12.18c-27.46 3.89-54.632-4.948-74.561-24.226l-62.504-60.462c-11.772-11.388-30.218-11.388-41.994 0l-62.502 60.464c-16.844 16.294-38.864 25.124-61.852 25.124-4.212 0-8.458-0.296-12.71-0.898l-86.104-12.18c-16.212-2.292-31.142 8.548-33.974 24.684l-15.026 85.656c-4.792 27.312-21.588 50.43-46.082 63.424l-76.819 40.76c-14.472 7.678-20.172 25.22-12.978 39.938l38.192 78.129c12.176 24.912 12.176 53.484 0 78.395l-38.192 78.129c-7.194 14.718-1.494 32.26 12.978 39.938l76.819 40.76c24.492 12.998 41.29 36.114 46.080 63.426l15.024 85.654c2.832 16.136 17.748 26.976 33.974 24.684l86.104-12.18c27.45-3.886 54.632 4.948 74.561 24.226l62.504 60.464c11.772 11.388 30.218 11.388 41.994 0l62.502-60.464c19.93-19.28 47.108-28.112 74.561-24.226l86.104 12.18c16.214 2.294 31.144-8.548 33.974-24.684l15.024-85.656c4.792-27.312 21.588-50.43 46.082-63.424l76.819-40.76c14.472-7.678 20.172-25.22 12.978-39.938l-38.192-78.127c-12.176-24.91-12.176-53.486 0-78.395l38.192-78.127c7.196-14.722 1.496-32.266-12.976-39.944zM727.765 663.767c-11.53 11.532-30.23 11.532-41.762 0l-389.773-389.775c-11.532-11.532-11.532-30.23 0-41.762 5.766-5.766 13.324-8.65 20.88-8.65s15.116 2.882 20.88 8.65l389.773 389.773c11.536 11.534 11.536 30.23 0.002 41.764zM393.88 713.766c-59.704 0-108.276-48.574-108.276-108.276s48.574-108.276 108.276-108.276 108.276 48.574 108.276 108.276-48.574 108.276-108.276 108.276zM393.88 556.274c-27.138 0-49.216 22.078-49.216 49.218 0 27.138 22.078 49.216 49.216 49.216s49.218-22.078 49.218-49.216c-0.002-27.14-22.080-49.218-49.218-49.218zM630.116 398.782c-59.704 0-108.276-48.574-108.276-108.276s48.574-108.276 108.276-108.276c59.704 0 108.276 48.574 108.276 108.276s-48.574 108.276-108.276 108.276zM630.116 241.291c-27.138 0-49.218 22.078-49.218 49.216s22.078 49.216 49.218 49.216c27.138 0 49.216-22.078 49.216-49.216s-22.078-49.216-49.216-49.216z" />
<glyph unicode="&#xe906;" glyph-name="close" d="M568.571 447.998l443.712 443.714c15.622 15.622 15.622 40.95 0 56.57s-40.95 15.622-56.57 0l-443.714-443.714-443.712 443.714c-15.622 15.622-40.95 15.622-56.57 0s-15.622-40.95 0-56.57l443.712-443.712-443.712-443.714c-15.622-15.622-15.622-40.95 0-56.57 7.81-7.81 18.048-11.714 28.286-11.714s20.474 3.904 28.286 11.714l443.71 443.712 443.712-443.712c7.81-7.81 18.048-11.714 28.286-11.714s20.474 3.904 28.286 11.714c15.622 15.622 15.622 40.95 0 56.57l-443.712 443.712z" />
<glyph unicode="&#xe907;" glyph-name="menu" d="M981.333 405.328h-938.666c-23.552 0-42.667 19.115-42.667 42.667s19.115 42.667 42.667 42.667h938.666c23.552 0 42.667-19.115 42.667-42.667s-19.115-42.667-42.667-42.667zM981.333 732.442h-938.666c-23.552 0-42.667 19.115-42.667 42.667s19.115 42.667 42.667 42.667h938.666c23.552 0 42.667-19.115 42.667-42.667s-19.115-42.667-42.667-42.667zM981.333 78.224h-938.666c-23.552 0-42.667 19.115-42.667 42.667s19.115 42.667 42.667 42.667h938.666c23.552 0 42.667-19.115 42.667-42.667s-19.115-42.667-42.667-42.667z" />
<glyph unicode="&#xe908;" glyph-name="arrow" d="M798.814 480.477l-512.426 466.976c-16.815 16.73-44.086 16.73-60.901 0s-16.815-43.872 0-60.602l481.529-438.852-481.486-438.851c-16.815-16.73-16.815-43.874 0-60.602s44.086-16.729 60.9 0l512.427 466.976c8.962 8.918 12.805 20.742 12.206 32.434 0.557 11.737-3.284 23.559-12.249 32.521z" />
<glyph unicode="&#xe909;" glyph-name="viber" d="M971.337 367.192c30.522 256.925-14.664 419.129-96.171 492.493l0.043 0.043c-131.553 125.286-575.832 143.83-733.219-5.627-70.679-73.108-95.575-180.406-98.302-313.238-2.729-132.875-5.968-381.786 225.976-449.31h0.213l-0.213-103.12s-1.578-41.776 25.109-50.175c30.522-9.89 44.334 9.507 139.269 122.899 158.751-13.769 280.669 17.776 294.524 22.38 32.057 10.743 213.443 34.742 242.773 283.653zM449.686 133.714s-100.476-125.286-131.724-157.813c-10.231-10.572-21.442-9.592-21.272 11.382 0 13.769 0.767 171.198 0.767 171.198-196.647 56.355-185.053 268.307-182.921 379.185 2.131 110.921 22.423 201.763 82.274 262.936 138.075 129.465 527.577 100.519 626.817 7.247 121.322-107.553 78.139-411.413 78.395-421.772-24.938-207.774-171.923-220.946-198.949-229.941-11.553-3.837-118.764-31.417-253.387-22.423zM505.274 776.26c-16.413 0-16.413-25.577 0-25.79 127.333-0.98 232.2-89.734 233.351-252.534 0-17.18 25.151-16.966 24.938 0.213h-0.043c-1.364 175.418-115.866 277.131-258.247 278.111zM672.763 524.92c-0.384-16.966 24.725-17.776 24.938-0.596 2.089 96.726-57.549 176.399-169.621 184.797-16.413 1.194-18.117-24.597-1.747-25.79 97.194-7.374 148.392-73.706 146.431-158.409zM645.907 414.894c-21.058 12.192-42.501 4.604-51.368-7.374l-18.544-24c-9.421-12.192-27.027-10.572-27.027-10.572-128.484 33.975-162.843 168.427-162.843 168.427s-1.578 18.203 10.188 27.964l23.191 19.183c11.595 9.208 18.927 31.375 7.119 53.158-31.545 56.995-52.732 76.647-63.517 91.738-11.339 14.195-28.391 17.393-46.124 7.801h-0.384c-36.874-21.57-77.244-61.94-64.327-103.504 22.040-43.822 62.537-183.518 191.618-289.068 60.661-49.919 156.662-101.074 197.415-112.881l0.384-0.596c40.157-13.385 79.205 28.562 100.051 66.544v0.299c9.251 18.373 6.182 35.765-7.333 47.147-23.958 23.36-60.107 49.152-88.498 65.734zM545.643 613.971c40.967-2.387 60.831-23.787 62.963-67.737 0.767-17.18 25.705-15.986 24.938 1.194-2.729 57.378-32.654 89.35-86.537 92.334-16.413 0.98-17.947-24.81-1.364-25.79z" />
<glyph unicode="&#xe90a;" glyph-name="whatsapp" d="M873.069 811.187c-95.799 95.913-223.206 148.756-358.938 148.813-279.687 0-507.312-227.619-507.425-507.381-0.037-89.431 23.325-176.732 67.731-253.681l-71.987-262.938 268.994 70.562c74.118-40.431 157.563-61.738 242.481-61.762h0.212c279.657 0 507.307 227.637 507.412 507.412 0.057 135.587-52.675 263.069-148.481 358.975zM514.131 30.494h-0.175c-75.675 0.031-149.893 20.369-214.656 58.787l-15.394 9.143-159.625-41.875 42.606 155.631-10.031 15.956c-42.219 67.15-64.512 144.763-64.475 224.45 0.087 232.531 189.287 421.712 421.919 421.712 112.65-0.037 218.544-43.963 298.169-123.681s123.45-185.681 123.412-298.375c-0.1-232.55-189.287-421.75-421.75-421.75zM745.469 346.363c-12.675 6.35-75.012 37.012-86.638 41.25-11.613 4.231-20.075 6.337-28.518-6.35-8.457-12.688-32.75-41.25-40.15-49.707-7.399-8.463-14.787-9.525-27.469-3.175-12.682 6.343-53.532 19.738-101.963 62.931-37.687 33.619-63.132 75.137-70.531 87.825-7.388 12.7-0.063 18.9 5.563 25.875 13.725 17.044 27.469 34.912 31.694 43.369 4.231 8.463 2.112 15.869-1.062 22.212-3.163 6.343-28.518 68.75-39.082 94.144-10.3 24.713-20.743 21.375-28.531 21.762-7.388 0.369-15.844 0.444-24.3 0.444-8.45 0-22.188-3.169-33.812-15.869-11.619-12.693-44.369-43.362-44.369-105.769s45.431-122.693 51.769-131.156c6.337-8.463 89.406-136.525 216.588-191.438 30.25-13.075 53.862-20.868 72.282-26.713 30.375-9.65 58.006-8.288 79.856-5.025 24.363 3.644 75.006 30.675 85.581 60.288 10.562 29.619 10.562 54.999 7.388 60.293-3.163 5.287-11.619 8.457-24.293 14.806z" />
<glyph unicode="&#xe90b;" glyph-name="phone" d="M941.833 287.86c-62.693 0-124.251 9.805-182.583 29.083-28.584 9.749-63.723 0.805-81.168-17.112l-115.139-86.917c-133.528 71.277-215.778 153.501-286.082 286.026l84.36 112.139c21.917 21.888 29.779 53.861 20.36 83.861-19.36 58.64-29.195 120.168-29.195 182.887 0.003 45.309-36.859 82.171-82.165 82.171h-188.052c-45.307 0-82.168-36.861-82.168-82.168 0-519.331 422.5-941.829 941.832-941.829 45.307 0 82.168 36.861 82.168 82.168v187.527c-0.003 45.304-36.864 82.165-82.168 82.165z" />
<glyph unicode="&#xe90c;" glyph-name="scale" d="M1009.339 445.494l-129.692 274.044h54.133c12.457 0 22.555 10.098 22.555 22.555s-10.098 22.555-22.555 22.555h-325.921c-11.553 52.942-63.834 86.495-116.775 74.942-37.484-8.179-66.763-37.458-74.942-74.942h-325.921c-12.457 0-22.555-10.098-22.555-22.555s10.098-22.555 22.555-22.555h54.133l-129.692-274.044c-8.539-3.184-14.324-11.192-14.661-20.299-0.002-98.408 79.773-178.187 178.181-178.189 0.378 0 0.753 0.002 1.131 0.004 98.714 1.202 178.619 80.608 180.441 179.312 0.147 9.396-6.538 17.515-15.788 19.173l-129.692 274.044h201.867c10.154-34.527 38.203-60.848 73.304-68.792v-421.78c-76.697-10.238-133.755-76.002-133.075-153.374-0.017-11.833 9.563-21.441 21.398-21.456 0.386 0 0.773 0.009 1.157 0.030h266.15c11.818-0.624 21.903 8.453 22.525 20.269 0.019 0.386 0.030 0.771 0.030 1.157 0.68 77.372-56.378 143.136-133.075 153.374v421.78c35.101 7.944 63.15 34.268 73.304 68.792h201.867l-129.692-274.044c-9.424-2.146-16.030-10.638-15.788-20.299-0.002-98.408 79.773-178.187 178.181-178.189 0.378 0 0.753 0.002 1.131 0.004 98.531 0.596 178.606 79.669 180.441 178.185-0.613 9.008-6.301 16.882-14.657 20.299zM179.312 292.12v0c-65.455-0.3-121.408 47.046-131.948 111.647h265.023c-12.289-64.052-67.86-110.675-133.075-111.647zM293.216 448.879h-227.807l113.902 244.721 113.904-244.721zM620.264 99.273h-216.528c12.505 50.14 56.626 85.99 108.264 87.965 51.636-1.975 95.759-37.825 108.264-87.965zM512 693.6c-29.273 0-53.004 23.732-53.004 53.004s23.732 53.004 53.004 53.004 53.004-23.732 53.004-53.004-23.732-53.004-53.004-53.004zM844.686 693.6l113.902-244.721h-227.805l113.902 244.721zM843.559 292.12c-65.455-0.3-121.408 47.046-131.948 111.647h265.023c-12.289-64.052-67.862-110.675-133.075-111.647z" />
<glyph unicode="&#xe90d;" glyph-name="arrow-long" d="M1012.268 476.314c-0.012 0.012-0.022 0.026-0.036 0.038l-209.008 208c-15.658 15.582-40.984 15.524-56.57-0.136-15.584-15.658-15.524-40.984 0.134-56.568l140.328-139.648h-847.116c-22.092 0-40-17.908-40-40s17.908-40 40-40h847.114l-140.324-139.648c-15.658-15.584-15.718-40.91-0.134-56.568 15.586-15.662 40.914-15.716 56.57-0.136l209.008 208c0.012 0.012 0.022 0.026 0.036 0.038 15.666 15.636 15.616 41.044-0.002 56.628z" />
<glyph unicode="&#xe90e;" glyph-name="telegram" d="M401.808 312.257l-16.939-238.257c24.236 0 34.732 10.411 47.318 22.913l113.624 108.59 235.441-172.42c43.18-24.065 73.602-11.392 85.25 39.724l154.543 724.157 0.043 0.043c13.696 63.831-23.084 88.791-65.154 73.133l-908.395-347.784c-61.997-24.065-61.057-58.625-10.539-74.285l232.241-72.237 539.448 337.544c25.388 16.811 48.47 7.509 29.484-9.301z" />
<glyph unicode="&#xe90f;" glyph-name="calendar" d="M934 822h-136v66c0 16.568-13.432 30-30 30s-30-13.432-30-30v-66h-196v66c0 16.568-13.432 30-30 30s-30-13.432-30-30v-66h-196v66c0 16.568-13.432 30-30 30s-30-13.432-30-30v-66h-136c-49.626 0-90-40.374-90-90v-664c0-49.626 40.374-90 90-90h844c49.626 0 90 40.374 90 90v664c0 49.626-40.374 90-90 90zM90 762h136v-66c0-16.568 13.432-30 30-30s30 13.432 30 30v66h196v-66c0-16.568 13.432-30 30-30s30 13.432 30 30v66h196v-66c0-16.568 13.432-30 30-30s30 13.432 30 30v66h136c16.542 0 30-13.458 30-30v-134h-904v134c0 16.542 13.458 30 30 30zM934 38h-844c-16.542 0-30 13.458-30 30v470h904v-470c0-16.542-13.458-30-30-30zM208 454h-32c-16.568 0-30-13.432-30-30s13.432-30 30-30h32c16.568 0 30 13.432 30 30s-13.432 30-30 30zM368 454h-32c-16.568 0-30-13.432-30-30s13.432-30 30-30h32c16.568 0 30 13.432 30 30s-13.432 30-30 30zM528 454h-32c-16.568 0-30-13.432-30-30s13.432-30 30-30h32c16.568 0 30 13.432 30 30s-13.432 30-30 30zM688 454h-32c-16.568 0-30-13.432-30-30s13.432-30 30-30h32c16.568 0 30 13.432 30 30s-13.432 30-30 30zM848 454h-32c-16.568 0-30-13.432-30-30s13.432-30 30-30h32c16.568 0 30 13.432 30 30s-13.432 30-30 30zM208 326h-32c-16.568 0-30-13.432-30-30s13.432-30 30-30h32c16.568 0 30 13.432 30 30s-13.432 30-30 30zM368 326h-32c-16.568 0-30-13.432-30-30s13.432-30 30-30h32c16.568 0 30 13.432 30 30s-13.432 30-30 30zM528 326h-32c-16.568 0-30-13.432-30-30s13.432-30 30-30h32c16.568 0 30 13.432 30 30s-13.432 30-30 30zM688 326h-32c-16.568 0-30-13.432-30-30s13.432-30 30-30h32c16.568 0 30 13.432 30 30s-13.432 30-30 30zM848 326h-32c-16.568 0-30-13.432-30-30s13.432-30 30-30h32c16.568 0 30 13.432 30 30s-13.432 30-30 30zM208 198h-32c-16.568 0-30-13.432-30-30s13.432-30 30-30h32c16.568 0 30 13.432 30 30s-13.432 30-30 30zM368 198h-32c-16.568 0-30-13.432-30-30s13.432-30 30-30h32c16.568 0 30 13.432 30 30s-13.432 30-30 30zM528 198h-32c-16.568 0-30-13.432-30-30s13.432-30 30-30h32c16.568 0 30 13.432 30 30s-13.432 30-30 30zM688 198h-32c-16.568 0-30-13.432-30-30s13.432-30 30-30h32c16.568 0 30 13.432 30 30s-13.432 30-30 30zM848 198h-32c-16.568 0-30-13.432-30-30s13.432-30 30-30h32c16.568 0 30 13.432 30 30s-13.432 30-30 30z" />
<glyph unicode="&#xe910;" glyph-name="subway" d="M512.010 834.339c-282.77 0-512.010-231.419-512.010-516.892 0-154.791 66.801-255.743 66.801-255.743l890.206-0.043c0 0 66.994 110.329 66.994 255.796 0 285.463-229.241 516.881-511.989 516.881zM919.454 124.632l-813.266 0.354c0 0-43.335 82.068-43.335 194.092 0 250.206 201.86 453.053 450.875 453.053 249.004 0 450.875-202.836 450.875-453.053 0.011-113.29-45.148-194.446-45.148-194.446zM656.705 697.079l-6.427 0.011-136.572-267.62-141.486 269.905-193.717-487.591h-50.062v-39.161h274.261v39.161h-54.419l54.419 152.387 111.005-191.549 106.659 191.549 54.408-152.387h-54.408v-39.161h272.073v39.161h-47.133z" />
<glyph unicode="&#xe911;" glyph-name="map" d="M512 960c-204.49 0-370.854-166.364-370.854-370.852 0-253.776 331.878-626.335 346.008-642.071 13.272-14.782 36.444-14.756 49.692 0 14.13 15.736 346.008 388.295 346.008 642.071-0.004 204.488-166.366 370.852-370.854 370.852zM512 402.561c-102.884 0-186.584 83.702-186.584 186.586s83.702 186.584 186.584 186.584 186.582-83.702 186.582-186.586-83.7-186.584-186.582-186.584z" />
<glyph unicode="&#xe912;" glyph-name="play" d="M512 960c-282.334 0-512-229.688-512-512s229.666-512 512-512 512 229.688 512 512-229.666 512-512 512zM715.542 430.062l-298.666-192c-3.5-2.27-7.542-3.396-11.542-3.396-3.5 0-7.042 0.876-10.208 2.604-6.876 3.75-11.126 10.918-11.126 18.73v384c0 7.812 4.25 14.98 11.126 18.73 6.75 3.708 15.208 3.48 21.75-0.792l298.666-192c6.084-3.916 9.792-10.688 9.792-17.938s-3.708-14.020-9.792-17.938z" />
<glyph unicode="&#xe913;" glyph-name="info" d="M562 203c0-27.614-22.386-50-50-50s-50 22.386-50 50c0 27.614 22.386 50 50 50s50-22.386 50-50zM512 960c-282.968 0-512-228.994-512-512 0-282.968 228.994-512 512-512 282.968 0 512 228.994 512 512 0 282.968-228.994 512-512 512zM512 16c-238.754 0-432 193.214-432 432 0 238.754 193.214 432 432 432 238.754 0 432-193.214 432-432 0-238.754-193.214-432-432-432zM512 703c-88.224 0-160-71.776-160-160 0-22.092 17.908-40 40-40s40 17.908 40 40c0 44.112 35.888 80 80 80s80-35.888 80-80c0-44.112-35.888-80-80-80-22.092 0-40-17.908-40-40v-100c0-22.092 17.908-40 40-40s40 17.908 40 40v65.062c68.932 17.806 120 80.52 120 154.938 0 88.224-71.776 160-160 160z" />
<glyph unicode="&#xe914;" glyph-name="user" d="M874.040 298.040c-55.766 55.764-122.142 97.046-194.562 122.036 77.564 53.422 128.522 142.828 128.522 243.924 0 163.214-132.786 296-296 296s-296-132.786-296-296c0-101.096 50.958-190.502 128.524-243.924-72.42-24.99-138.796-66.272-194.562-122.036-96.704-96.706-149.962-225.28-149.962-362.040h80c0 238.206 193.794 432 432 432s432-193.794 432-432h80c0 136.76-53.258 265.334-149.96 362.040zM512 448c-119.102 0-216 96.896-216 216s96.898 216 216 216c119.102 0 216-96.896 216-216s-96.898-216-216-216z" />
<glyph unicode="&#xe915;" glyph-name="package" d="M985.044 723.4l-452.366 229.208c-20.134 10.024-44.058 9.8-64.004-0.6l-193.938-102.928c-1.576-0.668-3.090-1.478-4.54-2.41l-232.404-123.344c-23.312-12.206-37.792-36.122-37.792-62.444v-425.762c0-26.322 14.48-50.236 37.792-62.442l430.884-228.686c10.172-5.304 21.382-7.962 32.594-7.962 10.77 0 21.544 2.452 31.408 7.364l452.366 229.208c24.032 12.018 38.956 36.162 38.956 63.038v424.72c0 26.878-14.924 51.024-38.956 63.040zM496.474 898.862c2.938 1.508 6.446 1.538 9.41 0.084l423.258-214.46-164.728-82.010-413.798 218.974 145.858 77.412zM470.848 10.74l-405.222 215.068c-3.482 1.818-5.648 5.384-5.648 9.312v398.698l410.87-214.248v-408.83zM501.154 471.41l-408.61 213.070 194.048 102.986 411.75-217.886-197.188-98.17zM964.018 235.644c0.002-4.014-2.23-7.618-5.822-9.406l-427.368-216.542v409.488l196.772 97.964v-102.71c0-16.562 13.428-29.99 29.99-29.99s29.99 13.428 29.99 29.99v132.572l176.438 87.84v-399.206z" />
<glyph unicode="&#xe916;" glyph-name="invoice" d="M533.423 606.535h-42.848c-18.894 0-34.266 15.372-34.266 34.268 0 18.894 15.372 34.266 34.266 34.266h85.688c16.568 0 30 13.432 30 30s-13.432 30-30 30h-34.268v34.264c0 16.568-13.432 30-30 30s-30-13.432-30-30v-34.674c-47.97-4.35-85.686-44.774-85.686-93.858 0-51.98 42.288-94.268 94.266-94.268h42.848c18.894 0 34.266-15.372 34.266-34.266s-15.37-34.266-34.266-34.266h-85.694c-16.568 0-30-13.432-30-30s13.432-30 30-30h34.266v-34.266c0-16.568 13.432-30 30-30s30 13.432 30 30v34.674c47.974 4.348 85.694 44.772 85.694 93.86 0 51.978-42.286 94.266-94.266 94.266zM672.665 253.067h-321.331c-16.568 0-30-13.432-30-30s13.432-30 30-30h321.331c16.568 0 30 13.432 30 30s-13.432 30-30 30zM865.464 960h-706.931c-16.568 0-30-13.432-30-30v-875.63c0-7.956 3.162-15.586 8.788-21.214l88.368-88.368c11.714-11.716 30.71-11.716 42.426 0l67.154 67.154 67.152-67.154c5.626-5.626 13.256-8.788 21.214-8.788 7.956 0 15.588 3.16 21.214 8.788l67.15 67.154 67.154-67.154c5.626-5.626 13.256-8.788 21.212-8.788 7.958 0 15.588 3.162 21.214 8.788l67.152 67.154 67.154-67.154c5.858-5.858 13.534-8.788 21.212-8.788s15.356 2.928 21.214 8.788l88.368 88.368c5.626 5.626 8.788 13.258 8.788 21.214v875.63c-0.002 16.568-13.432 30-30.002 30zM777.096 8.428l-67.154 67.154c-5.626 5.626-13.258 8.788-21.214 8.788-7.958 0-15.588-3.162-21.214-8.788l-67.152-67.154-67.154 67.154c-11.714 11.716-30.71 11.716-42.426 0l-67.154-67.154-67.152 67.154c-5.626 5.626-13.256 8.788-21.214 8.788-7.956 0-15.586-3.16-21.212-8.788l-67.154-67.154-58.368 58.368v833.204h646.933v-833.204h0.002l-58.368-58.368z" />
<glyph unicode="&#xe917;" glyph-name="email" d="M1023.245 739.402c0 1.17 0.805 2.309 0.752 3.466l-312.49-301.101 312.116-291.482c0.182 2.082-0.378 4.182-0.378 6.309v582.808zM663.806 395.432l-127.567-122.736c-6.455-6.211-14.793-9.325-23.134-9.325-8.168 0-16.336 2.981-22.747 8.956l-127.22 118.549-314.154-302.809c7.639-2.745 15.838-4.876 24.424-4.876h879.398c12.751 0 24.709 3.884 35.106 9.676l-324.106 302.564zM512.74 342.686l476.903 459.396c-10.797 6.42-23.366 10.726-36.837 10.726h-879.398c-17.542 0-33.616-6.811-46.135-17.199l485.467-452.923zM0.001 728.213v-571.611c0-6.562 1.508-12.888 3.145-18.934l310.256 298.769-313.402 291.776z" />
<glyph unicode="&#xe918;" glyph-name="time" d="M921.6 857.6h-51.2v51.2c0 30.72-20.48 51.2-51.2 51.2s-51.2-20.48-51.2-51.2v-51.2h-512v51.2c0 30.72-20.48 51.2-51.2 51.2s-51.2-20.48-51.2-51.2v-51.2h-102.4c-25.6 0-51.2-20.48-51.2-51.2v-716.8c0-30.72 25.6-51.2 51.2-51.2h312.32c-35.84 61.44-56.32 133.12-56.32 204.8 0 225.28 184.32 409.6 409.6 409.6 97.28 0 184.32-35.84 256-92.16v245.76c0 25.6-25.6 51.2-51.2 51.2zM716.8 550.4c-168.96 0-307.2-138.24-307.2-307.2s138.24-307.2 307.2-307.2 307.2 138.24 307.2 307.2-138.24 307.2-307.2 307.2zM819.2 192h-102.4c-30.72 0-51.2 20.48-51.2 51.2v153.6c0 30.72 20.48 51.2 51.2 51.2s51.2-20.48 51.2-51.2v-102.4h51.2c30.72 0 51.2-20.48 51.2-51.2s-20.48-51.2-51.2-51.2z" />
<glyph unicode="&#xe919;" glyph-name="boss" d="M791.274 680.727c0-154.238-125.035-279.273-279.273-279.273s-279.273 125.035-279.273 279.273c0 154.238 125.035 279.273 279.273 279.273s279.273-125.035 279.273-279.273zM909.454 249.953c-44.001 22.569-114.092 54.227-197.909 76.842-11.636 3.273-23.908-3.205-27.956-14.614l-95.391-266.125-28.881 144.443 44.592 133.774c2.363 7.091 1.183 14.908-3.227 20.978-4.364 6.068-11.363 9.659-18.864 9.659h-139.636c-7.501 0-14.5-3.591-18.864-9.659-4.409-6.068-5.592-13.887-3.227-20.978l44.592-133.774-28.881-144.443-95.391 266.125c-4.045 11.409-16.364 17.865-27.956 14.614-83.819-22.615-153.91-54.273-197.909-76.842-70.639-36.273-114.548-107.863-114.548-186.794v-34.069c0-51.34 41.773-93.092 93.092-93.092h837.819c51.319 0 93.092 41.749 93.092 93.092v34.069c-0.002 78.932-43.911 150.522-114.548 186.794z" />
<glyph unicode="&#xe91a;" glyph-name="search" d="M1011.488 8.835l-291.197 291.197c56.405 69.673 90.367 158.206 90.367 254.632 0 223.486-181.844 405.33-405.33 405.33s-405.328-181.842-405.328-405.328 181.844-405.33 405.33-405.33c96.425 0 184.958 33.962 254.632 90.367l291.197-291.197c8.32-8.32 19.242-12.502 30.166-12.502s21.846 4.182 30.166 12.502c16.682 16.682 16.682 43.648-0.002 60.329zM405.33 234.669c-176.468 0-319.997 143.529-319.997 319.997s143.529 319.997 319.997 319.997 319.997-143.529 319.997-319.997-143.531-319.997-319.997-319.997z" />
<glyph unicode="&#xe91b;" glyph-name="star" d="M1021.328 567.831c-6.703 20.735-25.094 35.462-46.853 37.423l-295.554 26.837-116.87 273.546c-8.617 20.047-28.243 33.024-50.048 33.024s-41.431-12.977-50.048-33.071l-116.87-273.499-295.601-26.837c-21.719-2.008-40.064-16.688-46.806-37.423s-0.516-43.478 15.914-57.814l223.404-195.927-65.877-290.187c-4.82-21.336 3.461-43.392 21.165-56.189 9.516-6.875 20.649-10.375 31.876-10.375 9.68 0 19.282 2.609 27.899 7.766l254.944 152.371 254.85-152.371c18.649-11.219 42.157-10.196 59.822 2.609 17.711 12.836 25.985 34.899 21.165 56.189l-65.877 290.187 223.404 195.888c16.43 14.375 22.704 37.079 15.961 57.853z" />
<glyph unicode="&#xe91c;" glyph-name="air-cleaner" d="M733.596 960h-443.19c-56.524 0-102.508-46-102.508-102.524v-724.254c0-56.524 45.984-102.524 102.508-102.524h43.302v-45.937h-50.239v-48.761h149.238v48.761h-50.239v45.937h259.064v-45.937h-50.239v-48.761h149.238v48.761h-50.239v45.937h43.302c56.524 0 102.508 46 102.508 102.524v724.254c0 56.524-45.984 102.524-102.508 102.524zM236.659 682.608c24.803-9.776 42.461-33.848 42.461-62.083v-250.349c0-28.237-17.657-52.305-42.461-62.082v374.513zM733.596 79.46h-443.19c-29.635 0-53.746 24.111-53.746 53.762v124.048c52.055 11.239 91.222 57.535 91.222 112.905v250.349c0 55.37-39.167 101.666-91.222 112.905v124.048c0 29.651 24.111 53.762 53.746 53.762h443.19c29.635 0 53.746-24.111 53.746-53.762v-124.048c-52.055-11.239-91.222-57.535-91.222-112.905v-250.349c0-55.37 39.167-101.666 91.222-112.905v-124.048c0-29.651-24.111-53.762-53.746-53.762zM787.342 682.608v-374.513c-24.802 9.778-42.461 33.848-42.461 62.082v250.349c0 28.234 17.659 52.305 42.461 62.083zM511.992 348.095c-62.127 0-112.683-50.556-112.683-112.683s50.556-112.683 112.683-112.683 112.683 50.556 112.683 112.683-50.556 112.683-112.683 112.683zM511.992 171.493c-35.254 0-63.92 28.667-63.92 63.92s28.667 63.92 63.92 63.92 63.92-28.667 63.92-63.92-28.667-63.92-63.92-63.92zM403.803 833.143h216.396v-48.761h-216.396v48.761zM447.803 627.858c-20.842-47.858-23.255-66.38-23.255-76.158 0-48.222 39.222-87.461 87.444-87.461s87.461 39.238 87.461 87.461c0 37.999-50.507 135.048-65.984 163.872l-42.953-23.048c28.937-53.936 60.174-123.127 60.174-140.826 0-21.334-17.366-38.698-38.698-38.698s-38.683 17.366-38.683 38.698c0 2.111 0.92 14.73 19.191 56.698l-44.699 19.46z" />
<glyph unicode="&#xe91d;" glyph-name="bicycle" d="M859.168 424.303c-12.722 0-25.056-1.588-36.965-4.328l-9.406 26.682c14.885 3.696 30.356 5.867 46.372 5.867 14.283 0 28.503-1.552 42.277-4.63 10.017-2.262 19.879 4.062 22.085 14.040 2.223 9.97-4.062 19.849-14.040 22.085-16.395 3.664-33.342 5.519-50.323 5.519-20.319 0-39.928-2.91-58.706-7.872l-49.828 141.36c-4.477 12.676-0.975 26.741 8.918 35.86l21.735 20.004c14.476 13.338 22.765 32.26 22.765 51.944 0 38.926-31.666 70.592-70.592 70.592h-94.73c-10.214 0-18.507-8.294-18.507-18.507s8.294-18.507 18.507-18.507h94.73c18.516 0 33.577-15.061 33.577-33.577 0-9.363-3.946-18.375-10.829-24.706l-21.727-20.004c-20.807-19.14-28.174-48.741-18.772-75.402l18.912-53.664-347.883-165.218-47.875 207.511h41.406c10.214 0 18.507 8.294 18.507 18.507s-8.294 18.507-18.507 18.507h-129.358c-10.214 0-18.507-8.294-18.507-18.507s8.294-18.507 18.507-18.507h49.962l39.496-171.183c-41.615 38.777-97.051 61.37-156.831 61.37-70.1 0-135.502-31.362-179.455-86.060-6.409-7.96-5.131-19.614 2.83-26.014 7.952-6.417 19.623-5.168 26.014 2.83 36.899 45.903 91.797 72.23 150.61 72.23 52.399 0 100.543-20.988 135.917-56.222l-22.22-17.773c-29.606 28.28-69.614 45.774-113.697 45.774-90.908 0-164.868-73.961-164.868-164.868s73.961-164.86 164.868-164.86c73.235 0 135.394 48.025 156.821 114.208 14.195-12.542 32.638-20.406 53.022-20.406 44.407 0 80.532 36.126 80.532 80.523 0 7.171-1.243 14.008-3.012 20.637l192.873 90.862c-21.874-35.201-34.732-76.56-34.732-120.963 0-10.214 8.294-18.507 18.507-18.507s18.507 8.294 18.507 18.507c0 77.408 45.899 144.143 111.816 174.9l9.422-26.74c-54.958-26.769-93.023-83.037-93.023-148.16 0-90.908 73.961-164.86 164.868-164.86s164.86 73.952 164.86 164.86-73.952 164.868-164.86 164.868zM358.103 340.915c-8.62-4.247-16.404-9.846-22.963-16.747-3.918 9.13-8.655 17.804-14.082 25.991l21.898 17.525c5.698-8.432 10.746-17.333 15.146-26.769zM291.791 326.737c9.104-14.586 15.149-31.094 17.753-48.809h-78.737l60.998 48.809zM183.565 131.589c-70.498 0-127.854 57.347-127.854 127.845s57.356 127.854 127.854 127.854c32.372 0 61.626-12.486 84.168-32.385l-101.256-81.023c-6.135-4.903-8.491-13.159-5.887-20.581 2.604-7.413 9.598-12.372 17.455-12.372h131.485c-9.058-61.678-61.812-109.338-125.978-109.338zM393.409 225.391c-23.988 0-43.508 19.52-43.508 43.508 0 23.997 19.52 43.517 43.508 43.517 23.997 0 43.517-19.52 43.517-43.517 0-23.988-19.52-43.508-43.517-43.508zM396.62 349.111l-1.334 5.792 351.733 167.043 18.517-52.534c-5.311-2.382-10.604-4.812-15.696-7.568-0.031-0.009-0.050-0.006-0.081-0.014l-296.42-139.638c-14.086 15.82-34.139 26.019-56.719 26.932zM859.168 131.589c-70.498 0-127.854 57.347-127.854 127.845 0 48.982 28.002 91.107 68.551 112.573l41.847-118.738c2.689-7.602 9.838-12.355 17.455-12.355 2.036 0 4.117 0.342 6.152 1.052 9.636 3.399 14.702 13.971 11.303 23.621l-42.020 119.221c7.959 1.555 16.158 2.481 24.564 2.481 70.498 0 127.845-57.356 127.845-127.854s-57.347-127.845-127.845-127.845z" />
<glyph unicode="&#xe91e;" glyph-name="bike" d="M858.444 495.151c-19.112 0-37.401-3.42-54.496-9.405l-18.361 38.217c22.88 8.678 47.456 13.513 72.858 13.513 31.831 0 62.385-7 90.795-20.819 9.169-4.458 20.277-0.65 24.735 8.542 4.47 9.193 0.65 20.265-8.542 24.735-33.506 16.289-69.494 24.554-106.987 24.554-7.39 0-14.716-0.373-21.978-1.040l-11.022 29.75c-12.952 34.916-46.675 58.374-83.903 58.374h-22.069l-28.774 59.892c-3.073 6.41-9.554 10.494-16.675 10.494h-83.505c-10.217 0-18.506-8.29-18.506-18.506s8.29-18.506 18.506-18.506h71.867l16.033-33.374h-3.142c-29.24 0-56.686-14.326-73.409-38.325l-17.357-24.903h-180.502c-7.441 20.501-27.012 34.602-49.067 34.602h-207.806c-38.277 0-69.421-31.144-69.421-69.421v-24.908c-29.731-19.862-55.493-46.151-75-78.091-5.325-8.723-2.578-20.12 6.145-25.446 8.699-5.325 20.108-2.578 25.446 6.145 46.072 75.457 132.746 114.662 220.794 99.722 37.613-6.35 71.593-23.113 99.806-46.581l-21.475-26.096c-25.968 16.94-56.898 26.882-90.15 26.882-91.288 0-165.566-74.265-165.566-165.553s74.277-165.553 165.566-165.553c85.026 0 155.212 64.447 164.451 147.047h23.379c-0.324-3.801-0.573-7.613-1.096-11.385-0.82-5.868 1.217-11.772 5.482-15.879 3.482-3.349 8.096-5.181 12.843-5.181 1.072 0 2.145 0.097 3.217 0.277l126.806 22.397c38.385 6.772 68.686 35.758 77.205 73.831 12.681 56.766 48.872 104.003 96.731 132.643l18.314-38.115c-46.601-29.323-77.732-81.073-77.732-140.080 0-91.288 74.277-165.553 165.566-165.553s165.553 74.265 165.553 165.553-74.265 165.553-165.553 165.553zM741.541 624.559c21.831 0 41.602-13.759 49.205-34.229l8.636-23.31c-10.196-2.575-20.123-5.87-29.824-9.7l-32.304 67.239h4.287zM427.904 372.609c1.578-8.172 2.54-16.343 3.222-24.505h-23.396c-4.18 37.374-20.854 70.982-45.736 96.628l19.343 23.506c22.928-27.060 39.59-59.548 46.567-95.629zM338.075 415.667c16.792-18.479 28.099-41.718 31.875-67.564h-87.478l55.604 67.564zM558.713 561.331l-14.847-21.301h-123.060l-6.018 21.301h143.923zM114.725 559.129v4.395c0 17.868 14.542 32.409 32.409 32.409h207.806c6.831 0 12.903-4.602 14.771-11.18l19.289-68.264c0.413-1.46 1.16-2.732 1.886-4.009-35.182 33.3-79.954 56.582-129.619 64.972-51.117 8.615-101.815 1.639-146.541-18.322zM243.279 201.056c-70.879 0-128.553 57.662-128.553 128.542s57.674 128.542 128.553 128.542c24.31 0 46.819-7.17 66.227-18.943l-80.516-97.84c-4.554-5.53-5.506-13.181-2.446-19.662 3.060-6.47 9.578-10.603 16.735-10.603h126.671c-9.065-62.065-62.129-110.036-126.671-110.036zM619.445 383.224c-5.241-23.445-23.891-41.277-47.517-45.446l-103.036-18.204c0.107 2.747-0.179 5.521-0.161 8.276 0.060 0.604 0.354 1.128 0.354 1.748 0 0.751-0.34 1.391-0.428 2.121-0.134 15.934-1.322 31.94-4.416 47.928-1.69 8.741-4.004 17.249-6.595 25.64l188.482 45.721c-12.029-20.826-21.262-43.514-26.684-67.782zM680.928 497.54l-236.982-57.487c-11.799 24.322-27.435 46.431-46.156 65.575 2.718-1.546 5.732-2.609 9.018-2.609h146.722c6.048 0 11.723 2.963 15.181 7.928l37.686 54.076c3.446 2.453 5.904 5.905 7.037 10.098l18.797 26.971c9.807 14.072 25.904 22.47 43.047 22.47h20.923l40.022-83.306c-20.424-11.858-39.023-26.619-55.294-43.714zM858.444 201.056c-70.879 0-128.553 57.662-128.553 128.542 0 44.329 22.565 83.483 56.804 106.601l55.063-114.613c3.193-6.626 9.807-10.494 16.699-10.494 2.687 0 5.422 0.579 8 1.819 9.217 4.434 13.096 15.494 8.663 24.699l-54.818 114.097c12.13 3.805 24.775 6.433 38.143 6.433 70.879 0 128.542-57.662 128.542-128.542s-57.662-128.542-128.542-128.542z" />
<glyph unicode="&#xe91f;" glyph-name="car" d="M243.748 402.301c-44.325 0-80.398-36.072-80.398-80.41 0-44.313 36.072-80.386 80.398-80.386s80.398 36.072 80.398 80.386c0 44.338-36.072 80.41-80.398 80.41zM243.748 278.517c-23.928 0-43.386 19.446-43.386 43.374s19.458 43.398 43.386 43.398 43.386-19.47 43.386-43.398-19.458-43.374-43.386-43.374zM758.906 402.301c-44.325 0-80.398-36.072-80.398-80.41 0-44.313 36.072-80.386 80.398-80.386s80.398 36.072 80.398 80.386c0 44.338-36.072 80.41-80.398 80.41zM758.906 278.517c-23.928 0-43.386 19.446-43.386 43.374s19.458 43.398 43.386 43.398 43.386-19.47 43.386-43.398-19.458-43.374-43.386-43.374zM965.271 401.804c-6.958 68.322-53.164 125.053-115.571 147.71-0.363 0.101-0.692 0.311-1.059 0.388-18.454 6.566-38.224 10.326-58.904 10.326h-52.399l-128.914 141.495c-3.506 3.855-8.469 6.048-13.675 6.048h-377.844c-5.168 0-10.097-2.169-13.59-5.952l-144.555-156.506c-3.157-3.422-4.916-7.903-4.916-12.554v-131.451c-30.428-4.764-53.843-30.925-53.843-62.67 0-35.109 28.555-63.662 63.662-63.662h55.095c19.054-50.596 67.815-86.747 124.989-86.747s105.936 36.151 124.989 86.747h265.168c19.057-50.596 67.826-86.747 125-86.747s105.936 36.151 124.989 86.747h76.456c35.096 0 63.651 28.555 63.651 63.662 0 33.423-25.965 60.606-58.733 63.166zM904.375 462.959c-4.214-1.561-8.678-2.464-13.252-2.464-21.145 0-38.337 17.205-38.337 38.337 0 2.929 0.678 5.722 1.316 8.517 20.142-10.535 37.401-25.813 50.272-44.391zM818.927 520.089c-2.010-6.848-3.154-13.964-3.154-21.258 0-41.542 33.807-75.35 75.35-75.35 10.468 0 20.604 2.381 30.020 6.493 3.125-8.859 5.375-18.104 6.654-27.673h-62.379c-24.42 32.273-63.012 53.253-106.511 53.253s-82.094-20.981-106.519-53.253h-179.699v120.916h236.158v-42.314c0-10.217 8.29-18.506 18.506-18.506s18.506 8.29 18.506 18.506v42.314h43.88c10.015 0 19.768-1.111 29.19-3.128zM472.688 560.23v64.627h155.716l58.882-64.627h-214.598zM435.676 560.23h-173.422v27.301c0 20.579 16.747 37.325 37.338 37.325h136.084v-64.627zM225 670.76h361.579l8.101-8.891h-295.090c-41 0-74.349-33.35-74.349-74.338v-45.807c0-10.217 8.29-18.506 18.506-18.506h191.929v-120.916h-85.418c-24.42 32.273-63.012 53.253-106.511 53.253s-82.090-20.981-106.511-53.253h-46.381v4.193h1.927c24.216 0 43.927 19.711 43.927 43.927v12.048c0 24.216-19.711 43.927-43.927 43.927h-1.927v19.132l134.145 145.229zM90.856 469.386h1.927c3.82 0 6.916-3.109 6.916-6.916v-12.048c0-3.807-3.096-6.916-6.916-6.916h-1.927v25.88zM63.663 311.988c-14.699 0-26.651 11.951-26.651 26.651s11.951 26.651 26.651 26.651h53.806c-4.697-13.63-7.372-28.192-7.372-43.398 0-3.344 0.259-6.622 0.501-9.903h-46.936zM243.748 225.24c-53.289 0-96.639 43.35-96.639 96.651s43.35 96.651 96.639 96.651 96.639-43.35 96.639-96.651-43.35-96.651-96.639-96.651zM376.898 311.988c0.242 3.281 0.501 6.561 0.501 9.903 0 15.206-2.675 29.769-7.372 43.398h262.589c-4.699-13.63-7.373-28.192-7.373-43.398 0-3.344 0.259-6.622 0.501-9.903h-248.847zM758.906 225.24c-53.289 0-96.651 43.35-96.651 96.651s43.361 96.651 96.651 96.651 96.639-43.35 96.639-96.651-43.35-96.651-96.639-96.651zM960.353 311.988h-68.297c0.242 3.281 0.501 6.561 0.501 9.903 0 15.206-2.675 29.769-7.372 43.398h75.168c14.687 0 26.638-11.951 26.638-26.651s-11.951-26.651-26.638-26.651zM349.507 464.398h50.337c10.217 0 18.506 8.29 18.506 18.506s-8.29 18.506-18.506 18.506h-50.337c-10.217 0-18.506-8.29-18.506-18.506s8.29-18.506 18.506-18.506z" />
<glyph unicode="&#xe920;" glyph-name="fireplace" d="M0 904.772v-124.87h62.011v-71.711h899.978v71.711h62.011v124.87h-1023.999zM918.485 751.693h-812.974v28.208h812.974v-28.208zM980.496 823.404h-936.995v37.866h936.995v-37.866zM940.675 695.078h-43.501v-578.952h-50.484v248.41c0 184.544-150.148 334.705-334.692 334.705s-334.692-150.161-334.692-334.705v-248.41h-48.544v578.952h-43.501v-578.952h-85.262v-124.898h1023.999v124.898h-83.322v578.952zM772.941 116.128v67.405h30.248v-67.405h-30.248zM484.938 194.861h57.918c10.514 0 19.003-7.31 21.616-17.021h-101.151c2.615 9.711 11.102 17.021 21.616 17.021zM444.735 134.338v-18.211h-65.239v18.211h65.239zM488.237 134.338h53.826v-18.211h-53.826v18.211zM585.564 134.338h62.733v-18.211h-62.733v18.211zM656.703 177.84c23.587 25.677 42.339 62.554 40.094 112.098-1.784 39.65-20.151 60.297-34.921 76.894-12.491 14.047-22.346 25.122-24.216 47.977-0.637 7.703-5.311 14.501-12.291 17.843-7.009 3.314-15.223 2.719-21.609-1.643-11.64-7.902-22.785-17.701-33.038-28.973 2.35 4.163 5.041 8.1 7.803 12.15 9.772 14.33 21.921 32.173 20.378 60.155-2.577 46.249-39.382 64.8-63.752 77.063-7.208 3.625-18.111 9.12-20.179 12.094-3.95 6.401-10.918 10.281-18.438 10.309-0.014 0-0.042 0-0.057 0-7.492 0-14.458-3.851-18.438-10.224-18.55-29.625-13.694-59.022-9.785-82.615 1.912-11.556 3.044-19.713 2.69-26-25.985 18.664-48.996 14.898-52.154 14.275-11.414-2.294-18.48-13.085-16.696-24.583 1.784-11.527 12.673-19.401 24.399-18.211 0.709 0.028 15.251 1.387 31.989-19.344 7.492-9.232 21.058-10.733 30.404-3.399 32.046 25.32 26.395 59.448 22.289 84.342-1.67 10.055-3.215 19.428-3.031 28.265 2.449-1.246 4.928-2.521 7.448-3.766 24.073-12.122 38.772-20.929 39.863-40.642 0.709-12.631-3.937-20.080-12.886-33.222-14.911-21.892-35.331-51.857-15.28-118.214 2.648-8.751 10.494-14.925 19.627-15.436 8.993-0.652 17.602 4.786 21.199 13.198 8.949 21.014 21.383 40.216 35.756 55.68 7.137-15.35 16.95-26.367 25.504-35.996 13.283-14.925 22.87-25.717 23.974-49.959 2.322-51.375-25.037-81.369-46.944-97.030-3.147 10.588-8.924 20.031-16.5 27.692 7.868 12.566 15.872 30.343 17.521 52.487 0.893 11.98-8.1 22.403-20.080 23.309-11.995 0.709-22.43-8.071-23.309-20.080-1.242-16.769-8.318-29.060-13.796-36.583-2.444 0.275-4.872 0.614-7.389 0.614h-57.918c-3.032 0-5.974-0.351-8.901-0.746-8.799 10.499-23.091 34.384-18.006 75.997 1.459 11.923-7.038 22.77-18.962 24.216-11.923 1.473-22.757-6.996-24.229-18.947-5.999-49.106 8.548-81.828 22.086-101.179-7.356-7.74-12.883-17.231-15.841-27.797-48.586 26.821-48.798 46.051-44.748 74.713 1.841 13 7.619 26.254 13.736 40.273 12.008 27.501 25.616 58.654 8.936 93.008-5.225 10.819-18.253 15.265-29.072 10.083-10.805-5.24-15.308-18.267-10.068-29.057 7.547-15.548 1.246-31.664-9.658-56.615-6.684-15.35-14.275-32.711-16.95-51.63-5.638-39.867 2.253-68.071 29.442-92.839h-26.71v-61.713h-41.421v246.285c0 119.886 97.54 217.426 217.426 217.426 119.899 0 217.439-97.54 217.439-217.426v-246.285h-37.64v61.713h-35.095zM231.085 440.027l28.598-12.285c-5.423-20.922-8.612-42.736-8.612-65.331v-7.505h-30.262v9.629c0 26.146 3.785 51.368 10.276 75.492zM803.188 364.536v-9.629h-30.248v7.505c0 21.937-3.018 43.134-8.141 63.504l28.583 12.281c6.179-23.575 9.804-48.174 9.804-73.662zM803.188 227.034h-30.248v84.371h30.248v-84.371zM750.773 467.253c-8.303 18.836-18.866 36.408-31.184 52.605l23.523 21.116c14.425-18.852 26.775-39.355 36.3-61.418l-28.639-12.304zM690.521 552.2c-13.964 13.143-29.361 24.716-45.947 34.556l14.157 28.892c20.177-11.839 38.851-25.921 55.558-42.097l-23.769-21.35zM605.444 605.746c-22.585 8.704-46.606 14.409-71.694 16.492v32.398c30.157-2.246 59.029-9.021 85.954-19.788l-14.26-29.102zM490.247 622.239c-23.61-1.962-46.254-7.169-67.676-15.021l-14.265 29.102c25.787 9.876 53.262 16.181 81.942 18.317v-32.398zM383.077 588.971c-17.072-9.755-32.859-21.425-47.246-34.643l-23.779 21.35c17.141 16.243 36.18 30.457 56.862 42.185l14.165-28.893zM306.318 522.394c-12.776-16.389-23.652-34.289-32.269-53.459l-28.65 12.308c9.842 22.399 22.492 43.24 37.39 62.278l23.529-21.127zM251.072 311.405v-84.371h-30.262v84.371h30.262zM220.81 183.533h30.262v-67.405h-30.262v67.405zM980.496 34.731h-936.995v37.894h936.995v-37.894z" />
<glyph unicode="&#xe921;" glyph-name="gyroscooter" d="M942.914 687.096h-9.229c-44.711 0-81.096-36.386-81.096-81.108v-85.109h-681.167v85.109c0 44.722-36.386 81.108-81.096 81.108h-9.229c-44.711 0-81.096-36.386-81.096-81.108v-329.854c0-37.060 30.168-67.229 67.241-67.229s67.241 30.168 67.241 67.229v91.808h31.217v-74.868c0-10.217 8.29-18.506 18.506-18.506h200.578c4.903 0 9.614 1.951 13.084 5.422l93.361 93.373c11.47 11.47 30.084 11.47 41.554 0l93.361-93.373c3.469-3.469 8.181-5.422 13.084-5.422h200.578c10.217 0 18.506 8.29 18.506 18.506v74.868h31.217v-91.808c0-37.060 30.157-67.229 67.229-67.229s67.241 30.168 67.241 67.229v329.854c0 44.722-36.373 81.108-81.084 81.108zM97.47 276.133c0-16.651-13.566-30.217-30.228-30.217s-30.228 13.566-30.228 30.217v91.808h60.458v-91.808zM839.806 404.952c-10.217 0-18.506-8.29-18.506-18.506v-74.868h-174.409l-87.939 87.952c-25.88 25.88-68.012 25.855-93.891 0l-87.939-87.952h-174.409v74.868c0 10.217-8.29 18.506-18.506 18.506h-147.193v201.036c0 24.313 19.771 44.096 44.084 44.096h9.229c24.313 0 44.084-19.783 44.084-44.096v-103.614c0-10.217 8.29-18.506 18.506-18.506h718.18c10.217 0 18.506 8.29 18.506 18.506v103.614c0 24.313 19.771 44.096 44.084 44.096h9.229c24.302 0 44.072-19.783 44.072-44.096v-201.036h-147.18zM986.986 276.133c0-16.651-13.566-30.217-30.228-30.217s-30.217 13.566-30.217 30.217v91.808h60.446v-91.808zM703.361 455.216h-33.109c-30.711 0-55.687-24.987-55.687-55.687s24.976-55.687 55.687-55.687h107.482c10.217 0 18.506 8.29 18.506 18.506 0 51.205-41.662 92.867-92.879 92.867zM670.252 380.856c-10.301 0-18.675 8.385-18.675 18.675s8.374 18.675 18.675 18.675h33.109c24.326 0 45.060-15.614 52.711-37.349h-85.819zM352.193 455.216h-33.109c-51.217 0-92.879-41.662-92.879-92.867 0-10.217 8.29-18.506 18.506-18.506h107.482c30.711 0 55.687 24.987 55.687 55.687s-24.976 55.687-55.687 55.687zM352.193 380.856h-85.819c7.651 21.735 28.385 37.349 52.711 37.349h33.109c10.301 0 18.675-8.385 18.675-18.675s-8.374-18.675-18.675-18.675z" />
<glyph unicode="&#xe922;" glyph-name="monowheel" d="M1021.112 461.198c-0.333 3.112-1.030 6.16-1.417 9.262-1.852 14.951-4.121 29.765-7.238 44.293-0.496 2.291-1.226 4.529-1.756 6.813-3.574 15.603-7.769 30.949-12.737 45.978-0.499 1.497-1.121 2.966-1.634 4.46-5.373 15.756-11.462 31.148-18.292 46.175-0.287 0.63-0.471 1.286-0.76 1.916-0.113 0.249-0.352 0.4-0.475 0.643-81.116 175.923-258.7 298.572-464.799 298.572s-383.683-122.649-464.799-298.572c-0.123-0.243-0.362-0.394-0.475-0.643-0.288-0.63-0.472-1.286-0.76-1.916-6.828-15.027-12.919-30.417-18.292-46.175-0.513-1.494-1.136-2.962-1.634-4.46-4.968-15.028-9.163-30.374-12.737-45.978-0.53-2.283-1.258-4.522-1.756-6.813-3.117-14.528-5.386-29.342-7.238-44.293-0.387-3.102-1.085-6.149-1.417-9.262-1.861-17.716-2.894-35.676-2.894-53.878 0-78.318 17.739-154.122 52.747-225.31 2.762-5.64 7.759-9.848 13.778-11.631 21.271-6.272 42.77-11.929 64.374-17.274 4.758-1.171 9.558-2.251 14.338-3.379 9.245-2.193 18.447-4.516 27.748-6.54 82.387-105.711 205.237-166.496 339.014-166.496s256.627 60.786 339.014 166.496c9.303 2.024 18.503 4.347 27.748 6.54 4.779 1.128 9.579 2.209 14.338 3.379 21.605 5.345 43.104 11.002 64.374 17.274 6.020 1.782 11.018 5.991 13.778 11.631 35.009 71.187 52.747 146.992 52.747 225.31 0 18.203-1.032 36.162-2.894 53.878zM512.003 874.42c181.292 0 338.421-104.014 415.807-255.309-63.754-39.784-118.377-90.178-162.14-148.349h-507.334c-43.763 58.171-98.387 108.566-162.14 148.349 77.387 151.295 234.515 255.309 415.807 255.309zM595.6 154.495c-1.422-0.075-2.838-0.148-4.259-0.217-52.82-2.635-105.857-2.635-158.678 0-1.422 0.070-2.838 0.143-4.259 0.217-17.425 0.916-34.77 2.527-52.127 4.019-0.702 8.827-1.497 17.625-2.578 26.36h276.603c-1.079-8.736-1.876-17.534-2.578-26.36-17.357-1.49-34.7-3.103-52.127-4.019zM657.663 229.76h-291.321c-14.092 70.082-40.22 136.367-77.134 196.116h445.589c-36.914-59.748-63.044-126.033-77.134-196.116zM44.887 407.32c0 15.35 0.85 30.499 2.304 45.474 0.721 7.337 2.048 14.574 3.12 21.855 1.061 7.298 1.946 14.649 3.341 21.836 2.027 10.298 4.658 20.481 7.39 30.643 0.997 3.748 1.819 7.565 2.906 11.276 3.573 12.066 7.736 24.006 12.311 35.849 0.486 1.265 0.906 2.562 1.405 3.824 144.57-92.341 237.447-244.545 253.468-415.123-19.704 2.27-39.392 4.624-58.924 7.642-0.315 0.049-0.633 0.080-0.948 0.127-1.44 0.222-2.877 0.446-4.317 0.674-0.382 0.060-0.752 0.141-1.132 0.201-23.295 3.699-46.421 8.010-69.387 12.775-13.854 2.86-27.649 5.849-41.327 9.082-3.167 0.752-6.362 1.417-9.523 2.19-19.117 4.653-38.070 9.63-56.791 15.004-29.135 62.391-43.893 128.493-43.893 196.671zM512.003 21.575c-101.244 0-195.693 38.691-267.084 107.862 1.443-0.243 2.909-0.4 4.354-0.639 18.637-3.085 37.364-5.836 56.183-8.256 4.002-0.514 8.005-0.999 12.013-1.484 17.336-2.095 34.74-3.897 52.216-5.428 4.329-0.38 8.65-0.794 12.984-1.139 18.224-1.447 36.514-2.568 54.872-3.401 3.121-0.143 6.232-0.368 9.356-0.491 21.629-0.854 43.319-1.399 65.107-1.399s43.478 0.544 65.107 1.399c3.123 0.124 6.233 0.349 9.356 0.491 18.358 0.833 36.647 1.954 54.872 3.401 4.335 0.345 8.655 0.76 12.984 1.139 17.476 1.531 34.88 3.334 52.216 5.428 4.008 0.486 8.011 0.97 12.013 1.484 18.819 2.42 37.546 5.171 56.183 8.256 1.445 0.239 2.912 0.397 4.354 0.639-71.392-69.17-165.84-107.862-267.084-107.862zM935.225 210.649c-18.721-5.375-37.674-10.351-56.791-15.004-3.162-0.773-6.356-1.437-9.523-2.19-13.678-3.233-27.473-6.22-41.327-9.082-22.965-4.765-46.092-9.076-69.387-12.775-0.38-0.060-0.751-0.141-1.132-0.201-1.44-0.228-2.877-0.452-4.317-0.674-0.315-0.048-0.633-0.078-0.948-0.127-19.532-3.018-39.22-5.372-58.924-7.642 16.019 170.578 108.898 322.782 253.468 415.123 0.499-1.262 0.918-2.559 1.405-3.824 4.575-11.842 8.738-23.784 12.311-35.849 1.086-3.711 1.908-7.529 2.906-11.276 2.733-10.162 5.362-20.347 7.39-30.643 1.395-7.185 2.28-14.536 3.341-21.836 1.072-7.281 2.399-14.518 3.12-21.855 1.454-14.975 2.304-30.125 2.304-45.474 0-68.178-14.757-134.28-43.893-196.671zM343.488 681.286h337.029c8.154 0 15.664 4.413 19.623 11.543s3.741 15.839-0.57 22.765c-40.722 65.43-110.829 104.502-187.568 104.502s-146.845-39.071-187.568-104.502c-4.311-6.926-4.529-15.635-0.57-22.765s11.471-11.543 19.623-11.543zM512.003 775.208c46.201 0 89.408-17.797 121.772-49.036h-243.545c32.364 31.239 75.571 49.036 121.772 49.036z" />
<glyph unicode="&#xe923;" glyph-name="motorcycle" d="M874.206 442.38c-2.461 0-4.857-0.251-7.289-0.369v19.863h77.855c10.217 0 18.506 8.29 18.506 18.506s-8.29 18.506-18.506 18.506h-80.039c-4.012 19.986-13.565 38.496-27.985 53.506l-75.71 78.735c-8.12 8.446-12.603 19.567-12.603 31.289v25.699c0 35.904-29.205 65.109-65.109 65.109h-23.699c-34.703 0-62.893-27.357-64.755-61.602h-56.088c-10.217 0-18.506-8.29-18.506-18.506s8.29-18.506 18.506-18.506h55.734v-25.735c0-3.314 0.892-6.566 2.578-9.421l50.891-86.096c17.024-28.831 20.181-63.385 8.65-94.807l-28.096-76.578h-103.638v92.614c30.506 3.045 54.494 28.56 54.494 59.855v25.097c0 33.337-27.121 60.458-60.458 60.458h-187.795c-33.337 0-60.469-27.121-60.469-60.458v-7.47h-114.976c-60.29 0-109.338-49.048-109.338-109.338v-58.966l-42.192-51.768c-6.47-7.928-5.277-19.578 2.638-26.036 3.446-2.808 7.578-4.169 11.686-4.169 5.373 0 10.699 2.325 14.362 6.807l40.801 50.060h8.069c-4.712-14.533-7.328-30.001-7.328-46.085 0-82.603 67.205-149.795 149.807-149.795 51.73 0 97.407 26.361 124.331 66.349h401.329c26.927-39.987 72.609-66.349 124.339-66.349 82.603 0 149.795 67.192 149.795 149.795s-67.192 149.807-149.795 149.807zM631.531 633.934v20.674h32.048c10.217 0 18.506 8.29 18.506 18.506s-8.29 18.506-18.506 18.506h-31.338c1.803 13.767 13.135 24.59 27.387 24.59h23.699c15.495 0 28.096-12.603 28.096-28.096v-25.699c0-21.337 8.144-41.567 22.939-56.952l75.71-78.723c12.784-13.314 19.832-30.807 19.832-49.241v-41.817c-54.863-17.019-96.176-64.828-104.009-123.102l-61.886 38.62 27.377 74.599c15.373 41.892 11.169 87.952-11.542 126.386l-48.313 81.746zM307.689 539.537c0 12.928 10.518 23.445 23.458 23.445h187.795c12.928 0 23.445-10.518 23.445-23.445v-25.097c0-12.928-10.518-23.445-23.445-23.445h-187.795c-12.939 0-23.458 10.518-23.458 23.445v25.097zM83.376 375.669v47.060c0 39.879 32.446 72.325 72.325 72.325h118.451c8.133-23.8 30.476-41.072 56.994-41.072h156.747v-98.245l-114.638-48.391c-7.445 75.691-71.432 135.034-149.048 135.034-51.879 0-97.658-26.527-124.554-66.711h-16.277zM307.689 282.922c0 2.204-0.498 4.268-0.65 6.433 0.198 1.085 0.65 2.077 0.65 3.218 0 2.742-0.674 5.294-1.747 7.636-8.135 42.89-45.776 75.461-91 75.461h-66.365c20.051 18.262 46.436 29.699 75.63 29.699 62.192 0 112.783-50.602 112.783-112.795 0-15.095-3.090-29.457-8.494-42.628-12.263 5.972-20.807 18.449-20.807 32.977zM224.207 179.79c-62.192 0-112.795 50.59-112.795 112.783 0 16.45 3.728 31.977 10.085 46.085h93.444c20.42 0 38.119-11.156 47.825-27.578h-38.561c-10.217 0-18.506-8.29-18.506-18.506s8.29-18.506 18.506-18.506h47.364c2.902-23.872 17.079-44.082 37.205-55.325-20.689-23.669-50.734-38.951-84.569-38.951zM366.545 246.14c2.153 6.586 3.798 13.379 5.027 20.329l138.567 58.491h126.024l90.344-56.38c1.246-7.682 2.981-15.193 5.35-22.44h-365.311zM874.206 179.79c-62.192 0-112.795 50.59-112.795 112.783 0 25.488 8.817 48.762 23.129 67.672l83.184-73.792c3.518-3.12 7.903-4.662 12.265-4.662 5.108 0 10.205 2.108 13.856 6.229 6.783 7.638 6.085 19.337-1.566 26.12l-81.093 71.937c18.006 12.175 39.699 19.292 63.021 19.292 62.192 0 112.783-50.602 112.783-112.795s-50.59-112.783-112.783-112.783z" />
<glyph unicode="&#xe924;" glyph-name="quadbike" d="M179.723 386.007c-44.928 0-81.482-36.554-81.482-81.482s36.554-81.482 81.482-81.482 81.482 36.554 81.482 81.482-36.554 81.482-81.482 81.482zM179.723 260.054c-24.518 0-44.47 19.952-44.47 44.47s19.952 44.47 44.47 44.47 44.47-19.952 44.47-44.47-19.952-44.47-44.47-44.47zM996.193 397.935v132.866c0 71.313-58.012 129.325-129.325 129.325h-12.152l-68.342 95.445c-3.482 4.856-9.085 7.735-15.048 7.735h-133.747c-10.217 0-18.506-8.29-18.506-18.506s8.29-18.506 18.506-18.506h28.626v-30.506h-73.843c-30.103 0-56.245-16.304-70.75-40.385h-253.54l-12.687 11.374c-20.855 18.71-47.783 29.012-75.807 29.012h-66.169c-62.53 0-113.41-50.867-113.41-113.397v-32.482c0-10.217 8.29-18.506 18.506-18.506 1.399 0 2.636 0.501 3.945 0.796 1.311-0.295 2.546-0.796 3.945-0.796h109.904v-60.835c-73.754-19.309-128.41-86.321-128.41-166.045 0-94.747 77.084-171.831 171.831-171.831 78.896 0 145.363 53.518 165.454 126.108h258.005c10.217 0 18.506 8.29 18.506 18.506v15.891h59.236c5.876-89.463 80.332-160.506 171.257-160.506 94.747 0 171.82 77.084 171.82 171.831 0 34.447-10.286 66.491-27.807 93.411zM703.217 726.296h58.602l47.375-66.169h-74.134v17.157c0 10.217-8.29 18.506-18.506 18.506h-13.337v30.506zM510.080 618.392c-0.122-1.83-0.55-3.574-0.55-5.433v-49.638h-138.735l-61.434 55.072h200.718zM113.41 658.778h66.169c18.891 0 37.036-6.94 51.096-19.554l120.686-108.193c3.385-3.036 7.795-4.723 12.349-4.723h164.325c10.217 0 18.506 8.29 18.506 18.506v68.145c0 25.265 20.555 45.82 45.82 45.82h105.686v-17.157c0-10.217 8.29-18.506 18.506-18.506h150.313c50.904 0 92.314-41.41 92.314-92.314v-92.071c-7.977 6.374-16.474 12.125-25.518 17.017v20.969c0 50.566-41.132 91.698-91.698 91.698h-67.663c-20.723 0-40.325-7.952-55.193-22.398l-57.639-55.952c-15.446-15.012-38.626-18.29-57.603-8.157l-22.41 11.927c-24.494 13.049-53.964 13.518-78.807 1.229l-151.605-74.78c-5.107 82.508-73.658 148.13-157.43 148.13h-156.603v13.975c0 42.121 34.277 76.386 76.397 76.386zM682.485 330.211h-31.677v112.261c13.366 3.835 25.935 10.84 36.446 21.041l57.639 55.952c7.928 7.698 18.374 11.94 29.41 11.94h67.663c30.157 0 54.687-24.53 54.687-54.687v-6.418c-14.211 3.817-29.069 6.043-44.47 6.043-85.995 0-157.23-63.561-169.695-146.133zM173.313 531.404h20.301c66.578 0 120.73-54.102 120.887-120.645-31.49 39.869-80.141 65.585-134.778 65.585-2.165 0-4.265-0.246-6.41-0.325v55.385zM179.723 169.706c-74.338 0-134.82 60.482-134.82 134.82s60.482 134.807 134.82 134.807 134.807-60.469 134.807-134.807-60.469-134.82-134.807-134.82zM584.674 311.705v-15.891h-233.574c0.146 2.905 0.441 5.771 0.441 8.71v74.732l167.47 82.605c14.253 7.037 31.072 6.759 45.049-0.698l22.41-11.927c8.728-4.657 17.966-7.597 27.325-9.065v-109.959h-10.614c-10.217 0-18.506-8.29-18.506-18.506zM852.18 169.706c-74.338 0-134.82 60.482-134.82 134.82s60.482 134.807 134.82 134.807c44.373 0 83.684-21.641 108.264-54.82 1.087-2.994 2.897-5.526 5.259-7.573 13.407-20.944 21.284-45.753 21.284-72.414 0-74.338-60.469-134.82-134.807-134.82zM852.18 386.007c-44.928 0-81.482-36.554-81.482-81.482s36.554-81.482 81.482-81.482 81.482 36.554 81.482 81.482-36.554 81.482-81.482 81.482zM852.18 260.054c-24.518 0-44.47 19.952-44.47 44.47s19.952 44.47 44.47 44.47 44.47-19.952 44.47-44.47-19.952-44.47-44.47-44.47z" />
<glyph unicode="&#xe925;" glyph-name="scooter" d="M908.698 283.972l-4.925 31.665c1.418 0.040 2.8 0.214 4.228 0.214 19.952 0 39.302-3.904 57.53-11.615 9.458-3.975 20.277 0.433 24.253 9.843s-0.433 20.265-9.843 24.253c-22.807 9.638-47.012 14.53-71.94 14.53-3.355 0-6.628-0.327-9.94-0.505l-74.036 475.939c-1.41 9.012-9.169 15.663-18.29 15.663h-84.301c-10.217 0-18.506-8.29-18.506-18.506s8.29-18.506 18.506-18.506h68.446l71.598-460.249c-60.793-15.854-109.475-61.803-128.972-121.053h-441.001c-24.274 73.767-93.714 127.217-175.506 127.217-24.928 0-49.132-4.892-71.94-14.53-9.41-3.988-13.82-14.843-9.843-24.253 3.988-9.41 14.819-13.807 24.253-9.843 18.229 7.711 37.579 11.615 57.53 11.615 75.226 0 137.369-56.518 146.52-129.301h-32.392c-8.935 55.143-56.501 97.494-114.128 97.494-63.964 0-116-52.036-116-116s52.036-116 116-116c57.627 0 105.193 42.35 114.128 97.494h32.39c-0.475-3.787-0.959-7.577-1.723-11.301-1.109-5.446 0.277-11.109 3.796-15.409 3.518-4.313 8.783-6.807 14.337-6.807h466.145c5.554 0 10.82 2.494 14.337 6.807 3.518 4.302 4.903 9.964 3.796 15.409-1.988 9.723-3 19.747-3 29.808 0 67.334 45.299 124.178 106.982 141.948l5.006-32.183c-46.38-15.19-80.193-58.372-80.193-109.763 0-63.964 52.036-116 116-116s116 52.036 116 116c0 63.724-51.667 115.542-115.303 115.93zM116.001 89.055c-43.554 0-78.988 35.434-78.988 78.988s35.434 78.988 78.988 78.988c37.152 0 68.187-25.869 76.569-60.482h-76.569c-10.217 0-18.506-8.29-18.506-18.506s8.29-18.506 18.506-18.506h76.569c-8.383-34.613-39.417-60.482-76.569-60.482zM300.217 153.030c0.398 4.989 0.603 10 0.603 15.012 0 6.966-0.466 13.821-1.219 20.59h424.814c-0.755-6.769-1.219-13.624-1.219-20.59 0-5.012 0.205-10.024 0.603-15.012h-423.579zM908.001 89.055c-43.554 0-78.988 35.434-78.988 78.988 0 32.899 20.242 61.107 48.905 72.968l11.794-75.812c1.421-9.132 9.302-15.663 18.265-15.663 0.952 0 1.904 0.073 2.868 0.217 10.097 1.578 17.013 11.036 15.446 21.132l-11.743 75.483c40.451-3.392 72.442-37.015 72.442-78.327 0-43.554-35.434-78.988-78.988-78.988z" />
<glyph unicode="&#xe926;" glyph-name="segway" d="M827.632 409.247h-4.92c-50.112 0-90.874-40.762-90.874-90.891v-59.461h-137.906v580.002c21.65 18.365 37.358 43.421 42.994 72.34h145.056c13.46 0 24.382 10.921 24.382 24.382s-10.921 24.382-24.382 24.382h-539.959c-13.46 0-24.382-10.921-24.382-24.382s10.921-24.382 24.382-24.382h145.056c5.637-28.919 21.346-53.981 42.994-72.345v-579.999h-137.923v59.461c0 50.127-40.762 90.891-90.874 90.891h-4.905c-50.112 0-90.874-40.762-90.874-90.891v-291.496c0-50.097 40.762-90.859 90.874-90.859h4.905c50.112 0 90.874 40.762 90.874 90.859v41.335h439.689v-41.335c0-50.097 40.762-90.859 90.874-90.859h4.92c50.112 0 90.874 40.762 90.874 90.859v291.496c0 50.127-40.762 90.891-90.874 90.891zM586.756 911.238c-10.287-31.461-39.906-54.239-74.762-54.239-34.841 0-64.461 22.778-74.747 54.239h149.509zM478.834 813.169c10.64-2.891 21.618-4.932 33.159-4.932 11.548 0 22.531 2.042 33.176 4.935v-554.276h-66.334v554.273zM243.385 26.86c0-23.206-18.889-42.095-42.112-42.095h-4.905c-23.223 0-42.112 18.889-42.112 42.095v291.496c0 23.238 18.889 42.127 42.112 42.127h4.905c23.223 0 42.112-18.889 42.112-42.127v-291.496zM292.149 116.957v93.176h439.689v-93.176h-439.689zM869.744 26.86c0-23.206-18.889-42.095-42.112-42.095h-4.92c-23.223 0-42.112 18.889-42.112 42.095v291.496c0 23.238 18.889 42.127 42.112 42.127h4.92c23.223 0 42.112-18.889 42.112-42.127v-291.496z" />
<glyph unicode="&#xe927;" glyph-name="settings" d="M1021.652 495.234c-0.841 9.19-6.777 17.111-15.364 20.492l-127.746 50.207c-6.46 20.207-14.476 39.682-23.936 58.128l54.778 125.858c3.682 8.445 2.285 18.237-3.603 25.317-20.064 24.128-42.476 46.556-66.636 66.651-7.064 5.906-16.857 7.286-25.317 3.603l-125.873-54.762c-18.412 9.445-37.889 17.46-58.128 23.936l-50.239 127.73c-3.365 8.587-11.286 14.523-20.461 15.364-31.048 2.826-63.158 2.826-94.238 0-9.19-0.841-17.111-6.777-20.476-15.364l-50.239-127.73c-20.239-6.476-39.699-14.493-58.128-23.936l-125.858 54.778c-8.429 3.682-18.222 2.285-25.317-3.603-24.096-20.048-46.508-42.461-66.636-66.636-5.906-7.079-7.301-16.889-3.619-25.334l54.778-125.858c-9.445-18.429-17.46-37.905-23.936-58.143l-127.73-50.222c-8.587-3.365-14.523-11.286-15.364-20.476-1.412-15.539-2.364-31.207-2.364-47.111 0-15.92 0.952-31.587 2.364-47.127 0.841-9.19 6.777-17.111 15.364-20.476l127.73-50.222c6.46-20.207 14.476-39.682 23.936-58.128l-54.778-125.858c-3.682-8.445-2.285-18.237 3.603-25.317 20.095-24.158 42.508-46.572 66.651-66.651 7.064-5.906 16.857-7.318 25.317-3.603l125.873 54.762c18.461-9.445 37.921-17.46 58.111-23.921l50.239-127.746c3.365-8.587 11.286-14.523 20.476-15.364 15.539-1.412 31.207-2.349 47.111-2.349s31.603 0.937 47.127 2.349c9.175 0.841 17.096 6.777 20.461 15.364l50.239 127.746c20.207 6.46 39.667 14.476 58.128 23.921l125.858-54.762c8.445-3.699 18.222-2.285 25.317 3.603 24.128 20.064 46.556 42.476 66.651 66.636 5.889 7.079 7.286 16.872 3.603 25.317l-54.778 125.873c9.46 18.444 17.477 37.921 23.936 58.128l127.746 50.222c8.587 3.365 14.523 11.286 15.364 20.476 1.412 15.539 2.349 31.207 2.349 47.127 0 15.905-0.937 31.572-2.349 47.111zM974.272 420.313l-124.555-48.953c-7.064-2.777-12.429-8.698-14.523-15.984-7.111-24.857-16.857-48.492-28.969-70.286-3.682-6.634-4.064-14.604-1.031-21.572l53.381-122.666c-12.302-13.857-25.461-27.016-39.318-39.302l-122.651 53.365c-6.968 3.063-14.936 2.635-21.555-1.031-21.809-12.095-45.46-21.841-70.301-28.952-7.286-2.096-13.207-7.46-15.969-14.523l-48.984-124.555c-18.382-1.206-37.207-1.206-55.587 0l-48.984 124.555c-2.762 7.064-8.683 12.429-15.969 14.523-24.825 7.095-48.476 16.842-70.301 28.952-6.634 3.667-14.619 4.079-21.555 1.031l-122.651-53.365c-13.857 12.302-27.016 25.461-39.318 39.318l53.381 122.651c3.032 6.968 2.651 14.936-1.031 21.572-12.112 21.794-21.858 45.428-28.969 70.286-2.096 7.286-7.46 13.207-14.523 15.969l-124.54 48.968c-0.62 9.19-0.984 18.461-0.984 27.81s0.364 18.603 0.984 27.794l124.54 48.968c7.064 2.762 12.429 8.666 14.508 15.969 7.143 24.889 16.904 48.556 28.984 70.301 3.682 6.634 4.064 14.619 1.031 21.572l-53.381 122.636c12.317 13.888 25.491 27.048 39.318 39.333l122.651-53.381c6.968-3.080 14.968-2.651 21.572 1.031 21.747 12.080 45.396 21.826 70.301 28.984 7.286 2.079 13.19 7.444 15.952 14.508l48.984 124.54c18.382 1.238 37.207 1.238 55.587 0l48.984-124.54c2.762-7.064 8.666-12.429 15.969-14.508 24.905-7.158 48.556-16.904 70.286-28.984 6.634-3.682 14.619-4.127 21.572-1.031l122.666 53.365c13.857-12.302 27.016-25.461 39.302-39.318l-53.381-122.651c-3.032-6.968-2.651-14.936 1.031-21.572 12.112-21.794 21.858-45.428 28.969-70.286 2.096-7.286 7.46-13.207 14.523-15.984l124.555-48.953c0.603-9.19 0.969-18.444 0.969-27.794s-0.364-18.619-0.969-27.81zM512 677.916c-126.715 0-229.795-103.080-229.795-229.795s103.080-229.81 229.795-229.81 229.795 103.095 229.795 229.81-103.080 229.795-229.795 229.795zM512 267.074c-99.826 0-181.032 81.223-181.032 181.047s81.206 181.032 181.032 181.032 181.032-81.206 181.032-181.032-81.206-181.047-181.032-181.047zM512 558.059c-60.619 0-109.936-49.317-109.936-109.936s49.317-109.936 109.936-109.936 109.936 49.317 109.936 109.936-49.317 109.936-109.936 109.936zM512 386.948c-33.731 0-61.175 27.444-61.175 61.175s27.444 61.175 61.175 61.175 61.175-27.444 61.175-61.175-27.444-61.175-61.175-61.175z" />
<glyph unicode="&#xe928;" glyph-name="skateboard" d="M972.118 570.967h-842.272c-4.518 0-8.783 1.71-12.037 4.819l-25.783 24.722c-21.18 20.265-55.337 19.952-76.108-0.82-10.819-10.844-16.602-25.807-15.855-41.109 0.735-15.277 7.928-29.614 19.735-39.349l48.047-39.59c9.723-8.024 22.024-12.457 34.614-12.457h66.41v-22.166c-31.725-12.435-54.337-43.179-54.337-79.255 0-47.011 38.253-85.252 85.265-85.252s85.265 38.241 85.265 85.252c0 9.93-2.030 19.322-5.166 28.193h275.128c44.24 0 81.268 31.489 89.854 73.228h31.631l91.533-67.721c-4.476-10.35-7.006-21.728-7.006-33.7 0-47.011 38.253-85.252 85.265-85.252s85.265 38.241 85.265 85.252c0 40.641-28.636 74.624-66.759 83.121v18.3h107.313c28.602 0 51.879 23.277 51.879 51.879 0 28.626-23.277 51.903-51.879 51.903zM280.641 467.184v-36.217h-26.561c-13.305 11.101-29.889 18.135-48.198 19.456v16.76h74.759zM199.798 317.522c-26.602 0-48.253 21.639-48.253 48.241s21.651 48.265 48.253 48.265 48.253-21.662 48.253-48.265-21.651-48.241-48.253-48.241zM555.024 430.968h-237.372v36.217h288.649c-7.628-21.047-27.633-36.217-51.277-36.217zM894.553 365.763c0-26.602-21.651-48.241-48.253-48.241s-48.253 21.639-48.253 48.241c0 25.65 20.183 46.508 45.473 47.983 0.944-0.149 1.793-0.561 2.78-0.561s1.836 0.413 2.78 0.561c25.289-1.475 45.473-22.333 45.473-47.983zM827.794 448.884c-14.361-3.202-27.199-10.167-37.835-19.617l-51.248 37.917h89.084v-18.3zM972.118 504.196h-869.658c-4.012 0-7.94 1.421-11.060 4l-48.060 39.614c-3.831 3.157-6.072 7.614-6.313 12.578-0.241 4.94 1.566 9.614 5.073 13.133 3.361 3.349 7.831 5.036 12.289 5.036 4.35 0 8.699-1.591 12.037-4.771l25.771-24.699c10.181-9.759 23.542-15.133 37.651-15.133h842.272c8.193 0 14.867-6.675 14.867-14.892 0-8.193-6.675-14.867-14.867-14.867z" />
<glyph unicode="&#xe929;" glyph-name="waterproof" d="M823.488 390.52l-11.939 55.355h51.957c26.253 0 49.434 17.674 56.373 42.988l27.868 101.422c1.531 5.566 0.373 11.53-3.12 16.12-3.506 4.591-8.952 7.289-14.723 7.289h-154.545l-12.78 59.265c-5.783 26.795-29.879 46.24-57.277 46.24h-8.586c-1.074 35.816-30.379 64.675-66.45 64.675h-33.771c-10.217 0-18.506-8.29-18.506-18.506s8.29-18.506 18.506-18.506h33.771c16.011 0 28.936-12.83 29.452-28.717-12.354-2.2-23.866-8.188-32.549-17.44l-49.205-52.433c-21.783-23.204-21.229-59.024 1.289-81.53l3.952-3.952c20.157-20.144 51.518-22.892 74.807-6.723l44.862-192.884c-44.199-24.982-79.349-65.118-97.158-114.272h-110.114v62.614c0 32.222-21.96 59.153-51.614 67.336v38.278c0 33.494-27.241 60.735-60.735 60.735h-100.215l-13.613 118.096h87.081c10.217 0 18.506 8.29 18.506 18.506s-8.29 18.506-18.506 18.506h-91.348l-19.579 169.856c-4.808 41.627-40.012 73.012-81.903 73.012h-6.976c-14.554 0-28.506-6.193-38.277-16.988s-14.542-25.301-13.084-39.784l37.023-368.961c-6.188-9.514-9.866-20.807-9.866-32.978v-35.482h-42.254c-49.759 0-90.241-40.482-90.241-90.241v-112.639c0-32.013 26.048-58.060 58.060-58.060h10.060c10.217 0 18.506 8.29 18.506 18.506s-8.29 18.506-18.506 18.506h-10.060c-11.602 0-21.048 9.446-21.048 21.048v112.639c0 29.349 23.88 53.229 53.229 53.229h335.229c18.265 0 33.12-14.856 33.12-33.12v-81.121c0-10.217 8.29-18.506 18.506-18.506h141.097c6.518 0 11.978 3.574 15.274 8.669 0.475 0.536 0.783 1.179 1.194 1.772 0.206 0.422 0.479 0.781 0.655 1.219 0.735 1.248 1.621 2.386 2.057 3.835 22.566 74.698 92.88 126.879 171.012 126.879 96.41 0 175.216-76.783 178.494-172.41h-37.799c-17.221 44.592-60.257 76.434-110.852 76.434-61.623 0-111.859-47.214-117.88-107.277h-381.807c-6.021 60.064-56.255 107.277-117.88 107.277-65.663 0-119.073-53.41-119.073-119.073s53.41-119.073 119.073-119.073c56.995 0 104.644 40.29 116.26 93.856h385.046c11.616-53.566 59.265-93.856 116.26-93.856 65.663 0 119.084 53.41 119.084 119.073 0 1.926-0.479 3.722-0.569 5.627h48.135c9.795 0 17.904 7.638 18.469 17.422l0.205 3.060c0.229 3.422 0.446 6.856 0.446 10.338 0 113.794-88.67 207.042-200.514 214.849zM245.78 477.876h-52.55c-5.654 0-11.021-1.026-16.217-2.477l-12.098 120.573h67.25l13.615-118.096zM161.203 632.985l-9.999 99.639h65.211l11.485-99.639h-66.697zM145.87 834.032c2.808 3.096 6.651 4.808 10.831 4.808h6.976c23.084 0 42.482-17.301 45.133-40.241l3.339-28.964h-64.658l-5.331 53.133c-0.409 4.156 0.904 8.157 3.711 11.266zM169.509 417.141c0 13.084 10.639 23.723 23.723 23.723h190.024c13.084 0 23.723-10.639 23.723-23.723v-35.482h-237.47v35.482zM905.629 576.683l-21.434-78.024c-2.554-9.289-11.060-15.771-20.687-15.771h-59.938l-20.227 93.795h122.286zM687.81 591.358c-1.398 6.012-5.699 10.928-11.482 13.12-5.795 2.181-12.265 1.35-17.278-2.241l-21.892-15.59c-8.59-6.109-20.289-5.157-27.784 2.313l-3.952 3.952c-8.29 8.29-8.494 21.482-0.47 30.036l49.205 52.433c4.061 4.326 9.795 6.807 15.735 6.807h35.409c10.097 0 18.975-7.169 21.109-17.036l59.353-275.227c-16.714-1.798-32.987-5.509-48.546-11.024l-49.41 212.456zM220.665 57.165c-45.253 0-82.060 36.807-82.060 82.060s36.807 82.060 82.060 82.060 82.060-36.807 82.060-82.060-36.807-82.060-82.060-82.060zM838.231 57.165c-45.253 0-82.060 36.807-82.060 82.060s36.807 82.060 82.060 82.060 82.073-36.807 82.073-82.060-36.819-82.060-82.073-82.060z" />
<glyph unicode="&#xe92a;" glyph-name="delivery" d="M1018.337 564.765l-139.036 134.084c-3.446 3.325-8.048 5.181-12.843 5.181h-201.048v73.795c0 10.217-8.289 18.506-18.506 18.506h-524.506c-10.217 0-18.506-8.289-18.506-18.506v-148.169c0-10.217 8.289-18.506 18.506-18.506s18.506 8.289 18.506 18.506v129.663h487.494v-504.337h-237.505c-17.569 21.927-44.241 36.265-74.459 36.265s-56.884-14.339-74.452-36.265h-101.078v70.506c0 10.217-8.289 18.506-18.506 18.506s-18.506-8.289-18.506-18.506v-89.012c0-10.217 8.289-18.506 18.506-18.506h101.205c-1.761-7.253-2.952-14.718-2.952-22.506 0-52.819 42.964-95.795 95.783-95.795s95.795 42.976 95.795 95.795c0 7.788-1.192 15.253-2.953 22.506h309.435c10.217 0 18.506 8.289 18.506 18.506s-8.289 18.506-18.506 18.506h-53.301v412.036h193.578l128-123.446v-288.59h-26.181c-10.217 0-18.506-8.289-18.506-18.506s8.289-18.506 18.506-18.506h44.687c10.217 0 18.506 8.289 18.506 18.506v314.964c0 5.024-2.048 9.831-5.663 13.325zM375.217 195.464c0-32.41-26.373-58.783-58.783-58.783s-58.771 26.373-58.771 58.783c0 7.975 1.628 15.566 4.517 22.506h108.519c2.89-6.94 4.518-14.531 4.518-22.506zM838.855 291.247c-52.819 0-95.795-42.964-95.795-95.783s42.976-95.795 95.795-95.795 95.783 42.976 95.783 95.795-42.964 95.783-95.783 95.783zM838.855 136.681c-32.41 0-58.783 26.373-58.783 58.783s26.373 58.771 58.783 58.771 58.771-26.361 58.771-58.771-26.361-58.783-58.771-58.783zM93 552.789h253.265c10.217 0 18.506 8.289 18.506 18.506s-8.289 18.506-18.506 18.506h-253.265c-10.217 0-18.506-8.289-18.506-18.506s8.289-18.506 18.506-18.506zM55.759 459.777h253.265c10.217 0 18.506 8.289 18.506 18.506s-8.289 18.506-18.506 18.506h-253.265c-10.217 0-18.506-8.289-18.506-18.506s8.289-18.506 18.506-18.506zM290.277 385.271c0 10.217-8.289 18.506-18.506 18.506h-253.265c-10.217 0-18.506-8.289-18.506-18.506s8.289-18.506 18.506-18.506h253.265c10.217 0 18.506 8.289 18.506 18.506zM932.133 416.114v99.723c0 4.94-1.976 9.675-5.482 13.145l-74.771 74.084c-3.47 3.434-8.145 5.361-13.024 5.361h-99.036c-10.217 0-18.506-8.289-18.506-18.506v-173.807c0-10.217 8.289-18.506 18.506-18.506h173.807c10.217 0 18.506 8.289 18.506 18.506zM895.121 434.62h-136.795v136.795h72.916l63.88-63.289v-73.506z" />
<glyph unicode="&#xe92b;" glyph-name="bicycle2" horiz-adv-x="1527" d="M1271.966 517.612c-21.75 0-42.756-3.033-62.923-8.181l-14.788 38.45c24.811 6.77 50.784 10.699 77.712 10.699 34.815 0 68.888-5.971 101.26-17.751 11.508-4.126 24.284 1.755 28.5 13.3 4.198 11.545-1.755 24.302-13.3 28.5-37.258 13.553-76.434 20.429-116.46 20.429-32.549 0-63.937-4.865-93.766-13.436l-44.607 115.98 77.411 62.537c7.202 5.809 10.043 15.471 7.148 24.265l-50.196 152.324c-3.004 9.102-11.527 15.272-21.117 15.272h-148.868c-12.287 0-22.239-9.952-22.239-22.239s9.952-22.239 22.239-22.239h132.782l40.352-122.449-78.044-63.043c-7.509-6.062-10.242-16.267-6.786-25.279l15.272-39.71-471.268-73.188-27.301 100.358h118.030c12.287 0 22.239 9.952 22.239 22.239s-9.952 22.239-22.239 22.239h-208.039c-12.287 0-22.239-9.952-22.239-22.239s9.952-22.239 22.239-22.239h43.908l32.625-119.934-72.554-65.61c-63.215 61.225-148.341 96.39-236.681 96.39-108.878 0-212.038-52.729-275.95-141.033-7.202-9.952-4.976-23.849 4.958-31.051 3.945-2.859 8.505-4.234 13.028-4.234 6.894 0 13.68 3.203 18.023 9.192 55.588 76.795 145.285 122.648 239.941 122.648 75.827 0 148.92-29.789 203.665-81.772l-30.492-27.57c-45.523 42.284-106.284 68.374-173.172 68.374-140.581 0-254.96-114.361-254.96-254.941 0-101.529 61.36-193.011 153.611-233.214 4.537-52.207 47.988-93.457 101.348-93.457 53.188 0 96.508 40.992 101.28 92.959 86.517 37.518 143.933 118.561 152.008 211.473h163.224c0.016 0 0.032 0.009 0.047 0.009 1.914 0.005 3.866 0.251 5.797 0.769 0.346 0.095 0.584 0.353 0.921 0.461 1.662 0.536 3.128 1.414 4.628 2.325 0.927 0.568 1.934 0.975 2.757 1.66 0.176 0.145 0.407 0.197 0.579 0.348l411.421 363.444 13.375-34.772c-120.341-52.532-204.741-172.541-204.741-312.007 0-12.287 9.952-22.239 22.239-22.239s22.239 9.952 22.239 22.239c0 120.565 72.579 224.343 176.262 270.406l14.738-38.319c-88.327-40.096-150.015-128.932-150.015-232.087 0-140.581 114.361-254.96 254.941-254.96s254.941 114.379 254.941 254.96-114.361 254.941-254.941 254.941zM667.677 284.909h-133.596c-4.273 49.11-22.589 94.142-50.813 131.352l119.323 107.899 65.086-239.251zM379.886 284.909c-2.228 9.973-6.159 19.215-11.070 27.86l81.364 73.575c21.255-29.117 35.367-63.744 39.345-101.434h-109.64zM280.266 204.911c-31.847 0-57.759 25.912-57.759 57.759s25.912 57.741 57.759 57.741c8.781 0 17.018-2.122 24.476-5.641l-39.386-35.616c-6.822-6.152-9.138-15.887-5.845-24.483 3.311-8.577 11.563-14.241 20.755-14.241h53.265c-8.726-20.836-29.298-35.521-53.265-35.521zM69.785 262.67c0 116.044 94.42 210.464 210.482 210.464 53.815 0 102.821-20.477 140.074-53.828l-81.154-73.387c-16.686 11.848-36.941 18.97-58.92 18.97-56.366 0-102.237-45.853-102.237-102.219 0-48.71 34.315-89.433 79.998-99.638v-25.157c-33.39-7.46-60.517-31.25-72.783-62.561-69.799 35.521-115.46 107.749-115.46 187.356zM280.266-19.522c-31.847 0-57.759 25.912-57.759 57.759 0 31.008 24.618 56.194 55.31 57.511 0.844-0.097 1.581-0.493 2.45-0.493s1.606 0.396 2.45 0.493c30.692-1.316 55.292-26.502 55.292-57.511 0-31.847-25.894-57.759-57.741-57.759zM375.236 75.436c-12.284 31.252-39.386 54.989-72.731 62.439v25.157c38.5 8.602 68.784 38.898 77.381 77.399h109.188c-7.469-70.885-50.010-132.653-113.838-164.995zM708.855 303.011l-66.83 245.665 418.501 65.002-351.671-310.667zM1271.966 52.188c-116.044 0-210.464 94.42-210.464 210.482 0 84.239 49.875 156.877 121.54 190.48l51.636-134.256c-18.201-12.094-30.221-32.739-30.221-56.228 0-37.285 30.226-67.508 67.51-67.508s67.508 30.223 67.508 67.508c0 35.141-26.944 63.672-61.245 66.877l-53.134 138.145c15.096 3.452 30.741 5.447 46.868 5.447 116.044 0 210.464-94.42 210.464-210.464 0-116.062-94.42-210.482-210.464-210.482z" />
<glyph unicode="&#xe92c;" glyph-name="shield" d="M945.109 882.597c8.954 8.065 10.669 21.465 4.048 31.53s-19.575 13.796-30.546 8.764c-232.617-106.926-383.552 25.005-390.204 30.99-1.034 0.941-2.316 1.334-3.455 2.062-1.248 0.8-2.4 1.688-3.75 2.24-1.57 0.643-3.166 0.889-4.812 1.189-1.451 0.27-2.834 0.621-4.309 0.627-1.581 0.002-3.069-0.357-4.626-0.659-1.535-0.292-3.028-0.502-4.499-1.094-1.489-0.595-2.764-1.559-4.133-2.456-1.045-0.684-2.231-1.027-3.185-1.892-6.319-5.684-157.317-137.98-390.251-31.006-11.002 5.033-23.941 1.302-30.546-8.764-6.62-10.065-4.906-23.465 4.048-31.53 141.79-127.612 92.367-256.352 44.548-380.869-25.021-65.183-48.413-127.398-42.829-185.813 0.114-0.862 0.078-1.721 0.283-2.556 1.499-13.536 4.066-26.935 9.145-40.041 34.261-88.478 137.757-135.344 229.077-176.686 86.652-39.246 168.509-76.301 168.509-136.249 0-13.463 10.923-24.386 24.386-24.386s24.386 10.923 24.386 24.386c0 59.948 81.857 97.003 168.509 136.249 91.32 41.341 194.816 88.208 229.077 176.686 27.275 70.379-2.207 147.14-33.403 228.41-47.819 124.517-97.257 253.272 44.533 380.869zM819.276 587.373c-198.776-293.059-598.502-259.362-690.777-247.19 0.951 23.189 6.779 48.14 15.354 74.729 14.851-1.31 36.958-2.694 64.983-2.694 136.74 0 407.517 33.699 594.441 270.528 1.226-32.543 7.39-64.465 15.998-95.373zM175.1 846.336c172.742-44.137 294.361 27.315 336.89 58.373 42.472-31.071 164.026-102.579 336.909-58.373-10.258-15.535-18.469-31.087-25.011-46.612-197.587-346.965-557.202-346.073-663.342-337.582 2.761 7.293 5.544 14.609 8.424 22.108 40.881 106.481 90.176 234.824 6.128 362.087zM888.511 290.94c-27.069-69.887-116.88-110.546-203.723-149.887-67.867-30.72-137.21-62.252-172.78-109.72-35.57 47.468-104.914 79-172.78 109.72-86.527 39.198-175.92 79.74-203.345 149.163 26.881-3.056 67.039-6.389 116.296-6.389 164.256 0 423.833 37.33 585.725 246.083 5.63-15.59 11.453-30.857 17.14-45.663 28.942-75.38 53.931-140.472 33.467-193.308z" />
<glyph unicode="&#xe92d;" glyph-name="timer" d="M812.359 648.467l10.014 12.678c27.921 0.238 54.603 12.937 72.048 35.016 15.381 19.476 22.27 43.778 19.381 68.429s-15.206 46.698-34.667 62.079c-40.222 31.81-98.778 24.937-130.54-15.286-17.444-22.079-23.651-50.952-17.413-78.175l-10.713-13.554c-42.514 24.456-89.649 41.508-139.795 49.813v19.914h7c37.841 0 68.635 30.778 68.635 68.619v33.381c0 37.841-30.794 68.619-68.635 68.619h-151.349c-37.841 0-68.619-30.778-68.619-68.619v-33.381c0-37.841 30.778-68.619 68.619-68.619h7v-19.917c-198.843-32.938-351.111-205.635-351.111-413.67 0-231.476 188.317-419.794 419.794-419.794 231.46 0 419.778 188.317 419.778 419.794 0 113.784-45.665 216.984-119.427 292.671zM777.373 713.033c5.429 6.873 6.762 16.127 3.476 24.238-6.063 15.032-3.825 31.444 6 43.873 15.095 19.095 42.937 22.397 62.048 7.27 19.095-15.095 22.365-42.921 7.27-62.016-9.81-12.46-25.175-18.508-41.333-15.984-8.683 1.238-17.381-2.127-22.778-9l-15.724-19.906c-4.841 3.938-9.983 7.502-15 11.224l16.041 20.302zM467.706 838.144h-31.381c-10.952 0-19.857 8.905-19.857 19.857v33.381c0 10.952 8.905 19.857 19.857 19.857h151.349c10.952 0 19.873-8.905 19.873-19.857v-33.381c0-10.952-8.921-19.857-19.873-19.857h-31.381c-13.46 0-24.381-10.921-24.381-24.381v-39.183c-6.643 0.314-13.186 1.008-19.905 1.008-6.724 0-13.275-0.694-19.921-1.008v39.183c0 13.46-10.921 24.381-24.381 24.381zM512.008-15.237c-204.587 0-371.032 166.444-371.032 371.032s166.444 371.032 371.032 371.032c204.571 0 371.016-166.444 371.016-371.032s-166.444-371.032-371.016-371.032zM512.008 672.033c-13.46 0-24.381-10.921-24.381-24.381s10.921-24.381 24.381-24.381c147.492 0 267.476-119.984 267.476-267.476s-119.984-267.476-267.476-267.476-267.492 119.984-267.492 267.476c0 76.873 33.143 150.111 90.921 200.937 10.111 8.889 11.111 24.286 2.206 34.397-8.857 10.127-24.302 11.127-34.397 2.206-68.317-60.063-107.492-146.651-107.492-237.54 0-174.381 141.873-316.238 316.254-316.238s316.238 141.857 316.238 316.238-141.857 316.238-316.238 316.238zM512.008 276.319c43.825 0 79.476 35.651 79.476 79.476s-35.651 79.476-79.476 79.476c-14.54 0-28.002-4.208-39.738-11.054l-113.532 113.546c-9.524 9.524-24.952 9.524-34.476 0s-9.524-24.952 0-34.476l115.246-115.26c-4.408-9.873-6.976-20.738-6.976-32.232 0-43.825 35.651-79.476 79.476-79.476zM542.722 355.795c0-16.937-13.778-30.714-30.714-30.714s-30.714 13.778-30.714 30.714 13.778 30.714 30.714 30.714 30.714-13.778 30.714-30.714z" />
<glyph unicode="&#xe92e;" glyph-name="repair" d="M762.038 337.543c5.303 9.573 8.129 20.385 8.129 31.625 0 17.448-6.795 33.848-19.115 46.184-12.336 12.336-28.752 19.147-46.2 19.147h-0.016c-17.448 0-33.848-6.795-46.184-19.131l-14.844-14.844-33.481 33.483 139.487 139.473c55.249-24.894 120.437-13.542 164.287 30.308l52.455 52.455c51.582 51.582 57.377 134.424 13.463 192.69-4.255 5.652-10.732 9.161-17.781 9.653-7.033 0.603-13.955-2.096-18.94-7.081l-97.448-97.448-42.326 42.31 97.448 97.464c5.001 4.985 7.573 11.907 7.081 18.94-0.492 7.049-4.001 13.527-9.637 17.781-58.266 43.914-141.092 38.135-192.706-13.463l-52.455-52.455c-43.866-43.866-55.17-109.054-30.292-164.287l-139.478-139.492-153.153 153.163-16.099 79.969c-1.381 6.874-5.652 12.812-11.733 16.321l-190.372 109.8c-9.51 5.493-21.608 3.937-29.419-3.89l-57.043-57.043c-7.811-7.795-9.399-19.861-3.89-29.419l109.8-190.372c3.509-6.081 9.446-10.351 16.321-11.733l79.969-16.099 153.153-153.163-341.16-341.146c-16.337-16.337-25.323-38.039-25.323-61.139 0-23.084 8.986-44.787 25.323-61.124l4.588-4.588c16.337-16.337 38.039-25.323 61.124-25.323 23.1 0 44.803 8.986 61.139 25.323l341.149 341.149 33.483-33.483-14.828-14.828c-25.465-25.465-25.465-66.918 0-92.384 20.29-20.274 53.439-24.513 77.809-11.002l222.506-222.506c14.225-14.225 32.911-21.338 51.598-21.338 18.702 0 37.389 7.113 51.614 21.338l54.487 54.487c13.796 13.796 21.385 32.118 21.385 51.614 0 19.512-7.589 37.833-21.385 51.614l-222.49 222.49zM670.178 678.58c8.002 8.002 9.446 20.464 3.493 30.085-24.195 39.056-18.401 89.002 14.066 121.485l52.455 52.455c27.482 27.498 68.204 35.547 103.386 22.798l-91.781-91.796c-4.572-4.572-7.144-10.78-7.144-17.242 0-6.478 2.572-12.669 7.144-17.242l76.809-76.793c9.526-9.526 24.957-9.526 34.483 0l91.781 91.781c12.717-35.15 4.683-75.904-22.798-103.386l-52.455-52.455c-32.467-32.483-82.414-38.309-121.501-14.082-9.589 5.969-22.052 4.493-30.070-3.493l-152.204-152.204-57.875 57.878 152.21 152.21zM132.228 24.876c-14.241-14.225-39.040-14.225-53.297 0l-4.588 4.588c-7.113 7.128-11.034 16.591-11.034 26.64 0 10.066 3.921 19.528 11.034 26.656l341.158 341.144 57.877-57.878-341.15-341.15zM950.045 46.325l-54.487-54.503c-9.415-9.43-24.799-9.43-34.245 0l-237.953 237.953c-4.763 4.763-11.002 7.144-17.242 7.144-6.223 0-12.447-2.366-17.21-7.113l-4.493-4.477c-6.462-6.462-16.988-6.43-23.417 0-6.446 6.462-6.446 16.956 0 23.417l32.070 32.070c9.526 9.526 9.526 24.957 0 34.483l-160.302 160.31c-0.008 0.008-0.008 0.016-0.016 0.024s-0.016 0.008-0.024 0.016l-175.583 175.591c-3.398 3.398-7.716 5.715-12.431 6.668l-76.381 15.384-94.956 164.621 30.594 30.594 164.621-94.956 15.384-76.381c0.953-4.715 3.271-9.034 6.668-12.431l335.925-335.941c9.145-9.145 25.338-9.145 34.483 0l32.086 32.086c3.128 3.128 7.287 4.842 11.701 4.842 4.429 0 8.573-1.731 11.717-4.858 6.446-6.446 6.446-16.956 0-23.402l-4.461-4.461c-9.526-9.526-9.526-24.957 0-34.483l237.953-237.969c4.572-4.556 7.097-10.637 7.097-17.115 0-6.462-2.524-12.542-7.097-17.115zM91.53 74.973c-9.091-9.089-9.091-23.827 0-32.918s23.827-9.089 32.915 0c9.089 9.091 9.089 23.829 0 32.918s-23.827 9.089-32.915 0z" />
<glyph unicode="&#xe92f;" glyph-name="map-point" d="M1021.911 8.732l-165.693 357.225c-3.666 7.931-11.612 13-20.346 13h-151.379c-12.386 0-22.435-10.049-22.435-22.435s10.049-22.435 22.435-22.435h137.050l144.879-312.354h-908.844l144.894 312.354h140.643c12.386 0 22.435 10.049 22.435 22.435s-10.049 22.435-22.435 22.435h-154.972c-8.735 0-16.68-5.068-20.346-13l-165.708-357.225c-3.228-6.938-2.688-15.059 1.431-21.515 4.134-6.456 11.261-10.356 18.915-10.356h979.129c7.654 0 14.782 3.9 18.915 10.356 4.119 6.456 4.659 14.577 1.431 21.515zM512.007 154.707c8.399 0 16.096 4.689 19.938 12.152 8.515 16.52 208.504 405.951 208.504 523.823 0 125.964-102.477 228.456-228.442 228.456s-228.456-102.492-228.456-228.456c0-117.872 200.003-507.304 208.519-523.823 3.841-7.464 11.539-12.152 19.938-12.152zM512.007 874.268c101.221 0 183.571-82.35 183.571-183.586 0-79.765-118.398-333.387-183.571-463.894-65.173 130.492-183.586 384.1-183.586 463.894 0 101.236 82.35 183.586 183.586 183.586zM658.508 689.032c0 80.787-65.713 146.515-146.501 146.515s-146.515-65.728-146.515-146.515 65.728-146.501 146.515-146.501 146.501 65.713 146.501 146.501zM410.362 689.032c0 56.044 45.601 101.645 101.645 101.645s101.63-45.601 101.63-101.645-45.586-101.63-101.63-101.63-101.645 45.586-101.645 101.63z" />
<glyph unicode="&#xe930;" glyph-name="shop" d="M412.846 309.129c-12.92 0-23.402-10.482-23.402-23.402v-80.656c0-10.040-5.805-17.551-11-17.551h-164.512c-5.195 0-11 7.511-11 17.551v80.656c0 12.92-10.482 23.402-23.402 23.402s-23.402-10.482-23.402-23.402v-80.656c0-35.483 25.931-64.354 57.803-64.354h164.512c31.873 0 57.803 28.871 57.803 64.354v80.656c0 12.92-10.482 23.402-23.402 23.402zM1023.863 526.074c0.005 0.46 0.137 0.885 0.137 1.348 0 1.278-0.53 2.383-0.727 3.605-0.195 1.248-0.038 2.485-0.445 3.724l-77 233.574c-9.857 29.831-37.571 49.881-68.986 49.881h-2.742v61.49c0 32.939-26.799 59.738-59.738 59.738h-609.28c-32.939 0-59.738-26.799-59.738-59.738v-61.635c-30.654-0.765-57.508-20.49-67.173-49.736l-77-233.574c-0.407-1.239-0.251-2.476-0.445-3.724-0.198-1.223-0.727-2.328-0.727-3.605 0-0.463 0.134-0.888 0.137-1.348 0.024-0.419 0.078-0.812 0.123-1.226 0.885-49.463 26.382-92.959 64.932-118.602v-381.394c0-37.647 30.638-68.285 68.285-68.285h752.493c37.647 0 68.27 30.638 68.27 68.285v378.905c40.968 25.199 68.585 69.78 69.502 121.093 0.046 0.414 0.099 0.806 0.123 1.225zM205.081 892.631h609.28c7.13 0 12.935-5.805 12.935-12.935v-61.49h-635.15v61.49c0 7.13 5.805 12.935 12.935 12.935zM122.627 753.668c3.489 10.604 13.361 17.734 24.529 17.734h729.685c11.168 0 21.040-7.13 24.529-17.734l75.536-229.132c-1.045-35.427-20.821-65.921-49.759-82.492-5.067-0.838-9.681-2.924-13.095-6.463-11.076-4.307-23.013-6.9-35.596-6.9-54.451 0-98.756 44.289-98.756 98.741 0 12.92-10.482 23.402-23.402 23.402s-23.402-10.482-23.402-23.402c0-54.451-44.289-98.741-98.741-98.741s-98.756 44.289-98.756 98.741c0 12.92-10.482 23.402-23.402 23.402s-23.402-10.482-23.402-23.402c0-54.451-44.289-98.741-98.741-98.741s-98.756 44.289-98.756 98.741c0 12.92-10.482 23.402-23.402 23.402s-23.402-10.482-23.402-23.402c0-54.451-44.289-98.741-98.741-98.741-53.463 0-96.897 42.766-98.465 95.855l75.536 229.132zM766.445 3.369h-231.045v259.2c0 9.69 7.877 17.566 17.566 17.566h195.912c9.69 0 17.566-7.877 17.566-17.566v-259.2zM907.434 24.851c0-11.838-9.629-21.482-21.467-21.482h-72.719v259.2c0 35.499-28.871 64.37-64.37 64.37h-195.912c-35.499 0-64.37-28.871-64.37-64.37v-259.2h-355.122c-11.838 0-21.482 9.644-21.482 21.482v361.316c10.823-2.575 21.963-4.289 33.564-4.289 51.275 0 96.212 26.791 122.144 66.964 25.937-40.173 70.881-66.964 122.156-66.964s96.212 26.791 122.144 66.964c25.937-40.173 70.881-66.964 122.156-66.964s96.212 26.791 122.144 66.964c25.937-40.173 70.881-66.964 122.156-66.964 9.923 0 19.608 1.028 28.978 2.93v-359.957z" />
<glyph unicode="&#xe931;" glyph-name="courier" d="M885.352 276.010l-32.71 225.361c-1.187 8.143-7.193 14.321-14.811 16.4v29.486c39.612 8.17 69.528 43.185 69.528 85.182 0 42.014-29.893 77.167-69.528 85.324v24.387c0 6.31-2.944 12.263-7.947 16.092l-23.378 17.905 9.9 13.446c6.64 9.016 4.713 21.715-4.303 28.355-9.016 6.627-21.689 4.726-28.355-4.303l-45.74-62.122c-6.64-9.016-4.713-21.715 4.303-28.355 3.63-2.667 7.828-3.947 12.013-3.947 6.218 0 12.369 2.851 16.342 8.25l11.796 16.020 14.816-11.347v-16.056c-30.136-8.299-53.667-32.184-61.285-62.592-5.683 1.562-11.549 2.665-17.721 2.665h-107.902v43.439c47.633 0.488 86.266 39.302 86.266 87.048 0 8.672-1.662 16.885-4.031 24.796l27.595 15.321c9.782 5.439 13.319 17.781 7.881 27.576-5.452 9.782-17.755 13.306-27.576 7.881l-28.090-15.597c-15.883 16.661-38.151 27.174-62.929 27.174-48.050 0-87.151-39.1-87.151-87.151 0-2.612 0.547-5.076 0.772-7.63h-4.191c-26.454 0-50.308-14.679-62.228-38.308l-104.681-207.554c-0.104-0.205-0.079-0.43-0.174-0.638-0.576-1.234-0.766-2.602-1.085-3.955-0.304-1.306-0.741-2.564-0.783-3.876-0.008-0.235-0.136-0.43-0.136-0.667v-43.338c0-17.079 5.126-32.911 13.668-46.361h-73.863v16.884h13.135c11.194 0 20.276 9.082 20.276 20.276s-9.082 20.276-20.276 20.276h-13.135v154.381c0 10.071-7.482 18.058-17.107 19.636 1.707 21.229-3.671 48.036-30.798 59.885-31.505 13.76-60.501-7.501-80.2-32.078-19.681 24.585-48.648 45.852-80.214 32.091-27.138-11.859-32.517-38.669-30.812-59.898-9.625-1.577-17.107-9.565-17.107-19.636v-154.381h-13.121c-11.194 0-20.276-9.082-20.276-20.276s9.082-20.276 20.276-20.276h48.854l125.847-157.291-60.133-87.581c-2.323-3.366-3.564-7.379-3.564-11.471v-65.647c0-11.194 9.082-20.276 20.276-20.276h79.869c9.518-49.329 52.903-86.741 104.966-86.741s95.449 37.412 104.966 86.741h330.436c9.518-49.329 52.903-86.741 104.966-86.741s95.449 37.412 104.966 86.741h21.998c11.194 0 20.276 9.082 20.276 20.276 0 78.284-61.47 142.303-138.648 146.791zM981.396 149.495h-209.259c9.511 49.141 52.744 86.398 104.623 86.398s95.124-37.257 104.636-86.398zM772.383 549.74c8.776-3.049 17.268-4.643 24.896-5.208v-25.802h-24.896v31.010zM866.807 632.441c0-19.449-12.006-36.102-28.975-43.058v86.114c16.969-6.955 28.975-23.609 28.975-43.057zM797.279 672.695v-87.432c-3.757 0.448-7.708 1.337-11.643 2.694v0.854c0 14.674-4.849 28.162-12.847 39.238 0.333 1.457 0.887 2.833 0.887 4.391 0 17.285 9.58 32.223 23.603 40.254zM744.226 595.571h-35.034v20.039h9.082c12.448 0 22.943-8.528 25.952-20.039zM668.639 615.61v-20.039h-106.965c-9.636 0-17.478 7.841-17.478 17.478v109.526c0 1.874 0.684 3.526 1.618 5.004 6.851-7.379 14.979-13.405 24.004-18.066v-73.627c0-11.194 9.082-20.276 20.276-20.276h78.544zM656.085 786.651c0-25.688-20.91-46.585-46.598-46.585-10.579 0-20.234 3.68-28.065 9.643l74.23 41.218c0.133-1.431 0.432-2.812 0.432-4.276zM609.487 833.249c9.314 0 17.959-2.816 25.25-7.544l-71.767-39.849c-0.005 0.271-0.081 0.523-0.081 0.795 0 25.688 20.91 46.598 46.598 46.598zM492.885 722.443c2.796 5.538 7.246 9.722 12.485 12.488-1.018-3.975-1.727-8.068-1.727-12.356v-109.526c0-31.998 26.032-58.030 58.030-58.030h170.156v-47.605c-0.859-1.727-1.651-3.506-1.993-5.488l-41.82-240.708c-9.676 7.882-19.298 14.395-26.915 19.166l47.468 188.343c0.409 1.61 0.62 3.274 0.62 4.95 0 38.942-31.682 70.623-70.623 70.623h-235.528l89.848 178.143zM264.673 372.203c-5.94 0-10.785 4.845-10.785 10.785s4.845 10.785 10.785 10.785h188.954v-10.785c0-5.94-4.845-10.785-10.785-10.785h-178.169zM494.179 382.988v10.785h72.564l-29.189-114.522c-4.607-5.181-11.638-14.493-17.735-27.457l-47.92 88.949c13.432 9.269 22.281 24.731 22.281 42.246zM565.138 249.117l67.43 1.175c12.23-7.156 35.412-22.543 47.059-37.363l-1.246-7.173h-128.536c0.384 20.783 9.465 35.927 15.293 43.36zM390.383 480.686v23.062h248.185c15.841 0 28.857-12.316 29.992-27.867l-46.677-185.218-39.747-0.686 30.348 119.070c1.558 6.059 0.211 12.501-3.63 17.438-3.841 4.95-9.755 7.841-16.012 7.841h-156.111c-25.556 0-46.347 20.791-46.347 46.361zM181.799 491.761v134.105h67.284v-134.105h-67.284zM225.493 688.504c7.538-3.292 7.313-14.544 6.236-22.085h-39.82c10.537 13.741 24.085 26.243 33.584 22.085zM97.553 688.517c9.401 4.017 22.927-8.419 33.487-22.098h-39.755c-1.096 7.534-1.337 18.773 6.269 22.098zM73.95 625.867h67.297v-134.105h-67.297v134.105zM121.063 451.209h128.020v-19.565c-20.654-6.648-35.747-25.824-35.747-48.656 0-14.991 6.575-28.376 16.86-37.772l-11.235-16.366-97.897 122.358zM171.833 188.569l98.227 143.082h160.673l83.934-155.794c3.538-6.561 10.389-10.653 17.847-10.653h162.922c9.861 0 18.283 7.089 19.973 16.804l51.456 296.17h48.169l29.799-205.32c-59.398-13.199-105.272-62.34-113.735-123.364h-249.043c-9.931 71.599-71.375 126.951-145.662 126.951s-135.744-55.352-145.676-126.951h-18.884v39.074zM231.756 149.495c9.512 49.141 52.758 86.398 104.636 86.398s95.112-37.257 104.623-86.398h-209.261zM336.392 62.754c-29.53 0-54.333 19.492-62.966 46.189h125.931c-8.633-26.697-33.436-46.189-62.966-46.189zM876.76 62.754c-29.53 0-54.333 19.492-62.966 46.189h125.931c-8.633-26.697-33.436-46.189-62.966-46.189z" />
<glyph unicode="&#xe932;" glyph-name="document" d="M299.436 688.603h262.841c33.238 0 60.286 27.048 60.286 60.302v58.889c0 33.238-27.048 60.286-60.286 60.286h-38.825c-0.365 50.746-41.762 91.921-92.603 91.921s-92.238-41.175-92.603-91.921h-38.81c-33.238 0-60.286-27.048-60.286-60.286v-58.889c0-33.254 27.048-60.302 60.286-60.302zM287.913 807.794c0 6.349 5.175 11.524 11.524 11.524h63.19c13.46 0 24.381 10.921 24.381 24.381v23.698c0 24.175 19.667 43.841 43.841 43.841s43.841-19.667 43.841-43.841v-23.698c0-13.46 10.921-24.381 24.381-24.381h63.206c6.349 0 11.524-5.175 11.524-11.524v-58.889c0-6.365-5.175-11.54-11.524-11.54h-262.841c-6.349 0-11.524 5.175-11.524 11.54v58.889zM249.167 496.143h349.016c13.46 0 24.381 10.921 24.381 24.381s-10.921 24.381-24.381 24.381h-349.016c-13.46 0-24.381-10.921-24.381-24.381s10.921-24.381 24.381-24.381zM249.167 404.222h349.016c13.46 0 24.381 10.921 24.381 24.381s-10.921 24.381-24.381 24.381h-349.016c-13.46 0-24.381-10.921-24.381-24.381s10.921-24.381 24.381-24.381zM249.167 312.302h202.508c13.46 0 24.381 10.921 24.381 24.381s-10.921 24.381-24.381 24.381h-202.508c-13.46 0-24.381-10.921-24.381-24.381s10.921-24.381 24.381-24.381zM680.056 378.302c-121.952 0-221.159-99.206-221.159-221.159 0-121.937 99.206-221.143 221.159-221.143 121.937 0 221.143 99.206 221.143 221.143 0 121.952-99.206 221.159-221.143 221.159zM680.056-15.238c-95.064 0-172.397 77.333-172.397 172.381 0 95.064 77.333 172.397 172.397 172.397 95.048 0 172.381-77.333 172.381-172.397 0-95.048-77.333-172.381-172.381-172.381zM798.691 228.841c-34.714-2.857-99.365-27.54-135.857-97.556-31.175 38.254-73.349 55.381-75.778 56.349-12.444 4.873-26.571-1.143-31.571-13.619-5-12.46 1.063-26.635 13.524-31.683 0.587-0.238 59.667-24.683 74.683-76.683 3.032-10.46 12.587-17.619 23.429-17.619 0.206 0 0.429 0 0.635 0.016 11.095 0.286 20.603 8.032 23.111 18.841 24.143 103.762 108.413 113.016 111.825 113.349 13.413 1.111 23.397 12.873 22.302 26.302-1.111 13.413-12.921 23.365-26.302 22.302zM444.5 96.794h-246.317c-14.683 0-26.619 11.937-26.619 26.603v586c0 14.683 11.937 26.619 26.619 26.619 13.46 0 24.381 10.921 24.381 24.381s-10.921 24.381-24.381 24.381c-41.571 0-75.381-33.81-75.381-75.381v-586c0-41.556 33.81-75.365 75.381-75.365h246.317c13.46 0 24.381 10.921 24.381 24.381s-10.921 24.381-24.381 24.381zM652.040 736.016c14.667 0 26.603-11.937 26.603-26.619v-302.333c0-13.46 10.921-24.381 24.381-24.381s24.381 10.921 24.381 24.381v302.333c0 41.571-33.81 75.381-75.365 75.381-13.46 0-24.381-10.921-24.381-24.381s10.921-24.381 24.381-24.381z" />
<glyph unicode="&#xe933;" glyph-name="pins" d="M809.054 688.747c-118.521 0-214.944-96.423-214.944-214.944 0-93.262 129.008-359.035 178.003-456.606h-270.248c-38.779 0-50.411 10.407-51.208 12.99-0.679 2.199 3.011 12.075 20.932 24.357 29.272 20.091 42.558 54.19 33.863 86.902-6.717 25.257-37.185 85.248-174.659 96.467-55.386 4.532-94.091 19.722-111.952 43.96-12.865 17.454-11.734 35.252-10.91 41.105 21.986 42.807 164.49 323.805 164.49 414.97 0 102.667-83.536 186.203-186.218 186.203-102.667 0-186.203-83.536-186.203-186.203 0-89.036 135.934-359.178 162.77-411.642-1.426-14.291-1.032-42.606 18.724-70.191 26.010-36.299 75.004-57.629 145.609-63.401 88.776-7.248 127.703-37.258 134.523-62.929 3.808-14.334-2.052-28.49-15.677-37.834-46.086-31.59-42.351-63.106-38.602-75.181 5.196-16.784 24.386-44.92 94.519-44.92h307.189c2.752 0 5.354 0.655 7.85 1.585 0.676 0.252 1.293 0.533 1.937 0.847 1.993 0.965 3.822 2.177 5.459 3.682 0.304 0.28 0.661 0.477 0.949 0.772 1.547 1.585 2.912 3.367 3.956 5.397 19.943 38.69 194.794 381.13 194.794 489.672 0 118.521-96.423 214.944-214.944 214.944zM186.202 878.803c77.676 0 140.87-63.194 140.87-140.855 0-60.729-88.57-251.922-140.87-357.334-52.3 105.427-140.855 296.62-140.855 357.334 0 77.661 63.194 140.855 140.855 140.855zM809.054 643.4c93.515 0 169.596-76.081 169.596-169.596 0-73.498-108.527-306.51-169.596-429.061-61.069 122.536-169.596 355.548-169.596 429.061 0 93.515 76.081 169.596 169.596 169.596zM947.533 472.268c0 76.347-62.117 138.464-138.479 138.464-76.347 0-138.464-62.117-138.464-138.464s62.117-138.464 138.464-138.464c76.362 0 138.479 62.117 138.479 138.464zM715.938 472.268c0 51.341 41.775 93.116 93.116 93.116 51.356 0 93.131-41.775 93.131-93.116s-41.775-93.116-93.131-93.116c-51.341 0-93.116 41.775-93.116 93.116zM307.366 736.634c0 66.811-54.352 121.163-121.163 121.163s-121.163-54.352-121.163-121.163 54.352-121.163 121.163-121.163 121.163 54.352 121.163 121.163zM110.387 736.634c0 41.805 34.011 75.816 75.816 75.816s75.816-34.011 75.816-75.816-34.011-75.816-75.816-75.816-75.816 34.011-75.816 75.816z" />
<glyph unicode="&#xe934;" glyph-name="star-empty" d="M229.193-42.661c-11.219 0-22.36 3.5-31.868 10.375-17.711 12.836-25.985 34.899-21.165 56.189l65.877 290.187-223.412 195.927c-16.422 14.336-22.696 37.040-15.954 57.814 6.742 20.735 25.087 35.415 46.806 37.423l295.601 26.837 116.87 273.499c8.617 20.094 28.243 33.071 50.048 33.071s41.431-12.977 50.048-33.024l116.87-273.546 295.554-26.837c21.766-1.961 40.11-16.688 46.853-37.423s0.508-43.478-15.914-57.814l-223.412-195.888 65.877-290.179c4.828-21.336-3.453-43.4-21.157-56.197-17.665-12.797-41.22-13.782-59.822-2.602l-254.897 152.324-254.897-152.41c-8.617-5.117-18.219-7.727-27.907-7.727zM511.998 183.095c9.688 0 19.282-2.602 27.907-7.719l240.561-143.879-62.173 273.89c-4.438 19.493 2.18 39.845 17.243 53.033l210.951 185.005-279.093 25.344c-20.094 1.836-37.376 14.469-45.228 32.985l-110.167 258.1-110.3-258.139c-7.766-18.391-25.048-31.024-45.095-32.86l-279.132-25.344 210.943-185.005c15.11-13.227 21.719-33.54 17.243-53.079l-62.127-273.882 240.561 143.832c8.617 5.117 18.219 7.719 27.907 7.719zM342.821 626.802s0-0.047-0.047-0.086zM681.088 626.927l0.047-0.086c0 0.047 0 0.047-0.047 0.086z" />
<glyph unicode="&#xe935;" glyph-name="quality" d="M627.82 543.12l-153.856-145.32-73.84 75.965c-8.186 8.428-21.665 8.619-30.084 0.433-8.428-8.194-8.619-21.665-0.433-30.093l88.561-90.912c8.228-8.278 21.523-8.561 30.093-0.634l169.228 159.617c4.11 3.876 6.51 9.228 6.669 14.871s-1.934 11.12-5.818 15.221c-8.236 8.561-21.815 8.936-30.518 0.85zM513.651 766.765c-175.838 0-318.816-142.978-318.816-318.816 0-175.847 142.978-318.825 318.816-318.825 175.847 0 318.825 142.978 318.825 318.825 0 175.838-142.978 318.816-318.825 318.816zM513.651 171.804c-152.364 0-276.136 123.989-276.136 276.145s123.772 276.136 276.136 276.136c152.514 0 276.145-123.63 276.145-276.136s-123.63-276.145-276.145-276.145zM952.404 565.318l7.044 126.548c0.492 8.494-4.126 16.472-11.737 20.273l-112.677 56.976-56.976 112.677c-3.876 7.544-11.804 12.137-20.273 11.737l-126.765-6.835-105.633 69.788c-7.119 4.693-16.347 4.693-23.474 0l-105.633-69.788-126.54 7.044c-8.503 0.5-16.472-4.118-20.273-11.737l-56.984-112.677-112.669-56.976c-7.552-3.868-12.137-11.795-11.737-20.273l7.036-126.548-69.78-105.633c-4.693-7.119-4.693-16.347 0-23.474l69.572-105.841-7.044-126.548c-0.492-8.494 4.118-16.472 11.737-20.273l112.677-56.976 56.976-112.677c3.868-7.552 11.795-12.137 20.273-11.737l126.548 7.044 105.633-69.78c7.077-4.843 16.397-4.843 23.474 0l105.633 69.78 126.548-7.044c8.494-0.492 16.463 4.126 20.273 11.737l56.976 112.677 112.677 56.976c7.544 3.876 12.137 11.795 11.737 20.273l-7.044 126.548 69.78 105.633c4.693 7.119 4.693 16.355 0 23.474zM912.709 348.075c-2.601-3.818-3.81-8.411-3.409-13.021l6.61-119.712-106.483-53.775c-4.060-2.034-7.352-5.335-9.386-9.395l-53.783-106.483-119.712 6.61c-4.585 0.167-9.111-1.017-13.021-3.409l-99.873-65.946-99.865 65.946c-3.468 2.342-7.552 3.609-11.737 3.626h-1.067l-119.721-6.619-53.775 106.492c-2.034 4.060-5.327 7.352-9.395 9.386l-106.7 53.567 6.619 119.712c0.167 4.585-1.025 9.111-3.418 13.021l-65.937 99.873 65.937 99.873c2.609 3.81 3.818 8.411 3.418 13.012l-6.619 119.721 106.492 53.775c4.060 2.034 7.352 5.327 9.386 9.386l53.775 106.492 119.721-6.619c4.576-0.158 9.103 1.025 13.021 3.418l99.865 65.937 99.873-65.937c3.818-2.609 8.419-3.818 13.021-3.418l119.712 6.619 53.783-106.492c2.034-4.060 5.327-7.352 9.386-9.386l106.483-53.775-6.61-119.721c-0.167-4.576 1.025-9.103 3.409-13.012l65.946-99.873z" />
<glyph unicode="&#xe936;" glyph-name="tick" d="M20.95 362.866l270.012-270.647c27.932-27.932 73.217-27.932 101.36 0l610.701 610.067c28.144 28.144 27.932 73.64-0.423 101.572l-0.212 0.212c-27.932 27.72-73.005 27.509-100.937-0.423l-559.916-559.069-219.226 219.438c-27.932 27.932-73.428 27.932-101.36-0.212v0c-27.932-27.932-27.932-73.217 0-100.937z" />
<glyph unicode="&#xe937;" glyph-name="double-arrow" d="M701.815 480.477v0zM646.064 447.956c0.557 11.737-3.284 23.559-12.249 32.521l-512.426 466.976c-16.815 16.73-44.086 16.73-60.901 0s-16.815-43.872 0-60.602l481.529-438.852-481.486-438.851c-16.815-16.73-16.815-43.874 0-60.602s44.086-16.729 60.9 0l512.427 466.976c8.962 8.918 12.805 20.742 12.206 32.434zM963.814 480.477v0zM976.063 447.956c0.557 11.737-3.284 23.559-12.249 32.521l-512.426 466.976c-16.815 16.73-44.086 16.73-60.901 0s-16.815-43.872 0-60.602l481.529-438.852-481.486-438.851c-16.815-16.73-16.815-43.874 0-60.602s44.086-16.729 60.9 0l512.427 466.976c8.962 8.918 12.805 20.742 12.206 32.434z" />
<glyph unicode="&#xe938;" glyph-name="watch3" d="M260.9 761.8c-26.4 0-51.1-10.2-69.8-28.9s-28.9-43.4-28.9-69.8v-430.5c0-26.4 10.2-51.1 28.9-69.8s43.4-28.9 69.8-28.9h394.6c26.4 0 51.1 10.2 69.8 28.9s28.9 43.4 28.9 69.8v430.5c0 26.4-10.2 51.1-28.9 69.8s-43.4 28.9-69.8 28.9h-394.6zM808 501.7v-107.6c29.8 0 53.8 24 53.8 53.8s-24.1 53.8-53.8 53.8v0zM565.8 960h-215.2c-39.6 0-71.7-32.1-71.7-71.7v-72.6h358.7v72.6c0 39.6-32.1 71.7-71.8 71.7v0 0zM278.8 7.7c0-39.6 32.1-71.7 71.7-71.7h215.2c39.6 0 71.7 32.1 71.7 71.7v72.6h-358.6v-72.6z" />
<glyph unicode="&#xe939;" glyph-name="setting2" d="M967.808 559.189l-80.213 10.197c-6.613 20.352-14.763 39.979-24.277 58.624l49.536 63.787c20.053 25.813 17.707 62.251-5.205 84.437l-67.2 67.2c-22.4 23.125-58.837 25.429-84.693 5.419l-63.701-49.536c-18.645 9.515-38.272 17.664-58.667 24.277l-10.197 80.085c-3.84 32.128-31.104 56.32-63.403 56.32h-95.573c-32.299 0-59.563-24.192-63.403-56.192l-10.197-80.213c-20.395-6.613-40.021-14.72-58.667-24.277l-63.744 49.536c-25.771 20.011-62.208 17.707-84.437-5.205l-67.2-67.157c-23.125-22.443-25.472-58.88-5.419-84.736l49.536-63.744c-9.557-18.645-17.664-38.272-24.277-58.624l-80.085-10.197c-32.128-3.84-56.32-31.104-56.32-63.403v-95.573c0-32.299 24.192-59.563 56.192-63.403l80.213-10.197c6.613-20.352 14.763-39.979 24.277-58.624l-49.536-63.787c-20.053-25.813-17.707-62.251 5.205-84.437l67.2-67.2c22.443-23.083 58.837-25.387 84.693-5.376l63.744 49.536c18.645-9.557 38.272-17.707 58.624-24.277l10.197-80.043c3.84-32.213 31.104-56.405 63.403-56.405h95.573c32.299 0 59.563 24.192 63.403 56.192l10.197 80.213c20.352 6.613 39.979 14.763 58.624 24.277l63.787-49.536c25.813-20.053 62.251-17.707 84.437 5.205l67.2 67.2c23.125 22.443 25.472 58.837 5.419 84.693l-49.536 63.744c9.557 18.645 17.707 38.272 24.277 58.624l80.043 10.197c32.128 3.84 56.32 31.104 56.32 63.403v95.573c0.043 32.299-24.149 59.563-56.149 63.403zM512 234.667c-117.632 0-213.333 95.701-213.333 213.333s95.701 213.333 213.333 213.333 213.333-95.701 213.333-213.333-95.701-213.333-213.333-213.333z" />
<glyph unicode="&#xe93a;" glyph-name="level" d="M235 490.6h-213.2c-11.8 0-21.4-9.6-21.4-21.4v-512c0-11.8 9.6-21.4 21.4-21.4h213.4c11.8 0 21.4 9.6 21.4 21.4v512c-0.2 12-9.6 21.4-21.6 21.4zM1002.2 960h-213.2c-11.8 0-21.4-9.6-21.4-21.4v-981.4c0-11.8 9.6-21.4 21.4-21.4h213.4c11.8 0 21.4 9.6 21.4 21.4v981.4c-0.2 11.8-9.8 21.4-21.6 21.4zM618.6 746.6h-213.2c-11.8 0-21.4-9.6-21.4-21.4v-768c0-11.8 9.6-21.4 21.4-21.4h213.4c11.8 0 21.4 9.6 21.4 21.4v768c-0.2 12-9.8 21.4-21.6 21.4z" />
</font>
</defs>
</svg>
