<svg width="40" height="37" viewBox="0 0 40 37" fill="none" xmlns="http://www.w3.org/2000/svg">
<path d="M31.7432 1.00001C31.9727 0.999962 32.2597 0.999444 32.5332 1.03516C32.8249 1.07328 33.1735 1.16036 33.4971 1.38379C34.1969 1.86731 34.4102 2.71012 34.4102 3.69239V18.9482H32.6152V3.69239C32.6152 3.30183 32.5703 3.0786 32.5273 2.95899C32.5072 2.90306 32.49 2.87605 32.4834 2.86719L32.4766 2.86036C32.4729 2.858 32.4311 2.83257 32.2998 2.81544C32.1541 2.79645 31.9796 2.79493 31.7178 2.79493H28.1279C27.7034 2.79493 27.4365 2.79572 27.248 2.81153C27.2322 2.99998 27.2305 3.26735 27.2305 3.69239V32.4102C27.2305 33.446 26.9713 34.3881 26.2949 35.0645C25.6186 35.7408 24.6764 36 23.6406 36H14.667C13.6313 36 12.6891 35.7407 12.0127 35.0645C11.3363 34.3881 11.0771 33.446 11.0771 32.4102V27.0264L12.8721 27.0254V32.4102C12.8721 33.1693 13.0611 33.5738 13.2822 33.7949C13.5033 34.0159 13.9081 34.2051 14.667 34.2051H23.6406C24.3996 34.2051 24.8043 34.0159 25.0254 33.7949C25.2464 33.5738 25.4355 33.1693 25.4355 32.4102V3.64649C25.4355 3.23723 25.4361 2.85819 25.4697 2.55567C25.5038 2.24854 25.5884 1.82188 25.9229 1.48731C26.2574 1.15278 26.684 1.06735 26.9912 1.03321C27.2938 0.999582 27.6736 0.999962 28.083 1.00001H31.7432ZM36.2051 18.9492C37.1962 18.9492 37.9998 19.7521 38 20.7432V26.1279C38 27.1192 37.1964 27.9229 36.2051 27.9229H30.8203C29.8292 27.9228 29.0254 27.1192 29.0254 26.1279V20.7432C29.0256 19.7521 29.8293 18.9493 30.8203 18.9492H36.2051ZM9 1.89747V9.07715H15V1.89747H17V9.07715H19.1543C20.1454 9.07742 20.9482 9.88095 20.9482 10.8721V25.2305C20.9482 26.2216 20.1454 27.0251 19.1543 27.0254H4.79492C3.80364 27.0254 3 26.2218 3 25.2305V10.8721C3 9.88079 3.80364 9.07715 4.79492 9.07715H7V1.89747H9ZM30.8203 26.1279H36.2051V20.7432H30.8203V26.1279ZM4.79492 10.8721V25.2305H19.1543V10.8721H4.79492ZM12.1094 13.0576C12.389 12.6486 12.9473 12.5438 13.3564 12.8232C13.7657 13.1029 13.8705 13.6611 13.5908 14.0703L13.5576 14.1191L13.4629 14.2598C13.3807 14.3811 13.2641 14.5552 13.125 14.7637C12.8466 15.1811 12.4806 15.7353 12.1299 16.2881C11.939 16.5889 11.7559 16.885 11.5947 17.1543H13.7266C13.9477 17.1544 14.2362 17.2356 14.4482 17.4912C14.63 17.7104 14.6596 17.9457 14.665 18.0576C14.6755 18.2717 14.6149 18.458 14.5889 18.5342C14.5216 18.731 14.407 18.9607 14.291 19.1768C14.0489 19.6277 13.6918 20.2113 13.334 20.7754C12.9732 21.344 12.6 21.9112 12.3174 22.335C12.1758 22.5472 12.0566 22.7247 11.9727 22.8486L11.875 22.9932L11.8389 23.0449C11.5592 23.4539 11.0009 23.5589 10.5918 23.2793C10.1827 22.9996 10.0778 22.4414 10.3574 22.0322L10.3906 21.9834L10.4854 21.8428C10.5675 21.7214 10.6851 21.5482 10.8242 21.3398C11.1027 20.9223 11.4676 20.3673 11.8184 19.8145C12.0093 19.5135 12.1933 19.2176 12.3545 18.9482H10.2227C10.0015 18.9482 9.71315 18.867 9.50098 18.6113C9.31904 18.3921 9.28866 18.1568 9.2832 18.0449C9.2727 17.8306 9.33436 17.6445 9.36035 17.5684C9.42762 17.3717 9.54124 17.1419 9.65723 16.9258C9.89932 16.4749 10.2564 15.8911 10.6143 15.3272C10.9751 14.7583 11.3492 14.1913 11.6318 13.7676C11.7734 13.5554 11.8917 13.378 11.9756 13.2539L12.0742 13.1094L12.1094 13.0576Z" fill="#3756A6" stroke="white" stroke-width="0.5"/>
</svg>
