<svg width="199" height="30" viewBox="0 0 199 30" fill="none" xmlns="http://www.w3.org/2000/svg">
<g clip-path="url(#clip0_6_58)">
<path d="M56.3486 2.69006L53.0945 10.0877L60.7262 27.383C61.3974 28.8889 63.1485 29.576 64.6515 28.9035C66.1545 28.231 66.8403 26.4766 66.1691 24.9708L56.3486 2.69006ZM48.6294 0L37.5977 25C36.9265 26.5058 37.6123 28.2749 39.1153 28.9327C40.5162 29.5468 42.1213 29.0058 42.8801 27.7193L55.1228 0H48.6294ZM76.3543 0H82.3225V21.8129H76.3543V0ZM76.3543 30H96.4476C98.0965 30 99.4244 28.6696 99.4244 27.0175C99.4244 25.3655 98.0965 24.0351 96.4476 24.0351H76.3543V30Z" fill="white"/>
<path d="M22.1885 0H28.1566V12.4708H22.1885V0ZM0.285767 0H6.25393V12.4708H0.285767V0ZM0.285767 14.6784V26.886C0.285767 28.538 1.61365 29.8684 3.26255 29.8684C4.91146 29.8684 6.23934 28.538 6.23934 26.886V20.6579H22.1739V26.886C22.1739 28.538 23.5018 29.8684 25.1507 29.8684C26.7996 29.8684 28.1275 28.538 28.1275 26.886V14.6784H0.285767Z" fill="#EAAB4D"/>
<path d="M109.96 27.0175C109.96 28.6696 111.288 30 112.937 30C114.586 30 115.913 28.6696 115.913 27.0175V8.18713H109.945V27.0175H109.96ZM98.5197 0H127.368V5.97953H98.5197V0ZM157.37 6.09649C159.018 6.09649 160.346 4.76608 160.346 3.11403C160.346 1.46199 159.018 0.131579 157.37 0.131579H136.138V30.0146H157.37C159.018 30.0146 160.346 28.6842 160.346 27.0322C160.346 25.3801 159.018 24.0497 157.37 24.0497H142.092V6.09649H157.37Z" fill="white"/>
<path d="M157.37 17.9825C159.018 17.9825 160.346 16.652 160.346 15C160.346 13.348 159.018 12.0175 157.37 12.0175H144.295V17.9825H157.37ZM198.286 2.98246C198.286 1.33041 196.958 0 195.309 0C193.66 0 192.332 1.33041 192.332 2.98246V17.4415L198.3 26.1257V2.98246H198.286ZM170.429 0L191.019 30H198.257L177.667 0H170.429ZM170.415 27.0175C170.415 28.6696 171.743 30 173.392 30C175.041 30 176.368 28.6696 176.368 27.0175V12.5731L170.4 3.88889V27.0175H170.415Z" fill="white"/>
</g>
<defs>
<clipPath id="clip0_6_58">
<rect width="198" height="30" fill="white" transform="translate(0.285767)"/>
</clipPath>
</defs>
</svg>
