<svg width="50" height="50" viewBox="0 0 50 50" fill="none" xmlns="http://www.w3.org/2000/svg">
<g clip-path="url(#clip0_6_35)">
<mask id="mask0_6_35" style="mask-type:luminance" maskUnits="userSpaceOnUse" x="-186" y="-52" width="282" height="199">
<path d="M-185.305 -51.5457H95.3248V146.881H-185.305V-51.5457Z" fill="white"/>
</mask>
<g mask="url(#mask0_6_35)">
<path fill-rule="evenodd" clip-rule="evenodd" d="M48.0957 49.9964H1.89354C0.845215 49.9964 -0.00453186 49.1466 -0.00453186 48.0982V1.89281C-0.00453186 0.844414 0.845215 -0.00490952 1.89354 -0.00490952H48.0957C49.1441 -0.00490952 49.9938 0.844414 49.9938 1.89281V48.0982C49.9938 49.1466 49.1441 49.9964 48.0957 49.9964Z" fill="#FF6700"/>
<path d="M39.201 15.7215H35.2675C35.0991 15.7215 34.9628 15.8555 34.9628 16.0205V33.9686C34.9628 34.1323 35.0991 34.2662 35.2675 34.2662H39.201C39.368 34.2662 39.5063 34.1323 39.5063 33.9686V16.0205C39.5063 15.8555 39.368 15.7215 39.201 15.7215Z" fill="white"/>
<path d="M25.7705 15.7215H10.7873C10.6189 15.7215 10.4834 15.8555 10.4834 16.0205V33.9686C10.4834 34.1323 10.6189 34.2662 10.7873 34.2662H14.7217C14.8892 34.2662 15.0279 34.1323 15.0279 33.9686V19.882C15.0279 19.7193 15.1633 19.5844 15.3317 19.5844H23.8068C26.1901 19.5844 26.8666 21.4099 26.8666 22.5875V33.9686C26.8666 34.1323 27.0035 34.2662 27.1719 34.2662H31.1039C31.2714 34.2662 31.4087 34.1323 31.4087 33.9686V21.2362C31.4087 20.1859 31.2824 18.6757 29.9274 17.3465C28.5097 15.9588 27.2164 15.7215 25.7705 15.7215Z" fill="white"/>
<path d="M23.0145 22.8703H18.8839C18.7155 22.8703 18.5772 23.0042 18.5772 23.1684V33.97C18.5772 34.1332 18.7155 34.2672 18.8839 34.2672H23.0145C23.1815 34.2672 23.3183 34.1332 23.3183 33.97V23.1684C23.3183 23.0042 23.1815 22.8703 23.0145 22.8703Z" fill="white"/>
</g>
</g>
<defs>
<clipPath id="clip0_6_35">
<rect width="50" height="50" fill="white"/>
</clipPath>
</defs>
</svg>
