<svg width="40" height="35" viewBox="0 0 40 35" fill="none" xmlns="http://www.w3.org/2000/svg">
<path d="M7.43148 24.8857C9.87857 24.8859 11.8619 26.9266 11.8619 29.4433C11.8614 31.9597 9.87829 33.9998 7.43148 34C4.98465 33.9999 3.00059 31.9597 3.00015 29.4433C3.00015 26.9266 4.98437 24.8859 7.43148 24.8857ZM29.2159 2.0912C29.5892 1.96483 29.9686 1.98127 30.3161 2.07057C30.8223 2.20077 31.1285 2.72334 31.0006 3.2374C30.8723 3.75162 30.3578 4.06362 29.8514 3.93338L29.8486 3.93244C29.7858 4.05576 29.695 4.33674 29.6593 4.87322C29.5794 6.07402 29.79 7.93142 30.1978 10.2253C30.7884 13.5465 31.7463 17.5532 32.6486 21.4078C33.2191 21.3433 33.8176 21.3112 34.4407 21.3111C34.9627 21.3114 35.3863 21.7416 35.3866 22.2716C35.3866 22.8019 34.9629 23.2319 34.4407 23.2321C33.9594 23.2321 33.508 23.2528 33.0865 23.2921C33.2107 23.8305 33.3295 24.3642 33.4477 24.8886C33.4879 24.8874 33.5282 24.8858 33.5687 24.8857C36.0159 24.8857 38 26.9265 38 29.4433C37.9996 31.9598 36.0156 34 33.5687 34C31.122 33.9997 29.1387 31.9596 29.1383 29.4433C29.1383 27.649 30.1466 26.0963 31.6121 25.3529C31.4864 24.795 31.3581 24.2236 31.2241 23.6439C30.3853 23.9031 29.7196 24.2813 29.2029 24.7685C28.1624 25.7498 27.5448 27.3465 27.5448 29.8908C27.5447 29.9677 27.5339 30.0423 27.517 30.114C27.534 30.186 27.5447 30.2609 27.5448 30.3382C27.5448 30.8686 27.1212 31.2986 26.5988 31.2986H14.4013C13.879 31.2985 13.4554 30.8685 13.4554 30.3382C13.4554 30.2852 13.4602 30.2331 13.4683 30.1825C13.4499 30.1235 13.4366 30.0615 13.4295 29.9977C13.0312 26.3843 11.7325 24.6073 10.2019 23.7958C8.61141 22.9529 6.49977 23.0001 4.19828 23.6458C3.69478 23.7869 3.17347 23.4873 3.03433 22.976C2.89541 22.4649 3.19064 21.9356 3.6939 21.7942C6.18382 21.0956 8.86439 20.9194 11.0776 22.0925C11.2965 22.2085 11.5086 22.3371 11.7132 22.477V13.3731H10.0448C9.52255 13.3729 9.09889 12.943 9.09889 12.4126C9.09917 11.8825 9.52272 11.4523 10.0448 11.4521H16.5796C17.1018 11.4522 17.5253 11.8825 17.5255 12.4126C17.5255 12.943 17.1019 13.373 16.5796 13.3731H13.605V24.4346C14.4218 25.6851 14.989 27.3209 15.2604 29.3777H25.6612C25.7411 26.7895 26.4383 24.7533 27.9152 23.3606C28.7056 22.6152 29.6729 22.0987 30.789 21.7707C29.8929 17.9436 28.928 13.8934 28.3364 10.5667C27.9276 8.26763 27.6749 6.20359 27.772 4.74378C27.8191 4.03671 27.9555 3.30097 28.3383 2.76091C28.5458 2.46813 28.8359 2.21991 29.2159 2.0912ZM7.43148 26.8067C6.05069 26.8068 4.89203 27.9655 4.89203 29.4433C4.89247 30.9207 6.05096 32.0789 7.43148 32.079C8.81198 32.0788 9.96956 30.9207 9.97 29.4433C9.97 27.9656 8.81224 26.8069 7.43148 26.8067ZM33.5687 26.8067C32.188 26.807 31.0301 27.9657 31.0301 29.4433C31.0306 30.9206 32.1883 32.0787 33.5687 32.079C34.9493 32.079 36.1077 30.9208 36.1081 29.4433C36.1081 27.9655 34.9496 26.8067 33.5687 26.8067Z" fill="#3756A6" stroke="white" stroke-width="0.5"/>
</svg>
