<svg width="41" height="35" viewBox="0 0 41 35" fill="none" xmlns="http://www.w3.org/2000/svg">
<path fill-rule="evenodd" clip-rule="evenodd" d="M31.9414 8.15856C31.9414 9.31848 31.0011 10.2586 29.8414 10.2586C28.6818 10.2586 27.7414 9.31848 27.7414 8.15856C27.7414 6.99863 28.6818 6.05855 29.8414 6.05855C31.0014 6.05855 31.9414 6.99863 31.9414 8.15856ZM20.5 23.3332C17.2784 23.3332 14.6668 20.7216 14.6668 17.5C14.6668 14.2784 17.2784 11.6668 20.5 11.6668C23.7216 11.6668 26.3332 14.2784 26.3332 17.5C26.3332 20.7216 23.7216 23.3332 20.5 23.3332ZM20.5 8.51348C15.5368 8.51348 11.5135 12.5368 11.5135 17.5C11.5135 22.4632 15.5368 26.4865 20.5 26.4865C25.4632 26.4865 29.4865 22.4632 29.4865 17.5C29.4865 12.5368 25.4632 8.51348 20.5 8.51348ZM20.5 3.15328C25.1728 3.15328 25.7262 3.17105 27.5714 3.25527C29.2776 3.3332 30.2043 3.61812 30.8209 3.85793C31.6377 4.17539 32.2206 4.55465 32.8331 5.16715C33.4456 5.77938 33.8249 6.36234 34.1423 7.17938C34.3819 7.79598 34.6671 8.72266 34.745 10.4289C34.8292 12.2743 34.847 12.8278 34.847 17.5005C34.847 22.1733 34.8292 22.7268 34.745 24.5719C34.6671 26.2782 34.3821 27.2048 34.1423 27.8214C33.8249 28.6382 33.4456 29.2212 32.8331 29.8337C32.2209 30.4462 31.6379 30.8254 30.8209 31.1429C30.2043 31.3824 29.2776 31.6676 27.5714 31.7455C25.7262 31.8298 25.1728 31.8475 20.5 31.8475C15.827 31.8475 15.2735 31.8298 13.4284 31.7455C11.7221 31.6676 10.7954 31.3827 10.1788 31.1429C9.36207 30.8254 8.7791 30.4462 8.1666 29.8337C7.55438 29.2214 7.17484 28.6385 6.85738 27.8214C6.61785 27.2048 6.33266 26.2782 6.25473 24.5719C6.17051 22.7265 6.15273 22.173 6.15273 17.5005C6.15273 12.8278 6.17051 12.2743 6.25473 10.4289C6.33266 8.72266 6.61758 7.79598 6.85738 7.17938C7.17484 6.36262 7.5541 5.77965 8.1666 5.16715C8.77883 4.55465 9.3618 4.17539 10.1788 3.85793C10.7954 3.6184 11.7221 3.3332 13.4284 3.25527C15.2738 3.17105 15.8272 3.15328 20.5 3.15328ZM20.5 0C15.7474 0 15.1513 0.0202344 13.2848 0.105273C11.4221 0.190312 10.1498 0.486172 9.03695 0.91875C7.88605 1.36582 6.91016 1.96437 5.93727 2.93727C4.96437 3.91016 4.36582 4.88605 3.91875 6.03695C3.48617 7.15012 3.19031 8.42215 3.10527 10.2848C3.02023 12.1513 3 12.7474 3 17.5C3 22.2526 3.02023 22.8487 3.10527 24.7152C3.19031 26.5779 3.48617 27.8499 3.91875 28.963C4.36582 30.1139 4.96437 31.0898 5.93727 32.0627C6.91016 33.0356 7.88605 33.6339 9.03695 34.0812C10.1501 34.5138 11.4221 34.8097 13.2848 34.8947C15.1513 34.9798 15.7474 35 20.5 35C25.2526 35 25.8487 34.9798 27.7152 34.8947C29.5779 34.8097 30.8499 34.5138 31.963 34.0812C33.1139 33.6339 34.0898 33.0356 35.0627 32.0627C36.0356 31.0898 36.6339 30.1139 37.0812 28.963C37.5138 27.8499 37.8097 26.5779 37.8947 24.7152C37.9798 22.8487 38 22.2526 38 17.5C38 12.7474 37.9798 12.1513 37.8947 10.2848C37.8097 8.42215 37.5138 7.15012 37.0812 6.03695C36.6339 4.88605 36.0356 3.91016 35.0627 2.93727C34.0898 1.96437 33.1139 1.36609 31.963 0.91875C30.8499 0.486172 29.5779 0.190312 27.7152 0.105273C25.8487 0.0202344 25.2526 0 20.5 0Z" fill="url(#paint0_radial_147_1669)"/>
<defs>
<radialGradient id="paint0_radial_147_1669" cx="0" cy="0" r="1" gradientUnits="userSpaceOnUse" gradientTransform="translate(8.22569 35.1215) scale(44.7212)">
<stop stop-color="#FFB140"/>
<stop offset="0.2559" stop-color="#FF5445"/>
<stop offset="0.599" stop-color="#FC2B82"/>
<stop offset="1" stop-color="#8E40B7"/>
</radialGradient>
</defs>
</svg>
