<svg width="36" height="35" viewBox="0 0 36 35" fill="none" xmlns="http://www.w3.org/2000/svg">
<path fill-rule="evenodd" clip-rule="evenodd" d="M18.376 34.9001C14.9412 34.9001 13.345 34.3965 10.5704 32.3821C8.8154 34.6483 3.25787 36.4193 3.01551 33.3893C3.01551 31.1147 2.51408 29.1926 1.94579 27.0942C1.26886 24.509 0.5 21.63 0.5 17.4585C0.5 7.49539 8.6399 0 18.2841 0C27.9366 0 35.4999 7.8647 35.4999 17.5508C35.5155 22.1307 33.7211 26.5298 30.5107 29.7825C27.3003 33.0352 22.9361 34.8757 18.376 34.9001ZM18.5181 8.61172C13.8214 8.36831 10.1609 11.6334 9.35026 16.7534C8.68169 20.9921 9.86841 26.1541 10.8796 26.4227C11.3643 26.5402 12.5845 25.5498 13.345 24.786C14.6025 25.6585 16.0669 26.1825 17.5904 26.3052C19.9299 26.4182 22.22 25.6049 23.9687 24.0401C25.7174 22.4753 26.7851 20.2839 26.9421 17.9369C27.0336 15.585 26.2021 13.2911 24.6267 11.5487C23.0512 9.80633 20.8577 8.7547 18.5181 8.62011V8.61172Z" fill="url(#paint0_linear_151_2269)"/>
<defs>
<linearGradient id="paint0_linear_151_2269" x1="0.433153" y1="33.742" x2="37.7186" y2="9.54871" gradientUnits="userSpaceOnUse">
<stop stop-color="#49C7FF"/>
<stop offset="0.33" stop-color="#4E8BFF"/>
<stop offset="0.66" stop-color="#7A50FF"/>
<stop offset="1" stop-color="#BD3CFF"/>
</linearGradient>
</defs>
</svg>
