<svg width="74" height="30" viewBox="0 0 74 30" fill="none" xmlns="http://www.w3.org/2000/svg">
<path d="M0.25 5.00325H7.12389C7.74879 5.00325 9.62348 4.79496 10.4567 7.71115C11.0816 9.58584 11.9148 12.502 13.1646 16.8763H13.5812C14.831 12.2937 15.8725 9.16924 16.2891 7.71115C17.1223 4.79496 19.2053 5.00325 20.0385 5.00325H26.4958V25H19.8302V13.1269H19.4136L15.8725 25H10.8733L7.33219 13.1269H6.70729V25H0.25M29.2037 5.00325H35.8692V16.8763H36.4941L40.8684 7.08625C41.7016 5.21155 43.5763 5.00325 43.5763 5.00325H49.8253V25H43.1597V13.1269H42.7431L38.3688 22.917C37.5356 24.7917 35.4526 25 35.4526 25H29.2037M58.7822 18.9593V25H52.5332V14.585H72.9466C72.1134 17.0846 69.1972 18.9593 65.8644 18.9593" fill="#0F754E"/>
<path d="M73.3631 13.3349C74.1963 9.58552 71.6967 5.00293 66.281 5.00293H52.1166C52.5332 9.37722 56.2826 13.3349 60.2403 13.3349" fill="url(#paint0_linear_185_638)"/>
<defs>
<linearGradient id="paint0_linear_185_638" x1="70.8635" y1="2.29504" x2="54.1996" y2="2.29504" gradientUnits="userSpaceOnUse">
<stop stop-color="#1F5CD7"/>
<stop offset="1" stop-color="#02AEFF"/>
</linearGradient>
</defs>
</svg>
