<svg width="42" height="35" viewBox="0 0 42 35" fill="none" xmlns="http://www.w3.org/2000/svg">
<path d="M7 18C10.1453 18 12.7254 20.4202 12.9795 23.5H24.5C25.0523 23.5 25.5 23.9477 25.5 24.5C25.5 25.0523 25.0523 25.5 24.5 25.5H12.8105C12.1444 28.0877 9.79576 30 7 30C3.68629 30 1 27.3137 1 24C1 20.6863 3.68629 18 7 18ZM35 18C38.3137 18 41 20.6863 41 24C41 27.3137 38.3137 30 35 30C31.6863 30 29 27.3137 29 24C29 20.6863 31.6863 18 35 18ZM7 20C4.79086 20 3 21.7909 3 24C3 26.2091 4.79086 28 7 28C9.2091 28 11 26.2091 11 24C11 21.7909 9.2091 20 7 20ZM35 20C32.7909 20 31 21.7909 31 24C31 26.2091 32.7909 28 35 28C37.2091 28 39 26.2091 39 24C39 21.7909 37.2091 20 35 20ZM34 14C34.5523 14 35 14.4477 35 15C35 15.5523 34.5523 16 34 16H30.4141L28.4434 17.9717L27.9902 21.1416C27.9119 21.6883 27.405 22.0683 26.8584 21.9902C26.3117 21.9119 25.9316 21.405 26.0098 20.8584L26.5576 17.0283L29.5859 14H34ZM30.5713 7.90625L40 12.8975V16C40 16.5523 39.5523 17 39 17C38.4477 17 38 16.5523 38 16V14.1025L30.6738 10.2236L25.4043 15.3174H13.1562L15.3574 18.9854C15.6415 19.4589 15.4881 20.0732 15.0146 20.3574C14.5411 20.6415 13.9268 20.4881 13.6426 20.0146L9.43359 13H3C2.44772 13 2 12.5523 2 12C2 11.4477 2.44772 11 3 11H10.5439L12.0439 13.3174H24.5957L28.9404 9.11719L27.8818 7H25.5C24.9477 7 24.5 6.5523 24.5 6C24.5 5.4477 24.9477 5 25.5 5H29.1182L30.5713 7.90625Z" fill="#3756A6" stroke="white" stroke-width="0.5"/>
</svg>
