<svg width="76" height="30" viewBox="0 0 76 30" fill="none" xmlns="http://www.w3.org/2000/svg">
<path d="M8.14747 14.9961L4.24749 17.2522L0.625 23.5467L15.3924 14.9961H8.14747Z" fill="#8F4794"/>
<path d="M19.2925 8.55078L15.3925 10.8069L11.77 17.1013L26.5375 8.55078H19.2925Z" fill="#E40646"/>
<path d="M15.3925 6.29448L11.77 0V12.8973V17.1011V29.9984L15.3925 23.7039V6.29448Z" fill="#F9B429"/>
<path d="M11.77 0L15.3925 6.29448L19.2925 8.55056H26.5375L11.77 0Z" fill="#EF8019"/>
<path d="M11.77 12.8989V30.0001L15.3925 23.7056V19.1934L11.77 12.8989Z" fill="#78B72A"/>
<path d="M19.2925 21.4478L15.3925 23.7038L11.77 29.9983L26.5375 21.4478H19.2925Z" fill="#00853F"/>
<path d="M0.625 6.4541V23.5477L4.24749 17.2608V12.7411L0.625 6.4541Z" fill="#5B57A2"/>
<path d="M11.77 12.899L11.7775 12.9065L0.625 6.4541L4.24749 12.7411L19.2924 21.4496H26.5374L11.77 12.899Z" fill="#0698D6"/>
<path d="M69.4823 17.8003H69.9473V18.5899H70.3823C70.5848 18.5899 70.7498 18.6125 70.8848 18.6651C71.0198 18.7178 71.1248 18.7855 71.1998 18.8682C71.2823 18.9509 71.3348 19.0487 71.3723 19.1615C71.4023 19.2743 71.4248 19.3871 71.4248 19.4999C71.4248 19.6202 71.4098 19.733 71.3723 19.8458C71.3348 19.9586 71.2748 20.0564 71.1923 20.1466C71.1098 20.2369 70.9973 20.3045 70.8548 20.3572C70.7123 20.4098 70.5398 20.4399 70.3373 20.4399H69.4898V17.8003H69.4823ZM69.9473 19.0261V19.9962H70.2848C70.5173 19.9962 70.6823 19.9586 70.7798 19.8759C70.8773 19.7932 70.9223 19.6728 70.9223 19.5149C70.9223 19.357 70.8773 19.2367 70.7798 19.1539C70.6823 19.0712 70.5173 19.0336 70.2923 19.0336H69.9473V19.0261ZM71.9198 17.8003H72.3848V20.4324H71.9198V17.8003Z" fill="#1D1346"/>
<path d="M69.4823 17.8003H69.9473V18.5899H70.3823C70.5848 18.5899 70.7498 18.6125 70.8848 18.6651C71.0198 18.7178 71.1248 18.7855 71.1998 18.8682C71.2823 18.9509 71.3348 19.0487 71.3723 19.1615C71.4023 19.2743 71.4248 19.3871 71.4248 19.4999C71.4248 19.6202 71.4098 19.733 71.3723 19.8458C71.3348 19.9586 71.2748 20.0564 71.1923 20.1466C71.1098 20.2369 70.9973 20.3045 70.8548 20.3572C70.7123 20.4098 70.5398 20.4399 70.3373 20.4399H69.4898V17.8003H69.4823ZM69.9473 19.0261V19.9962H70.2848C70.5173 19.9962 70.6823 19.9586 70.7798 19.8759C70.8773 19.7932 70.9223 19.6728 70.9223 19.5149C70.9223 19.357 70.8773 19.2367 70.7798 19.1539C70.6823 19.0712 70.5173 19.0336 70.2923 19.0336H69.9473V19.0261ZM71.9198 17.8003H72.3848V20.4324H71.9198V17.8003Z" fill="white"/>
<path d="M74.6272 19.0712L75.6246 20.4324H75.0547L74.2822 19.3645L73.5022 20.4324H72.9622L73.9522 19.0938L73.0147 17.8003H73.5847L74.2972 18.793L75.0247 17.8003H75.5646L74.6272 19.0712Z" fill="#1D1346"/>
<path d="M74.6272 19.0712L75.6246 20.4324H75.0547L74.2822 19.3645L73.5022 20.4324H72.9622L73.9522 19.0938L73.0147 17.8003H73.5847L74.2972 18.793L75.0247 17.8003H75.5646L74.6272 19.0712Z" fill="white"/>
<path d="M33.9693 20.0582C33.8568 20.2011 33.7068 20.3139 33.5343 20.3891C33.3543 20.4643 33.1668 20.5019 32.9643 20.5019C32.7543 20.5019 32.5668 20.4719 32.3943 20.4042C32.2218 20.3365 32.0718 20.2462 31.9518 20.1259C31.8243 20.0056 31.7343 19.8627 31.6593 19.6897C31.5918 19.5168 31.5543 19.3288 31.5543 19.1257C31.5543 18.9377 31.5843 18.7572 31.6518 18.5843C31.7193 18.4188 31.8093 18.2684 31.9293 18.1481C32.0493 18.0278 32.1918 17.93 32.3493 17.8548C32.5143 17.7796 32.6868 17.7495 32.8818 17.7495C33.0918 17.7495 33.2868 17.7796 33.4593 17.8322C33.6393 17.8849 33.7893 17.9751 33.9093 18.0954L33.6918 18.4639C33.5793 18.3662 33.4593 18.291 33.3318 18.2534C33.2043 18.2158 33.0768 18.1932 32.9343 18.1932C32.8143 18.1932 32.7018 18.2158 32.5968 18.2609C32.4843 18.306 32.3943 18.3662 32.3043 18.4489C32.2218 18.5316 32.1543 18.6294 32.1093 18.7422C32.0643 18.855 32.0343 18.9828 32.0343 19.1257C32.0343 19.2686 32.0568 19.3965 32.1093 19.5168C32.1618 19.6296 32.2293 19.7273 32.3118 19.8101C32.3943 19.8928 32.4993 19.953 32.6118 19.9981C32.7243 20.0432 32.8518 20.0658 32.9793 20.0658C33.1368 20.0658 33.2793 20.0357 33.4068 19.9755C33.5343 19.9154 33.6393 19.8326 33.7293 19.7273L33.9693 20.0582Z" fill="#1D1346"/>
<path d="M33.9693 20.0582C33.8568 20.2011 33.7068 20.3139 33.5343 20.3891C33.3543 20.4643 33.1668 20.5019 32.9643 20.5019C32.7543 20.5019 32.5668 20.4719 32.3943 20.4042C32.2218 20.3365 32.0718 20.2462 31.9518 20.1259C31.8243 20.0056 31.7343 19.8627 31.6593 19.6897C31.5918 19.5168 31.5543 19.3288 31.5543 19.1257C31.5543 18.9377 31.5843 18.7572 31.6518 18.5843C31.7193 18.4188 31.8093 18.2684 31.9293 18.1481C32.0493 18.0278 32.1918 17.93 32.3493 17.8548C32.5143 17.7796 32.6868 17.7495 32.8818 17.7495C33.0918 17.7495 33.2868 17.7796 33.4593 17.8322C33.6393 17.8849 33.7893 17.9751 33.9093 18.0954L33.6918 18.4639C33.5793 18.3662 33.4593 18.291 33.3318 18.2534C33.2043 18.2158 33.0768 18.1932 32.9343 18.1932C32.8143 18.1932 32.7018 18.2158 32.5968 18.2609C32.4843 18.306 32.3943 18.3662 32.3043 18.4489C32.2218 18.5316 32.1543 18.6294 32.1093 18.7422C32.0643 18.855 32.0343 18.9828 32.0343 19.1257C32.0343 19.2686 32.0568 19.3965 32.1093 19.5168C32.1618 19.6296 32.2293 19.7273 32.3118 19.8101C32.3943 19.8928 32.4993 19.953 32.6118 19.9981C32.7243 20.0432 32.8518 20.0658 32.9793 20.0658C33.1368 20.0658 33.2793 20.0357 33.4068 19.9755C33.5343 19.9154 33.6393 19.8326 33.7293 19.7273L33.9693 20.0582Z" fill="white"/>
<path d="M34.5774 20.4324V17.8003H35.0424V19.7631L36.5649 17.8003H37.0299V20.4324H36.5649V18.4696L35.0499 20.4324H34.5774Z" fill="#1D1346"/>
<path d="M34.5774 20.4324V17.8003H35.0424V19.7631L36.5649 17.8003H37.0299V20.4324H36.5649V18.4696L35.0499 20.4324H34.5774Z" fill="white"/>
<path d="M40.1197 20.0582C40.0072 20.2011 39.8572 20.3139 39.6847 20.3891C39.5047 20.4643 39.3172 20.5019 39.1147 20.5019C38.9047 20.5019 38.7172 20.4719 38.5447 20.4042C38.3722 20.3365 38.2222 20.2462 38.1022 20.1259C37.9822 20.0056 37.8847 19.8627 37.8097 19.6897C37.7422 19.5168 37.7047 19.3288 37.7047 19.1257C37.7047 18.9377 37.7347 18.7572 37.8022 18.5843C37.8697 18.4188 37.9597 18.2684 38.0797 18.1481C38.1997 18.0278 38.3422 17.93 38.4997 17.8548C38.6647 17.7796 38.8372 17.7495 39.0322 17.7495C39.2422 17.7495 39.4372 17.7796 39.6097 17.8322C39.7897 17.8849 39.9397 17.9751 40.0597 18.0954L39.8422 18.4639C39.7297 18.3662 39.6097 18.291 39.4822 18.2534C39.3547 18.2158 39.2272 18.1932 39.0847 18.1932C38.9647 18.1932 38.8522 18.2158 38.7472 18.2609C38.6347 18.306 38.5447 18.3662 38.4547 18.4489C38.3722 18.5316 38.3047 18.6294 38.2597 18.7422C38.2147 18.855 38.1847 18.9828 38.1847 19.1257C38.1847 19.2686 38.2072 19.3965 38.2597 19.5168C38.3122 19.6296 38.3797 19.7273 38.4622 19.8101C38.5447 19.8928 38.6497 19.953 38.7622 19.9981C38.8747 20.0432 39.0022 20.0658 39.1297 20.0658C39.2872 20.0658 39.4297 20.0357 39.5572 19.9755C39.6847 19.9154 39.7897 19.8326 39.8797 19.7273L40.1197 20.0582Z" fill="#1D1346"/>
<path d="M40.1197 20.0582C40.0072 20.2011 39.8572 20.3139 39.6847 20.3891C39.5047 20.4643 39.3172 20.5019 39.1147 20.5019C38.9047 20.5019 38.7172 20.4719 38.5447 20.4042C38.3722 20.3365 38.2222 20.2462 38.1022 20.1259C37.9822 20.0056 37.8847 19.8627 37.8097 19.6897C37.7422 19.5168 37.7047 19.3288 37.7047 19.1257C37.7047 18.9377 37.7347 18.7572 37.8022 18.5843C37.8697 18.4188 37.9597 18.2684 38.0797 18.1481C38.1997 18.0278 38.3422 17.93 38.4997 17.8548C38.6647 17.7796 38.8372 17.7495 39.0322 17.7495C39.2422 17.7495 39.4372 17.7796 39.6097 17.8322C39.7897 17.8849 39.9397 17.9751 40.0597 18.0954L39.8422 18.4639C39.7297 18.3662 39.6097 18.291 39.4822 18.2534C39.3547 18.2158 39.2272 18.1932 39.0847 18.1932C38.9647 18.1932 38.8522 18.2158 38.7472 18.2609C38.6347 18.306 38.5447 18.3662 38.4547 18.4489C38.3722 18.5316 38.3047 18.6294 38.2597 18.7422C38.2147 18.855 38.1847 18.9828 38.1847 19.1257C38.1847 19.2686 38.2072 19.3965 38.2597 19.5168C38.3122 19.6296 38.3797 19.7273 38.4622 19.8101C38.5447 19.8928 38.6497 19.953 38.7622 19.9981C38.8747 20.0432 39.0022 20.0658 39.1297 20.0658C39.2872 20.0658 39.4297 20.0357 39.5572 19.9755C39.6847 19.9154 39.7897 19.8326 39.8797 19.7273L40.1197 20.0582Z" fill="white"/>
<path d="M40.3597 17.8003H42.7522V18.2666H41.7847V20.4324H41.3197V18.2666H40.3597V17.8003Z" fill="#1D1346"/>
<path d="M40.3597 17.8003H42.7522V18.2666H41.7847V20.4324H41.3197V18.2666H40.3597V17.8003Z" fill="white"/>
<path d="M45.3996 20.1472C45.2721 20.2675 45.1146 20.3503 44.9421 20.4104C44.7621 20.4706 44.5896 20.4931 44.4171 20.4931C44.1996 20.4931 44.0121 20.4631 43.8396 20.3954C43.6671 20.3277 43.5171 20.2375 43.3971 20.1171C43.2771 19.9968 43.1796 19.8539 43.1121 19.681C43.0446 19.508 43.0146 19.32 43.0146 19.1169C43.0146 18.9289 43.0446 18.7484 43.1046 18.5755C43.1646 18.41 43.2546 18.2596 43.3671 18.1393C43.4796 18.019 43.6221 17.9212 43.7871 17.846C43.9521 17.7708 44.1471 17.7407 44.3646 17.7407C44.5296 17.7407 44.6871 17.7708 44.8371 17.831C44.9871 17.8911 45.1146 17.9739 45.2271 18.0791C45.3396 18.1844 45.4221 18.3123 45.4896 18.4627C45.5571 18.6131 45.5871 18.7785 45.5871 18.9515C45.5871 19.0718 45.5796 19.1771 45.5571 19.2673H43.5246C43.5471 19.5155 43.6371 19.711 43.8021 19.8464C43.9671 19.9818 44.1846 20.057 44.4396 20.057C44.6121 20.057 44.7696 20.0344 44.9046 19.9742C45.0471 19.9216 45.1596 19.8539 45.2421 19.7787L45.3996 20.1472ZM44.3346 18.1769C44.0946 18.1769 43.8996 18.2446 43.7571 18.3724C43.6146 18.5078 43.5246 18.6732 43.5021 18.8763H45.0996C45.0846 18.6582 45.0171 18.4852 44.8821 18.3574C44.7471 18.2446 44.5596 18.1769 44.3346 18.1769Z" fill="#1D1346"/>
<path d="M45.3996 20.1472C45.2721 20.2675 45.1146 20.3503 44.9421 20.4104C44.7621 20.4706 44.5896 20.4931 44.4171 20.4931C44.1996 20.4931 44.0121 20.4631 43.8396 20.3954C43.6671 20.3277 43.5171 20.2375 43.3971 20.1171C43.2771 19.9968 43.1796 19.8539 43.1121 19.681C43.0446 19.508 43.0146 19.32 43.0146 19.1169C43.0146 18.9289 43.0446 18.7484 43.1046 18.5755C43.1646 18.41 43.2546 18.2596 43.3671 18.1393C43.4796 18.019 43.6221 17.9212 43.7871 17.846C43.9521 17.7708 44.1471 17.7407 44.3646 17.7407C44.5296 17.7407 44.6871 17.7708 44.8371 17.831C44.9871 17.8911 45.1146 17.9739 45.2271 18.0791C45.3396 18.1844 45.4221 18.3123 45.4896 18.4627C45.5571 18.6131 45.5871 18.7785 45.5871 18.9515C45.5871 19.0718 45.5796 19.1771 45.5571 19.2673H43.5246C43.5471 19.5155 43.6371 19.711 43.8021 19.8464C43.9671 19.9818 44.1846 20.057 44.4396 20.057C44.6121 20.057 44.7696 20.0344 44.9046 19.9742C45.0471 19.9216 45.1596 19.8539 45.2421 19.7787L45.3996 20.1472ZM44.3346 18.1769C44.0946 18.1769 43.8996 18.2446 43.7571 18.3724C43.6146 18.5078 43.5246 18.6732 43.5021 18.8763H45.0996C45.0846 18.6582 45.0171 18.4852 44.8821 18.3574C44.7471 18.2446 44.5596 18.1769 44.3346 18.1769Z" fill="white"/>
<path d="M46.2179 17.801H46.6454L47.6504 19.102L48.6104 17.7935H49.0229V20.4256H48.5579V18.5079L47.6504 19.7337H47.6354L46.6904 18.5079V20.4256H46.2254V17.801H46.2179Z" fill="#1D1346"/>
<path d="M46.2179 17.801H46.6454L47.6504 19.102L48.6104 17.7935H49.0229V20.4256H48.5579V18.5079L47.6504 19.7337H47.6354L46.6904 18.5079V20.4256H46.2254V17.801H46.2179Z" fill="white"/>
<path d="M49.8924 17.9814C50.0124 17.9062 50.1399 17.846 50.2974 17.8084C50.4474 17.7633 50.6049 17.7407 50.7699 17.7407C51.1449 17.7407 51.3999 17.831 51.5499 18.019C51.6999 18.207 51.7749 18.4702 51.7749 18.8161V20.433H51.3399V20.0946C51.2649 20.1923 51.1599 20.2826 51.0249 20.3578C50.8899 20.433 50.7174 20.4706 50.4999 20.4706C50.2599 20.4706 50.0649 20.4029 49.9149 20.26C49.7649 20.1171 49.6899 19.9141 49.6899 19.6584C49.6899 19.523 49.7124 19.4102 49.7649 19.2974C49.8174 19.1921 49.8849 19.1019 49.9749 19.0342C50.0649 18.9665 50.1699 18.9139 50.2899 18.8763C50.4099 18.8387 50.5449 18.8236 50.6874 18.8236C50.7849 18.8236 50.8974 18.8387 51.0249 18.8612C51.1449 18.8838 51.2499 18.9289 51.3399 18.9966C51.3399 18.8763 51.3324 18.7635 51.3174 18.6582C51.3024 18.5529 51.2799 18.4702 51.2349 18.395C51.1974 18.3198 51.1299 18.2671 51.0549 18.222C50.9724 18.1844 50.8674 18.1619 50.7399 18.1619C50.5749 18.1619 50.4399 18.1769 50.3349 18.2145C50.2299 18.2521 50.1249 18.2972 50.0199 18.3499L49.8924 17.9814ZM50.6574 20.057C50.8299 20.057 50.9649 20.0194 51.0774 19.9442C51.1824 19.869 51.2724 19.7938 51.3399 19.7186V19.3877C51.1749 19.2673 50.9799 19.2147 50.7474 19.2147C50.6799 19.2147 50.6049 19.2222 50.5374 19.2448C50.4699 19.2598 50.4099 19.2899 50.3574 19.32C50.3049 19.3576 50.2599 19.4027 50.2299 19.4553C50.1999 19.508 50.1849 19.5757 50.1849 19.6509C50.1849 19.7787 50.2224 19.8765 50.3049 19.9517C50.3874 20.0118 50.4999 20.057 50.6574 20.057Z" fill="#1D1346"/>
<path d="M49.8924 17.9814C50.0124 17.9062 50.1399 17.846 50.2974 17.8084C50.4474 17.7633 50.6049 17.7407 50.7699 17.7407C51.1449 17.7407 51.3999 17.831 51.5499 18.019C51.6999 18.207 51.7749 18.4702 51.7749 18.8161V20.433H51.3399V20.0946C51.2649 20.1923 51.1599 20.2826 51.0249 20.3578C50.8899 20.433 50.7174 20.4706 50.4999 20.4706C50.2599 20.4706 50.0649 20.4029 49.9149 20.26C49.7649 20.1171 49.6899 19.9141 49.6899 19.6584C49.6899 19.523 49.7124 19.4102 49.7649 19.2974C49.8174 19.1921 49.8849 19.1019 49.9749 19.0342C50.0649 18.9665 50.1699 18.9139 50.2899 18.8763C50.4099 18.8387 50.5449 18.8236 50.6874 18.8236C50.7849 18.8236 50.8974 18.8387 51.0249 18.8612C51.1449 18.8838 51.2499 18.9289 51.3399 18.9966C51.3399 18.8763 51.3324 18.7635 51.3174 18.6582C51.3024 18.5529 51.2799 18.4702 51.2349 18.395C51.1974 18.3198 51.1299 18.2671 51.0549 18.222C50.9724 18.1844 50.8674 18.1619 50.7399 18.1619C50.5749 18.1619 50.4399 18.1769 50.3349 18.2145C50.2299 18.2521 50.1249 18.2972 50.0199 18.3499L49.8924 17.9814ZM50.6574 20.057C50.8299 20.057 50.9649 20.0194 51.0774 19.9442C51.1824 19.869 51.2724 19.7938 51.3399 19.7186V19.3877C51.1749 19.2673 50.9799 19.2147 50.7474 19.2147C50.6799 19.2147 50.6049 19.2222 50.5374 19.2448C50.4699 19.2598 50.4099 19.2899 50.3574 19.32C50.3049 19.3576 50.2599 19.4027 50.2299 19.4553C50.1999 19.508 50.1849 19.5757 50.1849 19.6509C50.1849 19.7787 50.2224 19.8765 50.3049 19.9517C50.3874 20.0118 50.4999 20.057 50.6574 20.057Z" fill="white"/>
<path d="M56.1549 16.6419C56.0724 16.7472 55.9824 16.8224 55.8924 16.8675C55.7949 16.9127 55.6974 16.9427 55.5849 16.9653C55.4724 16.9879 55.3524 17.0104 55.2249 17.033C55.0974 17.0555 54.9624 17.1007 54.8199 17.1684C54.6924 17.221 54.5949 17.2962 54.5124 17.394C54.4299 17.4842 54.3699 17.5895 54.3174 17.7098C54.2649 17.8226 54.2274 17.9505 54.2049 18.0708C54.1824 18.1911 54.1599 18.319 54.1524 18.4468H54.1674C54.2124 18.3566 54.2649 18.2663 54.3399 18.1986C54.4149 18.1234 54.4899 18.0633 54.5874 18.0031C54.6774 17.9505 54.7749 17.9053 54.8799 17.8753C54.9849 17.8452 55.0974 17.8301 55.2099 17.8301C55.3974 17.8301 55.5624 17.8602 55.7199 17.9204C55.8699 17.9805 55.9974 18.0708 56.1024 18.1836C56.2074 18.2964 56.2899 18.4393 56.3424 18.5972C56.4024 18.7551 56.4249 18.9356 56.4249 19.1387C56.4249 19.3192 56.3949 19.4921 56.3274 19.6576C56.2599 19.823 56.1699 19.9659 56.0499 20.0862C55.9299 20.2065 55.7874 20.3043 55.6224 20.3795C55.4574 20.4547 55.2774 20.4848 55.0749 20.4848C54.8574 20.4848 54.6699 20.4472 54.4974 20.372C54.3249 20.2968 54.1824 20.184 54.0624 20.0486C53.9424 19.9057 53.8524 19.7328 53.7849 19.5297C53.7174 19.3267 53.6874 19.1011 53.6874 18.8454C53.6874 18.6498 53.7024 18.4468 53.7249 18.2362C53.7474 18.0257 53.7924 17.8226 53.8674 17.6271C53.9424 17.4316 54.0324 17.2586 54.1599 17.1007C54.2874 16.9427 54.4524 16.8224 54.6624 16.7322C54.8124 16.6645 54.9549 16.6194 55.0749 16.5968C55.2024 16.5742 55.3149 16.5592 55.4124 16.5366C55.5099 16.5216 55.5999 16.4915 55.6824 16.4614C55.7649 16.4314 55.8399 16.3637 55.9074 16.2734L56.1549 16.6419ZM54.1824 18.9431C54.1824 19.1161 54.2049 19.2665 54.2499 19.4094C54.2949 19.5448 54.3549 19.6651 54.4299 19.7553C54.5049 19.8531 54.6024 19.9283 54.7074 19.9809C54.8199 20.0336 54.9324 20.0637 55.0599 20.0637C55.1874 20.0637 55.3074 20.0411 55.4124 19.996C55.5174 19.9509 55.6074 19.8832 55.6824 19.808C55.7574 19.7252 55.8174 19.635 55.8624 19.5297C55.9074 19.4244 55.9299 19.3041 55.9299 19.1838C55.9299 18.9281 55.8549 18.71 55.7124 18.5446C55.5699 18.3716 55.3599 18.2889 55.0899 18.2889C54.9624 18.2889 54.8499 18.3114 54.7524 18.349C54.6549 18.3866 54.5649 18.4393 54.4824 18.4994C54.4074 18.5596 54.3399 18.6348 54.2874 18.71C54.2349 18.7702 54.2049 18.8529 54.1824 18.9431Z" fill="#1D1346"/>
<path d="M56.1549 16.6419C56.0724 16.7472 55.9824 16.8224 55.8924 16.8675C55.7949 16.9127 55.6974 16.9427 55.5849 16.9653C55.4724 16.9879 55.3524 17.0104 55.2249 17.033C55.0974 17.0555 54.9624 17.1007 54.8199 17.1684C54.6924 17.221 54.5949 17.2962 54.5124 17.394C54.4299 17.4842 54.3699 17.5895 54.3174 17.7098C54.2649 17.8226 54.2274 17.9505 54.2049 18.0708C54.1824 18.1911 54.1599 18.319 54.1524 18.4468H54.1674C54.2124 18.3566 54.2649 18.2663 54.3399 18.1986C54.4149 18.1234 54.4899 18.0633 54.5874 18.0031C54.6774 17.9505 54.7749 17.9053 54.8799 17.8753C54.9849 17.8452 55.0974 17.8301 55.2099 17.8301C55.3974 17.8301 55.5624 17.8602 55.7199 17.9204C55.8699 17.9805 55.9974 18.0708 56.1024 18.1836C56.2074 18.2964 56.2899 18.4393 56.3424 18.5972C56.4024 18.7551 56.4249 18.9356 56.4249 19.1387C56.4249 19.3192 56.3949 19.4921 56.3274 19.6576C56.2599 19.823 56.1699 19.9659 56.0499 20.0862C55.9299 20.2065 55.7874 20.3043 55.6224 20.3795C55.4574 20.4547 55.2774 20.4848 55.0749 20.4848C54.8574 20.4848 54.6699 20.4472 54.4974 20.372C54.3249 20.2968 54.1824 20.184 54.0624 20.0486C53.9424 19.9057 53.8524 19.7328 53.7849 19.5297C53.7174 19.3267 53.6874 19.1011 53.6874 18.8454C53.6874 18.6498 53.7024 18.4468 53.7249 18.2362C53.7474 18.0257 53.7924 17.8226 53.8674 17.6271C53.9424 17.4316 54.0324 17.2586 54.1599 17.1007C54.2874 16.9427 54.4524 16.8224 54.6624 16.7322C54.8124 16.6645 54.9549 16.6194 55.0749 16.5968C55.2024 16.5742 55.3149 16.5592 55.4124 16.5366C55.5099 16.5216 55.5999 16.4915 55.6824 16.4614C55.7649 16.4314 55.8399 16.3637 55.9074 16.2734L56.1549 16.6419ZM54.1824 18.9431C54.1824 19.1161 54.2049 19.2665 54.2499 19.4094C54.2949 19.5448 54.3549 19.6651 54.4299 19.7553C54.5049 19.8531 54.6024 19.9283 54.7074 19.9809C54.8199 20.0336 54.9324 20.0637 55.0599 20.0637C55.1874 20.0637 55.3074 20.0411 55.4124 19.996C55.5174 19.9509 55.6074 19.8832 55.6824 19.808C55.7574 19.7252 55.8174 19.635 55.8624 19.5297C55.9074 19.4244 55.9299 19.3041 55.9299 19.1838C55.9299 18.9281 55.8549 18.71 55.7124 18.5446C55.5699 18.3716 55.3599 18.2889 55.0899 18.2889C54.9624 18.2889 54.8499 18.3114 54.7524 18.349C54.6549 18.3866 54.5649 18.4393 54.4824 18.4994C54.4074 18.5596 54.3399 18.6348 54.2874 18.71C54.2349 18.7702 54.2049 18.8529 54.1824 18.9431Z" fill="white"/>
<path d="M57.0994 17.8003H57.5644V18.5899H57.9994C58.2019 18.5899 58.3669 18.6125 58.5019 18.6651C58.6369 18.7178 58.7419 18.7855 58.8169 18.8682C58.8994 18.9509 58.9519 19.0487 58.9894 19.1615C59.0194 19.2743 59.0419 19.3871 59.0419 19.4999C59.0419 19.6202 59.0269 19.733 58.9894 19.8458C58.9519 19.9586 58.8919 20.0564 58.8094 20.1466C58.7269 20.2369 58.6144 20.3045 58.4719 20.3572C58.3294 20.4098 58.1569 20.4399 57.9544 20.4399H57.0994V17.8003ZM57.5644 19.0261V19.9962H57.9019C58.1344 19.9962 58.2994 19.9586 58.3969 19.8759C58.4944 19.7932 58.5394 19.6728 58.5394 19.5149C58.5394 19.357 58.4944 19.2367 58.3969 19.1539C58.2994 19.0712 58.1344 19.0336 57.9094 19.0336H57.5644V19.0261ZM59.5369 17.8003H60.0019V20.4324H59.5369V17.8003Z" fill="#1D1346"/>
<path d="M57.0994 17.8003H57.5644V18.5899H57.9994C58.2019 18.5899 58.3669 18.6125 58.5019 18.6651C58.6369 18.7178 58.7419 18.7855 58.8169 18.8682C58.8994 18.9509 58.9519 19.0487 58.9894 19.1615C59.0194 19.2743 59.0419 19.3871 59.0419 19.4999C59.0419 19.6202 59.0269 19.733 58.9894 19.8458C58.9519 19.9586 58.8919 20.0564 58.8094 20.1466C58.7269 20.2369 58.6144 20.3045 58.4719 20.3572C58.3294 20.4098 58.1569 20.4399 57.9544 20.4399H57.0994V17.8003ZM57.5644 19.0261V19.9962H57.9019C58.1344 19.9962 58.2994 19.9586 58.3969 19.8759C58.4944 19.7932 58.5394 19.6728 58.5394 19.5149C58.5394 19.357 58.4944 19.2367 58.3969 19.1539C58.2994 19.0712 58.1344 19.0336 57.9094 19.0336H57.5644V19.0261ZM59.5369 17.8003H60.0019V20.4324H59.5369V17.8003Z" fill="white"/>
<path d="M63.0915 20.0582C62.979 20.2011 62.829 20.3139 62.6565 20.3891C62.4765 20.4643 62.289 20.5019 62.0865 20.5019C61.8765 20.5019 61.689 20.4719 61.5165 20.4042C61.344 20.3365 61.194 20.2462 61.074 20.1259C60.9465 20.0056 60.8565 19.8627 60.7815 19.6897C60.714 19.5168 60.6765 19.3288 60.6765 19.1257C60.6765 18.9377 60.7065 18.7572 60.774 18.5843C60.8415 18.4188 60.9315 18.2684 61.0515 18.1481C61.1715 18.0278 61.314 17.93 61.4715 17.8548C61.6365 17.7796 61.809 17.7495 62.004 17.7495C62.214 17.7495 62.409 17.7796 62.5815 17.8322C62.7615 17.8849 62.9115 17.9751 63.0315 18.0954L62.814 18.4639C62.7015 18.3662 62.5815 18.291 62.454 18.2534C62.3265 18.2158 62.199 18.1932 62.0565 18.1932C61.9365 18.1932 61.824 18.2158 61.719 18.2609C61.6065 18.306 61.5165 18.3662 61.4265 18.4489C61.344 18.5316 61.2765 18.6294 61.2315 18.7422C61.1865 18.855 61.1565 18.9828 61.1565 19.1257C61.1565 19.2686 61.179 19.3965 61.2315 19.5168C61.284 19.6296 61.3515 19.7273 61.434 19.8101C61.5165 19.8928 61.6215 19.953 61.734 19.9981C61.8465 20.0432 61.974 20.0658 62.1015 20.0658C62.259 20.0658 62.4015 20.0357 62.529 19.9755C62.6565 19.9154 62.7615 19.8326 62.8515 19.7273L63.0915 20.0582Z" fill="#1D1346"/>
<path d="M63.0915 20.0582C62.979 20.2011 62.829 20.3139 62.6565 20.3891C62.4765 20.4643 62.289 20.5019 62.0865 20.5019C61.8765 20.5019 61.689 20.4719 61.5165 20.4042C61.344 20.3365 61.194 20.2462 61.074 20.1259C60.9465 20.0056 60.8565 19.8627 60.7815 19.6897C60.714 19.5168 60.6765 19.3288 60.6765 19.1257C60.6765 18.9377 60.7065 18.7572 60.774 18.5843C60.8415 18.4188 60.9315 18.2684 61.0515 18.1481C61.1715 18.0278 61.314 17.93 61.4715 17.8548C61.6365 17.7796 61.809 17.7495 62.004 17.7495C62.214 17.7495 62.409 17.7796 62.5815 17.8322C62.7615 17.8849 62.9115 17.9751 63.0315 18.0954L62.814 18.4639C62.7015 18.3662 62.5815 18.291 62.454 18.2534C62.3265 18.2158 62.199 18.1932 62.0565 18.1932C61.9365 18.1932 61.824 18.2158 61.719 18.2609C61.6065 18.306 61.5165 18.3662 61.4265 18.4489C61.344 18.5316 61.2765 18.6294 61.2315 18.7422C61.1865 18.855 61.1565 18.9828 61.1565 19.1257C61.1565 19.2686 61.179 19.3965 61.2315 19.5168C61.284 19.6296 61.3515 19.7273 61.434 19.8101C61.5165 19.8928 61.6215 19.953 61.734 19.9981C61.8465 20.0432 61.974 20.0658 62.1015 20.0658C62.259 20.0658 62.4015 20.0357 62.529 19.9755C62.6565 19.9154 62.7615 19.8326 62.8515 19.7273L63.0915 20.0582Z" fill="white"/>
<path d="M63.3322 17.8003H65.7246V18.2666H64.7571V20.4324H64.2922V18.2666H63.3322V17.8003Z" fill="#1D1346"/>
<path d="M63.3322 17.8003H65.7246V18.2666H64.7571V20.4324H64.2922V18.2666H63.3322V17.8003Z" fill="white"/>
<path d="M66.234 17.8009H66.699V18.1092C66.789 18.0039 66.9165 17.9137 67.074 17.846C67.239 17.7783 67.4115 17.7407 67.5915 17.7407C67.779 17.7407 67.944 17.7708 68.094 17.8385C68.244 17.9062 68.3715 17.9964 68.4765 18.1167C68.5815 18.2371 68.664 18.3724 68.7165 18.5379C68.7765 18.7033 68.799 18.8838 68.799 19.0793C68.799 19.2749 68.769 19.4629 68.7015 19.6358C68.634 19.8088 68.544 19.9592 68.424 20.0871C68.304 20.2149 68.1615 20.3127 67.989 20.3879C67.824 20.4631 67.6365 20.4931 67.4265 20.4931C67.284 20.4931 67.149 20.4781 67.0215 20.448C66.894 20.4179 66.7815 20.3728 66.684 20.3127V21.6061H66.219V17.8009H66.234ZM67.4565 18.1769C67.299 18.1769 67.1565 18.2145 67.0215 18.2822C66.8865 18.3499 66.7815 18.4401 66.699 18.5379V19.8464C66.819 19.9216 66.9315 19.9818 67.044 20.0043C67.1565 20.0344 67.2765 20.0495 67.3965 20.0495C67.539 20.0495 67.6665 20.0269 67.779 19.9742C67.8915 19.9291 67.989 19.8614 68.064 19.7787C68.139 19.696 68.199 19.5907 68.244 19.4779C68.289 19.3576 68.3115 19.2297 68.3115 19.0944C68.3115 18.959 68.2965 18.8387 68.259 18.7259C68.2215 18.6131 68.169 18.5153 68.094 18.4326C68.019 18.3499 67.929 18.2897 67.824 18.2446C67.7115 18.1995 67.5915 18.1769 67.4565 18.1769Z" fill="#1D1346"/>
<path d="M66.234 17.8009H66.699V18.1092C66.789 18.0039 66.9165 17.9137 67.074 17.846C67.239 17.7783 67.4115 17.7407 67.5915 17.7407C67.779 17.7407 67.944 17.7708 68.094 17.8385C68.244 17.9062 68.3715 17.9964 68.4765 18.1167C68.5815 18.2371 68.664 18.3724 68.7165 18.5379C68.7765 18.7033 68.799 18.8838 68.799 19.0793C68.799 19.2749 68.769 19.4629 68.7015 19.6358C68.634 19.8088 68.544 19.9592 68.424 20.0871C68.304 20.2149 68.1615 20.3127 67.989 20.3879C67.824 20.4631 67.6365 20.4931 67.4265 20.4931C67.284 20.4931 67.149 20.4781 67.0215 20.448C66.894 20.4179 66.7815 20.3728 66.684 20.3127V21.6061H66.219V17.8009H66.234ZM67.4565 18.1769C67.299 18.1769 67.1565 18.2145 67.0215 18.2822C66.8865 18.3499 66.7815 18.4401 66.699 18.5379V19.8464C66.819 19.9216 66.9315 19.9818 67.044 20.0043C67.1565 20.0344 67.2765 20.0495 67.3965 20.0495C67.539 20.0495 67.6665 20.0269 67.779 19.9742C67.8915 19.9291 67.989 19.8614 68.064 19.7787C68.139 19.696 68.199 19.5907 68.244 19.4779C68.289 19.3576 68.3115 19.2297 68.3115 19.0944C68.3115 18.959 68.2965 18.8387 68.259 18.7259C68.2215 18.6131 68.169 18.5153 68.094 18.4326C68.019 18.3499 67.929 18.2897 67.824 18.2446C67.7115 18.1995 67.5915 18.1769 67.4565 18.1769Z" fill="white"/>
<path d="M33.6248 23.6876H32.1923V25.8836H31.7273V23.2515H34.0898V25.8836H33.6248V23.6876Z" fill="#1D1346"/>
<path d="M33.6248 23.6876H32.1923V25.8836H31.7273V23.2515H34.0898V25.8836H33.6248V23.6876Z" fill="white"/>
<path d="M36.7371 23.7194H35.8146L35.7846 24.1631C35.7546 24.5391 35.7096 24.8399 35.6421 25.073C35.5821 25.3062 35.5071 25.4791 35.4171 25.607C35.3271 25.7348 35.2221 25.8175 35.1096 25.8551C34.9896 25.9003 34.8696 25.9228 34.7271 25.9228L34.6896 25.4641C34.7421 25.4716 34.7946 25.4566 34.8621 25.4265C34.9296 25.3964 34.9896 25.3362 35.0571 25.231C35.1171 25.1332 35.1771 24.9903 35.2296 24.8023C35.2821 24.6143 35.3121 24.3736 35.3271 24.0653L35.3721 23.2456H37.2021V25.8777H36.7371V23.7194Z" fill="#1D1346"/>
<path d="M36.7371 23.7194H35.8146L35.7846 24.1631C35.7546 24.5391 35.7096 24.8399 35.6421 25.073C35.5821 25.3062 35.5071 25.4791 35.4171 25.607C35.3271 25.7348 35.2221 25.8175 35.1096 25.8551C34.9896 25.9003 34.8696 25.9228 34.7271 25.9228L34.6896 25.4641C34.7421 25.4716 34.7946 25.4566 34.8621 25.4265C34.9296 25.3964 34.9896 25.3362 35.0571 25.231C35.1171 25.1332 35.1771 24.9903 35.2296 24.8023C35.2821 24.6143 35.3121 24.3736 35.3271 24.0653L35.3721 23.2456H37.2021V25.8777H36.7371V23.7194Z" fill="white"/>
<path d="M38.0644 23.4321C38.1844 23.3569 38.3119 23.2967 38.4694 23.2591C38.6194 23.214 38.7769 23.1914 38.9419 23.1914C39.3169 23.1914 39.5719 23.2817 39.7219 23.4697C39.8719 23.6577 39.9469 23.9209 39.9469 24.2668V25.8837H39.5119V25.5453C39.4369 25.643 39.3319 25.7333 39.1969 25.8085C39.0619 25.8837 38.8894 25.9213 38.6719 25.9213C38.4319 25.9213 38.2369 25.8536 38.0869 25.7107C37.9369 25.5678 37.8619 25.3648 37.8619 25.1091C37.8619 24.9737 37.8844 24.8609 37.9369 24.7481C37.9894 24.6428 38.0569 24.5526 38.1469 24.4849C38.2369 24.4172 38.3419 24.3646 38.4619 24.327C38.5819 24.2894 38.7169 24.2743 38.8594 24.2743C38.9569 24.2743 39.0694 24.2894 39.1969 24.3119C39.3169 24.3345 39.4219 24.3796 39.5119 24.4473C39.5119 24.327 39.5044 24.2142 39.4894 24.1089C39.4744 24.0036 39.4519 23.9209 39.4069 23.8457C39.3694 23.7705 39.3019 23.7178 39.2269 23.6727C39.1444 23.6351 39.0394 23.6125 38.9119 23.6125C38.7469 23.6125 38.6119 23.6276 38.5069 23.6652C38.4019 23.7028 38.2969 23.7479 38.1919 23.8005L38.0644 23.4321ZM38.8294 25.5077C39.0019 25.5077 39.1369 25.4701 39.2494 25.3949C39.3544 25.3196 39.4444 25.2444 39.5119 25.1692V24.8383C39.3469 24.718 39.1519 24.6654 38.9194 24.6654C38.8519 24.6654 38.7769 24.6729 38.7094 24.6955C38.6419 24.7105 38.5819 24.7406 38.5294 24.7707C38.4769 24.8083 38.4319 24.8534 38.4019 24.906C38.3719 24.9587 38.3569 25.0264 38.3569 25.1016C38.3569 25.2294 38.3944 25.3272 38.4769 25.4024C38.5594 25.4701 38.6794 25.5077 38.8294 25.5077Z" fill="#1D1346"/>
<path d="M38.0644 23.4321C38.1844 23.3569 38.3119 23.2967 38.4694 23.2591C38.6194 23.214 38.7769 23.1914 38.9419 23.1914C39.3169 23.1914 39.5719 23.2817 39.7219 23.4697C39.8719 23.6577 39.9469 23.9209 39.9469 24.2668V25.8837H39.5119V25.5453C39.4369 25.643 39.3319 25.7333 39.1969 25.8085C39.0619 25.8837 38.8894 25.9213 38.6719 25.9213C38.4319 25.9213 38.2369 25.8536 38.0869 25.7107C37.9369 25.5678 37.8619 25.3648 37.8619 25.1091C37.8619 24.9737 37.8844 24.8609 37.9369 24.7481C37.9894 24.6428 38.0569 24.5526 38.1469 24.4849C38.2369 24.4172 38.3419 24.3646 38.4619 24.327C38.5819 24.2894 38.7169 24.2743 38.8594 24.2743C38.9569 24.2743 39.0694 24.2894 39.1969 24.3119C39.3169 24.3345 39.4219 24.3796 39.5119 24.4473C39.5119 24.327 39.5044 24.2142 39.4894 24.1089C39.4744 24.0036 39.4519 23.9209 39.4069 23.8457C39.3694 23.7705 39.3019 23.7178 39.2269 23.6727C39.1444 23.6351 39.0394 23.6125 38.9119 23.6125C38.7469 23.6125 38.6119 23.6276 38.5069 23.6652C38.4019 23.7028 38.2969 23.7479 38.1919 23.8005L38.0644 23.4321ZM38.8294 25.5077C39.0019 25.5077 39.1369 25.4701 39.2494 25.3949C39.3544 25.3196 39.4444 25.2444 39.5119 25.1692V24.8383C39.3469 24.718 39.1519 24.6654 38.9194 24.6654C38.8519 24.6654 38.7769 24.6729 38.7094 24.6955C38.6419 24.7105 38.5819 24.7406 38.5294 24.7707C38.4769 24.8083 38.4319 24.8534 38.4019 24.906C38.3719 24.9587 38.3569 25.0264 38.3569 25.1016C38.3569 25.2294 38.3944 25.3272 38.4769 25.4024C38.5594 25.4701 38.6794 25.5077 38.8294 25.5077Z" fill="white"/>
<path d="M40.4053 23.2515H42.7978V23.7177H41.8303V25.8836H41.3653V23.7177H40.4053V23.2515Z" fill="#1D1346"/>
<path d="M40.4053 23.2515H42.7978V23.7177H41.8303V25.8836H41.3653V23.7177H40.4053V23.2515Z" fill="white"/>
<path d="M45.4371 25.5979C45.3096 25.7182 45.1521 25.8009 44.9796 25.8611C44.7996 25.9213 44.6271 25.9438 44.4546 25.9438C44.2371 25.9438 44.0496 25.9138 43.8771 25.8461C43.7046 25.7784 43.5546 25.6881 43.4346 25.5678C43.3146 25.4475 43.2171 25.3046 43.1496 25.1316C43.0821 24.9587 43.0521 24.7707 43.0521 24.5676C43.0521 24.3796 43.0821 24.1991 43.1421 24.0262C43.2021 23.8607 43.2921 23.7103 43.4046 23.59C43.5171 23.4697 43.6596 23.3719 43.8246 23.2967C43.9896 23.2215 44.1846 23.1914 44.4021 23.1914C44.5671 23.1914 44.7246 23.2215 44.8746 23.2817C45.0246 23.3418 45.1521 23.4245 45.2646 23.5298C45.3771 23.6351 45.4596 23.7629 45.5271 23.9134C45.5946 24.0638 45.6246 24.2292 45.6246 24.4022C45.6246 24.5225 45.6171 24.6278 45.5946 24.718H43.5771C43.5996 24.9662 43.6896 25.1617 43.8546 25.2971C44.0196 25.4325 44.2371 25.5077 44.4921 25.5077C44.6646 25.5077 44.8221 25.4851 44.9571 25.4249C45.0996 25.3723 45.2121 25.3046 45.2946 25.2294L45.4371 25.5979ZM44.3721 23.6351C44.1321 23.6351 43.9371 23.7028 43.7946 23.8306C43.6521 23.966 43.5621 24.1314 43.5396 24.3345H45.1371C45.1221 24.1164 45.0546 23.9434 44.9196 23.8156C44.7846 23.6953 44.6046 23.6351 44.3721 23.6351Z" fill="#1D1346"/>
<path d="M45.4371 25.5979C45.3096 25.7182 45.1521 25.8009 44.9796 25.8611C44.7996 25.9213 44.6271 25.9438 44.4546 25.9438C44.2371 25.9438 44.0496 25.9138 43.8771 25.8461C43.7046 25.7784 43.5546 25.6881 43.4346 25.5678C43.3146 25.4475 43.2171 25.3046 43.1496 25.1316C43.0821 24.9587 43.0521 24.7707 43.0521 24.5676C43.0521 24.3796 43.0821 24.1991 43.1421 24.0262C43.2021 23.8607 43.2921 23.7103 43.4046 23.59C43.5171 23.4697 43.6596 23.3719 43.8246 23.2967C43.9896 23.2215 44.1846 23.1914 44.4021 23.1914C44.5671 23.1914 44.7246 23.2215 44.8746 23.2817C45.0246 23.3418 45.1521 23.4245 45.2646 23.5298C45.3771 23.6351 45.4596 23.7629 45.5271 23.9134C45.5946 24.0638 45.6246 24.2292 45.6246 24.4022C45.6246 24.5225 45.6171 24.6278 45.5946 24.718H43.5771C43.5996 24.9662 43.6896 25.1617 43.8546 25.2971C44.0196 25.4325 44.2371 25.5077 44.4921 25.5077C44.6646 25.5077 44.8221 25.4851 44.9571 25.4249C45.0996 25.3723 45.2121 25.3046 45.2946 25.2294L45.4371 25.5979ZM44.3721 23.6351C44.1321 23.6351 43.9371 23.7028 43.7946 23.8306C43.6521 23.966 43.5621 24.1314 43.5396 24.3345H45.1371C45.1221 24.1164 45.0546 23.9434 44.9196 23.8156C44.7846 23.6953 44.6046 23.6351 44.3721 23.6351Z" fill="white"/>
<path d="M45.8493 23.2515H46.4418L47.3418 24.5224L46.3743 25.8836H45.8043L46.8168 24.5224L45.8493 23.2515ZM47.4543 23.2515H47.9193V25.8836H47.4543V23.2515ZM48.5643 24.5224L49.5918 25.8836H49.0143L48.0393 24.5224L48.9468 23.2515H49.5243L48.5643 24.5224Z" fill="#1D1346"/>
<path d="M45.8493 23.2515H46.4418L47.3418 24.5224L46.3743 25.8836H45.8043L46.8168 24.5224L45.8493 23.2515ZM47.4543 23.2515H47.9193V25.8836H47.4543V23.2515ZM48.5643 24.5224L49.5918 25.8836H49.0143L48.0393 24.5224L48.9468 23.2515H49.5243L48.5643 24.5224Z" fill="white"/>
<path d="M52.1796 25.5979C52.0521 25.7182 51.8945 25.8009 51.722 25.8611C51.5421 25.9213 51.3696 25.9438 51.1971 25.9438C50.9796 25.9438 50.7921 25.9138 50.6196 25.8461C50.4471 25.7784 50.2971 25.6881 50.1771 25.5678C50.0571 25.4475 49.9596 25.3046 49.8921 25.1316C49.8246 24.9587 49.7946 24.7707 49.7946 24.5676C49.7946 24.3796 49.8246 24.1991 49.8846 24.0262C49.9446 23.8607 50.0346 23.7103 50.1471 23.59C50.2596 23.4697 50.4021 23.3719 50.5671 23.2967C50.7321 23.2215 50.9271 23.1914 51.1446 23.1914C51.3096 23.1914 51.4671 23.2215 51.6171 23.2817C51.7671 23.3418 51.8945 23.4245 52.007 23.5298C52.1195 23.6351 52.202 23.7629 52.2695 23.9134C52.337 24.0638 52.367 24.2292 52.367 24.4022C52.367 24.5225 52.3595 24.6278 52.337 24.718H50.3196C50.3421 24.9662 50.4321 25.1617 50.5971 25.2971C50.7621 25.4325 50.9796 25.5077 51.2346 25.5077C51.4071 25.5077 51.5646 25.4851 51.6996 25.4249C51.842 25.3723 51.9545 25.3046 52.037 25.2294L52.1796 25.5979ZM51.1146 23.6351C50.8746 23.6351 50.6796 23.7028 50.5371 23.8306C50.3946 23.966 50.3046 24.1314 50.2821 24.3345H51.8796C51.8646 24.1164 51.797 23.9434 51.6621 23.8156C51.5271 23.6953 51.3471 23.6351 51.1146 23.6351Z" fill="#1D1346"/>
<path d="M52.1796 25.5979C52.0521 25.7182 51.8945 25.8009 51.722 25.8611C51.5421 25.9213 51.3696 25.9438 51.1971 25.9438C50.9796 25.9438 50.7921 25.9138 50.6196 25.8461C50.4471 25.7784 50.2971 25.6881 50.1771 25.5678C50.0571 25.4475 49.9596 25.3046 49.8921 25.1316C49.8246 24.9587 49.7946 24.7707 49.7946 24.5676C49.7946 24.3796 49.8246 24.1991 49.8846 24.0262C49.9446 23.8607 50.0346 23.7103 50.1471 23.59C50.2596 23.4697 50.4021 23.3719 50.5671 23.2967C50.7321 23.2215 50.9271 23.1914 51.1446 23.1914C51.3096 23.1914 51.4671 23.2215 51.6171 23.2817C51.7671 23.3418 51.8945 23.4245 52.007 23.5298C52.1195 23.6351 52.202 23.7629 52.2695 23.9134C52.337 24.0638 52.367 24.2292 52.367 24.4022C52.367 24.5225 52.3595 24.6278 52.337 24.718H50.3196C50.3421 24.9662 50.4321 25.1617 50.5971 25.2971C50.7621 25.4325 50.9796 25.5077 51.2346 25.5077C51.4071 25.5077 51.5646 25.4851 51.6996 25.4249C51.842 25.3723 51.9545 25.3046 52.037 25.2294L52.1796 25.5979ZM51.1146 23.6351C50.8746 23.6351 50.6796 23.7028 50.5371 23.8306C50.3946 23.966 50.3046 24.1314 50.2821 24.3345H51.8796C51.8646 24.1164 51.797 23.9434 51.6621 23.8156C51.5271 23.6953 51.3471 23.6351 51.1146 23.6351Z" fill="white"/>
<path d="M52.9967 25.884V23.2519H53.4617V25.2147L54.9842 23.2519H55.4492V25.884H54.9842V23.9212L53.4617 25.884H52.9967ZM53.8067 21.9058C53.8292 22.2141 53.9792 22.372 54.2567 22.372C54.5192 22.372 54.6617 22.2216 54.6842 21.9058H55.1192C55.1192 22.0261 55.0967 22.1314 55.0592 22.2291C55.0217 22.3269 54.9617 22.4171 54.8867 22.4848C54.8117 22.56 54.7217 22.6127 54.6167 22.6578C54.5117 22.7029 54.3917 22.7255 54.2567 22.7255C54.1142 22.7255 53.9867 22.7029 53.8742 22.6578C53.7617 22.6127 53.6717 22.56 53.5967 22.4848C53.5217 22.4096 53.4692 22.3269 53.4242 22.2291C53.3867 22.1314 53.3642 22.0186 53.3642 21.9058H53.8067Z" fill="#1D1346"/>
<path d="M52.9967 25.884V23.2519H53.4617V25.2147L54.9842 23.2519H55.4492V25.884H54.9842V23.9212L53.4617 25.884H52.9967ZM53.8067 21.9058C53.8292 22.2141 53.9792 22.372 54.2567 22.372C54.5192 22.372 54.6617 22.2216 54.6842 21.9058H55.1192C55.1192 22.0261 55.0967 22.1314 55.0592 22.2291C55.0217 22.3269 54.9617 22.4171 54.8867 22.4848C54.8117 22.56 54.7217 22.6127 54.6167 22.6578C54.5117 22.7029 54.3917 22.7255 54.2567 22.7255C54.1142 22.7255 53.9867 22.7029 53.8742 22.6578C53.7617 22.6127 53.6717 22.56 53.5967 22.4848C53.5217 22.4096 53.4692 22.3269 53.4242 22.2291C53.3867 22.1314 53.3642 22.0186 53.3642 21.9058H53.8067Z" fill="white"/>
<path d="M57.1743 6.76172V14.455H54.4743V9.04789H51.8793V14.455H49.1793V6.76172H57.1743Z" fill="#1D1346"/>
<path d="M57.1743 6.76172V14.455H54.4743V9.04789H51.8793V14.455H49.1793V6.76172H57.1743Z" fill="white"/>
<path d="M47.8521 10.852C47.8896 13.0856 46.0896 14.6799 43.5396 14.6799C41.1246 14.6799 39.0846 13.2134 39.0846 9.64128C39.0846 6.61061 41.0196 4.10635 43.8771 4.06123C45.1296 4.06123 47.8521 4.05371 47.8521 4.05371L46.5921 6.33236C46.5921 6.33236 44.4471 6.33236 44.1621 6.33236C42.9321 6.33236 41.8296 7.16711 41.6721 8.43804C42.3321 7.82137 43.3521 7.45288 44.4021 7.45288C46.3746 7.4604 47.8221 9.13742 47.8521 10.852ZM45.1596 11.025C45.1596 10.1376 44.4771 9.39311 43.5546 9.39311C42.6396 9.39311 41.9196 10.1451 41.9346 11.0401C41.9346 11.9876 42.7746 12.6268 43.5021 12.6268C44.4321 12.6268 45.1596 11.9274 45.1596 11.025Z" fill="#1D1346"/>
<path d="M47.8521 10.852C47.8896 13.0856 46.0896 14.6799 43.5396 14.6799C41.1246 14.6799 39.0846 13.2134 39.0846 9.64128C39.0846 6.61061 41.0196 4.10635 43.8771 4.06123C45.1296 4.06123 47.8521 4.05371 47.8521 4.05371L46.5921 6.33236C46.5921 6.33236 44.4471 6.33236 44.1621 6.33236C42.9321 6.33236 41.8296 7.16711 41.6721 8.43804C42.3321 7.82137 43.3521 7.45288 44.4021 7.45288C46.3746 7.4604 47.8221 9.13742 47.8521 10.852ZM45.1596 11.025C45.1596 10.1376 44.4771 9.39311 43.5546 9.39311C42.6396 9.39311 41.9196 10.1451 41.9346 11.0401C41.9346 11.9876 42.7746 12.6268 43.5021 12.6268C44.4321 12.6268 45.1596 11.9274 45.1596 11.025Z" fill="white"/>
<path d="M37.0067 11.8209C37.0067 11.8209 36.0992 12.4301 34.8917 12.4075C34.1342 12.4075 33.1217 11.7457 33.1217 10.5801C33.1367 9.39189 34.1417 8.75266 34.8992 8.75266C36.0767 8.71506 37.0067 9.33925 37.0067 9.33925L38.0117 7.51934C37.1192 6.88011 36.2642 6.5417 35.0492 6.53418C32.4167 6.53418 30.6093 8.67746 30.6093 10.5876C30.6093 12.8211 32.6192 14.6636 35.0342 14.6786C36.0992 14.6937 37.1867 14.3402 38.0267 13.6709L37.0067 11.8209Z" fill="#1D1346"/>
<path d="M37.0067 11.8209C37.0067 11.8209 36.0992 12.4301 34.8917 12.4075C34.1342 12.4075 33.1217 11.7457 33.1217 10.5801C33.1367 9.39189 34.1417 8.75266 34.8992 8.75266C36.0767 8.71506 37.0067 9.33925 37.0067 9.33925L38.0117 7.51934C37.1192 6.88011 36.2642 6.5417 35.0492 6.53418C32.4167 6.53418 30.6093 8.67746 30.6093 10.5876C30.6093 12.8211 32.6192 14.6636 35.0342 14.6786C36.0992 14.6937 37.1867 14.3402 38.0267 13.6709L37.0067 11.8209Z" fill="white"/>
</svg>
