<svg width="188" height="79" viewBox="0 0 188 79" fill="none" xmlns="http://www.w3.org/2000/svg">
<g filter="url(#filter0_d_366_418)">
<path d="M43.1401 1.27896H58.9579L58.4306 5.54974H48.6763L48.0964 10.1369H57.2882L56.7434 14.478H47.5515L46.8837 19.6626H57.007L56.4446 24.0565H40.2578L43.1401 1.27896ZM63.1935 1.27896H69.2745L66.9546 19.5572H76.1113L75.5489 24.0565H60.3287L63.2111 1.27896H63.1935ZM81.2784 1.27896H97.0961L96.5513 5.53217H86.797L86.217 10.1369H95.4264L94.8816 14.4604H85.6722L85.0219 19.6451H95.1452L94.5828 24.0389H78.3961L81.2784 1.26138V1.27896ZM120.067 1.96439L118.942 6.72728C118.151 6.2176 117.308 5.83094 116.446 5.58489C115.568 5.33884 114.654 5.21581 113.687 5.21581C111.42 5.21581 109.522 5.88367 108.01 7.20181C106.499 8.53753 105.603 10.3126 105.321 12.5447C105.04 14.7943 105.497 16.5694 106.692 17.9051C107.905 19.2408 109.645 19.9087 111.93 19.9087C112.826 19.9087 113.757 19.8033 114.724 19.5748C115.691 19.3639 116.675 19.0299 117.677 18.5906L117.395 23.705C116.271 24.0037 115.146 24.2322 114.039 24.3728C112.931 24.5134 111.824 24.6013 110.717 24.6013C106.587 24.6013 103.493 23.5468 101.455 21.4202C99.416 19.3111 98.6427 16.3409 99.1172 12.5447C99.5742 8.92418 101.086 6.04185 103.617 3.91524C106.165 1.78864 109.381 0.734128 113.283 0.734128C114.583 0.734128 115.814 0.839579 116.956 1.05048C118.098 1.26138 119.135 1.57774 120.084 1.98197L120.067 1.96439ZM121.965 1.27896H139.312L138.732 5.83094H133.09L130.77 24.0565H124.689L127.009 5.83094H121.367L121.947 1.27896H121.965ZM147.344 5.28611L146.606 11.1211H148.732C150.05 11.1211 151.052 10.8926 151.773 10.4181C152.493 9.94355 152.915 9.22296 153.038 8.2739C153.161 7.25454 152.897 6.4988 152.23 6.0067C151.562 5.53217 150.437 5.28611 148.855 5.28611H147.344ZM141.913 1.27896H150.964C153.987 1.27896 156.149 1.77107 157.485 2.7377C158.82 3.72192 159.365 5.19824 159.101 7.20181C158.908 8.67813 158.381 9.89082 157.485 10.8399C156.588 11.7889 155.393 12.4217 153.917 12.7556C155.059 13.195 155.868 14.4428 156.325 16.4815V16.4991L158.1 24.0565H151.773L150.56 17.8172C150.367 16.8155 150.015 16.13 149.505 15.7258C148.996 15.3391 148.152 15.1458 146.975 15.1458H146.096L144.971 24.0389H139.031L141.913 1.26138V1.27896ZM173.513 5.14551C171.949 5.14551 170.596 5.83094 169.471 7.16666C168.346 8.51995 167.643 10.3302 167.344 12.5974C167.063 14.8646 167.309 16.6924 168.082 18.0457C168.856 19.399 170.033 20.0845 171.615 20.0845C173.197 20.0845 174.533 19.399 175.64 18.0633C176.747 16.71 177.45 14.8998 177.749 12.615C178.03 10.3478 177.802 8.5551 177.028 7.20181C176.255 5.84852 175.095 5.16309 173.531 5.16309L173.513 5.14551ZM174.076 0.716553C177.608 0.716553 180.244 1.77107 181.967 3.88009C183.689 5.98912 184.322 8.90661 183.847 12.6501C183.373 16.4112 182.002 19.3287 179.752 21.4202C177.485 23.5292 174.585 24.5661 171.053 24.5661C167.502 24.5661 164.849 23.5116 163.126 21.4202C161.404 19.3111 160.771 16.3937 161.246 12.6501C161.72 8.90661 163.091 5.98912 165.358 3.88009C167.625 1.77107 170.543 0.716553 174.093 0.716553H174.076Z" fill="white"/>
<path d="M57.4462 30.2782L56.2335 35.7441C55.2141 35.2871 54.2124 34.9356 53.2457 34.7071C52.2791 34.4786 51.33 34.3556 50.3985 34.3556C48.9574 34.3556 47.815 34.5841 46.9714 35.041C46.1102 35.498 45.6356 36.1131 45.5302 36.9216C45.4599 37.484 45.6005 37.9761 45.9696 38.3803C46.3211 38.8021 46.9011 39.1361 47.6744 39.4173C47.938 39.5051 48.3247 39.6282 48.7992 39.7864C51.7167 40.7706 53.6148 41.6318 54.5111 42.3699C55.3547 43.0905 55.9347 43.9165 56.2511 44.848C56.5674 45.7795 56.6553 46.8516 56.4971 48.0994C56.1281 51.0169 54.8802 53.249 52.736 54.778C50.5919 56.3071 47.6919 57.0804 44.0187 57.0804C42.683 57.0804 41.3649 56.9925 40.0467 56.7992C38.7286 56.6058 37.4456 56.3422 36.1802 55.9556L37.5335 50.0327C38.711 50.5951 39.8534 51.0169 40.9958 51.3157C42.1382 51.6145 43.2278 51.7551 44.2648 51.7551C45.6532 51.7551 46.7956 51.4915 47.6744 50.9642C48.5531 50.4369 49.0452 49.7339 49.1507 48.8376C49.2913 47.7304 48.1313 46.7286 45.6532 45.8322C45.0557 45.6213 44.5987 45.4456 44.2824 45.3225C41.8745 44.4086 40.2049 43.3541 39.2734 42.159C38.3419 40.9639 37.9904 39.4348 38.2365 37.5543C38.5704 34.9004 39.7831 32.8441 41.8745 31.4205C43.966 29.9794 46.778 29.2764 50.3282 29.2764C51.6288 29.2764 52.8766 29.3467 54.0718 29.5048C55.2669 29.663 56.3917 29.8915 57.4638 30.2254L57.4462 30.2782ZM60.7152 29.9794H80.9091L80.2413 35.2695H73.6681L70.9791 56.4828H63.9139L66.6029 35.2695H60.0298L60.6976 29.9794H60.7152ZM90.2591 34.6368L89.398 41.4384H91.8761C93.4051 41.4384 94.5827 41.1572 95.4263 40.6124C96.2523 40.05 96.7444 39.2239 96.885 38.1167C97.0432 36.9216 96.7268 36.0428 95.9359 35.4804C95.1626 34.918 93.8445 34.6368 91.9991 34.6368H90.2416H90.2591ZM83.9321 29.9794H94.4772C97.9922 29.9794 100.523 30.5418 102.07 31.6842C103.634 32.8266 104.249 34.5489 103.95 36.8864C103.739 38.6088 103.107 40.0148 102.07 41.1221C101.033 42.2293 99.6443 42.9675 97.9044 43.3365C99.2225 43.8462 100.172 45.2874 100.716 47.6776V47.6952L102.773 56.4828H95.4087L94.0027 49.2242C93.7742 48.0643 93.37 47.2558 92.79 46.7989C92.1924 46.3595 91.2258 46.131 89.8549 46.131H88.8356L87.5174 56.4828H80.5928L83.9496 29.9794H83.9321ZM109.029 29.9794H127.448L126.816 34.9356H115.462L114.777 40.296H125.48L124.847 45.3401H114.144L113.371 51.386H125.146L124.496 56.5004H105.655L109.012 29.997L109.029 29.9794ZM132.369 29.9794H150.788L150.156 34.9356H138.802L138.116 40.296H148.82L148.187 45.3401H137.484L136.71 51.386H148.486L147.836 56.5004H128.995L132.352 29.997L132.369 29.9794ZM153.618 29.9794H173.812L173.144 35.2695H166.571L163.882 56.4828H156.817L159.506 35.2695H152.932L153.6 29.9794H153.618Z" fill="white"/>
<path d="M29.5648 1.04507L29.1616 4.05992L35.5968 4.07763L28.5086 56.435L4.69946 56.336L4.90881 54.841L4.90926 54.8397C4.90938 54.8388 4.9095 54.8376 4.90972 54.8361C4.9102 54.8326 4.91104 54.8274 4.91199 54.8206C4.9139 54.807 4.91687 54.7865 4.92062 54.7598C4.92813 54.7061 4.93891 54.6265 4.95331 54.5236C4.98214 54.3176 5.02411 54.017 5.07683 53.6399C5.18226 52.8857 5.33057 51.8244 5.50188 50.5956C5.84456 48.1375 6.27959 45.0098 6.64851 42.3307L11.8109 3.98544H13.442L18.0013 4.0136L18.4241 0.952881L29.5648 1.04507ZM20.2978 6.6638L14.115 6.62565L9.26057 42.6863L9.26011 42.6904C8.89089 45.3716 8.45577 48.5008 8.11303 50.9593C7.96281 52.0368 7.8303 52.9857 7.72885 53.7117L26.2058 53.7889L28.529 36.6043L28.5295 36.6039L32.5806 6.70512L26.1504 6.68787L26.5559 3.65621L20.7187 3.60853L20.2978 6.6638Z" fill="white"/>
<path fill-rule="evenodd" clip-rule="evenodd" d="M25.8109 8.53748L21.8213 19.1705L26.2151 18.2742L16.373 31.8774L20.2923 21.2444L16.0566 21.4904L25.8109 8.53748Z" fill="white"/>
<path d="M25.8384 47.1279H9.93778C9.61753 47.1279 9.31698 47.4765 9.26649 47.9064L8.89839 51.0407C8.8479 51.4706 9.06658 51.8192 9.38683 51.8192H25.2874C25.6077 51.8192 25.9082 51.4706 25.9587 51.0407L26.3268 47.9064C26.3773 47.4765 26.1586 47.1279 25.8384 47.1279Z" fill="white"/>
<path d="M26.5823 40.7931H10.6817C10.3614 40.7931 10.0609 41.1416 10.0104 41.5715L9.64228 44.7059C9.59179 45.1358 9.81048 45.4843 10.1307 45.4843H26.0313C26.3516 45.4843 26.6521 45.1358 26.7026 44.7059L27.0707 41.5715C27.1212 41.1416 26.9025 40.7931 26.5823 40.7931Z" fill="white"/>
<path d="M27.562 34.5239H11.6614C11.3412 34.5239 11.0406 34.8725 10.9901 35.3024L10.622 38.4367C10.5715 38.8666 10.7902 39.2151 11.1105 39.2151H27.0111C27.3313 39.2151 27.6319 38.8666 27.6824 38.4367L28.0505 35.3024C28.1009 34.8725 27.8823 34.5239 27.562 34.5239Z" fill="white"/>
<path fill-rule="evenodd" clip-rule="evenodd" d="M7.51505 62.7748L6.42538 68.5219H4.93149L6.02115 62.7748L4 62.8275L4.24605 61.5621H9.76467L9.51862 62.8275L7.51505 62.7748ZM13.8597 68.3989L13.4027 70.754L11.8561 71L13.6312 61.6851L15.0021 61.4039L14.9669 61.6851C15.0548 61.65 15.1427 61.6324 15.213 61.6148C15.5645 61.527 15.916 61.4918 16.2675 61.4918C17.0584 61.4918 17.7614 61.773 18.2008 62.4409C18.7105 63.2142 18.605 64.3566 18.4468 65.2353C18.2711 66.1492 17.9196 67.028 17.2517 67.6783C16.619 68.311 15.8106 68.6098 14.9142 68.6098C14.5627 68.6098 14.1761 68.5746 13.8597 68.4164V68.3989ZM26.303 68.0825C26.2151 68.1528 26.1096 68.2231 26.0042 68.2934C25.7757 68.4164 25.5297 68.5043 25.266 68.5395C25.2133 68.5395 25.1781 68.557 25.1254 68.557C25.0024 68.5746 24.8794 68.5746 24.7563 68.5922C24.6157 68.6098 24.4751 68.6098 24.3345 68.6098C22.8582 68.6274 21.4698 68.1528 21.8037 66.3953C21.8916 65.9208 22.0849 65.4638 22.4013 65.1123C22.7352 64.7432 23.2097 64.4796 23.6843 64.2863C24.3697 64.0051 25.4066 63.8996 26.1448 63.8469C26.303 63.8293 26.3733 63.7766 26.4084 63.6184C26.426 63.513 26.4611 63.3899 26.4611 63.2845C26.4611 63.2142 26.4436 63.0033 26.4084 62.9506C26.2502 62.7572 25.6878 62.7748 25.4769 62.7924C25.1781 62.8275 24.8794 62.8978 24.5982 62.9857C24.3697 63.0736 24.1236 63.1615 23.9127 63.2845L22.8934 63.882L23.4382 62.0542L23.5437 61.9839C24.0709 61.65 24.9145 61.5621 25.5297 61.5094C26.1975 61.4742 27.0235 61.5094 27.5157 62.0366C27.9023 62.4584 28.0429 62.9506 27.955 63.513C27.7793 64.585 27.6211 65.6923 27.4278 66.7644C27.4102 66.8171 27.3926 66.9929 27.4278 67.0456C27.4278 67.0456 27.4454 67.0456 27.4454 67.0632C27.7441 67.1335 27.9199 67.3619 27.9199 67.6607C27.9375 67.9068 27.832 68.1352 27.6563 68.311C27.4454 68.5219 27.1817 68.5922 26.9005 68.5043C26.6545 68.434 26.4611 68.2934 26.3205 68.1001L26.303 68.0825ZM36.4263 65.4111H33.8779L33.2803 68.5043H31.7864L33.087 61.6676L34.6336 61.4039L34.1239 64.0754H36.6723L37.1469 61.5445H38.6408L37.3051 68.5043H35.8112L36.4087 65.4111H36.4263ZM46.7957 63.2669C46.7781 63.2318 46.7254 63.1966 46.7078 63.1615C46.6375 63.0912 46.5672 63.0209 46.4969 62.9681C46.409 62.8978 46.2508 62.8451 46.1454 62.8275C45.9696 62.7748 45.7763 62.7572 45.583 62.7572C44.2824 62.7572 43.843 63.9348 43.6497 65.042C43.5794 65.4287 43.4388 66.2371 43.5091 66.6238C43.6146 67.2213 44.2297 67.3268 44.7394 67.3268C44.9151 67.3268 45.1085 67.2916 45.2666 67.2389C45.4424 67.1862 45.6006 67.1159 45.7587 67.0104C45.8993 66.9226 46.0224 66.8347 46.163 66.7292C46.2333 66.6765 46.3387 66.5886 46.409 66.5183L47.5866 65.2002L46.7781 67.8189L46.7078 67.8892C46.6375 67.9595 46.5496 68.0298 46.4793 68.0825C46.3036 68.2231 45.9696 68.3286 45.7587 68.4164C45.3721 68.557 44.9679 68.6098 44.5636 68.6098C44.2824 68.6098 44.0012 68.5922 43.72 68.5219C43.4915 68.4692 43.2806 68.3989 43.0697 68.311C42.8764 68.2055 42.7006 68.0825 42.56 67.9068C42.4546 67.7837 42.3491 67.6431 42.2613 67.485C42.1558 67.3092 42.1031 67.1159 42.0855 66.905C42.0679 66.7468 42.0328 66.5886 42.0328 66.4129C42.0152 66.2371 42.0328 66.0438 42.0504 65.8505C42.0679 65.6923 42.0855 65.5341 42.1031 65.3584C42.1207 65.2002 42.1558 65.0596 42.191 64.9014C42.2788 64.4269 42.4019 63.9699 42.6128 63.5305C42.7885 63.179 42.9994 62.8275 43.2631 62.5287C43.4915 62.2827 43.7552 62.0718 44.0539 61.896C44.3 61.7554 44.5812 61.6148 44.8624 61.5445C45.1085 61.4742 45.3721 61.4391 45.6181 61.4391C46.0048 61.4391 46.409 61.4742 46.7781 61.5797C47.0242 61.65 47.3581 61.7379 47.5514 61.8785L47.9381 62.1597L47.1999 64.0578L46.8484 63.3196C46.8308 63.2845 46.8133 63.2493 46.8133 63.2142L46.7957 63.2669ZM55.9524 62.7572H53.4918L52.4022 68.5043H50.9083L52.244 61.5445H57.6923L56.3566 68.5043H54.8627L55.9524 62.7572ZM66.972 65.0244C66.8842 65.4638 66.7787 65.8856 66.603 66.2898C66.4448 66.6941 66.2163 67.0632 65.9702 67.3971C65.689 67.7837 65.3024 68.0649 64.8806 68.2758C64.4061 68.5043 63.8964 68.5922 63.3691 68.5922C63.0176 68.5922 62.6661 68.5395 62.3322 68.3989C61.9982 68.2583 61.6995 68.0474 61.4534 67.7837C61.1371 67.4498 60.9789 67.0104 60.9086 66.571C60.8031 66.0086 60.8559 65.4287 60.9613 64.8838C61.1371 63.9172 61.5237 62.933 62.297 62.2827C62.9649 61.7379 63.7382 61.4567 64.5818 61.4567C65.4254 61.4567 66.1812 61.7203 66.6557 62.4584C67.1478 63.2142 67.1302 64.1632 66.972 65.0069V65.0244ZM71.7349 68.3989L71.278 70.754L69.7313 71L71.5064 61.6851L72.8773 61.4039L72.8422 61.6851C72.93 61.65 73.0179 61.6324 73.0882 61.6148C73.4397 61.527 73.7912 61.4918 74.1427 61.4918C74.9336 61.4918 75.6366 61.773 76.076 62.4409C76.5857 63.2142 76.4802 64.3566 76.3221 65.2353C76.1463 66.1492 75.7948 67.028 75.1269 67.6783C74.4942 68.311 73.6858 68.6098 72.7894 68.6098C72.4379 68.6098 72.0513 68.5746 71.7349 68.4164V68.3989ZM83.7564 62.7748L82.6667 68.5219H81.1728L82.2625 62.7748L80.2413 62.8275L80.4874 61.5621H86.006L85.76 62.8275L83.7564 62.7748ZM103.915 61.6148C104.302 61.4742 104.741 61.4391 105.145 61.4391C105.936 61.4391 106.657 61.7027 107.114 62.3706C107.624 63.1087 107.553 64.1632 107.395 65.0069C107.342 65.2529 107.29 65.4814 107.237 65.7099C107.149 66.0086 107.026 66.325 106.885 66.6062C106.727 66.9577 106.516 67.2741 106.27 67.5728C105.989 67.8716 105.638 68.1177 105.268 68.2934C104.829 68.5043 104.337 68.6098 103.845 68.6098C103.458 68.6098 103.072 68.557 102.72 68.4164C102.439 68.311 102.175 68.1528 101.964 67.9243C101.789 67.731 101.666 67.5025 101.595 67.2565C101.525 67.0456 101.49 66.8347 101.472 66.6238C101.472 66.448 101.49 66.2898 101.507 66.1141L102.333 61.7554C102.439 61.1579 102.738 60.6482 103.159 60.2264C103.581 59.787 104.091 59.5058 104.706 59.4531L107.131 59.1895L107.87 60.6658H107.307C106.534 60.6658 105.567 60.6482 104.812 60.7888C104.565 60.8239 104.372 60.9997 104.214 61.193C104.108 61.3336 104.003 61.4742 103.915 61.6324V61.6148ZM114.9 68.4164L114.742 68.4692C114.372 68.5746 113.968 68.6098 113.599 68.6098C113.248 68.6098 112.896 68.557 112.562 68.434C112.281 68.3286 112.035 68.188 111.824 67.9595C111.666 67.7837 111.525 67.5728 111.437 67.3444C111.349 67.1335 111.297 66.905 111.279 66.6765C111.262 66.4832 111.279 66.2898 111.314 66.0965L112.158 61.6676L113.705 61.4215L112.791 66.2547C112.773 66.3601 112.773 66.4656 112.791 66.571C112.808 66.6941 112.843 66.8171 112.914 66.9226C112.966 67.028 113.072 67.1159 113.195 67.1686C113.371 67.2565 113.582 67.2916 113.775 67.2916C114.109 67.2916 114.478 67.2741 114.812 67.2038C114.882 67.1862 115.075 67.1335 115.163 67.0983L116.218 61.5621H117.712L116.429 68.2407C116.358 68.557 116.288 68.891 116.165 69.2073C116.042 69.5061 115.866 69.7873 115.638 70.0334C115.374 70.3497 115.005 70.5431 114.618 70.6661C114.162 70.8067 113.652 70.8594 113.16 70.8594C112.72 70.8594 112.281 70.8067 111.859 70.6661C111.596 70.5782 111.226 70.4552 111.016 70.2618L110.629 69.9279L111.262 68.3989L111.631 68.8558C111.648 68.8734 111.666 68.9086 111.683 68.9261C111.736 68.9789 111.806 69.0316 111.859 69.0667C111.965 69.137 112.07 69.2073 112.176 69.2601C112.316 69.3304 112.509 69.3831 112.668 69.4182C112.879 69.471 113.107 69.4885 113.335 69.4885C113.687 69.4885 114.162 69.4534 114.46 69.2425C114.724 69.0667 114.829 68.7504 114.882 68.4692L114.9 68.4164ZM126.253 67.2213H126.622L126.359 69.7346H125.462L125.111 68.5043H121.807L120.981 69.7346H120.014L120.717 67.2213H121.192C121.174 66.8523 121.209 66.4832 121.279 66.1141C121.42 65.3759 121.666 64.6378 122.018 63.9699C122.035 63.882 122.07 63.8645 122.123 63.7766C122.176 63.6711 122.229 63.5833 122.281 63.4778C122.352 63.3548 122.422 63.2318 122.51 63.1087C122.598 62.9506 122.703 62.81 122.826 62.6693C122.949 62.5287 123.072 62.4057 123.195 62.2651C123.353 62.1245 123.512 61.9839 123.687 61.8785C123.863 61.773 124.056 61.6851 124.25 61.6148C124.636 61.4742 125.128 61.4567 125.533 61.4567C125.796 61.4567 126.06 61.4567 126.324 61.4742C126.499 61.4918 126.693 61.4918 126.851 61.527L127.343 61.6148L126.271 67.2038L126.253 67.2213ZM134.426 68.4164L134.268 68.4692C133.898 68.5746 133.494 68.6098 133.125 68.6098C132.774 68.6098 132.422 68.557 132.088 68.434C131.807 68.3286 131.561 68.188 131.35 67.9595C131.192 67.7837 131.051 67.5728 130.963 67.3444C130.876 67.1335 130.823 66.905 130.805 66.6765C130.788 66.4832 130.805 66.2898 130.84 66.0965L131.684 61.6676L133.231 61.4215L132.317 66.2547C132.299 66.3601 132.299 66.4656 132.317 66.571C132.334 66.6941 132.369 66.8171 132.44 66.9226C132.492 67.028 132.598 67.1159 132.721 67.1686C132.897 67.2565 133.108 67.2916 133.301 67.2916C133.635 67.2916 134.004 67.2741 134.338 67.2038C134.408 67.1862 134.602 67.1335 134.689 67.0983L135.744 61.5621H137.238L135.955 68.2407C135.885 68.557 135.814 68.891 135.691 69.2073C135.568 69.5061 135.392 69.7873 135.164 70.0334C134.9 70.3497 134.531 70.5431 134.145 70.6661C133.688 70.8067 133.178 70.8594 132.686 70.8594C132.246 70.8594 131.807 70.8067 131.385 70.6661C131.122 70.5782 130.753 70.4552 130.542 70.2618L130.155 69.9279L130.788 68.3989L131.157 68.8558C131.174 68.8734 131.192 68.9086 131.209 68.9261C131.262 68.9789 131.333 69.0316 131.385 69.0667C131.491 69.137 131.596 69.2073 131.702 69.2601C131.842 69.3304 132.036 69.3831 132.194 69.4182C132.405 69.471 132.633 69.4885 132.862 69.4885C133.213 69.4885 133.688 69.4534 133.986 69.2425C134.25 69.0667 134.355 68.7504 134.408 68.4692L134.426 68.4164ZM148.205 67.2213H148.996L148.521 69.2952H147.185L147.273 68.5219H142.37C141.878 68.5219 141.438 68.3813 141.087 68.0298C140.718 67.6607 140.63 67.1686 140.735 66.6589L141.684 61.6676L143.301 61.4039L142.194 66.782C142.176 66.8874 142.212 66.9929 142.264 67.0807C142.299 67.1335 142.352 67.2038 142.422 67.2038H143.635L144.69 61.65L146.254 61.3864L145.147 67.2038H146.676L147.765 61.527H149.259L148.17 67.2038L148.205 67.2213ZM158.592 65.3935L158.732 65.2353L157.766 67.8716L157.678 67.9419C157.59 68.0122 157.484 68.0825 157.379 68.1352C157.151 68.2583 156.781 68.3637 156.535 68.434C156.096 68.557 155.657 68.6098 155.2 68.6098C154.778 68.6098 154.321 68.5395 153.952 68.3461C153.635 68.188 153.372 67.9595 153.179 67.6607C153.003 67.3795 152.915 67.0456 152.88 66.7292C152.845 66.4304 152.827 66.1141 152.862 65.7977C152.897 65.499 152.932 65.2178 152.985 64.919C153.091 64.3741 153.249 63.8293 153.477 63.3196C153.671 62.9154 153.934 62.5287 154.286 62.23C154.567 61.9839 154.901 61.7906 155.252 61.6676C155.604 61.5445 155.973 61.4918 156.324 61.4742C157.08 61.4567 157.906 61.5797 158.451 62.1597C159.014 62.7396 159.084 63.5657 158.873 64.3214L158.574 65.4111L158.592 65.3935ZM154.391 65.4638C154.251 66.3074 154.268 67.3092 155.375 67.3092C155.639 67.3092 155.885 67.2741 156.149 67.2213C156.36 67.1686 156.571 67.0983 156.764 67.0104C156.922 66.9401 157.08 66.8523 157.221 66.7468C157.309 66.6941 157.432 66.6238 157.484 66.5535L158.574 65.4287L154.391 65.4814V65.4638ZM167.186 62.9857C166.993 62.933 166.659 62.9154 166.465 62.8978C165.921 62.8451 165.358 62.8275 164.813 62.8275L163.724 68.5043H162.23L163.565 61.5445H167.748L167.819 63.759L167.204 62.9857H167.186ZM176.782 65.0069C176.694 65.4462 176.589 65.868 176.413 66.2723C176.255 66.6765 176.026 67.0456 175.78 67.3795C175.499 67.7662 175.112 68.0474 174.691 68.2583C174.216 68.4867 173.706 68.5746 173.179 68.5746C172.828 68.5746 172.476 68.5219 172.142 68.3813C171.808 68.2407 171.509 68.0298 171.263 67.7662C170.947 67.4322 170.789 66.9929 170.719 66.5535C170.613 65.9911 170.666 65.4111 170.771 64.8663C170.947 63.8996 171.334 62.9154 172.107 62.2651C172.775 61.7203 173.548 61.4391 174.392 61.4391C175.235 61.4391 175.991 61.7027 176.466 62.4409C176.958 63.1966 176.94 64.1457 176.782 64.9893V65.0069ZM14.9142 62.9681L14.1409 66.9929C14.2112 67.0456 14.4045 67.1335 14.4924 67.151C14.6857 67.2389 14.8966 67.2741 15.1251 67.2741C15.6172 67.2741 16.0039 67.0807 16.3202 66.7117C16.7245 66.2547 16.9354 65.6396 17.0408 65.0596C17.076 64.8838 17.1111 64.6905 17.1287 64.5147C17.1463 64.3038 17.1463 64.0754 17.1463 63.8645C17.1463 63.6536 17.1111 63.4427 17.0584 63.2493C17.0057 63.1087 16.9178 62.9857 16.7948 62.8803C16.6542 62.7748 16.4784 62.7396 16.3027 62.7396C16.0215 62.7396 15.7227 62.7572 15.4415 62.81C15.3009 62.8451 15.0724 62.8803 14.9494 62.9506L14.9142 62.9681ZM26.0218 66.2195L26.1975 65.0947H26.1799C26.0745 65.1123 25.9515 65.1123 25.846 65.1299C25.6703 65.1475 25.4945 65.165 25.3363 65.2002C25.1606 65.2353 24.9848 65.2529 24.8266 65.2881C24.6509 65.3232 24.4927 65.3584 24.317 65.4111C24.2115 65.4462 24.0885 65.499 24.0006 65.5517C23.8249 65.6571 23.614 65.8329 23.5085 66.0086C23.403 66.1668 23.3503 66.3777 23.3152 66.5535C23.2976 66.6414 23.28 66.7468 23.2976 66.8347C23.3152 66.905 23.3503 66.9929 23.3855 67.0456C23.4382 67.1159 23.5964 67.1686 23.6843 67.1862C23.9479 67.2565 24.2642 67.2741 24.5454 67.2741C24.7915 67.2741 25.0551 67.2565 25.2836 67.1686C25.4242 67.1159 25.5824 67.0632 25.6878 66.9577C25.7581 66.8874 25.846 66.7995 25.8987 66.6941C25.9339 66.6238 25.969 66.5535 25.969 66.4832L26.0218 66.202V66.2195ZM63.5449 67.2916C63.7909 67.2916 64.0194 67.2565 64.2479 67.151C64.4236 67.0632 64.617 66.9577 64.74 66.7995C64.8806 66.6414 65.0036 66.448 65.0915 66.2371C65.1969 66.0262 65.2848 65.7977 65.3375 65.5868C65.4078 65.3584 65.4606 65.1123 65.4957 64.8838C65.5484 64.6026 65.5836 64.3038 65.5836 64.0226C65.5836 63.7766 65.5484 63.5481 65.4781 63.3196C65.4254 63.1439 65.32 63.0033 65.1618 62.8978C64.986 62.7748 64.74 62.7396 64.5291 62.7396C64.2303 62.7396 63.9315 62.7924 63.6679 62.933C63.4218 63.056 63.2109 63.2318 63.0528 63.4602C62.8946 63.6887 62.754 63.9348 62.6485 64.1984C62.5431 64.462 62.4728 64.7257 62.4201 64.9893C62.3498 65.3759 62.297 65.7977 62.3498 66.202C62.3849 66.4129 62.4376 66.6941 62.5782 66.8523C62.6837 66.9929 62.8243 67.0983 63 67.1686C63.1758 67.2389 63.3515 67.2741 63.5449 67.2741V67.2916ZM72.7719 62.9681L71.9986 66.9929C72.0689 67.0456 72.2622 67.1335 72.3501 67.151C72.5434 67.2389 72.7543 67.2741 72.9828 67.2741C73.4749 67.2741 73.8615 67.0807 74.1779 66.7117C74.5821 66.2547 74.793 65.6396 74.8985 65.0596C74.9336 64.8838 74.9688 64.6905 74.9863 64.5147C75.0039 64.3038 75.0039 64.0754 75.0039 63.8645C75.0039 63.6536 74.9688 63.4427 74.916 63.2493C74.8633 63.1087 74.7754 62.9857 74.6524 62.8803C74.5118 62.7748 74.3361 62.7396 74.1603 62.7396C73.8791 62.7396 73.5803 62.7572 73.2991 62.81C73.1585 62.8451 72.93 62.8803 72.807 62.9506L72.7719 62.9681ZM103.616 63.0209L103.001 66.2547C102.949 66.5183 103.036 66.7468 103.177 66.9577C103.37 67.2213 103.704 67.2741 104.003 67.2741C104.284 67.2741 104.565 67.2038 104.812 67.0456C105.058 66.8874 105.251 66.6941 105.391 66.4304C105.55 66.1668 105.673 65.9032 105.778 65.622C105.866 65.3584 105.936 65.0947 105.989 64.8311C106.042 64.5499 106.077 64.2511 106.077 63.9699C106.077 63.7239 106.042 63.4954 105.971 63.2669C105.919 63.0912 105.813 62.9506 105.655 62.8451C105.462 62.7221 105.198 62.6869 104.97 62.6869C104.671 62.6869 104.355 62.7045 104.073 62.7924C103.985 62.81 103.722 62.8978 103.669 62.9506L103.616 63.0033V63.0209ZM122.562 67.2038H124.759L125.603 62.7572H125.445C125.023 62.7396 124.619 62.8275 124.302 63.1263C123.898 63.513 123.564 64.0929 123.301 64.585C122.967 65.2353 122.756 65.9735 122.615 66.7117C122.58 66.8874 122.562 67.0456 122.545 67.2213L122.562 67.2038ZM154.672 64.1105L157.502 64.0578C157.555 63.7239 157.555 63.3372 157.397 63.0736C157.221 62.7748 156.623 62.7396 156.307 62.7396C155.358 62.7396 154.901 63.3196 154.672 64.1105ZM173.355 67.2916C173.601 67.2916 173.829 67.2565 174.058 67.151C174.234 67.0632 174.427 66.9577 174.55 66.7995C174.691 66.6414 174.814 66.448 174.902 66.2371C175.007 66.0262 175.095 65.7977 175.148 65.5868C175.218 65.3584 175.271 65.1123 175.306 64.8838C175.358 64.6026 175.394 64.3038 175.394 64.0226C175.394 63.7766 175.358 63.5481 175.288 63.3196C175.235 63.1439 175.13 63.0033 174.972 62.8978C174.796 62.7748 174.55 62.7396 174.339 62.7396C174.04 62.7396 173.742 62.7924 173.478 62.933C173.232 63.056 173.021 63.2318 172.863 63.4602C172.705 63.6887 172.564 63.9348 172.459 64.1984C172.353 64.462 172.283 64.7257 172.23 64.9893C172.16 65.3759 172.107 65.7977 172.16 66.202C172.195 66.4129 172.248 66.6941 172.388 66.8523C172.494 66.9929 172.634 67.0983 172.81 67.1686C172.986 67.2389 173.162 67.2741 173.355 67.2741V67.2916Z" fill="white"/>
<path d="M4.5449 61.9135H9.34294L9.23749 62.4584L7.23391 62.4057L6.14425 68.1528H5.37094L6.4606 62.4057L4.43945 62.4584L4.5449 61.9135ZM16.2852 61.8257C17.0409 61.8257 17.5857 62.0893 17.9372 62.6166C18.2887 63.1438 18.3415 63.9874 18.1306 65.1474C17.9548 66.114 17.5857 66.8698 17.0409 67.4146C16.4961 67.9594 15.793 68.2406 14.9494 68.2406C14.3167 68.2406 13.8949 68.1 13.7192 67.8013H13.6489L13.1392 70.4551L12.3307 70.5781L13.9652 61.9839L14.6155 61.8432L14.5628 62.2826H14.6331C14.7385 62.142 14.967 62.0366 15.3185 61.9487C15.67 61.8608 15.9864 61.8257 16.3027 61.8257H16.2852ZM17.3572 65.1474C17.3924 64.9541 17.4275 64.7607 17.4451 64.5674C17.4627 64.3917 17.4627 64.1456 17.4627 63.8644C17.4627 63.5832 17.41 63.3371 17.3397 63.1438C17.2694 62.9505 17.1463 62.7747 16.953 62.6166C16.7597 62.476 16.5312 62.3881 16.2324 62.3881C15.8985 62.3881 15.5821 62.4232 15.3009 62.476C15.0197 62.5287 14.8264 62.599 14.721 62.6517L14.5628 62.7396L13.7192 67.1158L13.8598 67.2564C13.9301 67.3091 14.0707 67.397 14.2992 67.4849C14.5276 67.5728 14.7737 67.6255 15.0549 67.6255C15.6349 67.6255 16.127 67.397 16.5136 66.9401C16.9003 66.4831 17.1639 65.8856 17.3221 65.1122L17.3572 65.1474ZM27.586 63.425C27.3048 65.1825 27.1291 66.2722 27.0588 66.6764C26.9885 67.0807 27.0763 67.3091 27.34 67.3794C27.4806 67.4146 27.5509 67.5025 27.5509 67.6606C27.5509 67.8013 27.4981 67.9419 27.3927 68.0473C27.2872 68.1703 27.1466 68.1879 26.9885 68.1528C26.6721 68.0473 26.5139 67.8364 26.4964 67.5025H26.4261C26.2152 67.7309 26.0218 67.8891 25.8461 67.977C25.6879 68.0649 25.477 68.1352 25.2485 68.1703C25.2485 68.1703 25.1958 68.1703 25.0903 68.1879C25.0025 68.2055 24.8794 68.2055 24.7213 68.2231C24.5807 68.2406 24.4401 68.2406 24.3346 68.2406C22.6474 68.2758 21.9092 67.6782 22.1553 66.448C22.2432 65.991 22.4189 65.6219 22.665 65.3231C22.9286 65.0419 23.2977 64.7959 23.8074 64.6026C24.2467 64.4268 25.0376 64.2862 26.18 64.1808C26.5139 64.1456 26.7073 63.9699 26.76 63.6711C26.7951 63.5305 26.7951 63.4074 26.8127 63.2844C26.7951 63.0208 26.76 62.8275 26.6721 62.722C26.4788 62.476 26.057 62.3881 25.4243 62.4408C25.1079 62.476 24.7916 62.5463 24.4576 62.6517C24.1237 62.7747 23.8777 62.8802 23.7019 62.9681L23.4383 63.1087L23.7019 62.2475C24.0534 62.019 24.651 61.896 25.5121 61.8257C26.3382 61.7729 26.9182 61.9135 27.2169 62.2475C27.5333 62.5814 27.6388 62.9681 27.5509 63.425H27.586ZM24.5104 67.6431C24.8267 67.6431 25.1079 67.6079 25.354 67.52C25.6 67.4497 25.7758 67.3443 25.8988 67.2213C26.0218 67.0982 26.1097 66.9928 26.18 66.8873C26.2327 66.7819 26.2855 66.6764 26.303 66.571H26.3206L26.637 64.462H26.5667C26.4788 64.6201 26.3382 64.708 26.1449 64.7432C26.1097 64.7432 26.0043 64.7607 25.7934 64.7783C25.5825 64.7959 25.4067 64.831 25.2661 64.8486C25.1079 64.8662 24.9322 64.9013 24.7388 64.9365C24.5279 64.9716 24.3522 65.0244 24.194 65.0771C24.0358 65.1298 23.8952 65.2001 23.7898 65.2528C23.5086 65.4462 23.3152 65.6219 23.1922 65.7977C23.0868 65.9734 22.9989 66.2019 22.9462 66.4831C22.911 66.6237 22.911 66.7643 22.9286 66.8698C22.9462 66.9928 22.9989 67.0982 23.0692 67.2388C23.1571 67.3619 23.3152 67.4673 23.5613 67.5376C23.8074 67.6079 24.1237 67.6431 24.5104 67.6431ZM37.4457 61.896H38.219L37.0239 68.1528H36.2506L36.8482 65.0595H33.5968L32.9992 68.1528H32.2259L33.4034 61.9663L34.2119 61.8257L33.7198 64.4268H36.9712L37.4457 61.896ZM46.743 66.6061L46.4442 67.6079C46.3915 67.6606 46.3212 67.7134 46.2333 67.7837C46.1455 67.854 45.9346 67.9419 45.6182 68.0649C45.3019 68.1879 44.9328 68.2406 44.5461 68.2406C44.2649 68.2406 44.0013 68.2231 43.7904 68.1703C43.5619 68.1176 43.3686 68.0649 43.2104 67.977C43.0522 67.9067 42.9116 67.8013 42.8062 67.6606C42.7007 67.5376 42.6128 67.4146 42.5425 67.2916C42.4722 67.1685 42.4371 67.0279 42.4019 66.8522C42.3844 66.6764 42.3492 66.5183 42.3492 66.3952C42.3316 66.2722 42.3492 66.0965 42.3668 65.9031C42.3844 65.6922 42.4019 65.5516 42.4195 65.4462C42.4371 65.3407 42.4547 65.1825 42.5074 65.0068C42.5953 64.5323 42.7183 64.1105 42.8941 63.7238C43.0698 63.3371 43.2631 63.0384 43.474 62.8099C43.6849 62.5814 43.9134 62.3881 44.177 62.2475C44.4407 62.1069 44.6691 62.0014 44.8976 61.9311C45.1261 61.8784 45.3546 61.8432 45.5655 61.8432C45.9697 61.8432 46.3212 61.8784 46.6376 61.9663C46.9539 62.0542 47.1824 62.1245 47.3054 62.2123L47.4812 62.3354L47.1297 63.2317C47.1121 63.2141 47.1121 63.179 47.0945 63.1438C47.077 63.1087 47.0242 63.0384 46.9539 62.9505C46.8661 62.8626 46.7782 62.7747 46.6727 62.7044C46.5673 62.6341 46.4091 62.5638 46.2158 62.5111C46.0224 62.4584 45.794 62.4232 45.5479 62.4232C44.3352 62.4408 43.5619 63.302 43.2631 64.9892C43.1225 65.8152 43.0698 66.3952 43.1225 66.694C43.2456 67.3443 43.7728 67.6782 44.7043 67.6782C44.9152 67.6782 45.1261 67.6431 45.3546 67.5728C45.5655 67.5025 45.7588 67.4146 45.917 67.3091C46.0752 67.2037 46.2158 67.1158 46.3388 67.0104C46.4618 66.9049 46.5673 66.8346 46.62 66.7643L46.7254 66.6413L46.743 66.6061ZM52.5077 61.896H57.253L56.0579 68.1528H55.2846L56.3742 62.4057H53.1931L52.1035 68.1528H51.3302L52.5253 61.896H52.5077ZM66.6206 64.9541C66.5327 65.3934 66.4273 65.7801 66.2691 66.1492C66.1285 66.5007 65.9176 66.8522 65.6715 67.1861C65.4255 67.52 65.1091 67.7661 64.7049 67.9594C64.3007 68.1528 63.8613 68.2406 63.3516 68.2406C63.0353 68.2406 62.7365 68.1879 62.4553 68.0825C62.1741 67.977 61.928 67.8013 61.6995 67.5552C61.4711 67.3091 61.3129 66.9752 61.2426 66.5358C61.1547 66.0965 61.1723 65.5692 61.2953 64.9716C61.5062 63.8644 61.9104 63.0735 62.508 62.5814C63.1056 62.0893 63.791 61.8432 64.5819 61.8432C65.4079 61.8432 66.0055 62.1245 66.357 62.6869C66.7085 63.2493 66.7964 64.005 66.6206 64.9892V64.9541ZM63.5274 67.6431C63.8437 67.6431 64.1249 67.5903 64.371 67.4673C64.617 67.3443 64.8279 67.2037 64.9861 67.0455C65.1443 66.8698 65.2849 66.6589 65.4079 66.3952C65.5309 66.1316 65.6188 65.9031 65.6891 65.6922C65.7418 65.4813 65.8121 65.2353 65.8649 64.9541C65.9352 64.6201 65.9527 64.3038 65.9527 64.0226C65.9527 63.7414 65.9 63.4777 65.8297 63.2141C65.7418 62.9681 65.6012 62.7572 65.3728 62.6166C65.1619 62.476 64.8807 62.4057 64.5467 62.4057C64.1601 62.4057 63.8261 62.4935 63.5098 62.6517C63.211 62.8099 62.965 63.0208 62.7716 63.302C62.5783 63.5656 62.4377 63.8468 62.3322 64.1105C62.2268 64.3741 62.1389 64.6729 62.0862 64.9716C61.9807 65.4813 61.9632 65.9207 62.0159 66.2898C62.0686 66.6589 62.1741 66.9401 62.3322 67.1334C62.4904 67.3267 62.6838 67.4673 62.8771 67.5376C63.0704 67.6255 63.2989 67.6606 63.5625 67.6606L63.5274 67.6431ZM74.1428 61.8081C74.8985 61.8081 75.4434 62.0717 75.7949 62.599C76.1464 63.1262 76.1991 63.9699 75.9882 65.1298C75.8124 66.0965 75.4434 66.8522 74.8985 67.397C74.3537 67.9419 73.6507 68.2231 72.8071 68.2231C72.1744 68.2231 71.7526 68.0825 71.5768 67.7837H71.5065L70.9968 70.4375L70.1884 70.5606L71.8229 61.9663L72.4732 61.8257L72.4204 62.2651H72.4907C72.5962 62.1245 72.8247 62.019 73.1762 61.9311C73.5277 61.8432 73.844 61.8081 74.1604 61.8081H74.1428ZM75.2149 65.1298C75.25 64.9365 75.2852 64.7432 75.3028 64.5498C75.3203 64.3741 75.3203 64.128 75.3203 63.8468C75.3203 63.5656 75.2676 63.3196 75.1973 63.1262C75.127 62.9329 75.004 62.7572 74.8107 62.599C74.6173 62.4584 74.3889 62.3705 74.0901 62.3705C73.7561 62.3705 73.4398 62.4057 73.1586 62.4584C72.8774 62.5111 72.6841 62.5814 72.5786 62.6341L72.4204 62.722L71.5768 67.0982L71.7174 67.2388C71.7877 67.2916 71.9283 67.3794 72.1568 67.4673C72.3853 67.5552 72.6313 67.6079 72.9125 67.6079C73.4925 67.6079 73.9846 67.3794 74.3713 66.9225C74.7579 66.4655 75.0216 65.868 75.1797 65.0947L75.2149 65.1298ZM80.7687 61.8784H85.5667L85.4613 62.4232L83.4577 62.3705L82.368 68.1176H81.5947L82.6844 62.3705L80.6632 62.4232L80.7687 61.8784ZM107.026 64.9013C106.973 65.1474 106.921 65.3583 106.868 65.5868C106.815 65.7977 106.692 66.0789 106.534 66.4304C106.376 66.7819 106.182 67.0631 105.972 67.3091C105.761 67.5552 105.462 67.7661 105.093 67.9419C104.724 68.1176 104.302 68.2231 103.827 68.2231C103.441 68.2231 103.107 68.1703 102.826 68.0649C102.544 67.9594 102.351 67.8364 102.21 67.6782C102.07 67.52 101.982 67.3443 101.912 67.151C101.841 66.9401 101.806 66.7643 101.806 66.6237C101.806 66.4655 101.824 66.3249 101.841 66.1843L102.667 61.8257C102.755 61.316 103.001 60.8766 103.388 60.4724C103.775 60.0682 104.214 59.8572 104.724 59.7869L106.903 59.5409L107.272 60.2791C106.024 60.2791 105.181 60.3142 104.706 60.4021C104.425 60.4548 104.161 60.613 103.898 60.9118C103.652 61.2105 103.493 61.5093 103.441 61.7905L103.353 62.2651H103.423C103.739 61.9311 104.302 61.7554 105.11 61.7554C105.884 61.7554 106.428 62.019 106.78 62.5287C107.132 63.0384 107.202 63.8292 106.991 64.9013H107.026ZM103.986 67.6255C104.355 67.6255 104.689 67.5376 104.97 67.3443C105.269 67.1685 105.497 66.9225 105.673 66.6237C105.849 66.3249 105.989 66.0262 106.077 65.7625C106.182 65.4813 106.253 65.2001 106.305 64.9189C106.376 64.585 106.393 64.2686 106.393 63.9874C106.393 63.7062 106.341 63.4426 106.27 63.179C106.182 62.9153 106.042 62.722 105.813 62.5814C105.585 62.4408 105.304 62.3705 104.935 62.3705C104.548 62.3705 104.214 62.4057 103.933 62.4935C103.652 62.5814 103.476 62.6517 103.37 62.7396L103.247 62.8626L102.615 66.2019C102.544 66.5358 102.632 66.8698 102.861 67.1861C103.089 67.5025 103.458 67.6606 103.968 67.6606L103.986 67.6255ZM116.482 61.8784H117.255L116.06 68.1528C115.989 68.5043 115.902 68.803 115.814 69.0491C115.708 69.2951 115.568 69.5412 115.357 69.7697C115.146 69.9982 114.865 70.1915 114.496 70.2969C114.126 70.42 113.669 70.4727 113.142 70.4727C112.703 70.4727 112.299 70.42 111.947 70.2969C111.596 70.1739 111.35 70.0685 111.227 69.963L111.033 69.7873L111.35 69.0491C111.367 69.0667 111.385 69.1018 111.42 69.137C111.455 69.1721 111.525 69.2248 111.631 69.3127C111.736 69.4006 111.877 69.4709 112.017 69.5412C112.158 69.6115 112.351 69.6642 112.58 69.7169C112.808 69.7697 113.054 69.8048 113.318 69.8048C113.916 69.8048 114.355 69.6994 114.636 69.506C114.935 69.2951 115.111 68.9612 115.199 68.5043L115.339 67.7837H115.269C115.251 67.8188 115.199 67.854 115.146 67.9067C115.076 67.9594 114.9 68.0122 114.619 68.1C114.32 68.1879 113.968 68.2231 113.564 68.2231C113.213 68.2231 112.914 68.1703 112.65 68.0825C112.386 67.977 112.193 67.854 112.053 67.6958C111.912 67.5376 111.807 67.3619 111.719 67.1861C111.648 66.9928 111.596 66.817 111.596 66.6413C111.578 66.4655 111.596 66.3074 111.631 66.1492L112.422 61.9663L113.23 61.8432L112.404 66.1843C112.369 66.3249 112.369 66.4655 112.404 66.6237C112.422 66.7819 112.474 66.9401 112.562 67.0982C112.65 67.2564 112.791 67.397 112.984 67.5025C113.177 67.6079 113.441 67.6606 113.74 67.6606C114.197 67.6606 114.566 67.6255 114.847 67.5552C115.128 67.4849 115.304 67.4146 115.357 67.3619L115.445 67.2564L116.464 61.9135L116.482 61.8784ZM125.814 67.5552H126.236L126.042 69.3654H125.726L125.375 68.1352H121.613L120.787 69.3654H120.471L120.981 67.5552H121.578C121.508 67.1158 121.526 66.6413 121.613 66.1668C121.754 65.411 122 64.7256 122.334 64.0929C122.334 64.0929 122.369 64.0402 122.422 63.9347C122.475 63.8292 122.527 63.7414 122.58 63.6359C122.633 63.548 122.703 63.425 122.791 63.2844C122.879 63.1438 122.967 63.0032 123.072 62.8802C123.178 62.7572 123.283 62.6341 123.424 62.5111C123.547 62.3881 123.687 62.2651 123.863 62.1772C124.021 62.0717 124.179 62.0014 124.355 61.9487C124.601 61.8608 125.006 61.8081 125.515 61.8081C125.796 61.8081 126.042 61.8081 126.271 61.8257C126.499 61.8432 126.675 61.8608 126.763 61.8784L126.904 61.896L125.832 67.5552H125.814ZM122.984 64.4092C122.668 65.0244 122.422 65.7625 122.264 66.6237C122.211 66.9401 122.176 67.2388 122.193 67.5552H125.041L126.025 62.4232C125.832 62.4057 125.656 62.3881 125.462 62.3881C124.882 62.3705 124.408 62.5287 124.056 62.8626C123.705 63.1965 123.353 63.7062 122.984 64.4092ZM136.008 61.8784H136.781L135.586 68.1528C135.515 68.5043 135.428 68.803 135.34 69.0491C135.234 69.2951 135.094 69.5412 134.883 69.7697C134.672 69.9982 134.391 70.1915 134.022 70.2969C133.653 70.42 133.196 70.4727 132.668 70.4727C132.229 70.4727 131.825 70.42 131.473 70.2969C131.122 70.1739 130.876 70.0685 130.753 69.963L130.559 69.7873L130.876 69.0491C130.893 69.0667 130.911 69.1018 130.946 69.137C130.981 69.1721 131.051 69.2248 131.157 69.3127C131.262 69.4006 131.403 69.4709 131.543 69.5412C131.684 69.6115 131.877 69.6642 132.106 69.7169C132.334 69.7697 132.58 69.8048 132.844 69.8048C133.442 69.8048 133.881 69.6994 134.162 69.506C134.461 69.2951 134.637 68.9612 134.725 68.5043L134.865 67.7837H134.795C134.777 67.8188 134.725 67.854 134.672 67.9067C134.602 67.9594 134.426 68.0122 134.145 68.1C133.846 68.1879 133.494 68.2231 133.09 68.2231C132.739 68.2231 132.44 68.1703 132.176 68.0825C131.913 67.977 131.719 67.854 131.579 67.6958C131.438 67.5376 131.333 67.3619 131.245 67.1861C131.174 66.9928 131.122 66.817 131.122 66.6413C131.104 66.4655 131.122 66.3074 131.157 66.1492L131.948 61.9663L132.756 61.8432L131.93 66.1843C131.913 66.3249 131.895 66.4655 131.93 66.6237C131.948 66.7819 132 66.9401 132.088 67.0982C132.176 67.2564 132.317 67.397 132.51 67.5025C132.703 67.6079 132.967 67.6606 133.266 67.6606C133.723 67.6606 134.092 67.6255 134.373 67.5552C134.654 67.4849 134.83 67.4146 134.883 67.3619L134.971 67.2564L135.99 61.9135L136.008 61.8784ZM147.765 67.5552H148.539L148.222 68.9261H147.555L147.642 68.1528H142.352C141.93 68.1528 141.579 68.0297 141.315 67.7661C141.052 67.5025 140.964 67.151 141.052 66.7116L141.966 61.9663L142.844 61.8257L141.843 66.7116C141.807 66.9049 141.843 67.0982 141.966 67.274C142.089 67.4497 142.247 67.5552 142.423 67.5552H143.934L145.006 61.9487L145.832 61.8081L144.742 67.5376H146.992L148.082 61.8608H148.855L147.765 67.5376V67.5552ZM156.342 61.8081C157.203 61.7905 157.818 61.9663 158.205 62.3705C158.592 62.7747 158.697 63.3723 158.539 64.1808L158.311 65.0244L154.093 65.0771C153.776 66.7643 154.198 67.6079 155.358 67.6079C155.657 67.6079 155.938 67.5728 156.202 67.5025C156.483 67.4322 156.711 67.3619 156.905 67.2564C157.098 67.1685 157.256 67.0631 157.397 66.9752C157.537 66.8873 157.643 66.7995 157.731 66.7292L157.836 66.6237L157.485 67.6079C157.414 67.6606 157.326 67.7134 157.221 67.7661C157.098 67.8364 156.852 67.9243 156.448 68.0297C156.043 68.1352 155.639 68.1879 155.2 68.1879C154.76 68.1879 154.391 68.1176 154.11 67.9594C153.811 67.8013 153.6 67.6255 153.477 67.4146C153.354 67.2037 153.266 66.9401 153.231 66.6237C153.196 66.3074 153.179 66.0262 153.214 65.7801C153.231 65.534 153.284 65.2528 153.337 64.9365C153.442 64.3389 153.6 63.8468 153.811 63.425C154.022 63.0032 154.251 62.6869 154.532 62.4584C154.813 62.2299 155.094 62.0542 155.393 61.9663C155.692 61.8608 156.008 61.8081 156.36 61.8081H156.342ZM154.216 64.462L157.783 64.4092C157.924 63.7414 157.889 63.2493 157.695 62.8978C157.502 62.5638 157.028 62.3881 156.307 62.3881C155.182 62.3881 154.497 63.0735 154.216 64.462ZM167.397 61.8784L167.415 62.7044C167.397 62.6869 167.362 62.6693 167.309 62.6341C167.256 62.599 166.975 62.5638 166.483 62.5287C165.991 62.476 165.341 62.4584 164.515 62.4584L163.425 68.1352H162.652L163.847 61.8784H167.397ZM176.431 64.9365C176.343 65.3759 176.237 65.7625 176.079 66.1316C175.939 66.4831 175.728 66.8346 175.482 67.1685C175.236 67.5025 174.919 67.7485 174.515 67.9419C174.111 68.1352 173.671 68.2231 173.162 68.2231C172.845 68.2231 172.546 68.1703 172.265 68.0649C171.984 67.9594 171.738 67.7837 171.51 67.5376C171.281 67.2916 171.123 66.9576 171.053 66.5183C170.965 66.0789 170.982 65.5516 171.105 64.9541C171.316 63.8468 171.72 63.0559 172.318 62.5638C172.916 62.0717 173.601 61.8257 174.392 61.8257C175.218 61.8257 175.815 62.1069 176.167 62.6693C176.518 63.2317 176.606 63.9874 176.431 64.9716V64.9365ZM173.337 67.6255C173.654 67.6255 173.935 67.5728 174.181 67.4497C174.427 67.3267 174.638 67.1861 174.796 67.0279C174.954 66.8522 175.095 66.6413 175.218 66.3777C175.341 66.114 175.429 65.8856 175.499 65.6746C175.552 65.4637 175.622 65.2177 175.675 64.9365C175.745 64.6026 175.763 64.2862 175.763 64.005C175.763 63.7238 175.71 63.4602 175.64 63.1965C175.552 62.9505 175.411 62.7396 175.183 62.599C174.972 62.4584 174.691 62.3881 174.357 62.3881C173.97 62.3881 173.636 62.476 173.32 62.6341C173.021 62.7923 172.775 63.0032 172.582 63.2844C172.388 63.548 172.248 63.8292 172.142 64.0929C172.037 64.3565 171.949 64.6553 171.896 64.9541C171.791 65.4637 171.773 65.9031 171.826 66.2722C171.879 66.6413 171.984 66.9225 172.142 67.1158C172.3 67.3091 172.494 67.4497 172.687 67.52C172.88 67.6079 173.109 67.6431 173.373 67.6431L173.337 67.6255Z" fill="white"/>
</g>
<defs>
<filter id="filter0_d_366_418" x="0" y="0.716553" width="188" height="78.2834" filterUnits="userSpaceOnUse" color-interpolation-filters="sRGB">
<feFlood flood-opacity="0" result="BackgroundImageFix"/>
<feColorMatrix in="SourceAlpha" type="matrix" values="0 0 0 0 0 0 0 0 0 0 0 0 0 0 0 0 0 0 127 0" result="hardAlpha"/>
<feOffset dy="4"/>
<feGaussianBlur stdDeviation="2"/>
<feComposite in2="hardAlpha" operator="out"/>
<feColorMatrix type="matrix" values="0 0 0 0 0 0 0 0 0 0 0 0 0 0 0 0 0 0 0.25 0"/>
<feBlend mode="normal" in2="BackgroundImageFix" result="effect1_dropShadow_366_418"/>
<feBlend mode="normal" in="SourceGraphic" in2="effect1_dropShadow_366_418" result="shape"/>
</filter>
</defs>
</svg>
