<svg width="41" height="35" viewBox="0 0 41 35" fill="none" xmlns="http://www.w3.org/2000/svg">
<path d="M35.9467 2.76493C31.1975 4.74838 10.8335 13.254 5.207 15.5722C1.43358 17.057 3.64259 18.4493 3.64259 18.4493C3.64259 18.4493 6.86366 19.5628 9.62501 20.3981C12.386 21.2333 13.8585 20.3054 13.8585 20.3054L26.8354 11.4889C31.4372 8.33347 30.3329 10.9319 29.2282 12.0458C26.8354 14.459 22.8779 18.2636 19.5646 21.3264C18.092 22.6256 18.8281 23.7391 19.4727 24.2961C21.8655 26.3379 28.4002 30.5142 28.7681 30.7925C30.7123 32.1805 34.5367 34.1783 35.1183 29.9573L37.4192 15.3869C38.1557 10.4683 38.8918 5.92071 38.9836 4.6215C39.26 1.46572 35.9467 2.76493 35.9467 2.76493Z" fill="#1B92D1"/>
</svg>
