<svg width="41" height="35" viewBox="0 0 41 35" fill="none" xmlns="http://www.w3.org/2000/svg">
<path d="M35.2327 10.1163V15.5233C34.942 15.5233 34.5932 15.5814 34.2443 15.5814C31.628 15.5814 29.1862 14.5931 27.3257 13.0233V24.5349C27.3257 26.8605 26.5699 29.0698 25.2327 30.814C23.3722 33.314 20.349 35 16.9187 35C13.1978 35 9.94198 33.0233 8.13965 30.1163C10.0001 31.8605 12.5001 32.9652 15.2327 32.9652C18.6048 32.9652 21.628 31.3372 23.4885 28.7791C24.7676 27.0349 25.5815 24.8838 25.5815 22.5V10.9303C27.442 12.5582 29.8257 13.4884 32.5001 13.4884C32.849 13.4884 33.1397 13.4884 33.4885 13.4303V9.94189C34.0118 10.0582 34.4769 10.1163 35.0001 10.1163H35.2327Z" fill="#FF004F"/>
<path d="M18.3723 14.128V20.1163C17.9653 20.0001 17.5002 19.9419 17.0932 19.9419C14.5351 19.9419 12.442 22.0931 12.442 24.7094C12.442 25.2908 12.5583 25.814 12.7327 26.3373C11.5699 25.4652 10.756 24.0698 10.756 22.5001C10.756 19.8838 12.849 17.7326 15.4071 17.7326C15.8723 17.7326 16.2792 17.7908 16.6862 17.907V14.0698C16.8025 14.0698 16.9188 14.0698 17.0351 14.0698C17.5002 14.0698 17.9653 14.0698 18.3723 14.128Z" fill="#FF004F"/>
<path d="M28.1978 5.81409C27.1513 4.88386 26.3955 3.60479 25.9885 2.26758H27.3839C27.3839 2.55828 27.3839 2.79083 27.3839 3.08153C27.5002 4.01176 27.7909 4.942 28.1978 5.81409Z" fill="#FF004F"/>
<path d="M33.5466 10.0001V13.4885C33.2559 13.5466 32.907 13.5466 32.5582 13.5466C29.9419 13.5466 27.5 12.5583 25.6396 10.9885V22.5001C25.6396 24.8257 24.8838 27.035 23.5466 28.7792C21.6279 31.3373 18.6628 32.9653 15.2907 32.9653C12.5582 32.9653 10.0582 31.8606 8.1977 30.1164C7.20933 28.4885 6.62793 26.628 6.62793 24.5932C6.62793 18.9536 11.1047 14.3606 16.6861 14.1862V18.0234C16.2791 17.9071 15.814 17.849 15.407 17.849C12.8489 17.849 10.7558 20.0001 10.7558 22.6164C10.7558 24.1862 11.5117 25.6397 12.7326 26.4536C13.3721 28.2559 15.1163 29.5932 17.0931 29.5932C19.6512 29.5932 21.7442 27.442 21.7442 24.8257V2.26758H25.9884C26.3954 3.66293 27.1512 4.88386 28.1977 5.81409C29.2442 7.90711 31.221 9.47688 33.5466 10.0001Z" fill="black"/>
<path d="M16.6861 12.0928V14.0696C11.1047 14.244 6.62791 18.837 6.62791 24.4766C6.62791 26.5114 7.2093 28.3719 8.19768 29.9998C6.22093 28.0812 5 25.4068 5 22.3835C5 16.6277 9.65117 11.9766 15.3488 11.9766C15.814 11.9766 16.2791 12.0347 16.6861 12.0928Z" fill="#00F7EF"/>
<path d="M25.9884 2.26744H21.7442V24.7093C21.7442 27.3256 19.6512 29.4767 17.093 29.4767C15.0581 29.4767 13.3721 28.1977 12.7325 26.3372C13.4884 26.8605 14.4186 27.2093 15.407 27.2093C17.9651 27.2093 20.0581 25.1163 20.0581 22.5V0H25.6977V0.116279C25.6977 0.348837 25.6977 0.581395 25.7558 0.813954C25.7558 1.27907 25.8721 1.80233 25.9884 2.26744Z" fill="#00F7EF"/>
<path d="M33.5466 7.84885V9.94187C31.221 9.47676 29.2443 7.90699 28.1396 5.81396C29.5931 7.15117 31.4536 7.90699 33.5466 7.84885Z" fill="#00F7EF"/>
</svg>
