<svg width="36" height="35" viewBox="0 0 36 35" fill="none" xmlns="http://www.w3.org/2000/svg">
<path fill-rule="evenodd" clip-rule="evenodd" d="M13.1093 8.88918C12.77 8.07652 12.5127 8.04562 11.9986 8.02484C11.8236 8.01473 11.6286 8.00461 11.4123 8.00461C10.7435 8.00461 10.0443 8.20012 9.62242 8.63215C9.10836 9.15687 7.83277 10.3811 7.83277 12.8912C7.83277 15.4016 9.66344 17.8295 9.91035 18.1694C10.1677 18.5084 13.4795 23.7349 18.6221 25.865C22.6435 27.5316 23.8368 27.3771 24.752 27.1819C26.0891 26.8939 27.7655 25.9057 28.1875 24.7127C28.6091 23.5192 28.6091 22.5006 28.4855 22.2846C28.3622 22.0686 28.0226 21.9455 27.5085 21.688C26.9945 21.4307 24.495 20.1961 24.0219 20.0315C23.559 19.8568 23.1168 19.9186 22.7674 20.4124C22.2736 21.1017 21.7904 21.8014 21.3994 22.2231C21.0909 22.5523 20.5867 22.5936 20.1651 22.4186C19.5993 22.1823 18.0156 21.6262 16.0613 19.8877C14.5492 18.5402 13.5208 16.8634 13.2228 16.3592C12.9245 15.8449 13.1919 15.5463 13.4284 15.2688C13.6857 14.9496 13.9323 14.7235 14.1894 14.4249C14.4467 14.1266 14.5905 13.9724 14.7551 13.6224C14.9301 13.283 14.8065 12.933 14.6832 12.6757C14.5596 12.4179 13.5312 9.90746 13.1093 8.88918ZM17.9948 0C8.34738 0 0.5 7.84957 0.5 17.4997C0.5 21.3268 1.7343 24.8763 3.83238 27.7569L1.65172 34.259L8.37828 32.1092C11.1449 33.9404 14.4464 35 18.0052 35C27.6526 35 35.5 27.1499 35.5 17.5003C35.5 7.85012 27.6526 0.000546875 18.0052 0.000546875H17.9951L17.9948 0Z" fill="#67C15E"/>
</svg>
